<?xml version="1.0" encoding="utf-8"?>
<!-- Generator: Adobe Illustrator 21.1.0, SVG Export Plug-In . SVG Version: 6.00 Build 0)  -->
<svg version="1.1" xmlns="http://www.w3.org/2000/svg" xmlns:xlink="http://www.w3.org/1999/xlink" x="0px" y="0px"
	 viewBox="0 0 181.6 185" style="enable-background:new 0 0 181.6 185;" xml:space="preserve">
<style type="text/css">
	.st0{fill:#74C4F0;}
	.st1{display:none;}
	.st2{display:inline;fill:#8E8E8E;}
	.st3{fill:#FECC00;}
	.st4{fill:#FFFFFF;}
	.st5{fill:#FCCC12;}
</style>
<g id="Слой_2">
</g>
<g id="Слой_3" class="st1">
	<rect x="-242.4" y="-5.3" class="st2" width="869.9" height="204.7"/>
</g>
<g id="Слой_1">
	<circle class="st4" cx="87.5" cy="97.1" r="79.2"/>
	<g>
		<path class="st3" d="M138.5,58.8l-15.6-9.9H39.6v20h84.3L138.5,58.8z M50.9,64.9h-7.3v-12h7.3V64.9z M57.5,64.9h-2.7v-12h2.7V64.9
			z M118.5,64.9h-57v-12h57V64.9z M122.5,64.9V53.4l8.7,5.5L122.5,64.9L122.5,64.9z"/>
		<path class="st3" d="M78.9,125.9c-2.3,0-4.4,0.7-6.2,1.8l-2.7-5.9c6.7-1.5,13-6.3,16.2-10.8c5.5-7.8,5.9-25.7,0.8-35.4L85,71.9
			l-18.9,41.5L46.8,71.8L45,75.7c-0.3,0.7-7.3,16.1-3.1,28.1c3.7,10.5,12.5,16.8,20.3,18.2l-2.5,5.4c-1.7-1-3.7-1.6-5.8-1.6
			c-6.4,0-11.6,5.2-11.6,11.6s5.2,11.6,11.6,11.6s11.6-5.2,11.6-11.6c0-2.8-1-5.4-2.7-7.4l3.2-7.1l3.5,7.5c-1.5,1.9-2.4,4.4-2.4,7
			c0,6.4,5.2,11.6,11.6,11.6s11.6-5.2,11.6-11.6S85.3,125.9,78.9,125.9z M53.9,145.1c-4.2,0-7.6-3.4-7.6-7.6s3.4-7.6,7.6-7.6
			s7.6,3.4,7.6,7.6S58.1,145.1,53.9,145.1z M63.9,118.2c-6.8-0.8-14.8-6.2-18.2-15.7c-2.4-6.9-0.4-15.7,1.3-20.8L63.9,118.2
			L63.9,118.2z M68.4,118L85,81.6c2.6,8.8,1.8,21.4-2.2,27.1C80,112.8,74.2,116.9,68.4,118z M78.9,145.1c-4.2,0-7.6-3.4-7.6-7.6
			s3.4-7.6,7.6-7.6s7.6,3.4,7.6,7.6S83.1,145.1,78.9,145.1z"/>
		<path class="st3" d="M127.2,101.2H126v-13h-3.7l-1.8-16.5h-11l-2.5,16.5h-3v13h-0.1c-5.3,0-9.6,4.3-9.6,9.6v28.7
			c0,5.3,4.3,9.6,9.6,9.6h23.3c5.3,0,9.6-4.3,9.6-9.6v-28.7C136.8,105.5,132.5,101.2,127.2,101.2z M113,75.6h4l1.3,12.5h-7.2
			L113,75.6z M108,92.1h14v9h-14V92.1z M132.8,139.5c0,3.1-2.5,5.6-5.6,5.6h-23.3c-3.1,0-5.6-2.5-5.6-5.6v-28.7
			c0-3.1,2.5-5.6,5.6-5.6h0.1h22h1.2c3.1,0,5.6,2.5,5.6,5.6V139.5z"/>
	</g>
</g>
</svg>
