<?xml version="1.0" encoding="utf-8"?>
<!-- Generator: Adobe Illustrator 21.1.0, SVG Export Plug-In . SVG Version: 6.00 Build 0)  -->
<svg version="1.1" xmlns="http://www.w3.org/2000/svg" xmlns:xlink="http://www.w3.org/1999/xlink" x="0px" y="0px"
	 viewBox="0 0 283.5 283.5" style="enable-background:new 0 0 283.5 283.5;" xml:space="preserve">
<style type="text/css">
	.st0{display:none;}
	.st1{display:inline;fill:#FFED17;}
	.st2{display:inline;}
	.st3{fill:#FFED17;}
	.st4{fill:none;}
</style>
<g id="Слой_2" class="st0">
	<path class="st1" d="M228,102.5c-7.9-1.6-9,2.2-12.2-1.1s9.8-6.5,12-21.8s-9.8-18.5-17.4-18.5S200,71,193.7,72.6
		c-6.3,1.6-2.9-4.4-2.9-4.4s11.4-19.6-10.9-19.6s-24.5,32.6-24.5,32.6s1.1-26.6-19.6-26.1s-21.2,37.5-21.2,37.5s0.5,46.8-3.3,52.7
		c-3.8,6-7.1,0.5-7.1,0.5s-16.9-29.9-28.8-29.4c-12,0.5-9.8,22.3-6,31.5s14.1,22.8,13.6,31.5c-0.5,8.7-8.2,9.8-12.5,7.6
		c-4.4-2.2-9.2-3.8-13.5,3.8c-4.2,7.6,8.2,14.1,7.5,19c-0.9,6.1-5.4,3.3-13.1,7.1c-7.6,3.8,3.8,15.2,3.8,15.2l3,2.5l-8,9.1l5.4,1.3
		l6.3-7.3c0,0,24.3,4.3,33.6-2.8c9.2-7.1,0.5-6.5,0.5-12c0-5.4,8.2-4.9,8.2-4.9s41.3,2.2,46.2-7.1s-2.7-11.4-2.7-11.4
		s-10.3-1.1-6.1-7.6c2.7-4.1,8.2-2.2,12-0.2c4.1,2.1,8.7,3.3,13.3,3.7c9,0.7,21.8,0.3,24.9-7.2c4.9-12-7.1-13.6-11.4-18.5
		s4.4-7.6,4.4-7.6s40.2-3.3,39.2-16.9c-1.1-13.6-11.4-6.5-11.4-10.9c0.1-4.4,11.9-4.9,17.9-13.6C236.5,112.3,235.9,104.2,228,102.5z
		"/>
</g>
<g id="Слой_14" class="st0">
	<g class="st2">
		<path class="st3" d="M189,54.4c-0.9,0-1.9,0-2.9,0h-57.6c-2.1,0-4,0-5.7,0C102.1,54.4,99.4,75,99.4,75v16
			c-7.9,1-14.1,7.7-14.1,15.8c0,1.2,0.2,2.4,0.4,3.6c-22.3,8.2-37.7,25.9-37.7,46.5h131.3c0-20.3-15.1-37.9-37-46.2
			c0.3-1.2,0.5-2.5,0.5-3.9c0-8.8-7.2-16-16-16h-3.5c0.2-1.8-0.2-5,0.2-7.9c0.7-4.6,6.1-4.9,9.8-5.1h52.8c0.7,0,1.4-0.1,2-0.2
			c4.5,18.9,21.5,33,41.8,33v-86C210.7,24.5,194.5,37,189,54.4z"/>
		<path class="st3" d="M177.9,163.7h-131c-4.9,0-9,4-9,9c0,4.9,4,9,9,9h131c4.9,0,9-4,9-9C186.9,167.7,182.9,163.7,177.9,163.7z"/>
		<path class="st3" d="M61.6,208.5l-0.1-0.2c-0.1-0.3-0.3-0.5-0.5-0.8l-4.3-7.2c-0.8-1.3-2.6-1.3-3.4,0l-4.3,7.1
			c-0.2,0.3-0.4,0.6-0.6,1l0,0h0c-0.5,1-0.8,2.1-0.8,3.3c0,4.1,3.3,7.3,7.3,7.3s7.3-3.3,7.3-7.3C62.4,210.6,62.1,209.5,61.6,208.5
			L61.6,208.5z"/>
		<path class="st3" d="M100.4,208.5l-0.1-0.2c-0.1-0.3-0.3-0.5-0.5-0.8l-4.3-7.2c-0.8-1.3-2.6-1.3-3.4,0l-4.3,7.1
			c-0.2,0.3-0.4,0.6-0.6,1l0,0h0c-0.5,1-0.8,2.1-0.8,3.3c0,4.1,3.3,7.3,7.3,7.3c4.1,0,7.3-3.3,7.3-7.3
			C101.2,210.6,100.9,209.5,100.4,208.5L100.4,208.5z"/>
		<path class="st3" d="M139.9,208.5l-0.1-0.2c-0.1-0.3-0.3-0.5-0.5-0.8l-4.3-7.2c-0.8-1.3-2.6-1.3-3.4,0l-4.3,7.1
			c-0.2,0.3-0.4,0.6-0.6,1l0,0h0c-0.5,1-0.8,2.1-0.8,3.3c0,4.1,3.3,7.3,7.3,7.3c4.1,0,7.3-3.3,7.3-7.3
			C140.7,210.6,140.4,209.5,139.9,208.5L139.9,208.5z"/>
		<path class="st3" d="M179.6,208.5l-0.1-0.2c-0.1-0.3-0.3-0.5-0.5-0.8l-4.3-7.2c-0.8-1.3-2.6-1.3-3.4,0l-4.3,7.1
			c-0.2,0.3-0.4,0.6-0.6,1l0,0h0c-0.5,1-0.8,2.1-0.8,3.3c0,4.1,3.3,7.3,7.3,7.3s7.3-3.3,7.3-7.3
			C180.4,210.6,180.1,209.5,179.6,208.5L179.6,208.5z"/>
		<path class="st3" d="M61.6,248.4l-0.1-0.2c-0.1-0.3-0.3-0.5-0.5-0.8l-4.3-7.2c-0.8-1.3-2.6-1.3-3.4,0l-4.3,7.1
			c-0.2,0.3-0.4,0.6-0.6,1l0,0h0c-0.5,1-0.8,2.1-0.8,3.3c0,4.1,3.3,7.3,7.3,7.3s7.3-3.3,7.3-7.3C62.4,250.5,62.1,249.4,61.6,248.4
			L61.6,248.4z"/>
		<path class="st3" d="M100.4,248.4l-0.1-0.2c-0.1-0.3-0.3-0.5-0.5-0.8l-4.3-7.2c-0.8-1.3-2.6-1.3-3.4,0l-4.3,7.1
			c-0.2,0.3-0.4,0.6-0.6,1l0,0h0c-0.5,1-0.8,2.1-0.8,3.3c0,4.1,3.3,7.3,7.3,7.3c4.1,0,7.3-3.3,7.3-7.3
			C101.2,250.5,100.9,249.4,100.4,248.4L100.4,248.4z"/>
		<path class="st3" d="M139.9,248.4l-0.1-0.2c-0.1-0.3-0.3-0.5-0.5-0.8l-4.3-7.2c-0.8-1.3-2.6-1.3-3.4,0l-4.3,7.1
			c-0.2,0.3-0.4,0.6-0.6,1l0,0h0c-0.5,1-0.8,2.1-0.8,3.3c0,4.1,3.3,7.3,7.3,7.3c4.1,0,7.3-3.3,7.3-7.3
			C140.7,250.5,140.4,249.4,139.9,248.4L139.9,248.4z"/>
		<path class="st3" d="M179.6,248.4l-0.1-0.2c-0.1-0.3-0.3-0.5-0.5-0.8l-4.3-7.2c-0.8-1.3-2.6-1.3-3.4,0l-4.3,7.1
			c-0.2,0.3-0.4,0.6-0.6,1l0,0h0c-0.5,1-0.8,2.1-0.8,3.3c0,4.1,3.3,7.3,7.3,7.3s7.3-3.3,7.3-7.3
			C180.4,250.5,180.1,249.4,179.6,248.4L179.6,248.4z"/>
	</g>
</g>
<g id="Слой_13" class="st0">
	<g class="st2">
		<path class="st3" d="M144.7,49.4L28.3,80.6v147.1l116.6,49.2l116.6-49.2V75.9L144.7,49.4z M239.8,211l-26.2-9.9v-86.8l-37.7-9.4
			v81.9l-21-8V74l84.9,19.2V211z M131.6,75.4v103.7L50,212.3v-115L131.6,75.4z"/>
		<polygon class="st3" points="112.1,107.8 70.7,119.4 70.7,174.5 112.1,159.2 		"/>
	</g>
</g>
<g id="Слой_12" class="st0">
	<g class="st2">
		<path class="st3" d="M228.5,223.1l-5.5-1.2l4.5-1.2c6.2-1.6,9.9-8,8.3-14.1l-3.5-13.3c-1.6-6.2-8-9.9-14.1-8.3l-74.6,19.4
			l-75.1-16.7c-6.2-1.4-12.5,2.6-13.8,8.8l-3,13.4c-1.4,6.2,2.6,12.5,8.8,13.8l4.5,1l-5.4,1.4c-6.2,1.6-9.9,8-8.3,14.1l3.5,13.3
			c1.6,6.2,8,9.9,14.1,8.3l75.4-19.6l76.1,16.9c6.2,1.4,12.5-2.6,13.8-8.8l3-13.4C238.7,230.7,234.8,224.5,228.5,223.1z"/>
		<path class="st3" d="M120.6,192.6c13.8,8,43.1,6.5,57.3-12.3c14.1-18.8,9.4-44.2-13.1-76.1c-22.5-31.9-20.5-64.5-20.5-64.5
			s-6.3,4.4-36.7,64.5S106.8,184.6,120.6,192.6z M140.1,103.4c-8.5,33.3,22.6,41.4,24,61.6c2.2,32.1-29,24.3-29,24.3
			s-15.3-4-15.2-32.2C120,132.4,140.1,103.4,140.1,103.4z"/>
	</g>
</g>
<g id="Слой_11" class="st0">
	<g class="st2">
		<path class="st3" d="M117,102.6l-64.7,54.2c15.9,8,35.6,6.3,50.1-5.8C117,138.8,122.1,119.6,117,102.6z"/>
		<path class="st3" d="M43.5,80.5c-18.1,15.2-21.6,41.3-8.8,60.6l70-58.6C88,66.5,61.6,65.3,43.5,80.5z"/>
		<path class="st3" d="M116.4,87.3c-2-2.4-5.5-2.7-7.9-0.7l-70.3,58.9c-2.4,2-2.7,5.5-0.7,7.9c2,2.4,5.5,2.7,7.9,0.7l70.3-58.9
			C118,93.3,118.3,89.7,116.4,87.3z"/>
		<path class="st3" d="M154.8,164.8l-22.3-25.4c-2.8-3.1-7.7-2.9-10.2,0.4c-3.3,4.5-8.1,10.5-13.2,15.6c-5,4.9-11.9,9-17.3,11.7
			c-3.8,1.9-4.7,6.9-1.9,10.1l22,25.1c2.4,2.7,6.5,3,9.2,0.6l33-28.9C156.9,171.6,157.1,167.5,154.8,164.8z"/>
		<path class="st3" d="M265,131c-6.3-4.8-19.8-13.6-33.2-13c-11,0.6-19.3,3.9-24.6,9.8c-4.9,5.4-7.1,12.8-6.6,21.9
			c0.4,7.5,2.7,14.9,6.9,22.2c1.1,1.9,2.6,4.4,4.3,7.1c6.9,11.3,17.4,28.4,20.8,44.3c2.4,11.3,1.7,19.7-2.1,24.8
			c-2.8,3.9-7.7,6.2-14.4,6.9c-8.2,0.9-20.8-8.2-28-14.3c2.5-2.2,7.7-6.6,7.8-6.6c3.6-3.1,4-8.4,0.9-12L165,184.8
			c-3.1-3.6-8.4-4-12-0.9l-22.1,18.8c-3.6,3.1-4,8.4-0.9,12l31.8,37.2c1.5,1.8,3.6,2.8,5.8,3c3.4,0.3,5.8-1.6,6.2-2
			c0.1,0,4.1-3.5,7.6-6.5c0.1,0.1,0.2,0.3,0.3,0.4c6.6,5.8,21.1,17.1,33.3,17.1c0.6,0,1.3,0,1.9-0.1c9.3-1,16.2-4.5,20.6-10.4
			c5.3-7.3,6.5-17.9,3.5-31.8c-3.7-17.4-14.7-35.2-21.9-47c-1.6-2.7-3.1-5-4.1-6.9c-3.5-6.1-5.4-12.3-5.7-18.4
			c-0.4-6.7,1.1-11.9,4.4-15.6c3.7-4.2,10-6.5,18.6-6.9c10.6-0.6,22.1,7.1,27.5,11.2c1.8,1.4,4.3,1.1,5.8-0.6
			C267.3,135.5,267,132.5,265,131z"/>
	</g>
</g>
<g id="Слой_10" class="st0">
	<g class="st2">
		<path class="st3" d="M141.7,31.3c-60.9,0-110.4,49.5-110.4,110.4s49.5,110.4,110.4,110.4s110.4-49.5,110.4-110.4
			S202.6,31.3,141.7,31.3z M174.9,233.2l-12.6-21.9h-41.1l-12.6,21.9c-16.1-5.9-30.3-15.9-41.1-28.7l15.3-27.2l-20-35.6H44.4
			c0-19.1,5.6-36.9,15.1-52H93l20.5-35.6l-2.7-4.7c9.7-3.3,20.1-5.1,30.9-5.1c9,0,17.7,1.3,26,3.6l-3.6,6.2l20.5,35.6H224
			c9.5,15,15.1,32.9,15.1,52h-16.3l-20.5,35.6l14.9,25.9C206.1,216.7,191.6,227.2,174.9,233.2z"/>
		<polygon class="st3" points="121.2,106.2 100.6,141.7 121.2,177.3 162.3,177.3 182.8,141.7 162.3,106.2 		"/>
	</g>
</g>
<g id="Слой_9" class="st0">
	<path class="st1" d="M267.9,60.7c-3.6-3.6-9.5-3.6-13.1,0l-19.6,19.6h-40.4c-5.1,0-9.2,4.2-9.2,9.2s4.2,9.2,9.2,9.2h15.8L175,181.6
		c-21.8-13.9-61.2-37.2-61.2-37.2s-5.8-2.8-14.2-4.8l-10.8-23.8h21.9c5.7,0,10.3-4.6,10.3-10.3V96c0-5.7-4.6-10.3-10.3-10.3h-66
		c-5.7,0-10.3,4.6-10.3,10.3v9.4c0,5.7,4.6,10.3,10.3,10.3h29.9l9.4,21.9c-8.1,0-16.8,1.6-24.6,6.7c-23.2,15.2-32.6,38.1-25,67.1
		c7.6,29,33.7,39.2,33.7,39.2H29.9c-5.7,0-10.3,4.6-10.3,10.3c0,5.7,4.6,10.3,10.3,10.3h186c5.7,0,10.3-4.6,10.3-10.3
		c0-5.7-4.6-10.3-10.3-10.3h-29.2c0,0,17.4-5.8,20.7-22.8c3.1-16.4-7.6-29-20.7-38.4c-0.4-0.3-1-0.7-1.5-1.1l38.2-89.6h15.7
		c2.6,0,5-1.1,6.7-2.9c0.1-0.1,0.2-0.1,0.3-0.2l21.9-21.9C271.5,70.2,271.5,64.3,267.9,60.7z M113.9,250.6v-18.2
		c-8.9-3.3-15.2-11.8-15.2-21.8c0-12.9,10.5-23.4,23.4-23.4c12.9,0,23.4,10.5,23.4,23.4c0,9.8-6,18.1-14.5,21.6v18.4H113.9z"/>
</g>
<g id="Слой_6">
	<g>
		<path class="st3" d="M107.5,143.9H97.3v-5.8c7.5-3.5,12.7-11.1,12.7-19.9c0-12.2-9.9-22.1-22.1-22.1c-12.2,0-22.1,9.9-22.1,22.1
			c0,9.4,5.9,17.4,14.1,20.6v5.2h-9.4c-17.5,0-31.9,14.4-31.9,31.9v58.7h18.1v-42.4c0-3,2.4-5.4,5.4-5.4s5.4,2.4,5.4,5.4v42.4H110
			v-42.4c0-3,2.4-5.4,5.4-5.4c3,0,5.4,2.4,5.4,5.4v42.4h18.5v-58.7C139.4,158.3,125,143.9,107.5,143.9z"/>
		<path class="st3" d="M213,143.9h-11.6v-5.4c7.9-3.4,13.4-11.2,13.4-20.3c0-12.2-9.9-22.1-22.1-22.1c-12.2,0-22.1,9.9-22.1,22.1
			c0,9.1,5.5,16.9,13.4,20.3v5.4h-8c-17.5,0-31.9,14.4-31.9,31.9v58.7h18.1v-42.4c0-3,2.4-5.4,5.4-5.4c3,0,5.4,2.4,5.4,5.4v42.4
			h42.4v-42.4c0-3,2.4-5.4,5.4-5.4s5.4,2.4,5.4,5.4v42.4h18.5v-58.7C244.9,158.3,230.5,143.9,213,143.9z"/>
		<path class="st3" d="M152.1,144.3c7.8-5.9,18.5-6.5,18.5-6.5s-4.8-9-5.1-20.3c-0.3-12.2,5.1-21.4,5.1-21.4h-20.5v-4.8
			c7.8-3.4,13.2-11.2,13.2-20.2c0-12.2-9.9-22.1-22.1-22.1c-12.2,0-22.1,9.9-22.1,22.1c0,9.2,5.6,17.1,13.6,20.4v4.6H110
			c0,0,5.7,8.9,5.4,20.8c-0.3,12-5.4,18.7-5.4,18.7s11.6,2.7,17.9,7.4c7.1,5.3,13.2,14,13.2,14S144.4,150.1,152.1,144.3z"/>
	</g>
</g>
<g id="Слой_5" class="st0">
	<g class="st2">
		<path class="st3" d="M180.1,131h-64.5c-6.5,0-11.8,5.3-11.8,11.8V261c0,6.5,5.3,11.8,11.8,11.8h64.5c6.5,0,11.8-5.3,11.8-11.8
			V142.8C191.9,136.3,186.6,131,180.1,131z"/>
		<path class="st3" d="M227,102h-28.5c-0.9-11.5-4.9-21.1-8.2-27.4c0.9-1.6,1.5-3.5,1.5-5.5c0-6.2-5.1-11.3-11.3-11.3
			c-6.2,0-11.3,5.1-11.3,11.3c0,6.2,5.1,11.3,11.3,11.3c0,0,0,0,0,0c4.9,8.1,6,17.4,6.2,21.6h-83.1c0.7-9.1,5.8-18,8.4-22
			c1,0.3,2,0.5,3.1,0.5c6.2,0,11.3-5.1,11.3-11.3c0-6.2-5.1-11.3-11.3-11.3c-6.2,0-11.3,5.1-11.3,11.3c0,1.2,0.2,2.3,0.6,3.3
			c-7.6,8.6-11.6,22.9-13.2,29.6H63.9c-7,0-12.7,5.7-12.7,12.7l12.7,47.5c3.6,9.4,9.3,12.7,16.3,12.7h14.6v-40.1
			c0-6.5,5.3-11.8,11.8-11.8h81.7c6.5,0,11.8,5.3,11.8,11.8v40.1h10.6c7,0,14.5-4,17.8-12.7l11.2-47.5C239.7,107.7,234,102,227,102z
			"/>
	</g>
</g>
<g id="Слой_3" class="st0">
	<g class="st2">
		<rect x="73" y="105.6" class="st4" width="144.3" height="14.9"/>
		<rect x="73" y="136.4" class="st4" width="144.3" height="14.9"/>
		<path class="st3" d="M266.3,151.3h-16.2h-6.5h-10.4v-14.9h30.2c2.6,0,4.7-2.1,4.7-4.7v-6.5c0-2.6-2.1-4.7-4.7-4.7h-30.2v-14.9
			h30.2c2.6,0,4.7-2.1,4.7-4.7v-6.5c0-2.6-2.1-4.7-4.7-4.7h-30.2v-6.1c0-2.6-2.1-4.7-4.7-4.7H222c-2.6,0-4.7,2.1-4.7,4.7v6.1H73
			v-6.1c0-2.6-2.1-4.7-4.7-4.7h-6.5c-2.6,0-4.7,2.1-4.7,4.7v6.1H27.8c-2.6,0-4.7,2.1-4.7,4.7v6.5c0,2.6,2.1,4.7,4.7,4.7h29.3v14.9
			H27.8c-2.6,0-4.7,2.1-4.7,4.7v6.5c0,2.6,2.1,4.7,4.7,4.7h29.3v14.9H46.6h-6.5H24.9c-5.4,0-9.8,4.4-9.8,9.8v17.4
			c0,5.4,4.4,9.8,9.8,9.8h10.4v58.5c0,2.6,2.1,4.7,4.7,4.7h6.5c2.6,0,4.7-2.1,4.7-4.7v-58.5h5.8v43.1c0,2.6,2.1,4.7,4.7,4.7h6.5
			c2.6,0,4.7-2.1,4.7-4.7v-43.1h144.3v43.1c0,2.6,2.1,4.7,4.7,4.7h6.5c2.6,0,4.7-2.1,4.7-4.7v-43.1h5.7v58.5c0,2.6,2.1,4.7,4.7,4.7
			h6.5c2.6,0,4.7-2.1,4.7-4.7v-58.5h11.5c5.4,0,9.8-4.4,9.8-9.8v-17.4C276.1,155.7,271.7,151.3,266.3,151.3z M217.3,151.3H73v-14.9
			h144.3V151.3z M217.3,120.5H73v-14.9h144.3V120.5z"/>
	</g>
</g>
<g id="Слой_4" class="st0">
	<g class="st2">
		<path class="st4" d="M157.6,95.7c-36.8,0-66.7,29.9-66.7,66.7c0,36.8,29.9,66.7,66.7,66.7s66.7-29.9,66.7-66.7
			C224.3,125.6,194.3,95.7,157.6,95.7z M157.6,219.1c-31.3,0-56.7-25.4-56.7-56.7c0-31.3,25.4-56.7,56.7-56.7s56.7,25.4,56.7,56.7
			C214.3,193.7,188.9,219.1,157.6,219.1z"/>
		<circle class="st3" cx="157.6" cy="162.4" r="56.7"/>
		<path class="st3" d="M157.6,87c-41.6,0-75.4,33.8-75.4,75.4s33.8,75.4,75.4,75.4S233,204,233,162.4S199.1,87,157.6,87z
			 M157.6,229.1c-36.8,0-66.7-29.9-66.7-66.7c0-36.8,29.9-66.7,66.7-66.7s66.7,29.9,66.7,66.7C224.3,199.2,194.3,229.1,157.6,229.1z
			"/>
		<path class="st3" d="M237.1,114.4c-5.8,42.8,18.1,58.7,18.1,58.7s-4.7,73.6-5.4,77.9c-0.7,4.4,2.9,5.8,2.9,5.8s8,0.7,12.3,0
			c4.4-0.7,4.7-4,4.7-4V70.5C259.1,71.6,241.3,83.6,237.1,114.4z"/>
		<path class="st3" d="M74.3,72.3c-3,0-5.4,2.4-5.4,5.4v36.3c0,0-2.7,4.4-6.8,0.3V77.7c0-3-2.4-5.4-5.4-5.4s-5.4,2.4-5.4,5.4V115
			c-0.4,0.6-1.3,1.9-2.7,1.9c-2.6,0.1-3.1-2.3-3.1-2.3V77.7c0-3-2.4-5.4-5.4-5.4s-5.4,2.4-5.4,5.4v36.9c0,0-2.9,4.6-6.3,0.3V77.7
			c0-3-2.4-5.4-5.4-5.4s-5.4,2.4-5.4,5.4v41.3c0,0,0.8,26,21.8,33.5v97.4c0,3,2.4,5.4,5.4,5.4h9.4c3,0,5.4-2.4,5.4-5.4v-97.2
			c0-0.1,0-0.1,0-0.1s19.8-7.4,20-32.1c0-0.1,0-0.3,0-0.4c0.1-0.3,0.2-0.6,0.2-1V77.7C79.7,74.7,77.3,72.3,74.3,72.3z"/>
	</g>
</g>
<g id="Слой_7" class="st0">
	<g class="st2">
		<path class="st3" d="M257.6,94.8h-10.5c-2.6,0-4.7,2.1-4.7,4.7v55.5c0,0-2.9,26.1-31.5,31.9H46.7v-39.5c0-2.6-2.1-4.7-4.7-4.7
			H31.4c-2.6,0-4.7,2.1-4.7,4.7V230c0,2.6,2.1,4.7,4.7,4.7h10.5c2.6,0,4.7-2.1,4.7-4.7v-14h195.8v14c0,2.6,2.1,4.7,4.7,4.7h10.5
			c2.6,0,4.7-2.1,4.7-4.7V99.5C262.3,96.9,260.2,94.8,257.6,94.8z"/>
		<path class="st3" d="M59.9,179.9h117.5c3.1,0,5.6-2.5,5.6-5.6c0-3.1-21-21.2-64.3-21.2c-41.5,0-64.3,18.1-64.3,21.2
			C54.3,177.4,56.8,179.9,59.9,179.9z"/>
		
			<ellipse transform="matrix(0.7336 -0.6796 0.6796 0.7336 -50.6908 187.595)" class="st3" cx="213.9" cy="158.5" rx="29" ry="14.5"/>
	</g>
</g>
</svg>
