<?xml version="1.0" encoding="utf-8"?>
<!-- Generator: Adobe Illustrator 21.1.0, SVG Export Plug-In . SVG Version: 6.00 Build 0)  -->
<svg version="1.1" xmlns="http://www.w3.org/2000/svg" xmlns:xlink="http://www.w3.org/1999/xlink" x="0px" y="0px"
	 viewBox="0 0 192.8 198" style="enable-background:new 0 0 192.8 198;" xml:space="preserve">
<style type="text/css">
	.st0{fill:#74C4F0;}
	.st1{display:none;}
	.st2{display:inline;fill:#8E8E8E;}
	.st3{fill:#FECC00;}
	.st4{fill:#FFFFFF;}
	.st5{fill:#FCCC12;}
</style>
<g id="Слой_2">
</g>
<g id="Слой_3" class="st1">
	<rect x="-45" y="1.7" class="st2" width="869.9" height="204.7"/>
</g>
<g id="Слой_1">
	<g id="Слой_6">
		<circle class="st4" cx="100.4" cy="104" r="79.3"/>
		<g>
			<path class="st3" d="M90.1,83.9h17.7c1,0,1.9-0.9,1.9-1.9c0-1-0.9-1.9-1.9-1.9H90.1c-1,0-1.9,0.9-1.9,1.9
				C88.1,82.9,89,83.9,90.1,83.9z"/>
			<circle class="st3" cx="90.4" cy="75.1" r="2.2"/>
			<circle class="st3" cx="108.8" cy="75.1" r="2.2"/>
			<path class="st3" d="M155,77.2v3.4c0,0.9-0.7,1.6-1.6,1.6h-2.3c-0.3-3-2.4-5.4-5.3-6.2v-1c0-0.9,0.8-1.7,1.8-1.7h3.4v-3.1h-3.4
				c-2.9,0-5.1,2.2-5.1,4.8v0.8c-3.8,0.5-6.8,3.5-6.8,7.2c0,1.3,0.3,2.4,0.9,3.4c0,1.3-0.2,5.4-3.8,7.9c-4,3-8.8,0.7-9,0.6l-1.8-0.9
				v-2.3c0-2.1-1.7-3.8-3.8-3.8h-1v-8.7c0.6,0.2,1.3,0.5,2.1,0.5h1.9c2.9,0,5.3-2.4,5.3-5.3v-1.9c0-2.9-2.4-5.3-5.3-5.3h-1.9
				c-0.1,0-0.3,0-0.5,0v-0.6c0-11-8.9-19.8-19.8-19.8s-19.8,8.9-19.8,19.8v0.5h-0.1h-1.9c-2.9,0-5.3,2.4-5.3,5.3v1.9
				c0,2.9,2.4,5.3,5.3,5.3h1.9c0.6,0,1.1-0.1,1.6-0.3v8.6h-0.7c-2.1,0-3.8,1.7-3.8,3.8v0.5c-3-0.3-7.7-0.3-12.5,2.2
				c-11.3,5.9-11.6,17.3-11.6,17.7v0.5c-0.9,0.9-1.7,1.9-2.1,3.2h-2.7c-2.9,0-5.1,2.3-5.1,5.1v3.8h3.4v-3.8c0-0.9,0.8-1.7,1.7-1.7
				h2.3c0.3,3.2,2.5,5.8,5.5,6.9v1.1c0,1-0.8,1.9-1.9,1.9h-3.7v3.4h3.7c3,0,5.4-2.4,5.4-5.4v-0.8c4-0.5,7.1-3.9,7.1-7.9
				c0-1.4-0.3-2.6-0.9-3.8c0-1.4,0.3-5.9,3.9-8.7c2.6-2.1,5.6-1.8,7.6-1.3v8.9c0,2.1,1.7,3.8,3.8,3.8H82c0,0.2-0.1,0.5-0.1,0.7v15.2
				c0,1.1,0.6,2.1,1.5,2.6c-1.9,0.9-3.3,2.9-3.3,5.1c0,0.8,0.2,1.6,0.5,2.3c-4.8,0.1-8.8,4.1-8.8,8.9c0,4.9,4,8.9,8.9,8.9h34.7
				c4.9,0,8.9-4,8.9-8.9c0-4.7-3.5-8.5-8.1-8.9c0.3-0.7,0.5-1.5,0.5-2.3c0-2.2-1.3-4.1-3.1-5c1-0.5,1.7-1.5,1.7-2.6v-15.2
				c0-0.2,0-0.5-0.1-0.7h2.9c2.1,0,3.8-1.7,3.8-3.8v-7.6l0.6,0.2c0.3,0.1,7.6,2.4,15-1.3c10.9-5.4,11.1-15.7,11.1-16.1v-0.5
				c0.9-0.8,1.6-1.8,2.1-2.9h2.6c2.7,0,4.9-2.1,4.9-4.7v-3.4h-3V77.2z M117.5,72.5c0-1,0.8-1.8,1.8-1.8h1.9c1,0,1.8,0.8,1.8,1.8v1.9
				c0,1-0.8,1.8-1.8,1.8h-1.9c-1,0-1.8-0.8-1.8-1.8V72.5z M57.9,123c-2.5,0-4.6-2.1-4.6-4.6s2.1-4.6,4.6-4.6c2.5,0,4.6,2.1,4.6,4.6
				S60.4,123,57.9,123z M76.3,101c-2.6-0.6-6.3-0.6-9.6,2.1c-3,2.3-4.2,5.3-4.8,7.8c-0.2-0.1-0.5-0.2-0.7-0.3
				c-1-0.6-2.2-0.8-3.4-0.8c-0.5,0-1,0-1.6,0.1c0.7-3.2,2.7-8.9,9.4-12.4c4.2-2.2,8.5-2.1,10.9-1.7v5.3H76.3z M99.1,50.3
				c8.5,0,15.4,6.4,16.4,14.6H82.8C83.6,56.9,90.6,50.3,99.1,50.3z M84.2,71.3v-2.7H114v18.9H84.2V75.7c0.1-0.5,0.2-0.8,0.2-1.3
				v-1.9C84.3,72.1,84.3,71.6,84.2,71.3z M79.1,76.2h-1.9c-1,0-1.8-0.8-1.8-1.8v-1.9c0-1,0.8-1.8,1.8-1.8h1.9c0.7,0,1.4,0.5,1.6,1
				v3.4C80.4,75.9,79.9,76.2,79.1,76.2z M83.6,140.8c0-1.3,1-2.3,2.3-2.3H93c1.3,0,2.3,1,2.3,2.3c0,1.3-1,2.3-2.3,2.3h-7.1
				C84.7,143.1,83.6,142.1,83.6,140.8z M85.4,132.7v-14.3h8.2v14.3H85.4z M96.9,117.3h3.5c0,0.2-0.1,0.5-0.1,0.7v15.2
				c0,1,0.6,1.9,1.4,2.5c-1.6,0.7-2.9,2.2-3.3,4c-0.3-1.7-1.6-3.2-3.1-3.9c0.9-0.5,1.5-1.5,1.5-2.6V118
				C97,117.7,97,117.5,96.9,117.3z M102,140.8c0-1.3,1-2.3,2.3-2.3h7.1c1.3,0,2.3,1,2.3,2.3c0,1.3-1,2.3-2.3,2.3h-7.1
				C103,143.1,102,142.1,102,140.8z M103.9,132.7v-14.3h8.2v14.3H103.9z M75.4,152.2c0-3.1,2.5-5.5,5.5-5.5h5H93h3.5v11.1H80.9
				C77.9,157.7,75.4,155.1,75.4,152.2z M121.2,152.2c0,3.1-2.5,5.5-5.5,5.5h-15.2v-11.1h3.8h7.1h4.3
				C118.7,146.6,121.2,149.1,121.2,152.2z M118.7,113.5c0,0.2-0.1,0.3-0.3,0.3H80.1c-0.2,0-0.3-0.1-0.3-0.3v-7.4V92.9v-1.1
				c0-0.2,0.1-0.3,0.3-0.3h38.2c0.2,0,0.3,0.1,0.3,0.3V113.5z M136.2,102.1c-4.7,2.3-9.3,1.8-11.3,1.4v-4.9c2.5,0.7,6.5,1,10.2-1.7
				c2.9-2.1,4.1-4.8,4.6-7c0.2,0.1,0.5,0.2,0.7,0.3c1,0.5,2.2,0.7,3.3,0.7c0.5,0,1,0,1.5-0.1C144.5,93.7,142.6,98.9,136.2,102.1z
				 M143.5,87.2c-2.4,0-4.3-1.8-4.3-4.1s1.9-4.1,4.3-4.1s4.3,1.8,4.3,4.1S146,87.2,143.5,87.2z"/>
		</g>
	</g>
</g>
</svg>
