<?xml version="1.0" encoding="utf-8"?>
<!-- Generator: Adobe Illustrator 21.1.0, SVG Export Plug-In . SVG Version: 6.00 Build 0)  -->
<svg version="1.1" xmlns="http://www.w3.org/2000/svg" xmlns:xlink="http://www.w3.org/1999/xlink" x="0px" y="0px"
	 viewBox="0 0 193 191" style="enable-background:new 0 0 193 191;" xml:space="preserve">
<style type="text/css">
	.st0{fill:#74C4F0;}
	.st1{display:none;}
	.st2{display:inline;fill:#8E8E8E;}
	.st3{fill:#FECC00;}
	.st4{fill:#FFFFFF;}
	.st5{fill:#FCCC12;}
</style>
<g id="Слой_2">
</g>
<g id="Слой_3" class="st1">
	<rect x="-431" y="-5.3" class="st2" width="869.9" height="204.7"/>
</g>
<g id="Слой_1">
	<circle class="st4" cx="85.4" cy="97.1" r="79.2"/>
	<g>
		<path class="st3" d="M128.2,106.1h-16v7H71.7v23.5h61v-23.5h-4.5V106.1z M116.2,110.1h8v3h-8V110.1z M128.7,117.1v15.5h-53v-15.5
			h36.5h16H128.7z"/>
		<path class="st3" d="M35.9,136.6h32.5v-23.5H35.9V136.6z M39.9,117.1h24.5v15.5H39.9V117.1z"/>
		<path class="st3" d="M96.9,86.6h-3v-7h-16v7h-3.4v-7h-16v7h-3.4v-7h-16v7h-3.2v23.5h61V86.6z M81.9,83.6h8v3h-8V83.6z M62.5,83.6
			h8v3h-8V83.6z M43.1,83.6h8v3h-8V83.6z M92.9,106.1h-53V90.6h15.2h3.4h16h3.4h15V106.1z"/>
		<path class="st3" d="M134.9,66.8L121,59l-3.4,6.1l-2.9-1.7l3.4-6.1l-14-7.8l-3.4,6.1l-2.9-1.7l3.4-6.1l-14-7.8l-3.4,6.1L81,44.5
			L69.5,65l53.2,29.9l11.5-20.5l-2.7-1.5L134.9,66.8z M105.6,54.9l7,3.9l-1.5,2.6l-7-3.9L105.6,54.9z M88.7,45.4l7,3.9L94.2,52
			l-7-3.9L88.7,45.4z M121.1,89.4l-46.2-26L82.5,50l13.3,7.4l2.9,1.7l14,7.8l2.9,1.7l13.1,7.4L121.1,89.4z M128,70.9l-7-3.9l1.5-2.6
			l7,3.9L128,70.9z"/>
	</g>
</g>
</svg>
