<?xml version="1.0" encoding="utf-8"?>
<!-- Generator: Adobe Illustrator 21.1.0, SVG Export Plug-In . SVG Version: 6.00 Build 0)  -->
<svg version="1.1" xmlns="http://www.w3.org/2000/svg" xmlns:xlink="http://www.w3.org/1999/xlink" x="0px" y="0px"
	 viewBox="0 0 111 112" style="enable-background:new 0 0 111 112;" xml:space="preserve">
<style type="text/css">
	.st0{fill:#74C4F0;}
	.st1{display:none;}
	.st2{display:inline;fill:#8E8E8E;}
	.st3{fill:#FECC00;}
	.st4{fill:#FFFFFF;}
	.st5{fill:#FCCC12;}
</style>
<g id="Слой_2">
</g>
<g id="Слой_3" class="st1">
</g>
<g id="Слой_1">
	<path class="st5" d="M56.9,23c-15.3,0-27.8,11.8-27.8,26.3c0,1.9,0.2,3.8,0.7,5.7l0,0c0,0,2.2,15.9,27.1,42.4
		c0,0,23-27.2,26.2-39.5c0,0,0,0,0,0c1-2.7,1.5-5.6,1.5-8.6C84.7,34.8,72.2,23,56.9,23z M56.9,60.8c-5.8,0-10.6-4.7-10.6-10.6
		s4.7-10.6,10.6-10.6s10.6,4.7,10.6,10.6S62.8,60.8,56.9,60.8z"/>
</g>
</svg>
