<?xml version="1.0" encoding="utf-8"?>
<!-- Generator: Adobe Illustrator 21.1.0, SVG Export Plug-In . SVG Version: 6.00 Build 0)  -->
<svg version="1.1" xmlns="http://www.w3.org/2000/svg" xmlns:xlink="http://www.w3.org/1999/xlink" x="0px" y="0px"
	 viewBox="0 0 283.5 283.5" style="enable-background:new 0 0 283.5 283.5;" xml:space="preserve">
<style type="text/css">
	.st0{display:none;}
	.st1{display:inline;fill:#FFFFFF;}
	.st2{display:inline;}
	.st3{fill:#FFED17;}
	.st4{fill:#FFFFFF;}
	.st5{fill:none;}
</style>
<g id="Слой_1" class="st0">
	<circle class="st1" cx="141.7" cy="141.7" r="69.3"/>
	<g class="st2">
		<path class="st3" d="M121.4,100c-7.9,3.6-9.3,8.6-9.6,11c-1.6,0.5-4.4,1.8-6.7,4.5c-3.9,4.7-3,10-2.4,12.3
			c-1.7,1.5-5.2,5.2-5.2,11.3c0,5.8,2.8,10,4.2,11.7c-0.9,2.1-2.4,7.2,0.4,14.1c2,5.1,7.9,8.2,9.8,9.1c0.9,1.9,4.5,7.9,13,7.9
			c9.4,0,14.1-3.7,14.3-3.8l0.6-0.5v-75.4l-0.9-0.4C134,99.5,127.6,97.2,121.4,100z M136.7,118.7c-0.6-0.3-1.2-0.2-1.7,0.3
			c-2.9,2.9-6.8,1.8-8.7,1c-0.7-0.3-1.4,0-1.8,0.6l-0.1,0.1c-0.4,0.8-0.1,1.7,0.7,2.1c1.4,0.6,3.3,1.1,5.2,1.1
			c2.2,0,4.4-0.6,6.4-2.4v29.2c-0.1,0-0.2,0.1-0.3,0.1c-1.6,0.9-2.9,1.3-4.1,0.9c-1.2-0.3-2-1.3-2.5-2.1c-0.4-0.6-1.1-0.8-1.7-0.6
			l-0.1,0c-0.9,0.3-1.2,1.4-0.7,2.1c0.8,1.2,2.1,2.8,4.2,3.4c0.6,0.2,1.2,0.3,1.8,0.3c1.1,0,2.2-0.3,3.4-0.8v16.7
			c-1.4-1.2-3-1.6-4.4-1.7c-0.9,0-1.7,0.8-1.5,1.7l0,0.1c0.1,0.7,0.7,1.1,1.4,1.2c1.2,0.1,3,0.6,3.9,3c0.1,0.3,0.4,0.6,0.7,0.8v0.3
			c-1.4,0.8-5.3,2.8-11.9,2.8c-5.2,0-8.1-2.8-9.5-4.7c3.3-0.5,7.4-2.3,9.9-7.3c0.4-0.8,0-1.7-0.8-2l-0.1,0c-0.7-0.3-1.5,0.1-1.8,0.7
			c-2.5,5-6.8,5.7-8.9,5.7c-0.2,0-0.3,0-0.5,0.1c-1.5-0.7-6.7-3.4-8.3-7.5c-3-7.5-0.2-12.2-0.1-12.4l0.6-1l-0.8-0.8
			c0,0-4.1-4.1-4.1-10.4c0-3.9,1.8-6.6,3.2-8c1.2,2.2,2.4,3.8,3.2,4.8c0.6,0.7,1.6,0.7,2.2,0l0.1-0.1c0.5-0.5,0.5-1.3,0-1.9
			c-0.8-0.9-1.9-2.5-3.1-4.7l0.3-0.2l-0.5-1.2c-0.1-0.2-2.3-5.8,1.5-10.3c1.7-2,3.8-3,5-3.5c0.4,1.4,1,2.8,2.1,3.9
			c1.3,1.3,3,1.9,5.1,1.9c0.5,0,1,0,1.5-0.1c3.3-0.4,5.8-1.7,7.3-3.7c0.9-1.2,1.2-2.5,1.4-3.5c0.1-1-0.7-1.8-1.7-1.6l-0.1,0
			c-0.6,0.1-1.1,0.6-1.2,1.3c-0.1,0.6-0.3,1.4-0.8,2.1c-1,1.3-2.7,2.1-5.2,2.5c-1.8,0.2-3.1-0.1-4.1-1c-1.3-1.2-1.6-3.5-1.7-5
			c0-0.1,0-0.2-0.1-0.2c0.5-1.9,2.1-5.1,7.7-7.7c1.6-0.7,3.3-1,4.9-1c3.2,0,6.4,1.1,9.2,2.4V118.7z"/>
		<path class="st3" d="M124.6,156.7c-0.9-0.4-2.3-1.1-3.3-2.4c-0.2-0.2-0.4-0.3-0.6-0.5c0.4-2.7-0.2-5.3-1.8-7.1
			c-2.3-2.7-6.5-3.5-10.5-2.3c-0.9,0.3-1.3,1.2-0.9,2.1c0.3,0.7,1.1,1,1.8,0.8c2.8-0.8,5.8-0.3,7.3,1.4c1,1.1,1.4,2.9,1.1,4.8
			c-0.3,2.1-1.5,4.1-3.3,5.5c-0.6,0.5-0.8,1.3-0.4,1.9l0,0c0.5,0.8,1.5,1,2.2,0.4c1.5-1.2,2.6-2.6,3.4-4.3c1.2,1.3,2.7,2,3.7,2.4
			c0.9,0.3,1.8-0.2,2-1.1l0-0.1C125.6,157.6,125.3,156.9,124.6,156.7z"/>
		<path class="st3" d="M121.8,126.5c-0.2-0.1-0.3-0.2-0.5-0.2c-4-0.9-5.5-4.2-6-6c-0.2-0.7-0.8-1.1-1.5-1.1c0,0,0,0,0,0l-0.2,0
			l0.1,0c-0.9,0.1-1.5,0.9-1.3,1.8c0.6,2.3,2.2,5.2,5.1,6.9c-0.2,0.1-0.4,0.3-0.6,0.4c-1.2,1-2.4,2.9-1.9,6.1c0.7,4.3,3.6,5.7,6,6
			c0.9,0.1,1.7-0.7,1.6-1.7l0-0.1c-0.1-0.7-0.6-1.2-1.3-1.2c-1.2-0.1-2.8-0.8-3.3-3.5c-0.2-1.4,0.1-2.6,1-3.3
			c1.3-1.2,3.9-1.5,6.3-0.9c1.6,0.5,3.6,2,4.5,4.6c0.6,1.7,0.8,4.3-1.2,7.5c-0.4,0.6-0.3,1.5,0.3,1.9l0.1,0.1
			c0.7,0.5,1.7,0.3,2.1-0.4c2.1-3.3,2.6-6.9,1.6-10.1c-1-3.1-3.6-5.7-6.5-6.5C124.5,126.6,123.1,126.4,121.8,126.5z"/>
		<path class="st3" d="M184.7,139.1c0-6.1-3.4-9.8-5.2-11.3c0.6-2.3,1.5-7.6-2.3-12.3c-2.3-2.7-5-4-6.6-4.5c-0.2-2.4-1.7-7.4-9.5-11
			c-6.1-2.9-12.5-0.6-17.3,1.8l-0.8,0.4v75.4l0.6,0.5c0.2,0.2,4.8,3.8,14.1,3.8c8.4,0,11.9-5.9,12.8-7.9c1.8-0.9,7.6-4,9.6-9.1
			c2.8-6.9,1.3-12,0.4-14.1C181.9,149.2,184.7,145,184.7,139.1z M177.6,151.4c0.1,0.2,2.9,4.9-0.1,12.4c-1.6,4.1-6.8,6.8-8.2,7.5
			c-0.2-0.1-0.3-0.1-0.5-0.1c-2.1,0-6.3-0.7-8.7-5.7c-0.3-0.7-1.1-1-1.8-0.7l-0.1,0c-0.8,0.3-1.2,1.2-0.8,2c2.4,5,6.5,6.8,9.7,7.3
			c-1.3,1.9-4.2,4.7-9.3,4.7c-6.4,0-10.3-1.9-11.7-2.8v-0.3c0.3-0.2,0.5-0.4,0.7-0.8c0.9-2.4,2.6-2.9,3.8-3c0.7,0,1.2-0.5,1.4-1.2
			l0-0.1c0.2-0.9-0.5-1.8-1.5-1.7c-1.4,0.1-3,0.5-4.4,1.7v-16.7c1.2,0.5,2.3,0.8,3.4,0.8c0.6,0,1.2-0.1,1.8-0.3
			c2-0.6,3.4-2.2,4.1-3.4c0.5-0.8,0.1-1.8-0.7-2.1l-0.1,0c-0.6-0.2-1.3,0-1.7,0.6c-0.5,0.8-1.3,1.7-2.4,2.1c-1.1,0.3-2.5,0-4-0.9
			c-0.1-0.1-0.2-0.1-0.3-0.1v-29.2c1.9,1.7,4.2,2.4,6.3,2.4c1.9,0,3.7-0.5,5.1-1.1c0.8-0.3,1.1-1.3,0.7-2.1l-0.1-0.1
			c-0.4-0.6-1.1-0.9-1.8-0.6c-1.9,0.8-5.7,1.8-8.6-1c-0.4-0.4-1.1-0.6-1.6-0.3v-14.6c2.7-1.2,5.9-2.4,9.1-2.4c1.6,0,3.3,0.3,4.9,1
			c5.6,2.6,7.2,5.8,7.6,7.7c0,0.1,0,0.2-0.1,0.2c-0.1,1.5-0.4,3.8-1.7,5c-0.9,0.9-2.2,1.2-4,1c-2.4-0.3-4.2-1.2-5.1-2.5
			c-0.5-0.7-0.8-1.5-0.8-2.1c-0.1-0.6-0.5-1.2-1.2-1.3l-0.1,0c-1-0.2-1.8,0.6-1.7,1.6c0.1,1,0.5,2.3,1.3,3.5c1.4,2,3.9,3.3,7.2,3.7
			c0.5,0.1,1,0.1,1.5,0.1c2,0,3.7-0.6,5-1.9c1.1-1.1,1.7-2.5,2.1-3.9c1.2,0.5,3.3,1.5,5,3.5c3.8,4.6,1.6,10.1,1.5,10.3L176,129
			l0.3,0.2c-1.1,2.3-2.3,3.9-3,4.7c-0.5,0.5-0.5,1.3,0,1.9l0.1,0.1c0.6,0.7,1.6,0.7,2.2,0c0.8-1,2-2.6,3.2-4.8
			c1.4,1.5,3.1,4.1,3.1,8c0,6.3-4,10.4-4,10.4l-0.8,0.8L177.6,151.4z"/>
		<path class="st3" d="M173.8,144.4c-3.9-1.2-8.1-0.3-10.3,2.3c-1.5,1.8-2.1,4.4-1.7,7.1c-0.2,0.1-0.4,0.3-0.6,0.5
			c-1,1.3-2.3,2-3.2,2.4c-0.6,0.3-1,0.9-0.9,1.6l0,0.1c0.2,0.9,1.1,1.4,1.9,1.1c1.1-0.4,2.5-1.2,3.7-2.4c0.8,1.6,1.9,3.1,3.4,4.3
			c0.7,0.6,1.7,0.3,2.2-0.4l0,0c0.4-0.6,0.2-1.5-0.4-1.9c-1.7-1.4-2.9-3.3-3.2-5.5c-0.3-1.9,0.1-3.7,1-4.8c1.5-1.7,4.4-2.3,7.2-1.4
			c0.7,0.2,1.5-0.1,1.8-0.8C175.1,145.7,174.7,144.7,173.8,144.4z"/>
		<path class="st3" d="M163.7,130.7c0.9,0.8,1.2,1.9,1,3.3c-0.4,2.7-2.1,3.3-3.2,3.5c-0.7,0.1-1.2,0.6-1.3,1.2l0,0.1
			c-0.1,0.9,0.6,1.8,1.5,1.7c2.3-0.3,5.2-1.7,5.9-6c0.5-3.1-0.8-5-1.9-6.1c-0.2-0.2-0.4-0.3-0.6-0.4c2.9-1.7,4.4-4.6,5-6.9
			c0.2-0.8-0.4-1.7-1.2-1.8l0.1,0l-0.2,0c0,0,0,0,0,0c-0.7-0.1-1.3,0.4-1.5,1.1c-0.5,1.8-2,5.1-5.9,6c-0.2,0-0.4,0.1-0.5,0.2
			c-1.3-0.1-2.7,0-4.1,0.4c-2.9,0.8-5.4,3.4-6.4,6.5c-1.1,3.2-0.5,6.7,1.5,10.1c0.4,0.7,1.4,0.9,2.1,0.4l0.1-0.1
			c0.6-0.5,0.7-1.3,0.3-1.9c-2-3.2-1.8-5.8-1.2-7.5c0.8-2.5,2.8-4.1,4.4-4.6C159.8,129.2,162.4,129.5,163.7,130.7z"/>
	</g>
</g>
<g id="Слой_2" class="st0">
	<circle class="st1" cx="139.7" cy="140.3" r="69.3"/>
	<g class="st2">
		<path class="st3" d="M192.2,159.7h-8.5c0.8-1.1,1.3-2.4,1.3-3.8v-49.3c0-3.5-2.8-6.3-6.3-6.3H99.6c-3.5,0-6.3,2.8-6.3,6.3v49.3
			c0,1.4,0.5,2.8,1.3,3.8h-8.2c-1.2,0-2.3,1-2.3,2.3v5.3c0,4.1,3.4,7.5,7.5,7.5h95.5c4.1,0,7.5-3.4,7.5-7.5V162
			C194.6,160.7,193.5,159.7,192.2,159.7z M105.5,158v-44.2c0-0.6,0.5-1.2,1.2-1.2h65.7c0.7,0,1.2,0.5,1.2,1.2V158
			c0,0.6-0.5,1.2-1.2,1.2h-65.7C106,159.2,105.5,158.7,105.5,158z M96.2,106.5c0-1.8,1.5-3.3,3.3-3.3h79.2c1.8,0,3.3,1.5,3.3,3.3
			v49.3c0,1.8-1.5,3.3-3.3,3.3h-2.4c0.1-0.4,0.2-0.8,0.2-1.2v-44.2c0-2.3-1.9-4.2-4.2-4.2h-65.7c-2.3,0-4.2,1.9-4.2,4.2V158
			c0,0.4,0.1,0.8,0.2,1.2h-3c-1.8,0-3.3-1.5-3.3-3.3V106.5z M191.6,167.2c0,2.5-2,4.5-4.5,4.5H91.6c-2.5,0-4.5-2-4.5-4.5v-4.5h104.5
			V167.2z"/>
		<path class="st3" d="M101.3,169.2h4.5c1,0,1.8-0.8,1.8-1.8c0-1-0.8-1.8-1.8-1.8h-4.5c-1,0-1.8,0.8-1.8,1.8
			C99.6,168.4,100.4,169.2,101.3,169.2z"/>
		<path class="st3" d="M159.2,151.7v-27.9l-16-8.5l-24.7,5.7v25.2l14.5,12.3L159.2,151.7z M156.2,146.5l-4.5-2.8l-1.6,2.6l5.3,3.3
			l-21.2,5.5v-24.3l7.3-1.7v2.2h3v-2.9l11.7-2.7V146.5z M131.2,153.1l-8.2-7l5.8-1.2l-0.6-2.9l-6.7,1.4v-18.5l9.7,6V153.1z
			 M124,122.8l17.6-4.1v2h3v-1.4l7.8,4.2l-7.8,1.8v-1.1h-3v1.8l-9.1,2.1L124,122.8z"/>
		<polygon class="st3" points="144.6,135.9 141.6,135.9 141.6,139.4 136.7,140.5 137.4,143.5 142.8,142.1 146.7,144.7 148.4,142.2 
			144.6,139.7 		"/>
	</g>
</g>
<g id="Слой_3" class="st0">
	<circle class="st1" cx="141.7" cy="138.9" r="69.3"/>
	<g class="st2">
		<path class="st3" d="M140.5,94.2c-24.1,0-43.7,19.6-43.7,43.8s19.6,43.8,43.7,43.8s43.8-19.6,43.8-43.8S164.6,94.2,140.5,94.2z
			 M140.5,178.7c-22.5,0-40.7-18.3-40.7-40.8s18.3-40.8,40.7-40.8s40.8,18.3,40.8,40.8S163,178.7,140.5,178.7z"/>
		<path class="st3" d="M174.1,139.4v-1.5c0-18.2-14.8-33.1-33.1-33.1s-33.1,14.8-33.1,33.1v1.5h32.3l-3.9,6.2
			c-2.6,1.2-4.5,3.6-5.3,6.4c-0.1,0-0.2,0-0.3,0h-18.3c-0.8,0-1.5,0.7-1.5,1.5s0.7,1.5,1.5,1.5h18.3c0,0,0,0,0,0
			c0.2,5.3,4.6,9.5,9.9,9.5s9.7-4.2,9.9-9.5c0,0,0,0,0,0h18.3c0.8,0,1.5-0.7,1.5-1.5s-0.7-1.5-1.5-1.5h-18.3c-0.1,0-0.2,0-0.3,0
			c-0.3-1-0.7-1.9-1.2-2.7l1.6-9.9H174.1z M112.8,127.6l3.6,1.3c0.8,0.3,1.6-0.1,1.9-0.9c0.3-0.8-0.1-1.6-0.9-1.9l-3.4-1.2
			c2.1-4.3,5.1-8,8.8-10.8l2.8,3.5c0.5,0.6,1.5,0.8,2.1,0.2c0.6-0.5,0.8-1.5,0.2-2.1l-2.7-3.4c4.1-2.5,8.8-4.1,13.8-4.4l0.2,4.7
			c0,0.8,0.7,1.5,1.6,1.4c0.8,0,1.5-0.7,1.4-1.6l-0.2-4.7c5.2,0.2,10.1,1.7,14.3,4.2l-2.4,4c-0.4,0.7-0.2,1.6,0.5,2.1
			c0.7,0.4,1.6,0.2,2.1-0.5l2.4-3.9c3.7,2.7,6.7,6.2,8.8,10.3c-0.1,0-0.3,0.1-0.4,0.2l-4,2.5c-0.7,0.4-0.9,1.4-0.5,2.1
			c0.4,0.7,1.4,0.9,2.1,0.5l4-2.5c0,0,0,0,0,0c1.2,3,2,6.3,2.1,9.8h-19.8l1.8-11c0.1-0.9-0.4-1.8-1.2-2.1c-0.9-0.3-1.8,0-2.3,0.8
			l-7.7,12.4H111C111.1,133.4,111.7,130.4,112.8,127.6z M149,131l-2.5,15.6c-1.6-1.2-3.7-1.9-5.8-1.9c-0.1,0-0.1,0-0.2,0L149,131z
			 M140.7,161.6c-3.8,0-6.9-3.1-6.9-6.9s3.1-6.9,6.9-6.9s6.9,3.1,6.9,6.9S144.5,161.6,140.7,161.6z"/>
	</g>
</g>
<g id="Слой_4">
	<circle class="st4" cx="141.7" cy="149" r="69.3"/>
	<g>
		<path class="st3" d="M182.7,110.4h-79.3c-4.5,0-8.2,3.7-8.2,8.2v50.3c0,4.5,3.7,8.2,8.2,8.2h24.3v0.3h-6c-4.6,0-8.3,3.7-8.3,8.3
			c0,4.6,3.7,8.3,8.3,8.3h42.7c4.6,0,8.3-3.7,8.3-8.3c0-4.6-3.7-8.3-8.3-8.3h-6.3v-0.3h24.7c4.5,0,8.2-3.7,8.2-8.2v-50.3
			C190.9,114.1,187.2,110.4,182.7,110.4z M186.9,168.9c0,2.3-1.9,4.2-4.2,4.2h-28.7v8.3h10.3c2.4,0,4.3,1.9,4.3,4.3
			c0,2.4-1.9,4.3-4.3,4.3h-42.7c-2.4,0-4.3-1.9-4.3-4.3c0-2.4,1.9-4.3,4.3-4.3h10v-8.3h-28.3c-2.3,0-4.2-1.9-4.2-4.2v-50.3
			c0-2.3,1.9-4.2,4.2-4.2h79.3c2.3,0,4.2,1.9,4.2,4.2V168.9z"/>
		<path class="st3" d="M105.1,166.4h75v-45.5h-75V166.4z M109.1,124.9h67v37.5h-67V124.9z"/>
		<path class="st3" d="M136,137.8l-0.1-0.2c-0.5-0.9-1.7-1.2-2.6-0.7l-7.2,4c-1.3,0.7-1.3,2.6,0,3.3l7.2,3.7
			c0.9,0.5,2.1,0.1,2.5-0.8l0.1-0.2c0.5-0.9,0.1-2.1-0.8-2.5l-3.7-1.9l3.8-2.1C136.1,139.9,136.5,138.8,136,137.8z"/>
		<path class="st3" d="M145,133.3l-0.2-0.1c-1-0.3-2.1,0.3-2.4,1.2l-4.7,15.4c-0.3,1,0.3,2.1,1.2,2.4l0.2,0.1c1,0.3,2.1-0.3,2.4-1.2
			l4.7-15.4C146.6,134.6,146,133.6,145,133.3z"/>
		<path class="st3" d="M159,140.7l-7.7-3.9c-0.9-0.5-2.1-0.1-2.5,0.8l-0.1,0.2c-0.5,0.9-0.1,2.1,0.8,2.5l3.6,1.8l-5.4,2.3
			c-1,0.4-1.4,1.5-1,2.5l0.1,0.2c0.4,1,1.5,1.4,2.5,1l9.7-4C160.4,143.5,160.5,141.5,159,140.7z"/>
	</g>
</g>
<g id="Слой_5" class="st0">
	<circle class="st1" cx="140.5" cy="149.1" r="69.3"/>
	<g class="st2">
		<path class="st5" d="M155.2,131.9h-29.1c-0.3,0-0.5,0.2-0.5,0.5v29.1c0,0.3,0.2,0.5,0.5,0.5h29.1c0.3,0,0.5-0.2,0.5-0.5v-29.1
			C155.7,132.2,155.5,131.9,155.2,131.9z M149.8,152.1c0,2.6-2.1,4.7-4.7,4.7h-9.3c-2.6,0-4.7-2.1-4.7-4.7V143
			c0-2.7,2.2-4.9,4.9-4.9h9.1c2.6,0,4.7,2.1,4.7,4.7V152.1z"/>
		<circle class="st5" cx="141.1" cy="181" r="3.1"/>
		<path class="st5" d="M145.1,141.1h-9.1c-1,0-1.9,0.8-1.9,1.9v9.1c0,0.9,0.8,1.7,1.7,1.7h9.3c0.9,0,1.7-0.8,1.7-1.7v-9.3
			C146.8,141.9,146.1,141.1,145.1,141.1z"/>
		<circle class="st5" cx="106.6" cy="147.4" r="3.1"/>
		<circle class="st5" cx="101.9" cy="176.9" r="3.1"/>
		<circle class="st5" cx="111.1" cy="107.5" r="3.1"/>
		<circle class="st5" cx="140.5" cy="113.6" r="3.1"/>
		<circle class="st5" cx="179.9" cy="117.8" r="3.1"/>
		<circle class="st5" cx="174.4" cy="147.4" r="3.1"/>
		<circle class="st5" cx="170" cy="186.4" r="3.1"/>
		<path class="st3" d="M101.9,170.8c-3.3,0-6.1,2.7-6.1,6.1s2.7,6.1,6.1,6.1s6.1-2.7,6.1-6.1S105.2,170.8,101.9,170.8z M101.9,179.9
			c-1.7,0-3.1-1.4-3.1-3.1s1.4-3.1,3.1-3.1s3.1,1.4,3.1,3.1S103.6,179.9,101.9,179.9z"/>
		<path class="st3" d="M174.4,141.4c-2.7,0-5,1.8-5.8,4.2c-0.1,0-0.3,0-0.4,0h-9.5v-13.1c0-1.9-1.6-3.5-3.5-3.5h-2.4v-7.8
			c0-0.9,0.7-1.6,1.5-1.6h7.6c0.8,0,1.5-0.7,1.5-1.6s-0.7-1.6-1.5-1.6h-10.6c-0.8,0-1.5,0.7-1.5,1.6v11h-8.1c0.2-0.3,0.3-0.6,0.3-1
			v-8.3c0-0.1,0-0.1,0-0.1c2.6-0.7,4.6-3,4.6-5.9c0-3.3-2.7-6.1-6.1-6.1s-6.1,2.7-6.1,6.1c0,2.8,2,5.2,4.6,5.9c0,0.1,0,0.1,0,0.1
			v8.3c0,0.4,0.1,0.7,0.3,1h-13.2c-1.9,0-3.5,1.6-3.5,3.5v2.2c-0.1,0-0.1,0-0.2,0h-8.3c-0.8,0-1.5-0.7-1.5-1.6v-19.7
			c2.6-0.7,4.6-3,4.6-5.9c0-3.3-2.7-6.1-6.1-6.1s-6.1,2.7-6.1,6.1c0,2.8,1.9,5.2,4.6,5.9v22.9c0,0.9,0.7,1.6,1.5,1.6h11.3
			c0.1,0,0.1,0,0.2,0v8.2c-0.1,0-0.1,0-0.2,0h-9.8c0,0-0.1,0-0.1,0c-0.7-2.6-3-4.6-5.9-4.6c-3.3,0-6.1,2.7-6.1,6.1s2.7,6.1,6.1,6.1
			c2.8,0,5.2-2,5.9-4.6c0,0,0.1,0,0.1,0h9.8c0.1,0,0.1,0,0.2,0v12.6c0,1.9,1.6,3.5,3.5,3.5h2.3c0,0.1-0.1,0.2-0.1,0.4v8.4
			c0,0.8-0.7,1.5-1.5,1.5h-7.4c-0.8,0-1.5,0.7-1.5,1.5s0.7,1.5,1.5,1.5h10.4c0.8,0,1.5-0.7,1.5-1.5v-11.4c0-0.1,0-0.3-0.1-0.4h8.4
			c0,0.2-0.1,0.3-0.1,0.5v9.6c-2.6,0.7-4.6,3-4.6,5.9c0,3.3,2.7,6.1,6.1,6.1s6.1-2.7,6.1-6.1c0-2.8-1.9-5.2-4.6-5.9v-9.6
			c0-0.2,0-0.3-0.1-0.5h12.6c1.9,0,3.5-1.6,3.5-3.5v-1.8c0.1,0,0.1,0,0.2,0h8.1c0.8,0,1.5,0.7,1.5,1.6v19.2c-2.6,0.7-4.6,3-4.6,5.9
			c0,3.3,2.7,6.1,6.1,6.1s6.1-2.7,6.1-6.1c0-2.8-1.9-5.2-4.6-5.9v-22.4c0-0.9-0.7-1.6-1.5-1.6h-11.1c-0.1,0-0.1,0-0.2,0v-8.1h9.5
			c0.1,0,0.1,0,0.2,0c0.5,2.8,3,5,6,5c3.3,0,6.1-2.7,6.1-6.1S177.7,141.4,174.4,141.4z M108.1,107.5c0-1.7,1.4-3.1,3.1-3.1
			s3.1,1.4,3.1,3.1s-1.4,3.1-3.1,3.1S108.1,109.2,108.1,107.5z M106.6,150.5c-1.7,0-3.1-1.4-3.1-3.1s1.4-3.1,3.1-3.1
			s3.1,1.4,3.1,3.1S108.3,150.5,106.6,150.5z M137.5,113.6c0-1.7,1.4-3.1,3.1-3.1s3.1,1.4,3.1,3.1s-1.4,3.1-3.1,3.1
			S137.5,115.3,137.5,113.6z M144.2,181c0,1.7-1.4,3.1-3.1,3.1s-3.1-1.4-3.1-3.1s1.4-3.1,3.1-3.1S144.2,179.3,144.2,181z
			 M155.7,161.6c0,0.3-0.2,0.5-0.5,0.5h-29.1c-0.3,0-0.5-0.2-0.5-0.5v-29.1c0-0.3,0.2-0.5,0.5-0.5h29.1c0.3,0,0.5,0.2,0.5,0.5V161.6
			z M173.1,186.4c0,1.7-1.4,3.1-3.1,3.1s-3.1-1.4-3.1-3.1s1.4-3.1,3.1-3.1S173.1,184.8,173.1,186.4z M174.4,150.5
			c-1.7,0-3.1-1.4-3.1-3.1s1.4-3.1,3.1-3.1s3.1,1.4,3.1,3.1S176.1,150.5,174.4,150.5z"/>
		<path class="st3" d="M179.9,111.8c-3.3,0-6.1,2.7-6.1,6.1s2.7,6.1,6.1,6.1s6.1-2.7,6.1-6.1S183.2,111.8,179.9,111.8z M179.9,120.9
			c-1.7,0-3.1-1.4-3.1-3.1s1.4-3.1,3.1-3.1s3.1,1.4,3.1,3.1S181.6,120.9,179.9,120.9z"/>
		<path class="st3" d="M145.1,138.1h-9.1c-2.7,0-4.9,2.2-4.9,4.9v9.1c0,2.6,2.1,4.7,4.7,4.7h9.3c2.6,0,4.7-2.1,4.7-4.7v-9.3
			C149.8,140.2,147.7,138.1,145.1,138.1z M146.8,152.1c0,0.9-0.8,1.7-1.7,1.7h-9.3c-0.9,0-1.7-0.8-1.7-1.7V143c0-1,0.8-1.9,1.9-1.9
			h9.1c0.9,0,1.7,0.8,1.7,1.7V152.1z"/>
		<circle class="st3" cx="112.1" cy="176.8" r="2.2"/>
		<circle class="st3" cx="168.9" cy="117.8" r="1.8"/>
	</g>
</g>
<g id="Слой_6" class="st0">
	<circle class="st1" cx="141.7" cy="141.7" r="69.3"/>
	<g class="st2">
		<path class="st3" d="M132.7,124.1h15.5c0.9,0,1.7-0.8,1.7-1.7s-0.8-1.7-1.7-1.7h-15.5c-0.9,0-1.7,0.8-1.7,1.7
			S131.8,124.1,132.7,124.1z"/>
		<circle class="st3" cx="133" cy="116.4" r="1.9"/>
		<circle class="st3" cx="149.1" cy="116.4" r="1.9"/>
		<path class="st3" d="M189.5,118.3v3c0,0.8-0.6,1.4-1.4,1.4h-2c-0.3-2.6-2.1-4.7-4.6-5.4v-0.9c0-0.8,0.7-1.5,1.6-1.5h3v-2.7h-3
			c-2.5,0-4.5,1.9-4.5,4.2v0.7c-3.3,0.4-5.9,3.1-5.9,6.3c0,1.1,0.3,2.1,0.8,3c0,1.1-0.2,4.7-3.3,6.9c-3.5,2.6-7.7,0.6-7.9,0.5
			l-1.6-0.8v-2c0-1.8-1.5-3.3-3.3-3.3h-0.9v-7.6c0.5,0.2,1.1,0.4,1.8,0.4h1.7c2.5,0,4.6-2.1,4.6-4.6v-1.7c0-2.5-2.1-4.6-4.6-4.6
			h-1.7c-0.1,0-0.3,0-0.4,0v-0.5c0-9.6-7.8-17.3-17.3-17.3s-17.3,7.8-17.3,17.3v0.4c0,0-0.1,0-0.1,0h-1.7c-2.5,0-4.6,2.1-4.6,4.6
			v1.7c0,2.5,2.1,4.6,4.6,4.6h1.7c0.5,0,1-0.1,1.4-0.3v7.5H124c-1.8,0-3.3,1.5-3.3,3.3v0.4c-2.6-0.3-6.7-0.3-10.9,1.9
			c-9.9,5.2-10.1,15.1-10.1,15.5l0,0.4c-0.8,0.8-1.5,1.7-1.8,2.8h-2.4c-2.5,0-4.5,2-4.5,4.5v3.3h3v-3.3c0-0.8,0.7-1.5,1.5-1.5h2
			c0.3,2.8,2.2,5.1,4.8,6v1c0,0.9-0.7,1.7-1.7,1.7h-3.2v3h3.2c2.6,0,4.7-2.1,4.7-4.7v-0.7c3.5-0.4,6.2-3.4,6.2-6.9
			c0-1.2-0.3-2.3-0.8-3.3c0-1.2,0.3-5.2,3.4-7.6c2.3-1.8,4.9-1.6,6.6-1.1v7.8c0,1.8,1.5,3.3,3.3,3.3h1.7c0,0.2-0.1,0.4-0.1,0.6v13.3
			c0,1,0.5,1.8,1.3,2.3c-1.7,0.8-2.9,2.5-2.9,4.5c0,0.7,0.2,1.4,0.4,2c-4.2,0.1-7.7,3.6-7.7,7.8c0,4.3,3.5,7.8,7.8,7.8h30.3
			c4.3,0,7.8-3.5,7.8-7.8c0-4.1-3.1-7.4-7.1-7.8c0.3-0.6,0.4-1.3,0.4-2c0-1.9-1.1-3.6-2.7-4.4c0.9-0.4,1.5-1.3,1.5-2.3v-13.3
			c0-0.2,0-0.4-0.1-0.6h2.5c1.8,0,3.3-1.5,3.3-3.3v-6.6l0.5,0.2c0.3,0.1,6.6,2.1,13.1-1.1c9.5-4.7,9.7-13.7,9.7-14.1l0-0.4
			c0.8-0.7,1.4-1.6,1.8-2.5h2.3c2.4,0,4.3-1.8,4.3-4.1v-3H189.5z M156.7,114.2c0-0.9,0.7-1.6,1.6-1.6h1.7c0.9,0,1.6,0.7,1.6,1.6v1.7
			c0,0.9-0.7,1.6-1.6,1.6h-1.7c-0.9,0-1.6-0.7-1.6-1.6V114.2z M104.6,158.3c-2.2,0-4-1.8-4-4s1.8-4,4-4s4,1.8,4,4
			S106.8,158.3,104.6,158.3z M120.7,139.1c-2.3-0.5-5.5-0.5-8.4,1.8c-2.6,2-3.7,4.6-4.2,6.8c-0.2-0.1-0.4-0.2-0.6-0.3
			c-0.9-0.5-1.9-0.7-3-0.7c-0.4,0-0.9,0-1.4,0.1c0.6-2.8,2.4-7.8,8.2-10.8c3.7-1.9,7.4-1.8,9.5-1.5V139.1z M140.6,94.8
			c7.4,0,13.5,5.6,14.3,12.8h-28.5C127.1,100.5,133.2,94.8,140.6,94.8z M127.6,113.1v-2.4h26v16.5h-26V117c0.1-0.4,0.2-0.7,0.2-1.1
			v-1.7C127.7,113.8,127.7,113.4,127.6,113.1z M123.1,117.4h-1.7c-0.9,0-1.6-0.7-1.6-1.6v-1.7c0-0.9,0.7-1.6,1.6-1.6h1.7
			c0.6,0,1.2,0.4,1.4,0.9v3C124.3,117.1,123.8,117.4,123.1,117.4z M127.1,173.9c0-1.1,0.9-2,2-2h6.2c1.1,0,2,0.9,2,2s-0.9,2-2,2
			h-6.2C128,175.9,127.1,175,127.1,173.9z M128.6,166.8v-12.5h7.2v12.5H128.6z M138.7,153.3h3.1c0,0.2-0.1,0.4-0.1,0.6v13.3
			c0,0.9,0.5,1.7,1.2,2.2c-1.4,0.6-2.5,1.9-2.9,3.5c-0.3-1.5-1.4-2.8-2.7-3.4c0.8-0.4,1.3-1.3,1.3-2.3v-13.3
			C138.8,153.7,138.8,153.5,138.7,153.3z M143.1,173.9c0-1.1,0.9-2,2-2h6.2c1.1,0,2,0.9,2,2s-0.9,2-2,2h-6.2
			C144,175.9,143.1,175,143.1,173.9z M144.8,166.8v-12.5h7.2v12.5H144.8z M119.9,183.8c0-2.7,2.2-4.8,4.8-4.8h4.4h6.2h3.1v9.7h-13.7
			C122.1,188.6,119.9,186.4,119.9,183.8z M159.9,183.8c0,2.7-2.2,4.8-4.8,4.8h-13.3v-9.7h3.3h6.2h3.8
			C157.7,178.9,159.9,181.1,159.9,183.8z M157.7,150c0,0.2-0.1,0.3-0.3,0.3H124c-0.2,0-0.3-0.1-0.3-0.3v-6.5l0.8,0.4v-11.6l-0.8-0.3
			V131c0-0.2,0.1-0.3,0.3-0.3h33.4c0.2,0,0.3,0.1,0.3,0.3V150z M173,140c-4.1,2-8.1,1.6-9.9,1.2v-4.3c2.2,0.6,5.7,0.9,8.9-1.5
			c2.5-1.8,3.6-4.2,4-6.1c0.2,0.1,0.4,0.2,0.6,0.3c0.9,0.4,1.9,0.6,2.9,0.6c0.4,0,0.9,0,1.3-0.1C180.3,132.7,178.6,137.2,173,140z
			 M179.4,127c-2.1,0-3.8-1.6-3.8-3.6s1.7-3.6,3.8-3.6c2.1,0,3.8,1.6,3.8,3.6S181.6,127,179.4,127z"/>
	</g>
</g>
</svg>
