<svg id="Слой_1" data-name="Слой 1" xmlns="http://www.w3.org/2000/svg" viewBox="0 0 254.21 228.92"><defs><style>.cls-1{fill:#ffdf00;}</style></defs><path class="cls-1" d="M261.08,129.42,209.65,78C193.57,63,94.55,33.27,90.84,33c-9.25-.75-17,1.29-20.65,8.86C65.13,52.2,70.67,62,80.42,69.66h0l49.76,33.54a.08.08,0,0,1,0,.12L22,190.72a21,21,0,0,0-3.13,29.49h0a21,21,0,0,0,29.49,3.13L82.2,196a.07.07,0,0,1,.12,0,20.76,20.76,0,0,0,4.32,9.62,21,21,0,0,0,20.15,7.41.07.07,0,0,1,.08.08,20.93,20.93,0,0,0,4.26,17.07h0a21,21,0,0,0,19.43,7.52.07.07,0,0,1,.08.08,20.91,20.91,0,0,0,4.16,16.07c7.22,9.23,21.06,10.37,30.17,3l84.21-68.05C276.5,166,269.23,137.58,261.08,129.42Z" transform="translate(-14.28 -32.82)"/></svg>