<svg xmlns="http://www.w3.org/2000/svg" viewBox="0 0 200.95 200.95"><defs><style>.cls-1,.cls-3{fill:#456799;}.cls-1{stroke:#edef9a;stroke-miterlimit:10;stroke-width:3px;}.cls-2{fill:#fff;}</style></defs><title>вк</title><g id="Слой_4" data-name="Слой 4"><circle class="cls-1" cx="100.47" cy="100.47" r="98.97"/></g><g id="Слой_5" data-name="Слой 5"><rect class="cls-2" x="51.05" y="51.73" width="97.49" height="97.49" rx="19.86" ry="19.86"/><path class="cls-3" d="M165.85,153.25q0,7.4-5.62,11.35t-16.34,4h-22V115.89h21q9.4,0,14.78,3.59a11.24,11.24,0,0,1,5.38,9.84q0,7.62-8.47,11.28,5.7,1.29,8.53,4.76A12.12,12.12,0,0,1,165.85,153.25Zm-36.22-15.3h13.09q6.46,0,9.52-1.85t3.05-6.16a6.53,6.53,0,0,0-3-5.84q-3-2-10.32-2H129.63Zm0,24.36H143.8q14,0,14-9.05,0-4.71-3.23-6.88T142.8,144.2H129.63Z" transform="translate(-41.93 -41.75)"/></g></svg>