<svg xmlns="http://www.w3.org/2000/svg" xmlns:xlink="http://www.w3.org/1999/xlink" viewBox="0 0 200.95 200.95"><defs><style>.cls-1{stroke:#edef9a;stroke-miterlimit:10;stroke-width:3px;fill:url(#Безымянный_градиент_23);}.cls-2{fill:#fff;}</style><linearGradient id="Безымянный_градиент_23" x1="30.49" y1="170.46" x2="170.46" y2="30.49" gradientUnits="userSpaceOnUse"><stop offset="0" stop-color="#ffe157"/><stop offset="0.36" stop-color="#fe851e"/><stop offset="0.74" stop-color="#f0047f"/><stop offset="1" stop-color="#6a439d"/></linearGradient></defs><title>инста</title><g id="Слой_2" data-name="Слой 2"><circle class="cls-1" cx="100.47" cy="100.47" r="98.97"/></g><g id="Слой_3" data-name="Слой 3"><path class="cls-2" d="M142.74,134.76c-.34,0-.67,0-1,.05h2C143.41,134.79,143.08,134.76,142.74,134.76Z" transform="translate(-44.93 -45.75)"/><path class="cls-2" d="M186.51,84.67H98.41a17.52,17.52,0,0,0-17.5,17.5v88.1a17.52,17.52,0,0,0,17.5,17.5h88.1a17.52,17.52,0,0,0,17.5-17.5v-88.1A17.52,17.52,0,0,0,186.51,84.67ZM176,99.46A11.53,11.53,0,1,1,164.47,111,11.53,11.53,0,0,1,176,99.46Zm-33.26,33.69a20.3,20.3,0,1,1-20.3,20.3A20.33,20.33,0,0,1,142.74,133.15ZM193,190.27a6.51,6.51,0,0,1-6.5,6.5H98.41a6.51,6.51,0,0,1-6.5-6.5V134.81h27a30.3,30.3,0,1,0,47.72,0H193Z" transform="translate(-44.93 -45.75)"/></g></svg>