<svg id="Слой_2" data-name="Слой 2" xmlns="http://www.w3.org/2000/svg" viewBox="0 0 138.67 138.67"><defs><style>.cls-1{fill:#fff;}.cls-2{fill:#ffed17;}</style></defs><title>5</title><circle class="cls-1" cx="69.33" cy="69.33" r="69.33"/><path class="cls-2" d="M192.23,159.7h-8.47a6.29,6.29,0,0,0,1.3-3.83V106.53a6.34,6.34,0,0,0-6.33-6.33H99.56a6.34,6.34,0,0,0-6.33,6.33v49.33a6.29,6.29,0,0,0,1.3,3.83H86.31A2.25,2.25,0,0,0,84.06,162v5.25a7.51,7.51,0,0,0,7.5,7.5h95.5a7.51,7.51,0,0,0,7.5-7.5V162A2.34,2.34,0,0,0,192.23,159.7ZM105.45,158V113.87a1.18,1.18,0,0,1,1.19-1.17h65.68a1.18,1.18,0,0,1,1.19,1.17V158a1.18,1.18,0,0,1-1.19,1.17H106.64A1.18,1.18,0,0,1,105.45,158Zm-9.22-51.5a3.34,3.34,0,0,1,3.33-3.33h79.17a3.34,3.34,0,0,1,3.33,3.33v49.33a3.34,3.34,0,0,1-3.33,3.33h-2.36a4,4,0,0,0,.19-1.17V113.87a4.21,4.21,0,0,0-4.24-4.17H106.64a4.21,4.21,0,0,0-4.24,4.17V158a4,4,0,0,0,.19,1.17h-3a3.34,3.34,0,0,1-3.33-3.33Zm95.33,60.67a4.5,4.5,0,0,1-4.5,4.5H91.56a4.5,4.5,0,0,1-4.5-4.5v-4.5h104.5Z" transform="translate(-70.4 -70.96)"/><path class="cls-2" d="M101.31,169.2h4.5a1.75,1.75,0,0,0,0-3.5h-4.5a1.75,1.75,0,1,0,0,3.5Z" transform="translate(-70.4 -70.96)"/><path class="cls-2" d="M159.23,151.69V123.8l-16-8.52L118.56,121v25.22L133,158.52Zm-3-5.15-4.55-2.79-1.57,2.56,5.33,3.27-21.21,5.52V130.78l7.33-1.67v2.19h3v-2.88l11.67-2.66Zm-25,6.51-8.19-7,5.82-1.18-.59-2.94-6.7,1.35v-18.5l9.67,6ZM124,122.83l17.55-4.07v2h3v-1.39l7.84,4.19-7.84,1.79V124.2h-3V126l-9.07,2.07Z" transform="translate(-70.4 -70.96)"/><polygon class="cls-2" points="74.17 64.91 71.17 64.91 71.17 68.4 66.31 69.58 67.02 72.5 72.39 71.19 76.35 73.75 77.98 71.24 74.17 68.76 74.17 64.91"/></svg>