<svg width="51" height="51" viewBox="0 0 51 51" fill="none" xmlns="http://www.w3.org/2000/svg">
<path d="M50.2246 46.4529L37.6522 33.8287C40.8848 30.1187 42.6559 25.4508 42.6559 20.5912C42.6559 9.2374 33.088 0 21.328 0C9.56791 0 0 9.2374 0 20.5912C0 31.9451 9.56791 41.1825 21.328 41.1825C25.7429 41.1825 29.95 39.8969 33.547 37.4563L46.2149 50.1764C46.7444 50.7072 47.4566 51 48.2197 51C48.9421 51 49.6274 50.7341 50.1476 50.2507C51.253 49.2238 51.2882 47.521 50.2246 46.4529ZM21.328 5.37163C30.0205 5.37163 37.0921 12.199 37.0921 20.5912C37.0921 28.9835 30.0205 35.8108 21.328 35.8108C12.6354 35.8108 5.56382 28.9835 5.56382 20.5912C5.56382 12.199 12.6354 5.37163 21.328 5.37163Z" fill="white"/>
</svg>
