<svg id="Слой_3" data-name="Слой 3" xmlns="http://www.w3.org/2000/svg" viewBox="0 0 138.67 138.67"><defs><style>.cls-1{fill:#fff;}.cls-2{fill:#ffed17;}</style></defs><title>4</title><circle class="cls-1" cx="69.33" cy="69.33" r="69.33"/><path class="cls-2" d="M140.48,94.18a43.75,43.75,0,1,0,43.75,43.75A43.8,43.8,0,0,0,140.48,94.18Zm0,84.5a40.75,40.75,0,1,1,40.75-40.75A40.8,40.8,0,0,1,140.48,178.68Z" transform="translate(-72.4 -69.54)"/><path class="cls-2" d="M174.1,139.43v-1.5a33.08,33.08,0,0,0-66.16,0v1.5h32.31l-3.89,6.25a10,10,0,0,0-5.28,6.38,1.49,1.49,0,0,0-.35,0H112.44a1.5,1.5,0,0,0,0,3h18.31a9.92,9.92,0,0,0,19.84,0H168.9a1.5,1.5,0,1,0,0-3H150.61a1.49,1.49,0,0,0-.35,0,9.87,9.87,0,0,0-1.17-2.68l1.61-9.94Zm-61.34-11.8,3.55,1.29a1.5,1.5,0,0,0,1-2.82l-3.4-1.23A30.27,30.27,0,0,1,122.76,114l2.8,3.52a1.5,1.5,0,1,0,2.35-1.86l-2.67-3.37a29.87,29.87,0,0,1,13.83-4.42l.22,4.75a1.5,1.5,0,1,0,3-.14l-.22-4.65a29.88,29.88,0,0,1,14.28,4.18l-2.45,4a1.5,1.5,0,1,0,2.55,1.58l2.4-3.87A30.29,30.29,0,0,1,167.67,124a1.48,1.48,0,0,0-.38.16l-4,2.54a1.5,1.5,0,0,0,1.6,2.54l4-2.54h0a29.87,29.87,0,0,1,2.15,9.75H151.27l1.79-11a1.9,1.9,0,0,0-3.49-1.31l-7.7,12.36H111A29.88,29.88,0,0,1,112.76,127.63ZM149,131l-2.53,15.59a9.87,9.87,0,0,0-5.84-1.91h-.16Zm-8.36,30.55a6.94,6.94,0,1,1,6.94-6.94A6.95,6.95,0,0,1,140.67,161.55Z" transform="translate(-72.4 -69.54)"/></svg>