<svg width="35" height="35" viewBox="0 0 35 35" fill="none" xmlns="http://www.w3.org/2000/svg">
<path d="M30.2031 17.6832H28.4181C28.4181 11.8577 23.6801 7.12086 17.8579 7.12086L17.8568 5.33797C24.6659 5.33475 30.2031 10.8742 30.2031 17.6832ZM17.8568 8.41731L17.8557 10.2002C21.984 10.2002 25.3377 13.5571 25.3355 17.6821L27.1206 17.6811C27.1206 12.5735 22.9676 8.41731 17.8568 8.41731ZM17.5 0C7.84945 0 0 7.84945 0 17.5011C0 27.1506 7.84945 35 17.5 35C18.0968 35 18.579 34.5178 18.579 33.9221C18.579 33.3232 18.0968 32.84 17.5 32.84C9.03983 32.84 2.15897 25.957 2.15897 17.5011C2.15897 9.0409 9.03983 2.15897 17.5 2.15897C25.9602 2.15897 32.84 9.04197 32.84 17.5011C32.84 21.0358 30.9585 24.5384 28.2659 26.0234C27.2877 26.5613 26.227 26.828 25.0955 26.8388C25.7748 26.4348 26.363 25.8884 26.8002 25.2005C26.8859 25.0709 26.9995 24.9562 27.0552 24.8159C27.4066 23.9705 27.4377 23.0115 27.6499 22.118C27.9102 20.9779 22.659 18.7504 22.2026 20.1743C22.0376 20.7015 21.7847 22.3687 21.4537 22.808C21.159 23.2001 20.4326 23.0137 19.9783 22.628C18.7815 21.6079 17.4454 20.109 16.2732 18.924L16.2753 18.9229C16.2453 18.8918 16.2089 18.8575 16.1768 18.8243C16.1435 18.7932 16.1103 18.7579 16.0771 18.7257V18.7279C14.8921 17.5536 13.3921 16.2207 12.3731 15.0217C11.9874 14.5674 11.801 13.841 12.1931 13.5463C12.6324 13.2131 14.2996 12.9646 14.8267 12.7974C16.2475 12.3431 14.0231 7.08872 12.881 7.35015C11.9895 7.55908 11.0306 7.59337 10.1852 7.94266C10.0416 8.00374 9.9302 8.11409 9.80056 8.19981C6.80157 10.1006 6.41477 14.7164 9.34198 18.1557C10.4574 19.4715 11.621 20.7444 12.8188 21.9872L12.8124 21.9915C12.8456 22.0247 12.8799 22.0558 12.9142 22.088C12.9463 22.1212 12.9774 22.1544 13.0085 22.1897L13.0149 22.1833C14.2578 23.3812 15.731 25.1459 18.1247 26.7423C23.1637 30.1078 27.0306 29.1681 29.3085 27.9188C33.2407 25.7534 35 21.1279 35 17.5054C35 7.84945 27.1495 0 17.5 0Z" fill="#3d67b0"/>
</svg>
