<svg id="Слой_5" data-name="Слой 5" xmlns="http://www.w3.org/2000/svg" viewBox="0 0 138.67 138.67"><defs><style>.cls-1{fill:#fff;}.cls-2{fill:none;}.cls-3{fill:#ffed17;}</style></defs><title>2</title><circle class="cls-1" cx="69.33" cy="69.33" r="69.33"/><path class="cls-2" d="M155.21,131.95H126.08a.51.51,0,0,0-.5.5v29.13a.51.51,0,0,0,.5.5h29.13a.51.51,0,0,0,.5-.5V132.45A.51.51,0,0,0,155.21,131.95Zm-5.37,20.13a4.69,4.69,0,0,1-4.69,4.69H135.9a4.69,4.69,0,0,1-4.69-4.69V143a4.88,4.88,0,0,1,4.88-4.87h9.06a4.69,4.69,0,0,1,4.69,4.69Z" transform="translate(-71.17 -79.73)"/><circle class="cls-2" cx="69.98" cy="101.28" r="3.06"/><path class="cls-2" d="M145.15,141.13h-9.06a1.88,1.88,0,0,0-1.87,1.88v9.06a1.69,1.69,0,0,0,1.69,1.69h9.25a1.69,1.69,0,0,0,1.69-1.69v-9.25A1.69,1.69,0,0,0,145.15,141.13Z" transform="translate(-71.17 -79.73)"/><circle class="cls-2" cx="35.48" cy="67.72" r="3.06"/><circle class="cls-2" cx="30.73" cy="97.15" r="3.06"/><circle class="cls-2" cx="39.98" cy="27.78" r="3.06"/><circle class="cls-2" cx="69.35" cy="33.84" r="3.06"/><circle class="cls-2" cx="108.73" cy="38.09" r="3.06"/><circle class="cls-2" cx="103.23" cy="67.72" r="3.06"/><circle class="cls-2" cx="98.85" cy="106.72" r="3.06"/><path class="cls-3" d="M101.9,170.82a6.06,6.06,0,1,0,6.06,6.06A6.07,6.07,0,0,0,101.9,170.82Zm0,9.13a3.06,3.06,0,1,1,3.06-3.06A3.07,3.07,0,0,1,101.9,179.95Z" transform="translate(-71.17 -79.73)"/><path class="cls-3" d="M174.4,141.38a6.07,6.07,0,0,0-5.75,4.17,2.09,2.09,0,0,0-.4,0h-9.53V132.45a3.5,3.5,0,0,0-3.5-3.5h-2.37v-7.79a1.56,1.56,0,0,1,1.5-1.61H162a1.62,1.62,0,0,0,0-3.22H151.33a1.56,1.56,0,0,0-1.5,1.61v11h-8.09a2,2,0,0,0,.28-1v-8.33c0-.05,0-.1,0-.15a6.06,6.06,0,1,0-3,0c0,.05,0,.1,0,.15v8.33a2,2,0,0,0,.28,1H126.08a3.5,3.5,0,0,0-3.5,3.5v2.25l-.19,0h-8.25a1.54,1.54,0,0,1-1.5-1.57V113.37a6.06,6.06,0,1,0-3,0v22.87a1.54,1.54,0,0,0,1.5,1.57H122.4l.19,0V146l-.19,0h-9.88a6.06,6.06,0,1,0,0,3h9.88l.19,0v12.64a3.5,3.5,0,0,0,3.5,3.5h2.3a1.49,1.49,0,0,0-.05.38v8.44a1.5,1.5,0,0,1-1.5,1.5h-7.37a1.5,1.5,0,0,0,0,3h10.38a1.5,1.5,0,0,0,1.5-1.5V165.45a1.49,1.49,0,0,0-.05-.37h8.44a1.71,1.71,0,0,0-.08.49v9.58a6.06,6.06,0,1,0,3,0v-9.58a1.71,1.71,0,0,0-.08-.49h12.64a3.5,3.5,0,0,0,3.5-3.5v-1.78l.19,0H167a1.56,1.56,0,0,1,1.5,1.62v19.15a6.06,6.06,0,1,0,3,0V158.19a1.56,1.56,0,0,0-1.5-1.62H158.9l-.19,0v-8.08h9.53l.19,0a6.06,6.06,0,1,0,6-7.11Zm-66.31-33.87a3.06,3.06,0,1,1,3.06,3.06A3.07,3.07,0,0,1,108.08,107.51Zm-1.44,43a3.06,3.06,0,1,1,3.06-3.06A3.07,3.07,0,0,1,106.65,150.51Zm30.81-36.94a3.06,3.06,0,1,1,3.06,3.06A3.07,3.07,0,0,1,137.46,113.57ZM144.21,181a3.06,3.06,0,1,1-3.06-3.06A3.07,3.07,0,0,1,144.21,181Zm11.5-19.44a.51.51,0,0,1-.5.5H126.08a.51.51,0,0,1-.5-.5V132.45a.51.51,0,0,1,.5-.5h29.13a.51.51,0,0,1,.5.5Zm17.38,24.88a3.06,3.06,0,1,1-3.06-3.06A3.07,3.07,0,0,1,173.08,186.45Zm1.31-35.94a3.06,3.06,0,1,1,3.06-3.06A3.07,3.07,0,0,1,174.4,150.51Z" transform="translate(-71.17 -79.73)"/><path class="cls-3" d="M179.9,111.76a6.06,6.06,0,1,0,6.06,6.06A6.07,6.07,0,0,0,179.9,111.76Zm0,9.13a3.06,3.06,0,1,1,3.06-3.06A3.07,3.07,0,0,1,179.9,120.88Z" transform="translate(-71.17 -79.73)"/><path class="cls-3" d="M145.15,138.13h-9.06a4.88,4.88,0,0,0-4.87,4.88v9.06a4.69,4.69,0,0,0,4.69,4.69h9.25a4.69,4.69,0,0,0,4.69-4.69v-9.25A4.69,4.69,0,0,0,145.15,138.13Zm1.69,13.94a1.69,1.69,0,0,1-1.69,1.69H135.9a1.69,1.69,0,0,1-1.69-1.69V143a1.88,1.88,0,0,1,1.88-1.87h9.06a1.69,1.69,0,0,1,1.69,1.69Z" transform="translate(-71.17 -79.73)"/><circle class="cls-3" cx="40.98" cy="97.03" r="2.19"/><circle class="cls-3" cx="97.73" cy="38.09" r="1.81"/></svg>