<?xml version="1.0" encoding="utf-8"?>
<!-- Generator: Adobe Illustrator 21.1.0, SVG Export Plug-In . SVG Version: 6.00 Build 0)  -->
<svg version="1.1" xmlns="http://www.w3.org/2000/svg" xmlns:xlink="http://www.w3.org/1999/xlink" x="0px" y="0px"
	 viewBox="0 0 191.4 195" style="enable-background:new 0 0 191.4 195;" xml:space="preserve">
<style type="text/css">
	.st0{fill:#74C4F0;}
	.st1{display:none;}
	.st2{display:inline;fill:#8E8E8E;}
	.st3{fill:#FECC00;}
	.st4{fill:#FFFFFF;}
	.st5{fill:#FCCC12;}
</style>
<g id="Слой_2">
</g>
<g id="Слой_3" class="st1">
</g>
<g id="Слой_1">
	<g>
		<path class="st0" d="M66.2,159.7V112l-8.7,8.7c-1.2,1.2-3.2,1.2-4.4,0l-1.7-1.7L26.9,94.4c-1.2-1.2-1.2-3.2,0-4.4l1.6-1.6
			L16.4,76.4c-2.1,6.4-3.3,13.2-3.3,20.3C13.1,128.3,36.1,154.6,66.2,159.7C66.2,159.7,66.2,159.7,66.2,159.7z"/>
		<path class="st0" d="M77.1,32.7c-26.9,0-49.9,16.6-59.4,40.1L31,86l1.4-1.4c1.2-1.2,3.2-1.2,4.4,0l18.6,18.6l12.1-12.1
			c0.2-0.2,0.4-0.4,0.6-0.6l0.3-0.3c0.7-0.7,1.7-1,2.6-0.9c0.1,0,0.2,0,0.4,0h14c-8.7,0-15.8-7.1-15.8-15.8s7.1-15.8,15.8-15.8
			s15.8,7.1,15.8,15.8S94,89.2,85.3,89.2h14c0.2,0,0.4,0,0.6,0.1c1-0.2,2,0.1,2.8,0.8l19.2,19.2c0.7,0.7,1,1.6,0.9,2.5
			c0.1,0.9-0.2,1.8-0.9,2.5l-19.2,19.2c-1.2,1.2-3.2,1.2-4.4,0l-5.5-5.5c-1.2-1.2-1.2-3.2,0-4.4l11.8-11.8L90.9,98l-15.6,15.6
			c-1.1,1.1-1.1,2.8,0,3.9L97.8,140c1.1,1.1,2.8,1.1,3.9,0l2.7-2.7v17.2c21.7-10.2,36.7-32.3,36.7-57.9
			C141.1,61.3,112.5,32.7,77.1,32.7z"/>
	</g>
	<path class="st3" d="M150.3,74.3c-1.4,1.7-4,1.9-5.6,0.5c0,0-0.1-0.1-0.1-0.1c-0.2-0.1-0.4-0.3-0.6-0.5l-14.1-14.1
		c-1.6-1.6-1.6-4.1,0-5.7c1.6-1.6,4.1-1.6,5.7,0L147,65.9l20.6-24.4c-4.9-5.4-12-8.8-19.9-8.8c-14.9,0-27,12.1-27,27s12.1,27,27,27
		s27-12.1,27-27c0-4-0.9-7.9-2.5-11.3L150.3,74.3z"/>
</g>
</svg>
