<?xml version="1.0" encoding="utf-8"?>
<!-- Generator: Adobe Illustrator 21.1.0, SVG Export Plug-In . SVG Version: 6.00 Build 0)  -->
<svg version="1.1" xmlns="http://www.w3.org/2000/svg" xmlns:xlink="http://www.w3.org/1999/xlink" x="0px" y="0px"
	 viewBox="0 0 186.8 190" style="enable-background:new 0 0 186.8 190;" xml:space="preserve">
<style type="text/css">
	.st0{fill:#74C4F0;}
	.st1{display:none;}
	.st2{display:inline;fill:#8E8E8E;}
	.st3{fill:#FECC00;}
	.st4{fill:#FFFFFF;}
	.st5{fill:#FCCC12;}
</style>
<g id="Слой_2">
	<g>
		<path class="st0" d="M67,120.1c-0.6-4.3-4.4-7.7-8.9-7.7c-5,0-9,4-9,9s4,9,9,9c0.9,0,1.8-0.1,2.6-0.4c0.8,1.4,2.2,3.1,4.4,4.1
			c4.3,2,14.5,1.3,21-1.8s7.8-4.9,7.8-4.9L73,118.7C73,118.7,71,118,67,120.1z"/>
		<path class="st0" d="M71.4,33.3c-35.3,0-64,28.7-64,64c0,26.2,15.7,48.7,38.2,58.6l2.9-11l-9.9-6.6c-3.2-2.1-4.6-6.1-3.3-9.8
			l9.2-27.4c1.9-5.8,7.3-9.7,13.4-9.7h14.9c-8.7,0-15.8-7.1-15.8-15.8S64,59.8,72.7,59.8s15.8,7.1,15.8,15.8s-7.1,15.8-15.8,15.8
			h12.5c6.1,0,11.5,3.9,13.4,9.6l9.1,27c1.1,3.4,0.1,7.1-2.7,9.3l-9.2,7.5c0,0,0,0,0,0l2.9,10.2c21.7-10.3,36.6-32.3,36.6-57.9
			C135.4,62,106.7,33.3,71.4,33.3z"/>
	</g>
</g>
<g id="Слой_3" class="st1">
</g>
<g id="Слой_1">
	<path class="st3" d="M143.7,74.3c-1.4,1.7-4,1.9-5.6,0.5c0,0-0.1-0.1-0.1-0.1c-0.2-0.1-0.4-0.3-0.6-0.5l-14.1-14.1
		c-1.6-1.6-1.6-4.1,0-5.7c1.6-1.6,4.1-1.6,5.7,0l11.4,11.4l20.6-24.4c-4.9-5.4-12-8.8-19.9-8.8c-14.9,0-27,12.1-27,27s12.1,27,27,27
		s27-12.1,27-27c0-4-0.9-7.9-2.5-11.3L143.7,74.3z"/>
</g>
</svg>
