<?xml version="1.0" encoding="utf-8"?>
<!-- Generator: Adobe Illustrator 21.1.0, SVG Export Plug-In . SVG Version: 6.00 Build 0)  -->
<svg version="1.1" xmlns="http://www.w3.org/2000/svg" xmlns:xlink="http://www.w3.org/1999/xlink" x="0px" y="0px"
	 viewBox="0 0 209.5 189.5" style="enable-background:new 0 0 209.5 189.5;" xml:space="preserve">
<style type="text/css">
	.st0{fill:#FFFFFF;}
	.st1{fill:#2B2A29;}
	.st2{fill:#B0CB24;}
	.st3{fill:#FCCC12;}
	.st4{fill:#E21F24;}
	.st5{fill:#FCCC12;stroke:#2B2A29;stroke-width:2;stroke-miterlimit:10;}
</style>
<g id="Слой_1">
</g>
<g id="Слой_6">
	<g>
		<circle class="st0" cx="106.8" cy="97.5" r="11.1"/>
		<path class="st0" d="M53.6,40.9c0.8,2.1,3.2,3.2,5.3,2.4L70.1,39c2.1-0.8,3.2-3.2,2.4-5.3l-4.2-11.2c-0.8-2.1-3.2-3.2-5.3-2.4
			l-11.2,4.2c-2.1,0.8-3.2,3.2-2.4,5.3L53.6,40.9z"/>
		<path class="st0" d="M190.3,93.8h-26.8c0-0.8-0.1-1.6-0.1-2.4c-0.1-1.2-1.1-2.8-4-2.8c-1.4,0-2.9,0-4.4-0.4
			c-5.3-1.4-9.3-5.9-10-11.3c-0.7-5.1,1.4-9.7,5-12.5c0.7-0.6,1.8-2.4,0.7-3.6c-2-2.2-3.9-4.5-6.3-6.2c-1.4-1.1-3.3-0.1-3.9,0.7
			c-2.8,3.9-7.6,6.3-12.9,5.6c-6-0.8-10.9-5.7-11.7-11.7c-0.2-1.3-0.2-2.6,0-3.9c0.2-1.1,0.2-3.4-1.8-3.6c-1.4-0.2-2.8-0.2-4.2-0.2
			V14.3c0-1.5-1.2-2.8-2.8-2.8s-2.8,1.2-2.8,2.8v27.2c-0.6,0-1.3,0.1-1.9,0.2c-1.8,0.2-2,2.3-1.8,3.2c0.3,1.6,0.3,3.3,0,5.1
			c-0.9,4.9-4.6,8.8-9.4,10.4c-6.4,2.1-9.5-2-13.2-5.5c-1.5-1.4-3.5-0.9-4.4-0.1c-1.9,1.7-5,4.4-6.6,6.4c-1.2,1.4-0.2,3,0.5,3.6
			c3.6,3.1,5.6,8.1,4.4,13.4c-1,4.8-4.8,8.6-9.5,10.1c-1.7,0.5-3.3,0.7-4.9,0.5c-1.7-0.2-2.9,1.4-3,2.4c-0.1,1-0.1,2-0.2,2.9H23.8
			c-1.5,0-2.8,1.2-2.8,2.8s1.2,2.8,2.8,2.8h7l-8.6,6.5c-1.8,1.4-1.4,4.2,0.7,5.1l14.3,5.8c2.1,0.9,4.4-0.9,4-3.2l-2.1-14.2h15.2
			c0,0.7,0.1,1.4,0.2,2.1c0.1,0.8,1.2,2.3,3,2c1-0.1,2.1-0.1,3.2,0.1c5.4,1,10.7,6.3,11.3,11.8c0.6,4.8-1.3,9.2-4.6,12
			c-0.7,0.6-1.7,2.4-0.6,3.7c2,2.4,4.1,4.7,6.5,6.6c1.7,1.4,3.4,0,4.2-0.7c3-2.9,7.3-4.5,12-3.7c3,0.5,5.8,2.2,7.8,4.6
			c3,3.5,3.5,6.9,3.4,9.9c0,1.4,1.5,2.6,2.4,2.7c0.4,0,0.7,0.1,1.1,0.1v30.3c0,1.5,1.2,2.8,2.8,2.8s2.8-1.2,2.8-2.8v-30.2
			c1.2,0,2.3,0.1,3.4,0c2.3-0.3,2.5-2.3,2.4-3.3c-0.1-2,0.3-4.2,1.4-6.4c1.9-4,5.7-6.9,10.1-7.6c5-0.8,9.3,1.3,12.5,4.5
			c1.6,1.6,3.1,1.3,3.8,0.7c2.4-2,4.6-4.1,6.6-6.4c0.8-0.9,1.7-3,0.5-4.3c-4.3-4.5-8.6-10.4-3.2-18.4c1.4-2.1,3.4-3.7,5.7-4.7
			c2.3-1,4.6-1.2,6.7-1c1.1,0.1,3.2-0.3,3.5-2.2c0.1-0.6,0.1-1.3,0.2-1.9h26.8c1.5,0,2.8-1.2,2.8-2.8S191.8,93.8,190.3,93.8z
			 M109.8,131.2v-9.5c10.6-0.9,19.4-8.4,22.1-18.5h-6.2c-2.5,6.7-8.6,11.7-15.9,12.6v-0.6c0-1.5-1.2-2.8-2.8-2.8s-2.8,1.2-2.8,2.8
			v15.8c-16.5-1.7-29.5-15.1-30.6-31.8h9.2c0.8,10.8,8.3,19.7,18.5,22.4v-6.2c-6.8-2.5-11.9-8.7-12.6-16.2h0.6
			c1.5,0,2.8-1.2,2.8-2.8s-1.2-2.8-2.8-2.8H73.7c1.5-16.3,14.3-29.3,30.6-31v9.6c-10,1.4-18.1,8.7-20.7,18.3h6.2
			c2.3-6.3,7.8-11.1,14.5-12.4v1.5c0,1.5,1.2,2.8,2.8,2.8s2.8-1.2,2.8-2.8V62.7c17,0.9,30.7,14.3,32.2,31.1h-9.5
			c-1.4-10-8.7-18.1-18.3-20.6v6.2c6.3,2.3,11.1,7.8,12.4,14.5h-1.9c-1.5,0-2.8,1.2-2.8,2.8s1.2,2.8,2.8,2.8h2.1h5.8h9.3
			C141,116.5,127.1,130.2,109.8,131.2z"/>
		<path class="st0" d="M171.5,49.6c4.6,0,8.4-3.8,8.4-8.4s-3.8-8.4-8.4-8.4s-8.4,3.8-8.4,8.4S166.8,49.6,171.5,49.6z M171.5,35.8
			c3,0,5.4,2.4,5.4,5.4s-2.4,5.4-5.4,5.4s-5.4-2.4-5.4-5.4S168.5,35.8,171.5,35.8z"/>
	</g>
</g>
<g id="Слой_2">
</g>
<g id="Слой_4">
</g>
<g id="Слой_5">
	<g>
		<path class="st1" d="M188.5,92h-57.7c-1.4-10-8.7-18.1-18.3-20.6v6.2c6.3,2.3,11.1,7.8,12.4,14.5H123c-1.5,0-2.8,1.2-2.8,2.8
			s1.2,2.8,2.8,2.8h2.1h5.8h57.5c1.5,0,2.8-1.2,2.8-2.8S190,92,188.5,92z"/>
		<path class="st1" d="M108,114v-0.6c0-1.5-1.2-2.8-2.8-2.8s-2.8,1.2-2.8,2.8v65.5c0,1.5,1.2,2.8,2.8,2.8s2.8-1.2,2.8-2.8v-59.1
			c10.6-0.9,19.4-8.4,22.1-18.5h-6.2C121.5,108.2,115.4,113.1,108,114z"/>
		<path class="st1" d="M86.9,97.5h0.6c1.5,0,2.8-1.2,2.8-2.8S89,92,87.5,92H22c-1.5,0-2.8,1.2-2.8,2.8s1.2,2.8,2.8,2.8h59.1
			c0.8,10.8,8.3,19.7,18.5,22.4v-6.2C92.7,111.2,87.7,105,86.9,97.5z"/>
		<path class="st1" d="M102.5,76.5v1.5c0,1.5,1.2,2.8,2.8,2.8s2.8-1.2,2.8-2.8V12.4c0-1.5-1.2-2.8-2.8-2.8s-2.8,1.2-2.8,2.8v58.1
			c-10,1.4-18.1,8.7-20.7,18.3H88C90.3,82.5,95.8,77.8,102.5,76.5z"/>
	</g>
</g>
<g id="Слой_7">
	<path class="st2" d="M20.4,104l12.1-9.2c1.8-1.4,4.4-0.3,4.7,1.9l2.3,15c0.3,2.3-1.9,4-4,3.2l-14.3-5.8
		C19,108.3,18.6,105.4,20.4,104z"/>
	<path class="st3" d="M169.6,47.8c-4.6,0-8.4-3.8-8.4-8.4s3.8-8.4,8.4-8.4s8.4,3.8,8.4,8.4S174.2,47.8,169.6,47.8z M169.6,34
		c-3,0-5.4,2.4-5.4,5.4s2.4,5.4,5.4,5.4s5.4-2.4,5.4-5.4S172.6,34,169.6,34z"/>
	<path class="st4" d="M67.6,38.3l-11.2,4.2c-2.1,0.8-4.5-0.3-5.3-2.4L46.8,29c-0.8-2.1,0.3-4.5,2.4-5.3l11.2-4.2
		c2.1-0.8,4.5,0.3,5.3,2.4L70,33C70.8,35.1,69.7,37.5,67.6,38.3z"/>
	<circle class="st1" cx="106.1" cy="95.2" r="11.1"/>
</g>
<g id="Слой_3">
	<path class="st5" d="M161.6,89.6c-0.1-1.2-1.1-2.8-4-2.8c-1.4,0-2.9,0-4.4-0.4c-5.3-1.4-9.3-5.9-10-11.3c-0.7-5.1,1.4-9.7,5-12.5
		c0.7-0.6,1.8-2.4,0.7-3.6c-2-2.2-3.9-4.5-6.3-6.2c-1.4-1.1-3.3-0.1-3.9,0.7c-2.8,3.9-7.6,6.3-12.9,5.6c-6-0.8-10.9-5.7-11.7-11.7
		c-0.2-1.3-0.2-2.6,0-3.9c0.2-1.1,0.2-3.4-1.8-3.6c-1.7-0.2-3.4-0.2-5.1-0.2c-2.2,0-4.4,0-6.5,0.3c-1.8,0.2-2,2.3-1.8,3.2
		c0.3,1.6,0.3,3.3,0,5.1c-0.9,4.9-4.6,8.8-9.4,10.4c-6.4,2.1-9.5-2-13.2-5.5c-1.5-1.4-3.5-0.9-4.4-0.1c-1.9,1.7-5,4.4-6.6,6.4
		c-1.2,1.4-0.2,3,0.5,3.6c3.6,3.1,5.6,8.1,4.4,13.4c-1,4.8-4.8,8.6-9.5,10.1c-1.7,0.5-3.3,0.7-4.9,0.5c-1.7-0.2-2.9,1.4-3,2.4
		c-0.2,1.7-0.2,3.4-0.2,5.1c0,1.8,0.1,3.6,0.3,5.4c0.1,0.8,1.2,2.3,3,2c1-0.1,2.1-0.1,3.2,0.1c5.4,1,10.7,6.3,11.3,11.8
		c0.6,4.8-1.3,9.2-4.6,12c-0.7,0.6-1.7,2.4-0.6,3.7c2,2.4,4.1,4.7,6.5,6.6c1.7,1.4,3.4,0,4.2-0.7c3-2.9,7.3-4.5,12-3.7
		c3,0.5,5.8,2.2,7.8,4.6c3,3.5,3.5,6.9,3.4,9.9c0,1.4,1.5,2.6,2.4,2.7c1.9,0.2,3.8,0.1,5.7,0.1c1.5,0,2.9,0.2,4.3,0
		c2.3-0.3,2.5-2.3,2.4-3.3c-0.1-2,0.3-4.2,1.4-6.4c1.9-4,5.7-6.9,10.1-7.6c5-0.8,9.3,1.3,12.5,4.5c1.6,1.6,3.1,1.3,3.8,0.7
		c2.4-2,4.6-4.1,6.6-6.4c0.8-0.9,1.7-3,0.5-4.3c-4.3-4.5-8.6-10.4-3.2-18.4c1.4-2.1,3.4-3.7,5.7-4.7c2.3-1,4.6-1.2,6.7-1
		c1.1,0.1,3.2-0.3,3.5-2.2c0.3-1.7,0.3-3.5,0.3-5.3C161.8,92.6,161.7,91.1,161.6,89.6z M106.1,129.4c-19,0-34.3-15.4-34.3-34.3
		c0-19,15.4-34.3,34.3-34.3c19,0,34.3,15.4,34.3,34.3C140.4,114.1,125,129.4,106.1,129.4z"/>
</g>
</svg>
