<?xml version="1.0" encoding="utf-8"?><svg xmlns="http://www.w3.org/2000/svg" xmlns:xlink="http://www.w3.org/1999/xlink"><symbol fill="none" viewBox="0 0 55 57" id="sp-achieve-1" xmlns="http://www.w3.org/2000/svg"><g filter="url(#afilter0_d)"><circle cx="27.5" cy="25.5" r="23" stroke="#942164"/><path d="M29.976 31.24l-2.214-12.556a.265.265 0 0 0-.308-.216.265.265 0 0 0-.215.308l2.214 12.556a.265.265 0 0 0 .308.215.265.265 0 0 0 .215-.307zm.277 1.57c-.387-2.197-9.612-2.518-11.457-2.561a.265.265 0 1 0-.012.531c4.104.095 10.705.754 10.946 2.122a.265.265 0 0 0 .308.215.265.265 0 0 0 .215-.307z" fill="#942164" stroke="#942164" stroke-width=".3"/><path d="M27.486 17.114a.265.265 0 1 0-.523.092c.42 2.38-6.742 4.943-9.537 5.729a.265.265 0 1 0 .144.512c.026-.008 2.617-.741 5.107-1.852 3.444-1.536 5.062-3.043 4.809-4.48z" fill="#942164" stroke="#942164" stroke-width=".3"/><path d="M28.532 16.93a.264.264 0 0 0-.308-.216l-1.046.184a.265.265 0 0 0-.215.308.265.265 0 0 0 .308.215l1.046-.184a.265.265 0 0 0 .215-.308z" fill="#942164" stroke="#942164" stroke-width=".3"/><path d="M31.3 32.625L28.531 16.93a.265.265 0 1 0-.523.092l2.767 15.697a.265.265 0 0 0 .308.214.265.265 0 0 0 .215-.307z" fill="#942164" stroke="#942164" stroke-width=".3"/><path d="M31.3 32.626a.265.265 0 0 0-.308-.216l-1.046.184a.265.265 0 1 0 .092.523l1.046-.184a.265.265 0 0 0 .215-.307zM19.051 30.47a.265.265 0 0 0-.307-.216l-5.493.969-1.2-6.801 5.493-.97a.265.265 0 1 0-.092-.523l-5.755 1.016a.265.265 0 0 0-.215.307l1.291 7.324a.265.265 0 0 0 .308.215l5.755-1.015a.265.265 0 0 0 .215-.307z" fill="#942164" stroke="#942164" stroke-width=".3"/><path d="M13.296 31.484l-1.291-7.324a.265.265 0 0 0-.378-.193l-3.478 1.692a.266.266 0 0 0-.145.285l.923 5.232c.02.116.115.205.233.218l3.847.4.028.001a.265.265 0 0 0 .261-.311zm-3.881-.598l-.853-4.837 2.98-1.45 1.17 6.63-3.297-.343zm9.452-1.463l-.923-5.232a.265.265 0 1 0-.523.092l.923 5.232a.265.265 0 0 0 .523-.092z" fill="#942164" stroke="#942164" stroke-width=".3"/><path d="M11.207 25.833a.266.266 0 0 0-.36-.107l-1.477.8a.265.265 0 1 0 .253.467l1.477-.8a.266.266 0 0 0 .107-.36zm.543 4.049l-1.661-.246a.265.265 0 1 0-.078.526l1.661.246a.265.265 0 0 0 .078-.525zm-.146-1.876a.264.264 0 0 0-.308-.215l-1.569.276a.266.266 0 0 0 .092.523l1.57-.276a.266.266 0 0 0 .215-.308zm1.924-4.386a.264.264 0 0 0-.307-.215l-1.047.185a.265.265 0 1 0 .093.523l1.046-.184a.265.265 0 0 0 .215-.308zm7.596 15.589l-2.677-6.002a.265.265 0 1 0-.485.216l2.677 6.002a.265.265 0 0 0 .35.134.265.265 0 0 0 .135-.35zm-3.139.554l-2.677-6.002a.266.266 0 0 0-.485.216l2.676 6.002a.266.266 0 0 0 .351.134.265.265 0 0 0 .134-.35z" fill="#942164" stroke="#942164" stroke-width=".3"/><path d="M21.666 39.179a.264.264 0 0 0-.308-.216l-4.186.739a.266.266 0 1 0 .092.523l4.186-.74a.265.265 0 0 0 .216-.306zm-7.57-6.218l-.103-.588a.266.266 0 0 0-.523.092l.103.589a.265.265 0 0 0 .523-.093z" fill="#942164" stroke="#942164" stroke-width=".3"/><path d="M19.331 32.056a.265.265 0 0 0-.307-.216l-5.235.906a.266.266 0 1 0 .091.523l5.235-.906a.266.266 0 0 0 .216-.307z" fill="#942164" stroke="#942164" stroke-width=".3"/><path d="M19.331 32.056l-.092-.524a.265.265 0 0 0-.523.092l.092.524a.265.265 0 0 0 .523-.092zM32.17 14.197h-.004a.263.263 0 0 0-.263.266c0 .147.122.266.268.266a.266.266 0 1 0 0-.532zm1.595 0h-.006a.263.263 0 0 0-.263.266c0 .147.122.266.269.266a.265.265 0 1 0 0-.532zm2.64 15.938a3.457 3.457 0 0 0-3.453 3.453 3.457 3.457 0 0 0 3.453 3.454 3.457 3.457 0 0 0 3.453-3.454 3.457 3.457 0 0 0-3.453-3.453zm0 6.375a2.925 2.925 0 0 1-2.922-2.922 2.925 2.925 0 0 1 2.922-2.922 2.926 2.926 0 0 1 2.922 2.922 2.925 2.925 0 0 1-2.922 2.922z" fill="#942164" stroke="#942164" stroke-width=".3"/><path d="M32.952 12.604a2.66 2.66 0 0 0-2.656 2.656 2.66 2.66 0 0 0 2.656 2.656 2.66 2.66 0 0 0 2.656-2.656 2.66 2.66 0 0 0-2.656-2.656zm0 4.78a2.127 2.127 0 0 1-2.125-2.124c0-1.172.953-2.125 2.125-2.125 1.172 0 2.125.953 2.125 2.125a2.128 2.128 0 0 1-2.125 2.125zm4.267 1.595a4.787 4.787 0 0 0-4.782 4.78 4.787 4.787 0 0 0 4.782 4.782A4.787 4.787 0 0 0 42 23.76a4.787 4.787 0 0 0-4.781-4.782zm0 9.031a4.255 4.255 0 0 1-4.25-4.25 4.255 4.255 0 0 1 4.25-4.25 4.255 4.255 0 0 1 4.25 4.25 4.255 4.255 0 0 1-4.25 4.25z" fill="#942164" stroke="#942164" stroke-width=".3"/><path d="M39.266 22.775a.265.265 0 0 0-.188-.078h-.266V21.37a.265.265 0 0 0-.265-.265h-.531a.266.266 0 0 0-.246.165c-.004.01-.416 1.009-.988 1.49-.534.45-.893.47-.891.47a.265.265 0 0 0-.266.265v1.594c0 .147.119.265.266.265h.42l.454.454c.05.05.118.078.188.078h2.125c.07 0 .138-.028.188-.078.638-.638.638-2.394 0-3.032zm-.31 2.579h-1.893l-.453-.454a.265.265 0 0 0-.188-.078h-.266v-1.107c.22-.06.56-.206.968-.549.525-.442.91-1.197 1.065-1.531h.092v1.328c0 .147.119.266.266.266h.409c.338.471.338 1.653 0 2.125z" fill="#942164" stroke="#942164" stroke-width=".3"/><path d="M35.89 22.697h-1.593a.266.266 0 0 0-.266.266v2.656c0 .147.12.266.266.266h1.594a.265.265 0 0 0 .265-.266v-2.656a.265.265 0 0 0-.265-.266zm-.265 2.657h-1.063v-2.125h1.063v2.125zm-1.868-9.558c-.124.004-.264.11-.274.253-.003.046-.042.273-.53.273-.486 0-.529-.224-.532-.272a.266.266 0 0 0-.531.007c0 .276.222.797 1.062.797.84 0 1.063-.521 1.063-.797a.262.262 0 0 0-.258-.261zM39.875 11a2.127 2.127 0 0 0-2.125 2.125c0 1.172.953 2.125 2.125 2.125A2.128 2.128 0 0 0 42 13.125 2.128 2.128 0 0 0 39.875 11zm0 3.719a1.595 1.595 0 0 1-1.594-1.594c0-.879.715-1.594 1.594-1.594.879 0 1.594.715 1.594 1.594 0 .879-.715 1.594-1.594 1.594z" fill="#942164" stroke="#942164" stroke-width=".3"/><path d="M41.734 13.922a.265.265 0 0 0-.265.266c0 .878-.715 1.593-1.594 1.593a1.595 1.595 0 0 1-1.594-1.593.265.265 0 1 0-.531 0c0 1.171.953 2.124 2.125 2.124A2.127 2.127 0 0 0 42 14.188a.265.265 0 0 0-.266-.266z" fill="#942164" stroke="#942164" stroke-width=".3"/><path d="M39.875 12.063a.265.265 0 0 0-.266.265v1.594a.266.266 0 1 0 .532 0v-1.594a.265.265 0 0 0-.266-.265z" fill="#942164" stroke="#942164" stroke-width=".3"/><path d="M40.672 12.86l-1.594-.001a.266.266 0 1 0 0 .531h1.594a.266.266 0 0 0 0-.53zm-2.656 0a.265.265 0 0 0-.266.265v1.063a.265.265 0 1 0 .531 0v-1.063a.265.265 0 0 0-.265-.266zm3.718 0a.265.265 0 0 0-.265.265v1.063a.265.265 0 1 0 .53 0v-1.063a.265.265 0 0 0-.265-.266z" fill="#942164" stroke="#942164" stroke-width=".3"/><path d="M37.654 33.404l-1.723-1.241a.105.105 0 0 0-.124 0 .165.165 0 0 0-.063.132v2.482c0 .054.024.105.063.133.019.013.04.02.061.02a.107.107 0 0 0 .063-.022l1.723-1.24a.163.163 0 0 0 .062-.132.164.164 0 0 0-.062-.132zm-1.661.925v-1.767l1.276.888" fill="#942164"/><path fill-rule="evenodd" clip-rule="evenodd" d="M35.996 32.075l1.722 1.24a.274.274 0 0 1 .108.221c0 .084-.037.17-.108.221l-1.722 1.24a.218.218 0 0 1-.128.043.218.218 0 0 1-.124-.04h-.002a.274.274 0 0 1-.108-.223v-2.482c0-.084.038-.17.108-.221l.002-.002a.215.215 0 0 1 .252.002zm-.127.178a.06.06 0 0 0-.015.042v2.482a.06.06 0 0 0 .014.042l1.722-1.24c.005-.004.016-.018.016-.043 0-.024-.01-.04-.016-.043l-1.721-1.24zm.073.212a.11.11 0 0 1 .114.007l1.276.888-.125.18-1.104-.768v1.557h-.22v-1.767a.11.11 0 0 1 .06-.097z" fill="#942164"/></g><defs><filter id="afilter0_d" x="0" y="2" width="55" height="55" filterUnits="userSpaceOnUse" color-interpolation-filters="sRGB"><feFlood flood-opacity="0" result="BackgroundImageFix"/><feColorMatrix in="SourceAlpha" values="0 0 0 0 0 0 0 0 0 0 0 0 0 0 0 0 0 0 127 0"/><feOffset dy="4"/><feGaussianBlur stdDeviation="2"/><feColorMatrix values="0 0 0 0 0 0 0 0 0 0 0 0 0 0 0 0 0 0 0.25 0"/><feBlend in2="BackgroundImageFix" result="effect1_dropShadow"/><feBlend in="SourceGraphic" in2="effect1_dropShadow" result="shape"/></filter></defs></symbol><symbol fill="none" viewBox="0 0 51 51" id="sp-achieve-2" xmlns="http://www.w3.org/2000/svg"><circle cx="25.5" cy="25.5" r="25.5" fill="#ECEFF1"/><path d="M36.996 22c-.038-.665-.818-1.185-2.378-1.582a.888.888 0 0 0 .082-.364v-2.72h-.007C34.556 15.066 25.402 15 24.35 15c-1.052 0-10.206.067-10.344 2.333H14v2.722c.002.74.942 1.317 2.34 1.748a.861.861 0 0 0-.034.197H16.3v2.717c-1.507.394-2.259.906-2.296 1.56H14V29c.001.514.459.95 1.207 1.314a.866.866 0 0 0-.051.242h-.006v2.722c.003 1.293 2.874 2.096 6.064 2.471.023.005.044.015.07.015.007 0 .013-.004.02-.005.615.07 1.24.126 1.858.165.013.001.025.008.038.008.007 0 .013-.004.02-.005.785.048 1.557.073 2.28.073.723 0 1.495-.025 2.28-.073.007 0 .013.004.02.004.013 0 .025-.006.038-.008a36.089 36.089 0 0 0 1.858-.164c.007 0 .013.004.02.004.026 0 .047-.01.07-.015 3.19-.374 6.06-1.178 6.064-2.472v-2.72h-.006c-.027-.477-.428-.875-1.219-1.208a.88.88 0 0 0 .075-.35v-2.541c1.376-.43 2.298-1.004 2.3-1.736V22h-.004zm-3.104 7.125l-.13.116c-.202.18-.537.362-.979.537v-1.854a5.66 5.66 0 0 0 1.15-.536v1.61a.25.25 0 0 1-.041.127zm-8.574 1.807l-.168.004-.416.004v-1.942l.316-.005.06-.001c.387-.008.773-.02 1.157-.038v1.942c-.082.005-.164.008-.248.012-.23.01-.463.018-.7.024zm-1.674.005a45.28 45.28 0 0 1-.524-.012l-.064-.003a40.109 40.109 0 0 1-.622-.026v-1.941c.384.018.77.03 1.156.037l.06.001.317.005v1.944l-.223-.002-.1-.003zm-6.923-.886a1.216 1.216 0 0 0-.038-.011v-1.88c.358.098.743.188 1.15.269v1.898a17.555 17.555 0 0 1-.972-.237l-.14-.04zm8.08 3.22l.316.005v1.944a37.24 37.24 0 0 1-1.534-.045v-1.942a39.633 39.633 0 0 0 1.217.038zm1.46-.001c.386-.007.772-.02 1.156-.037v1.941a37.24 37.24 0 0 1-1.534.045v-1.944a41.623 41.623 0 0 0 .378-.005zm3.072-.176v1.931c-.368.04-.751.074-1.15.103v-1.94c.389-.025.773-.057 1.15-.094zm.767-.084c.395-.048.779-.103 1.15-.164v1.91c-.361.064-.745.124-1.15.178V33.01zm1.917-.303c.407-.081.792-.17 1.15-.268v1.878c-.342.1-.726.197-1.15.288v-1.898zm-13.034 0v1.898a16.496 16.496 0 0 1-1.15-.288V32.44c.358.098.743.187 1.15.268zm.767.14c.371.06.755.115 1.15.164v1.923a26.338 26.338 0 0 1-1.15-.178v-1.91zm1.917.247c.377.037.761.069 1.15.095v1.94a32.866 32.866 0 0 1-1.15-.103v-1.932zm-.951-2.325l-.117-.012-.082-.01v-1.93c.377.037.761.068 1.15.094v1.938c-.322-.023-.64-.05-.951-.08zm-.966-2.037v1.924a26.495 26.495 0 0 1-1.15-.178v-1.91c.371.061.755.117 1.15.164zm7.539 2.099l-.256.02v-1.94c.389-.026.773-.057 1.15-.095v1.932a31.2 31.2 0 0 1-.894.083zm1.661-.175v-1.924c.395-.048.779-.103 1.15-.164v1.91c-.361.064-.745.124-1.15.178zm1.917-2.226c.407-.082.792-.171 1.15-.27v1.88c-.342.1-.726.196-1.15.288V28.43zm-5.242-1.777c-.289-.007-.57-.019-.847-.032l-.045-.002v-1.942a39.284 39.284 0 0 0 1.533.043v1.942c-.186-.002-.375-.003-.557-.007l-.084-.002zm-8.942-5.558v-1.878c.358.098.743.187 1.15.268v1.899l-.141-.03a16.089 16.089 0 0 1-1.009-.259zm6.967-1.046l.317.005v1.941a37.315 37.315 0 0 1-1.534-.044v-1.94c.384.018.77.03 1.157.037h.06zm1.46-.001c.387-.008.773-.02 1.157-.038v1.94l-.194.012h-.016c-.257.012-.52.02-.785.027l-.124.002c-.137.003-.276.004-.415.005v-1.942a41.622 41.622 0 0 0 .377-.006zm8.736.195l-.011-.002-.14.11c-.202.16-.513.321-.912.478v-1.85c.456-.161.844-.34 1.15-.535v1.609c0 .059-.03.123-.087.19zm-4.896 1.466v-1.921c.395-.048.779-.103 1.15-.164v1.906a25.35 25.35 0 0 1-1.15.18zm1.917-.328v-1.896c.407-.08.792-.17 1.15-.268v1.874c-.344.102-.73.198-1.15.29zm-2.684-1.509v1.929c-.37.04-.753.074-1.15.103v-1.938c.389-.026.773-.057 1.15-.094zm-7.666 1.93v-1.93c.377.037.761.068 1.15.095v1.935a33.51 33.51 0 0 1-1.15-.1zm-.767-2.014v1.921l-.23-.028-.144-.022a27.336 27.336 0 0 1-.65-.103l-.126-.022v-1.91c.371.06.755.116 1.15.164zm4.122 6.777l-.156-.012c-.245-.019-.485-.04-.718-.064l-.15-.016c-.011 0-.021-.002-.031-.003v-1.931c.377.037.761.068 1.15.094v1.938l-.095-.006zm-2.533-.29c-.152-.025-.294-.051-.439-.077v-1.907c.371.061.755.116 1.15.164v1.924a28.995 28.995 0 0 1-.711-.104zm-1.206-2.123v1.895c-.423-.092-.807-.19-1.15-.292v-1.872c.358.098.743.188 1.15.269zm-1.916-.507v1.848c-.603-.236-.992-.477-1.118-.692l-.026-.043c-.002-.012-.006-.025-.006-.037v-1.61c.306.195.694.373 1.15.534zm9.194 1.07c.386-.008.772-.02 1.156-.038v1.94c-.504.025-1.016.04-1.534.045V24.72a41.622 41.622 0 0 0 .377-.006zm4.953 1.492a24.435 24.435 0 0 1-.817.13l-.297.04v-1.922a28.15 28.15 0 0 0 1.15-.164V26.2l-.036.007zm-2.595.332c-.143.012-.29.02-.436.03v-1.936c.389-.026.773-.057 1.15-.094v1.929a30.63 30.63 0 0 1-.674.067l-.04.004zm4.38-.73a15.43 15.43 0 0 1-.891.221l-.09.02v-1.898c.406-.081.791-.17 1.15-.269v1.88c-.056.015-.112.03-.168.047zm2.08-3.784c-.035.264-.625.616-1.678.946-1.356.425-3.479.814-6.168.935l-.415.016-.347.01a41.467 41.467 0 0 1-1.943 0l-.346-.01-.415-.017c-2.69-.12-4.812-.51-6.168-.935-1.044-.327-1.633-.676-1.677-.938.002-.008.002-.014.007-.023l.081.018a25.673 25.673 0 0 0 2.965.512l.008.002h.002c.613.07 1.248.126 1.9.165.006 0 .01.003.015.003l.007-.002a38.67 38.67 0 0 0 2.909.065c2.785-.044 5.366-.38 7.163-.9l.243-.073c.049-.016.099-.03.146-.046.139-.045.271-.09.4-.14l.065-.025c.109-.041.213-.085.313-.129l.086-.038a4.98 4.98 0 0 0 .304-.15c.043-.023.08-.046.12-.07.046-.027.093-.054.135-.081.024-.016.053-.03.076-.046 1.716.377 2.168.79 2.212.951zM24.35 15.778c6.32 0 9.518 1.01 9.578 1.589-.047.263-.635.61-1.677.937-1.356.425-3.478.814-6.168.934l-.415.017-.347.01a41.46 41.46 0 0 1-1.942 0 32.178 32.178 0 0 1-.347-.01 18.43 18.43 0 0 1-.415-.017c-2.69-.12-4.812-.51-6.168-.934-1.042-.327-1.63-.674-1.677-.937.06-.58 3.257-1.59 9.578-1.59zm-9.583 4.276v-1.61c.306.195.694.374 1.15.535v1.862c-.746-.284-1.15-.568-1.15-.787zm1.857 5.382c.005.006.014.012.02.018.525.537 1.611.96 2.964 1.274l.096.022c.099.023.2.045.302.066 1.242.269 2.725.463 4.34.559h.005a37.984 37.984 0 0 0 3.11.06c.502-.01.996-.032 1.484-.06h.005l.01-.001c1.62-.097 3.14-.293 4.425-.575-.279.148-.66.3-1.134.45-1.432.448-3.718.857-6.624.952l-.26.008-.284.006a41.467 41.467 0 0 1-1.704-.005l-.347-.01-.415-.017c-2.69-.12-4.812-.51-6.168-.935-1.054-.33-1.644-.682-1.678-.946.042-.146.43-.512 1.852-.866zm-1.857 3.562v-1.61c.306.196.694.374 1.15.535v1.855l-.22-.087-.004.005c-.602-.253-.926-.502-.926-.698zm1.15 4.278v-1.61c.306.195.694.374 1.15.535v1.862c-.746-.284-1.15-.568-1.15-.787zm18.016.787V32.2c.456-.16.844-.34 1.15-.535v1.61c0 .218-.404.503-1.15.787zm1.145-3.478c-.041.264-.63.613-1.677.941-1.356.425-3.479.815-6.168.935-.138.006-.275.012-.415.016-.115.004-.23.008-.347.01a38.33 38.33 0 0 1-1.943.001l-.343-.01-.418-.017c-2.69-.12-4.812-.51-6.168-.935-1.014-.318-1.6-.655-1.673-.916a11.299 11.299 0 0 0 .833.258l.187.049c1.396.363 3.178.62 5.102.735h.003a37.788 37.788 0 0 0 2.945.064c.56-.01 1.112-.03 1.651-.063h.008c.658-.04 1.294-.098 1.905-.17l.007.002c.009 0 .015-.004.024-.005a27.44 27.44 0 0 0 2.371-.38c1.132-.235 2.112-.54 2.784-.919a3.08 3.08 0 0 0 .229-.14c.037-.024.08-.047.113-.072.757.274.965.519.99.616zm.005-5.078v-1.861c.456-.161.844-.34 1.15-.535v1.609c0 .219-.404.504-1.15.787z" fill="#942164" stroke="#942164" stroke-width=".2"/><circle cx="25.5" cy="25.5" r="23" stroke="#942164"/></symbol><symbol fill="none" viewBox="0 0 37 34" id="sp-achieve-3" xmlns="http://www.w3.org/2000/svg"><path d="M23.208 10.167h-.957c-.4 0-.723.332-.723.742a.75.75 0 0 0 .18.49l-2.561 2.63-1.257-1.29a.71.71 0 0 0-1.022 0l-2.486 2.553a.757.757 0 0 0 0 1.05.711.711 0 0 0 1.021 0l1.976-2.029 1.257 1.291a.71.71 0 0 0 1.022 0l3.073-3.155a.709.709 0 0 0 .477.185.733.733 0 0 0 .723-.742v-.983a.733.733 0 0 0-.723-.742z" fill="#fff"/><path d="M29.76 10.782V2.23c0-1.227-.972-2.226-2.168-2.226-1.121 0-2.046.879-2.157 2.001L10.937 9.06H4.072c-.4 0-.723.332-.723.742v1.256C1.934 11.395.875 12.7.875 14.254c0 1.555 1.059 2.86 2.474 3.197v1.256c0 .41.323.742.723.742h2.79v.584l-3.371 1.21H.723c-.4 0-.723.333-.723.743v11.268c0 .41.324.742.723.742h10.091c1.65 0 3.073-1.265 3.31-2.942l.625-4.438a3.497 3.497 0 0 0-.78-2.74 3.316 3.316 0 0 0-2.147-1.164V19.88l13.613 6.622c.11 1.123 1.036 2.002 2.157 2.002 1.196 0 2.168-.999 2.168-2.227v-8.68c1.527-.34 2.674-1.739 2.674-3.407 0-1.669-1.147-3.067-2.674-3.408zM2.32 14.254c0-.727.423-1.354 1.029-1.637v3.274a1.803 1.803 0 0 1-1.028-1.637zm2.474-3.711h5.583v7.422H4.793v-7.422zm5.582 8.906v3.24H8.308v-3.24h2.068zm-8.93 3.28H2.89v9.783H1.445v-9.784zm11.43 2.118c.36.428.522.995.443 1.556l-.626 4.438c-.134.952-.942 1.67-1.879 1.67H4.336v-9.998l2.527-.907v1.083h-.094c-.4 0-.723.332-.723.742s.324.742.723.742h4.67a1.88 1.88 0 0 1 1.437.674zm15.439 1.43c0 .41-.324.742-.723.742a.733.733 0 0 1-.723-.742v-4.043a.733.733 0 0 0-.722-.742c-.4 0-.723.333-.723.742v2.62l-13.602-6.617V10.27l13.602-6.617v12.644c0 .41.324.742.723.742a.733.733 0 0 0 .723-.742V2.23c0-.409.324-.742.722-.742.399 0 .723.333.723.742v24.047zM29.76 16.05v-3.72a2.007 2.007 0 0 1 1.229 1.86c0 .843-.51 1.566-1.229 1.861zm6.517-2.602h-1.66c-.398 0-.722.332-.722.742s.324.742.723.742h1.66A.733.733 0 0 0 37 14.19a.733.733 0 0 0-.723-.742zm-3.011-1.868a.71.71 0 0 0 .511-.217l1.174-1.205a.757.757 0 0 0 0-1.05.71.71 0 0 0-1.022 0l-1.174 1.206a.757.757 0 0 0 0 1.05.711.711 0 0 0 .511.217zm.511 5.436a.71.71 0 0 0-1.022 0 .757.757 0 0 0 0 1.05l1.174 1.205a.711.711 0 0 0 1.022 0 .757.757 0 0 0 0-1.05l-1.174-1.205z" fill="#fff"/><path d="M26.147 18.524c-.19 0-.377.08-.511.217a.757.757 0 0 0 0 1.05.72.72 0 0 0 .511.217c.19 0 .377-.08.511-.217a.758.758 0 0 0 0-1.05.718.718 0 0 0-.51-.217z" fill="#fff"/></symbol><symbol fill="none" viewBox="0 0 42 43" id="sp-achieve-4" xmlns="http://www.w3.org/2000/svg"><g clip-path="url(#dclip0)" fill="#fff"><path d="M28 3.583H14v1.434h14V3.583zm-.35 24.367c-.579 0-1.05-.482-1.05-1.075s.471-1.075 1.05-1.075h4.55c.579 0 1.05.482 1.05 1.075s-.471 1.075-1.05 1.075h-4.55zm5.6 2.509c0 .592-.471 1.075-1.05 1.075h-4.55c-.579 0-1.05-.483-1.05-1.075 0-.593.471-1.075 1.05-1.075h4.55c.579 0 1.05.482 1.05 1.075zm-2.1 4.658H26.6c-.579 0-1.05-.482-1.05-1.075s.471-1.075 1.05-1.075h4.55c.579 0 1.05.482 1.05 1.075s-.471 1.075-1.05 1.075zm-2.1 3.583H24.5c-.579 0-1.05-.482-1.05-1.075s.471-1.075 1.05-1.075h4.55c.579 0 1.05.482 1.05 1.075s-.471 1.075-1.05 1.075zm5.6-11.825c0-1.383-1.1-2.508-2.45-2.508h-1.4V14.333h-1.4v10.034h-1.75c-1.35 0-2.45 1.125-2.45 2.508 0 .702.285 1.336.74 1.792a2.527 2.527 0 0 0-.367 3.105 2.51 2.51 0 0 0-1.177 3.345H18.9a6.492 6.492 0 0 0-2.708-5.297c1.581-.617 2.708-2.186 2.708-4.02a.708.708 0 0 0-.7-.716h-5.6v-7.167h-1.4v7.166c-1.158 0-2.1.965-2.1 2.15V43h1.4V27.233a.71.71 0 0 1 .7-.716h6.211c-.31 1.235-1.409 2.15-2.711 2.15h-2.1c-.387 0-.7.32-.7.716 0 .396.313.717.7.717 2.702 0 4.9 2.25 4.9 5.017v.717c0 .395.313.716.7.716h4.096a2.528 2.528 0 0 0-.246 1.075c0 1.383 1.1 2.508 2.45 2.508V43h1.4v-2.867h3.15c1.35 0 2.45-1.125 2.45-2.508 0-.39-.095-.755-.251-1.085 1.304-.054 2.351-1.15 2.351-2.498 0-.483-.14-.93-.373-1.314a2.51 2.51 0 0 0 1.423-2.27c0-.702-.285-1.335-.74-1.791.455-.456.74-1.09.74-1.792z"/><path d="M20.3 11.467v2.15h-1.4v1.433h1.4v2.867h1.4V15.05h1.4v-1.433h-1.4v-1.434h1.4V10.75H21c-.387 0-.7.32-.7.717z"/><path d="M16.1 18.633v-8.6a.71.71 0 0 1 .7-.716h8.4c.386 0 .7.321.7.716v8.6a.71.71 0 0 1-.7.717h-8.4a.71.71 0 0 1-.7-.717zm11.2 0v-8.6c0-1.185-.942-2.15-2.1-2.15h-8.4c-1.158 0-2.1.965-2.1 2.15v8.6c0 1.186.942 2.15 2.1 2.15h8.4c1.158 0 2.1-.964 2.1-2.15zM1.4 14.334v-8.6a.71.71 0 0 1 .7-.717h8.4c.386 0 .7.321.7.716v8.6a.71.71 0 0 1-.7.717H2.1a.71.71 0 0 1-.7-.716zm11.2 0v-8.6c0-1.186-.942-2.15-2.1-2.15H2.1c-1.158 0-2.1.964-2.1 2.15v8.6c0 1.185.942 2.15 2.1 2.15h8.4c1.158 0 2.1-.965 2.1-2.15zm27.3-2.867h-8.4a.71.71 0 0 1-.7-.717V7.167h1.47c.326 1.633 1.74 2.866 3.43 2.866 1.69 0 3.104-1.233 3.43-2.866h1.47v3.583a.71.71 0 0 1-.7.717zM37.8 6.45c0 1.186-.942 2.15-2.1 2.15-1.158 0-2.1-.964-2.1-2.15s.942-2.15 2.1-2.15c1.158 0 2.1.964 2.1 2.15zm-6.3-5.017h8.4c.386 0 .7.322.7.717v3.583h-1.47c-.326-1.633-1.74-2.866-3.43-2.866-1.69 0-3.104 1.233-3.43 2.866H30.8V2.15a.71.71 0 0 1 .7-.717zM39.9 0h-8.4c-1.158 0-2.1.964-2.1 2.15v8.6c0 1.185.942 2.15 2.1 2.15h8.4c1.158 0 2.1-.965 2.1-2.15v-8.6C42 .964 41.058 0 39.9 0zM21.7 29.383h-1.4v1.434h1.4v-1.434z"/><path d="M8.49 10.714c-.06-.056-.176-.29-.238-.37-.072-.098-.055-.163-.001-.26.068-.123.204-.31.349-.51.463-.637.761-1.078.7-1.39l-.033-.168-1.65.01c-.101.231-.007.014-.53 1.091-.273.495-.452.65-.515.678l-.01-.003c-.02-.026-.03-.028-.045-.208.01-.133-.028-.486-.015-.708-.002-.35.005-.464.001-.655l-.006-.265c-.062-.01-.342-.086-.982-.093-.554-.006-.647.055-.727.128l.204.72c.023.162.054.468.03.713-.036.351-.08.41-.143.389-.015-.005-.137-.06-.35-.522-.148-.32-.278-.698-.372-.974-.109-.316-.09-.249-.144-.398H2.36l.107.283c.446 1.182.855 2.105 1.402 2.768.605.733 1.357 1.117 2.37 1.117h.204v-.208c0-.195-.014-.298-.007-.432 0-.164.022-.205.051-.261.043-.083.167-.042.19-.047.02-.005.057.01.097.041.116.089.207.205.305.328.14.177.313.44.408.575.153 0 .463.004.59.004h1.231l-.535-.902c-.099-.194-.11-.201-.283-.47zm-.405.956h-.003c-.088.002.547-.126-.123-1.038"/></g><defs><clipPath id="dclip0"><path fill="#fff" d="M0 0h42v43H0z"/></clipPath></defs></symbol><symbol fill="none" viewBox="0 0 34 40" id="sp-achieve-5" xmlns="http://www.w3.org/2000/svg"><path d="M32.008 4.375H1.992C.894 4.375 0 5.427 0 6.719V27.03c0 1.292.894 2.344 1.992 2.344h12.684v1.563H7.969c-.733 0-1.328.7-1.328 1.562v1.563c0 .861.595 1.562 1.328 1.562H26.03c.733 0 1.328-.7 1.328-1.563V32.5c0-.862-.595-1.563-1.328-1.563h-6.707v-1.562h12.684c1.098 0 1.992-1.052 1.992-2.344V6.72c0-1.292-.894-2.344-1.992-2.344zm-16.004 25h1.992v1.563h-1.992v-1.563zM26.03 32.5l.001 1.563H7.968V32.5H26.03zm6.64-5.469c0 .431-.297.782-.663.782H1.992c-.366 0-.664-.35-.664-.782V6.72c0-.43.298-.782.664-.782h30.016c.366 0 .664.351.664.782v20.31z" fill="#fff"/><path d="M15.041 20.39a.588.588 0 0 1-.329-.102c-.207-.139-.335-.398-.335-.679v-5.468c0-.281.128-.54.335-.68a.579.579 0 0 1 .668.008l3.918 2.734a.818.818 0 0 1 .325.672.817.817 0 0 1-.325.672l-3.918 2.734a.591.591 0 0 1-.339.11zm.664-4.878v2.726l1.952-1.363-1.952-1.363z" fill="#fff"/><path d="M29.285 8.36H4.715c-.733 0-1.328.7-1.328 1.562v13.906c0 .862.595 1.563 1.328 1.563h24.57c.733 0 1.328-.701 1.328-1.563V9.922c0-.862-.595-1.563-1.328-1.563zm0 15.468H4.715v-2.285h4.648c.367 0 .664-.35.664-.781 0-.431-.297-.782-.664-.782H4.715V9.922h24.57v13.906z" fill="#fff"/><path d="M12.02 21.543c-.366 0-.663-.35-.663-.781 0-.432.297-.782.663-.782.368 0 .665.35.665.782 0 .431-.297.781-.664.781z" fill="#fff"/></symbol></svg>