<svg width="51" height="51" viewBox="0 0 51 51" fill="none" xmlns="http://www.w3.org/2000/svg">
  <circle cx="25.5" cy="25.5" r="25.5" fill="#ECEFF1" />
  <path d="M36.9958 22C36.9578 21.3346 36.1777 20.8147 34.6176 20.418C34.6701 20.3013 34.6996 20.18 34.7 20.054V17.3333H34.6935C34.5563 15.0669 25.4015 15 24.35 15C23.2985 15 14.1438 15.0669 14.0065 17.3333H14V17.3839V20.0552C14.0019 20.7941 14.9419 21.3723 16.3403 21.8028C16.3211 21.8674 16.3096 21.9331 16.3058 22H16.3V22.0506V24.7172C14.7935 25.1107 14.041 25.6233 14.0038 26.2778H14V26.3283V28.9996C14.0012 29.5141 14.4585 29.9504 15.2067 30.3141C15.1784 30.393 15.1607 30.4735 15.1558 30.5559H15.15V30.6065V33.2778C15.1531 34.5712 18.0239 35.3743 21.2136 35.7492C21.237 35.7538 21.2584 35.7636 21.2833 35.7636C21.2906 35.7636 21.2968 35.7597 21.304 35.7593C21.9189 35.8297 22.5437 35.8845 23.1621 35.9238C23.1751 35.9253 23.1866 35.9316 23.2 35.9316C23.2073 35.9316 23.213 35.9277 23.2199 35.9273C24.005 35.9755 24.7774 36 25.5 36C26.2226 36 26.995 35.9755 27.7801 35.9269C27.787 35.9273 27.7931 35.9312 27.8 35.9312C27.8134 35.9312 27.8249 35.9246 27.8379 35.9234C28.4563 35.8841 29.0811 35.8297 29.696 35.7589C29.7032 35.7589 29.7094 35.7628 29.7167 35.7628C29.7416 35.7628 29.7631 35.7531 29.7864 35.7484C32.9762 35.3735 35.8465 34.5701 35.85 33.2762V30.5556H35.8439C35.817 30.0788 35.4165 29.6809 34.6252 29.3484C34.6735 29.2361 34.7 29.1194 34.7 28.9984V26.4567C36.0762 26.0273 36.9981 25.4529 37 24.7207V22H36.9958ZM33.8919 29.1248L33.7612 29.2411C33.56 29.4212 33.2246 29.6028 32.7833 29.7778V27.9236C33.2391 27.7626 33.6271 27.5841 33.9333 27.3884V28.9977C33.9333 29.0377 33.9188 29.0805 33.8919 29.1248ZM25.3183 30.932C25.2623 30.9336 25.206 30.9343 25.1496 30.9355C25.0128 30.9382 24.8725 30.939 24.7337 30.9402V28.9977C24.8391 28.9965 24.9446 28.9949 25.05 28.993C25.0703 28.9926 25.0906 28.9922 25.1109 28.9918C25.4969 28.9844 25.8829 28.9724 26.267 28.9545V30.8962C26.185 30.9005 26.1026 30.9044 26.0194 30.9079C25.7887 30.9184 25.5556 30.9262 25.3183 30.932ZM23.6443 30.9374C23.4687 30.9343 23.2939 30.9301 23.1203 30.9246C23.0988 30.9238 23.0773 30.9231 23.0559 30.9223C22.847 30.9153 22.6396 30.9063 22.4337 30.8962V28.9549C22.8178 28.9732 23.2038 28.9852 23.5899 28.9922C23.6102 28.9926 23.6305 28.993 23.6504 28.9934C23.7558 28.9953 23.8612 28.9969 23.9667 28.9981V30.9417C23.8923 30.9409 23.8179 30.9409 23.744 30.9398C23.7102 30.939 23.6776 30.9378 23.6443 30.9374ZM16.7205 30.0508C16.7079 30.0469 16.696 30.0434 16.6833 30.0399V28.1612C17.0414 28.2592 17.4262 28.3486 17.8333 28.4299V30.3281C17.4814 30.2522 17.1568 30.1725 16.8612 30.0908C16.8144 30.0772 16.7661 30.0644 16.7205 30.0508ZM24.8004 33.2712C24.9058 33.2731 25.0112 33.2747 25.1167 33.2758V35.2199C24.5869 35.2148 24.0755 35.1993 23.5833 35.1748V33.2331C23.9674 33.2513 24.3535 33.2634 24.7395 33.2704C24.7598 33.2704 24.7801 33.2708 24.8004 33.2712ZM26.2605 33.27C26.6466 33.2626 27.0326 33.2506 27.4167 33.2327V35.1744C26.9245 35.1989 26.4131 35.2144 25.8833 35.2195V33.2754C25.9888 33.2743 26.0942 33.2727 26.1996 33.2708C26.2199 33.2708 26.2402 33.2704 26.2605 33.27ZM29.3333 33.0942V35.0254C28.9649 35.0647 28.5816 35.0993 28.1833 35.1277V33.1883C28.572 33.1627 28.9561 33.1312 29.3333 33.0942ZM30.1 33.0102C30.4952 32.962 30.8789 32.9072 31.25 32.8461V34.7556C30.8889 34.8201 30.5052 34.8796 30.1 34.9337V33.0102ZM32.0167 32.7073C32.4238 32.626 32.8086 32.5366 33.1667 32.4386V34.3173C32.8251 34.4172 32.4406 34.5141 32.0167 34.6054V32.7073ZM18.9833 32.7073V34.6054C18.5594 34.5141 18.1749 34.4172 17.8333 34.3173V32.4386C18.1914 32.5366 18.5762 32.6264 18.9833 32.7073ZM19.75 32.8465C20.1211 32.9076 20.5048 32.9624 20.9 33.0106V34.9341C20.4948 34.88 20.1111 34.8205 19.75 34.7559V32.8465ZM21.6667 33.0942C22.0439 33.1312 22.428 33.1627 22.8167 33.1887V35.1281C22.4184 35.0997 22.035 35.0651 21.6667 35.0258V33.0942ZM20.7156 30.7687C20.6765 30.7648 20.6378 30.7605 20.5991 30.7566C20.5715 30.7539 20.5443 30.7504 20.5167 30.7477V28.8168C20.8939 28.8538 21.278 28.8853 21.6667 28.9113V30.8492C21.3447 30.8258 21.0265 30.7994 20.7156 30.7687ZM19.75 28.7324V30.6559C19.3448 30.6018 18.9611 30.5423 18.6 30.4778V28.5683C18.9711 28.6294 19.3548 28.6846 19.75 28.7324ZM27.2886 30.8309C27.2043 30.8375 27.1192 30.8441 27.0333 30.8503V28.9109C27.422 28.8849 27.8061 28.8538 28.1833 28.8164V30.7477C27.9464 30.7729 27.7042 30.7967 27.4554 30.8173C27.3998 30.8223 27.3442 30.8266 27.2886 30.8309ZM28.95 30.6559V28.7324C29.3452 28.6842 29.7289 28.6294 30.1 28.5683V30.4778C29.7389 30.5423 29.3552 30.6022 28.95 30.6559ZM30.8667 28.4295C31.2738 28.3482 31.6586 28.2588 32.0167 28.1608V30.0395C31.6751 30.1394 31.2906 30.2363 30.8667 30.3277V28.4295ZM25.6246 26.6531C25.3363 26.6457 25.0546 26.6344 24.7778 26.6208C24.7628 26.62 24.7479 26.6192 24.7333 26.6188V24.6771C25.1174 24.6954 25.5035 24.7074 25.8895 24.7144C25.9098 24.7148 25.9301 24.7152 25.95 24.7156C26.0555 24.7176 26.1609 24.7191 26.2663 24.7203V26.662C26.0796 26.6601 25.8914 26.6593 25.7093 26.655C25.6813 26.6542 25.6526 26.6538 25.6246 26.6531ZM16.6833 21.0954V19.2167C17.0414 19.3147 17.4262 19.4042 17.8333 19.4854V21.3836C17.7862 21.3735 17.7375 21.3634 17.6915 21.3533C17.4876 21.3078 17.2886 21.2603 17.0985 21.2102C16.9536 21.1724 16.816 21.1339 16.6833 21.0954ZM23.6504 20.0489C23.7558 20.0509 23.8612 20.0524 23.9667 20.0536V21.9953C23.4507 21.9903 22.9378 21.9767 22.4333 21.951V20.0108C22.8174 20.0291 23.2035 20.0412 23.5895 20.0482C23.6098 20.0482 23.6301 20.0486 23.6504 20.0489ZM25.1105 20.0478C25.4966 20.0404 25.8826 20.0283 26.2667 20.0104V21.9506C26.2015 21.9537 26.139 21.9584 26.0735 21.9615C26.0681 21.9619 26.0627 21.9619 26.057 21.9623C25.7998 21.9739 25.5376 21.9825 25.2719 21.9887C25.2305 21.9899 25.1891 21.9903 25.1477 21.9914C25.0113 21.9942 24.8717 21.9946 24.7333 21.9961V20.0536C24.8388 20.0524 24.9442 20.0509 25.0496 20.0489C25.0699 20.0486 25.0902 20.0482 25.1105 20.0478ZM33.8456 20.243L33.8348 20.2407L33.6953 20.3507C33.4929 20.5106 33.182 20.6723 32.7833 20.8287V18.9787C33.2391 18.8177 33.6271 18.6392 33.9333 18.4436V20.0528C33.9333 20.1119 33.9027 20.1757 33.8456 20.243ZM28.95 21.7091V19.788C29.3452 19.7398 29.7289 19.6849 30.1 19.6239V21.5302C29.7366 21.5956 29.354 21.6554 28.95 21.7091ZM30.8667 21.3805V19.4854C31.2738 19.4042 31.6586 19.3147 32.0167 19.2167V21.0912C31.6732 21.1927 31.2864 21.2895 30.8667 21.3805ZM28.1833 19.872V21.8009C27.813 21.8406 27.4297 21.8752 27.0333 21.9039V19.9665C27.422 19.9404 27.8061 19.9089 28.1833 19.872ZM20.5167 21.8017V19.872C20.8939 19.9089 21.278 19.9404 21.6667 19.9665V21.9024C21.2764 21.874 20.8916 21.8417 20.5167 21.8017ZM19.75 19.788V21.7095C19.6741 21.6994 19.5951 21.6912 19.52 21.6807C19.4709 21.6737 19.4242 21.6663 19.3759 21.6593C19.1543 21.6271 18.9377 21.5924 18.7253 21.5563C18.6828 21.5489 18.6418 21.5411 18.6 21.5337V19.6243C18.9711 19.6849 19.3548 19.7402 19.75 19.788ZM23.8716 26.5652C23.8199 26.5613 23.7677 26.5574 23.7163 26.5535C23.471 26.5341 23.2314 26.5127 22.9976 26.4889C22.9474 26.4839 22.8972 26.4784 22.8473 26.4734C22.837 26.4722 22.827 26.4707 22.8167 26.4699V24.5387C23.1939 24.5756 23.578 24.6071 23.9667 24.6332V26.5714C23.9356 26.5691 23.9027 26.5675 23.8716 26.5652ZM21.3389 26.2747C21.1871 26.2502 21.0445 26.2237 20.9 26.1981V24.2909C21.2711 24.352 21.6548 24.4068 22.05 24.4551V26.3785C21.8154 26.347 21.5858 26.3143 21.3654 26.2793C21.3566 26.2774 21.3477 26.2758 21.3389 26.2747ZM20.1333 24.1517V26.0468C19.7098 25.9546 19.3257 25.8566 18.9833 25.7547V23.883C19.3414 23.981 19.7262 24.0708 20.1333 24.1517ZM18.2167 23.6454V25.493C17.6141 25.2569 17.2254 25.0158 17.0989 24.8012L17.0732 24.7576C17.0709 24.7456 17.067 24.7327 17.0667 24.7207V23.1103C17.373 23.3059 17.7609 23.4844 18.2167 23.6454ZM27.4105 24.7144C27.7966 24.7071 28.1826 24.695 28.5667 24.6771V26.6169C28.063 26.6422 27.5508 26.6562 27.0333 26.6616V24.7203C27.1388 24.7191 27.2442 24.7176 27.3496 24.7156C27.3699 24.7152 27.3902 24.7148 27.4105 24.7144ZM32.3644 26.2066C32.1961 26.2362 32.0263 26.2653 31.8518 26.2922C31.7518 26.3077 31.6494 26.3225 31.5467 26.3373C31.4497 26.3513 31.3489 26.3633 31.2504 26.3762V24.4547C31.6456 24.4064 32.0293 24.3516 32.4004 24.2906V26.2C32.3881 26.2023 32.3762 26.2047 32.3644 26.2066ZM29.7688 26.5387C29.6258 26.5508 29.4782 26.5586 29.3333 26.5691V24.6332C29.722 24.6071 30.1061 24.576 30.4833 24.5387V26.4679C30.2606 26.4917 30.0383 26.5154 29.8094 26.5348C29.7956 26.536 29.7826 26.5376 29.7688 26.5387ZM34.1495 25.8096C33.9586 25.8636 33.7566 25.9142 33.5504 25.9636C33.4549 25.9861 33.3576 26.0087 33.2579 26.0304C33.2284 26.0371 33.197 26.0429 33.1671 26.0495V24.1521C33.5742 24.0708 33.959 23.9814 34.3171 23.8834V25.7621C34.2619 25.7777 34.2063 25.7936 34.1495 25.8096ZM36.2291 22.0253C36.1938 22.2893 35.6039 22.6405 34.5509 22.9707C33.1947 23.3957 31.0725 23.785 28.383 23.9056C28.2454 23.9114 28.1082 23.9172 27.9679 23.9219C27.8533 23.9258 27.7383 23.9293 27.6214 23.9324C27.304 23.9394 26.982 23.9444 26.65 23.9444C26.318 23.9444 25.996 23.9394 25.6786 23.932C25.5621 23.9293 25.4471 23.9254 25.3321 23.9215C25.1914 23.9172 25.0542 23.911 24.917 23.9052C22.2275 23.7846 20.105 23.3953 18.7491 22.9703C17.7045 22.6428 17.1157 22.2944 17.072 22.0315C17.074 22.0241 17.074 22.0179 17.0786 22.0086C17.1046 22.0152 17.1338 22.0206 17.1602 22.0272C17.3101 22.0634 17.4638 22.0984 17.6202 22.1318C18.3819 22.2983 19.226 22.4348 20.1253 22.539C20.1283 22.539 20.1307 22.5406 20.1333 22.5406L20.1352 22.5402C20.7478 22.6109 21.3834 22.6666 22.0358 22.7058C22.0408 22.7058 22.045 22.7086 22.05 22.7086C22.0527 22.7086 22.0546 22.707 22.0573 22.707C22.5269 22.735 23.0026 22.7556 23.484 22.7665C23.7788 22.7739 24.0683 22.7778 24.35 22.7778C24.5513 22.7778 24.7575 22.7754 24.9656 22.7716C27.7509 22.728 30.3323 22.392 32.1286 21.8713C32.2114 21.8476 32.2923 21.8231 32.372 21.7986C32.4207 21.7834 32.4705 21.7686 32.5177 21.7534C32.6565 21.7083 32.7895 21.6621 32.9179 21.6138C32.9401 21.6053 32.9612 21.5967 32.9834 21.5882C33.0919 21.5466 33.1962 21.5034 33.2959 21.4594C33.3246 21.4466 33.3541 21.4342 33.3821 21.4213C33.4883 21.3727 33.591 21.3229 33.6861 21.2712C33.729 21.2483 33.7662 21.2246 33.8064 21.2012C33.8524 21.1744 33.8985 21.1472 33.941 21.1196C33.9652 21.104 33.9939 21.0892 34.0169 21.0737C35.7331 21.4513 36.1854 21.8643 36.2291 22.0253ZM24.35 15.7778C30.6708 15.7778 33.8678 16.7873 33.9276 17.3668C33.8812 17.6297 33.2928 17.9769 32.2509 18.3036C30.8946 18.7287 28.7725 19.1179 26.083 19.2385C25.9454 19.2443 25.8082 19.2502 25.6679 19.2548C25.5533 19.2587 25.4383 19.2622 25.3214 19.2653C25.004 19.2727 24.682 19.2778 24.35 19.2778C24.018 19.2778 23.696 19.2727 23.3786 19.2653C23.2621 19.2626 23.1471 19.2587 23.0321 19.2548C22.8914 19.2506 22.7542 19.2443 22.617 19.2385C19.9275 19.1179 17.805 18.7287 16.4491 18.3036C15.4068 17.9769 14.8188 17.6297 14.7724 17.3668C14.8322 16.7873 18.0292 15.7778 24.35 15.7778ZM14.7667 20.054V18.4436C15.073 18.6392 15.4609 18.8177 15.9167 18.9787V20.8407C15.1711 20.5572 14.7674 20.2729 14.7667 20.054ZM16.6235 25.4358C16.6293 25.4421 16.6381 25.4475 16.6438 25.4537C17.1686 25.9912 18.2554 26.4135 19.6082 26.7285C19.6392 26.7359 19.6722 26.7429 19.7036 26.7503C19.8029 26.7728 19.9037 26.795 20.0057 26.8164C21.2481 27.0847 22.7312 27.2788 24.3469 27.3748L24.3496 27.3752L24.3512 27.3748C24.8702 27.4056 25.4011 27.4269 25.9431 27.4363C26.1831 27.4413 26.4192 27.4444 26.65 27.4444C26.9145 27.4444 27.1859 27.4413 27.4619 27.4347C27.9633 27.4242 28.4574 27.4032 28.9446 27.3744C28.9466 27.3744 28.9481 27.3756 28.95 27.3756C28.9535 27.3756 28.9561 27.3737 28.9596 27.3737C30.5795 27.2768 32.0995 27.0808 33.3848 26.7989C33.1065 26.9467 32.7255 27.0995 32.2509 27.2484C30.8191 27.6972 28.5325 28.1059 25.6265 28.2008C25.5402 28.2036 25.4552 28.2067 25.3678 28.209C25.2738 28.2113 25.1784 28.2129 25.0829 28.2148C24.8418 28.2187 24.5992 28.2222 24.35 28.2222C24.018 28.2222 23.696 28.2172 23.3786 28.2098C23.2621 28.2071 23.1471 28.2032 23.0321 28.1993C22.8914 28.195 22.7542 28.1888 22.617 28.1829C19.9275 28.0624 17.805 27.6731 16.4491 27.2481C15.395 26.9175 14.805 26.5659 14.7709 26.3019C14.8134 26.1557 15.201 25.7897 16.6235 25.4358ZM14.7667 28.9984V27.3881C15.073 27.5837 15.4609 27.7622 15.9167 27.9232V29.7778L15.6978 29.6914L15.6932 29.6961C15.0913 29.4429 14.7674 29.1944 14.7667 28.9984ZM15.9167 33.2762V31.6658C16.2229 31.8614 16.6109 32.0399 17.0667 32.2009V34.0629C16.3211 33.7794 15.9174 33.4952 15.9167 33.2762ZM33.9333 34.0629V32.2013C34.3891 32.0403 34.7771 31.8618 35.0833 31.6662V33.2754C35.083 33.4944 34.6789 33.7791 33.9333 34.0629ZM35.0784 30.5855C35.0366 30.8488 34.4478 31.198 33.4009 31.5262C32.0447 31.9513 29.9225 32.3406 27.233 32.4611C27.0954 32.4669 26.9582 32.4728 26.8179 32.4774C26.7033 32.4813 26.5883 32.4848 26.4714 32.4879C26.154 32.4949 25.832 32.5 25.5 32.5C25.168 32.5 24.8456 32.4949 24.5279 32.4876C24.4125 32.4848 24.2986 32.4809 24.1848 32.4771C24.0433 32.4724 23.9053 32.4666 23.767 32.4607C21.0775 32.3402 18.9553 31.9509 17.5991 31.5258C16.5852 31.2081 15.9995 30.8706 15.9259 30.61C16.0401 30.6504 16.1586 30.6897 16.2801 30.7282C16.2923 30.7321 16.3046 30.736 16.3169 30.7395C16.4204 30.7718 16.5262 30.8029 16.6346 30.8332C16.6757 30.8449 16.7171 30.8566 16.7588 30.8678C16.8202 30.8846 16.8831 30.9005 16.9459 30.9168C18.342 31.2797 20.1241 31.5367 22.0481 31.6522L22.05 31.6526L22.0512 31.6522C22.6453 31.688 23.2521 31.7102 23.8655 31.7176C24.0288 31.7207 24.1909 31.7222 24.35 31.7222C24.5612 31.7222 24.7774 31.7195 24.9963 31.7156C25.5556 31.7063 26.1076 31.6853 26.6473 31.6526L26.6504 31.6534C26.6523 31.6534 26.6535 31.6522 26.6554 31.6522C27.3128 31.6122 27.9491 31.555 28.5605 31.4838C28.5628 31.4838 28.5648 31.485 28.567 31.485C28.5755 31.485 28.5824 31.4807 28.5908 31.4799C29.2716 31.4002 29.9172 31.3022 30.5163 31.1883C30.6397 31.1653 30.7613 31.1416 30.8816 31.1171C30.9085 31.1117 30.9353 31.1062 30.9621 31.1004C32.0941 30.8647 33.0739 30.5594 33.7463 30.1811C33.7831 30.1608 33.8176 30.1398 33.8525 30.1192C33.895 30.0936 33.9356 30.0675 33.9751 30.0411C34.0119 30.0169 34.0545 29.9936 34.0882 29.9691C34.8449 30.2429 35.0534 30.4879 35.0784 30.5855ZM35.0833 25.5074V23.6458C35.5391 23.4848 35.927 23.3063 36.2333 23.1107V24.7199C36.233 24.9388 35.8289 25.2235 35.0833 25.5074Z" fill="#942164" stroke="#942164" stroke-width="0.2" />
  <circle cx="25.5" cy="25.5" r="23" stroke="#942164" />
</svg>
