<svg width="34" height="40" viewBox="0 0 34 40" fill="none" xmlns="http://www.w3.org/2000/svg">
<path d="M32.0078 4.375H1.99219C0.89389 4.375 0 5.42664 0 6.71875V27.0313C0 28.3234 0.89389 29.375 1.99219 29.375H14.6758V30.9375H7.96875C7.23621 30.9375 6.64062 31.6382 6.64062 32.5V34.0625C6.64062 34.9243 7.23621 35.625 7.96875 35.625H26.0312C26.7638 35.625 27.3594 34.9243 27.3594 34.0625V32.5C27.3594 31.6382 26.7638 30.9375 26.0312 30.9375H19.3242V29.375H32.0078C33.1061 29.375 34 28.3234 34 27.0313V6.71875C34 5.42664 33.1061 4.375 32.0078 4.375ZM16.0039 29.375H17.9961V30.9375H16.0039V29.375ZM26.0312 32.5L26.032 34.0625C26.032 34.0625 26.032 34.0625 26.0312 34.0625H7.96875V32.5H26.0312ZM32.6719 27.0313C32.6719 27.4625 32.3738 27.8125 32.0078 27.8125H1.99219C1.62617 27.8125 1.32812 27.4625 1.32812 27.0313V6.71875C1.32812 6.28815 1.62617 5.9375 1.99219 5.9375H32.0078C32.3738 5.9375 32.6719 6.28815 32.6719 6.71875V27.0313Z" fill="white"/>
<path d="M15.041 20.3906C14.9277 20.3906 14.8143 20.3564 14.7124 20.2881C14.5051 20.1492 14.377 19.8901 14.377 19.6094V14.1406C14.377 13.8599 14.5051 13.6008 14.7124 13.4619C14.9196 13.3227 15.1746 13.3255 15.3798 13.4686L19.2978 16.203C19.4993 16.344 19.623 16.5991 19.623 16.875C19.623 17.1509 19.4993 17.4063 19.2978 17.547L15.3798 20.2814C15.2755 20.354 15.1583 20.3906 15.041 20.3906ZM15.7051 15.5124V18.2376L17.6573 16.875L15.7051 15.5124Z" fill="white"/>
<path d="M29.2852 8.35938H4.71484C3.9823 8.35938 3.38672 9.06006 3.38672 9.92188V23.8281C3.38672 24.6899 3.9823 25.3906 4.71484 25.3906H29.2852C30.0177 25.3906 30.6133 24.6899 30.6133 23.8281V9.92188C30.6133 9.06006 30.0177 8.35938 29.2852 8.35938ZM29.2852 23.8281H4.71484V21.543H9.36328C9.72981 21.543 10.0273 21.1929 10.0273 20.7617C10.0273 20.3305 9.72981 19.9805 9.36328 19.9805H4.71484V9.92188H29.2852V23.8281Z" fill="white"/>
<path d="M12.0209 21.543C11.6541 21.543 11.3566 21.1932 11.3566 20.7617C11.3566 20.3302 11.6536 19.9805 12.0204 19.9805H12.0209C12.3877 19.9805 12.685 20.3302 12.685 20.7617C12.685 21.1932 12.3877 21.543 12.0209 21.543Z" fill="white"/>
</svg>
