<svg width="37" height="34" viewBox="0 0 37 34" fill="none" xmlns="http://www.w3.org/2000/svg">
<path d="M23.2079 10.167H22.2508C21.8517 10.167 21.5282 10.4993 21.5282 10.9092C21.5282 11.097 21.5967 11.268 21.7087 11.3988L19.1469 14.0298L17.8899 12.7388C17.6077 12.4491 17.1501 12.4491 16.8679 12.7388L14.3815 15.2923C14.0993 15.5821 14.0993 16.0521 14.3815 16.342C14.5227 16.4869 14.7076 16.5594 14.8925 16.5594C15.0775 16.5594 15.2625 16.4869 15.4035 16.342L17.3789 14.3132L18.636 15.6043C18.9182 15.894 19.3757 15.894 19.6579 15.6043L22.7307 12.4485C22.858 12.5637 23.0247 12.6343 23.2078 12.6343C23.607 12.6343 23.9305 12.302 23.9305 11.8921V10.9093C23.9306 10.4993 23.607 10.167 23.2079 10.167Z" fill="white"/>
<path d="M29.7601 10.7817V2.23047C29.7601 1.00274 28.7876 0.00390625 27.5922 0.00390625C26.4707 0.00390625 25.5455 0.882953 25.4353 2.00544L10.9366 9.05859H4.07159C3.67247 9.05859 3.34893 9.39095 3.34893 9.80078V11.0571C1.93361 11.3945 0.875426 12.6992 0.875426 14.2539C0.875426 15.8086 1.93361 17.1133 3.34893 17.4507V18.707C3.34893 19.1169 3.67247 19.4492 4.07159 19.4492H6.86271V20.0335L3.49057 21.2439H0.722656C0.323533 21.2439 0 21.5763 0 21.9861V33.2539C0 33.6637 0.323533 33.9961 0.722656 33.9961H3.19616H3.61328H10.8141C12.4644 33.9961 13.8872 32.7312 14.1237 31.0537L14.7495 26.6156C14.8887 25.6285 14.6039 24.6298 13.9683 23.8756C13.4167 23.2212 12.6496 22.8094 11.8217 22.7118V19.8798L25.4353 26.5024C25.5455 27.6249 26.4708 28.5039 27.5922 28.5039C28.7876 28.5039 29.7601 27.5051 29.7601 26.2773V17.5977C31.2869 17.2565 32.434 15.8584 32.434 14.1897C32.434 12.521 31.2869 11.1228 29.7601 10.7817ZM2.32074 14.2539C2.32074 13.527 2.7432 12.8999 3.34893 12.6167V15.891C2.74313 15.608 2.32074 14.9808 2.32074 14.2539ZM4.79425 10.543H10.3765V17.9648H4.79425V10.543ZM10.3764 19.4492V22.6889H8.30795V19.4492H10.3764ZM1.44531 22.7283H2.89063V32.5117H1.44531V22.7283ZM12.8755 24.8471C13.2364 25.2753 13.3981 25.8423 13.3191 26.4029L12.6933 30.841C12.5591 31.7934 11.7512 32.5117 10.8141 32.5117H4.33594V22.5129L6.86263 21.606V22.6889H6.76883C6.36971 22.6889 6.04618 23.0213 6.04618 23.4311C6.04618 23.841 6.36971 24.1733 6.76883 24.1733H11.4399C11.9913 24.1733 12.5146 24.4189 12.8755 24.8471ZM28.3148 26.2773C28.3148 26.6866 27.9907 27.0195 27.5922 27.0195C27.1937 27.0195 26.8695 26.6866 26.8695 26.2773V22.2344C26.8695 21.8246 26.546 21.4922 26.1469 21.4922C25.7477 21.4922 25.4242 21.8246 25.4242 22.2344V24.8546L11.8217 18.2374V10.2704L25.4242 3.65324V16.297C25.4242 16.7068 25.7477 17.0392 26.1469 17.0392C26.546 17.0392 26.8695 16.7068 26.8695 16.297V2.23047C26.8695 1.82123 27.1937 1.48828 27.5922 1.48828C27.9907 1.48828 28.3148 1.82123 28.3148 2.23047V26.2773ZM29.7601 16.0505V12.3288C30.4792 12.6244 30.9887 13.3469 30.9887 14.1896C30.9887 15.0324 30.4792 15.7549 29.7601 16.0505Z" fill="white"/>
<path d="M36.2773 13.4478H34.6178C34.2187 13.4478 33.8951 13.7801 33.8951 14.1899C33.8951 14.5998 34.2187 14.9321 34.6178 14.9321H36.2773C36.6764 14.9321 37 14.5998 37 14.1899C37 13.7801 36.6764 13.4478 36.2773 13.4478Z" fill="white"/>
<path d="M33.2662 11.5807C33.4512 11.5807 33.6362 11.5081 33.7772 11.3633L34.9507 10.1581C35.2329 9.86828 35.2329 9.39832 34.9507 9.10843C34.6685 8.81868 34.2109 8.81868 33.9286 9.10843L32.7552 10.3136C32.473 10.6034 32.473 11.0734 32.7552 11.3633C32.8964 11.5082 33.0813 11.5807 33.2662 11.5807Z" fill="white"/>
<path d="M33.7773 17.0161C33.4951 16.7264 33.0376 16.7264 32.7553 17.0161C32.4731 17.306 32.4731 17.7759 32.7553 18.0658L33.9287 19.271C34.0699 19.4159 34.2548 19.4884 34.4397 19.4884C34.6246 19.4884 34.8096 19.4159 34.9507 19.271C35.2329 18.9812 35.2329 18.5112 34.9507 18.2213L33.7773 17.0161Z" fill="white"/>
<path d="M26.1472 18.5239C25.9564 18.5239 25.7699 18.6033 25.6355 18.7414C25.5011 18.8794 25.4245 19.0708 25.4245 19.2661C25.4245 19.4613 25.5011 19.6528 25.6355 19.7908C25.7707 19.9288 25.9564 20.0083 26.1472 20.0083C26.3372 20.0083 26.5237 19.9289 26.6581 19.7908C26.7925 19.6528 26.8698 19.4613 26.8698 19.2661C26.8698 19.0708 26.7925 18.8794 26.6581 18.7414C26.5237 18.6033 26.3372 18.5239 26.1472 18.5239Z" fill="white"/>
</svg>
