<svg width="55" height="57" viewBox="0 0 55 57" fill="none" xmlns="http://www.w3.org/2000/svg">
  <g filter="url(#filter0_d)">
    <circle cx="27.5" cy="25.5" r="23" stroke="#942164" />
    <path d="M29.9763 31.24L27.762 18.6839C27.7366 18.5394 27.597 18.4408 27.4544 18.4685C27.3096 18.4939 27.2131 18.6316 27.2391 18.7761L29.4533 31.3324C29.4756 31.4611 29.5878 31.5513 29.7143 31.5513C29.7299 31.5513 29.7454 31.5503 29.761 31.5472C29.9053 31.5223 30.0017 31.3843 29.9763 31.24Z" fill="#942164" stroke="#942164" stroke-width="0.3" />
    <path d="M30.2534 32.8098C29.8659 30.6132 20.6413 30.2916 18.7959 30.249C18.646 30.2521 18.5277 30.3621 18.5243 30.509C18.5209 30.6557 18.6371 30.7772 18.784 30.7803C22.8879 30.8747 29.4886 31.5336 29.7304 32.9022C29.7527 33.0309 29.8648 33.1211 29.9914 33.1211C30.0069 33.1211 30.0225 33.1202 30.0381 33.117C30.1824 33.092 30.2788 32.9541 30.2534 32.8098Z" fill="#942164" stroke="#942164" stroke-width="0.3" />
    <path d="M27.486 17.1141C27.4607 16.9696 27.3227 16.8728 27.1784 16.8987C27.0337 16.9241 26.9371 17.0618 26.9631 17.2063C27.3823 19.5866 20.2211 22.1487 17.4263 22.935C17.2849 22.9747 17.2026 23.1214 17.2424 23.2626C17.2753 23.3799 17.382 23.4564 17.4979 23.4564C17.5217 23.4564 17.5461 23.4532 17.57 23.4465C17.5959 23.4393 20.1873 22.7057 22.677 21.5952C26.1211 20.0593 27.7393 18.5517 27.486 17.1141Z" fill="#942164" stroke="#942164" stroke-width="0.3" />
    <path d="M28.5319 16.9291C28.5065 16.7844 28.369 16.6874 28.2243 16.7138L27.1784 16.8985C27.0337 16.9239 26.9371 17.0616 26.9631 17.2061C26.9854 17.3351 27.0975 17.4256 27.2241 17.4256C27.2396 17.4256 27.2552 17.4244 27.2708 17.4214L28.3167 17.2367C28.4609 17.2113 28.5574 17.0736 28.5319 16.9291Z" fill="#942164" stroke="#942164" stroke-width="0.3" />
    <path d="M31.2992 32.6251L28.532 16.9291C28.5065 16.7844 28.3691 16.6874 28.2243 16.7138C28.0796 16.7393 27.9831 16.877 28.009 17.0215L30.7762 32.7175C30.7986 32.8462 30.9106 32.9364 31.0373 32.9364C31.0528 32.9364 31.0684 32.9353 31.0839 32.9322C31.2281 32.9073 31.3247 32.7694 31.2992 32.6251Z" fill="#942164" stroke="#942164" stroke-width="0.3" />
    <path d="M31.2992 32.6255C31.2738 32.4808 31.1342 32.3828 30.9916 32.4097L29.9456 32.5944C29.8009 32.6203 29.7044 32.7579 29.7304 32.9026C29.7526 33.0313 29.8648 33.1215 29.9914 33.1215C30.0069 33.1215 30.0224 33.1205 30.038 33.1174L31.0839 32.9327C31.2281 32.9077 31.3247 32.7698 31.2992 32.6255Z" fill="#942164" stroke="#942164" stroke-width="0.3" />
    <path d="M19.0514 30.4693C19.026 30.324 18.8888 30.2276 18.7438 30.2535L13.2505 31.2226L12.0508 24.4217L17.5443 23.4523C17.6888 23.4269 17.7853 23.2892 17.7596 23.1447C17.7341 22.9999 17.5948 22.9021 17.4519 22.9294L11.6969 23.9446C11.5524 23.9701 11.4559 24.1078 11.4816 24.2523L12.7734 31.5764C12.796 31.7051 12.908 31.7953 13.0346 31.7953C13.0499 31.7953 13.0655 31.7943 13.0811 31.7911L18.8361 30.7765C18.9806 30.7515 19.0772 30.6135 19.0514 30.4693Z" fill="#942164" stroke="#942164" stroke-width="0.3" />
    <path d="M13.2964 31.4838L12.0046 24.1597C11.9903 24.0778 11.9381 24.0071 11.8637 23.9693C11.7895 23.9309 11.7016 23.9301 11.6269 23.967L8.14939 25.6588C8.04276 25.7106 7.98337 25.8271 8.0041 25.9439L8.9265 31.1757C8.94696 31.2919 9.04243 31.3811 9.16049 31.3936L13.0074 31.794C13.0165 31.7951 13.0258 31.7951 13.0349 31.7951C13.1083 31.7951 13.1788 31.7651 13.2292 31.7111C13.286 31.6499 13.3109 31.5658 13.2964 31.4838ZM9.41474 30.8857L8.5621 26.0489L11.5426 24.5989L12.7123 31.2291L9.41474 30.8857Z" fill="#942164" stroke="#942164" stroke-width="0.3" />
    <path d="M18.8668 29.423L17.9444 24.1906C17.9192 24.0461 17.7801 23.9478 17.6367 23.9753C17.4922 24.0008 17.3957 24.1385 17.4214 24.283L18.3438 29.5153C18.3664 29.644 18.4784 29.7342 18.605 29.7342C18.6203 29.7342 18.6359 29.7332 18.6515 29.7301C18.796 29.7052 18.8925 29.5672 18.8668 29.423Z" fill="#942164" stroke="#942164" stroke-width="0.3" />
    <path d="M11.2071 25.8327C11.1374 25.7041 10.9758 25.6561 10.8471 25.7259L9.36957 26.5262C9.24068 26.5957 9.19272 26.7565 9.26274 26.8862C9.31077 26.9743 9.40206 27.0252 9.49647 27.0252C9.53925 27.0252 9.58257 27.0149 9.62276 26.993L11.1003 26.1931C11.2292 26.123 11.2772 25.9619 11.2071 25.8327Z" fill="#942164" stroke="#942164" stroke-width="0.3" />
    <path d="M11.7503 29.8822L10.0886 29.6363C9.94386 29.6166 9.80846 29.7151 9.78693 29.8604C9.76541 30.0056 9.86579 30.1406 10.0108 30.1618L11.6725 30.4077C11.6858 30.4092 11.6988 30.4103 11.7117 30.4103C11.8412 30.4103 11.9548 30.3159 11.9742 30.1841C11.9957 30.0388 11.8954 29.904 11.7503 29.8822Z" fill="#942164" stroke="#942164" stroke-width="0.3" />
    <path d="M11.604 28.0057C11.5787 27.8615 11.4407 27.7645 11.2964 27.791L9.72706 28.0669C9.58256 28.0929 9.4861 28.2304 9.51174 28.3751C9.53433 28.5038 9.64634 28.594 9.77297 28.594C9.78825 28.594 9.8038 28.593 9.81934 28.5899L11.3887 28.3139C11.5332 28.2879 11.6297 28.1505 11.604 28.0057Z" fill="#942164" stroke="#942164" stroke-width="0.3" />
    <path d="M13.5283 23.6208C13.5028 23.4763 13.3646 23.378 13.2206 23.4055L12.1742 23.5902C12.0297 23.6156 11.9332 23.7534 11.9589 23.8979C11.9815 24.0267 12.0936 24.1173 12.2201 24.1173C12.2355 24.1173 12.251 24.116 12.2666 24.1132L13.3129 23.9285C13.4574 23.903 13.554 23.7653 13.5283 23.6208Z" fill="#942164" stroke="#942164" stroke-width="0.3" />
    <path d="M21.1237 39.2086L18.4472 33.2071C18.3879 33.0733 18.2307 33.0121 18.0965 33.0728C17.9625 33.1324 17.9023 33.2896 17.9622 33.4235L20.6387 39.4249C20.6827 39.524 20.7798 39.5821 20.8814 39.5821C20.9175 39.5821 20.9543 39.5749 20.9893 39.5593C21.1235 39.4996 21.1837 39.3424 21.1237 39.2086Z" fill="#942164" stroke="#942164" stroke-width="0.3" />
    <path d="M17.9845 39.7625L15.308 33.761C15.2486 33.6278 15.0914 33.5665 14.9573 33.6267C14.8232 33.6863 14.763 33.8435 14.823 33.9774L17.4994 39.9788C17.5435 40.0774 17.6405 40.1366 17.7422 40.1366C17.7783 40.1366 17.8151 40.1293 17.8501 40.1132C17.9842 40.0535 18.0444 39.8963 17.9845 39.7625Z" fill="#942164" stroke="#942164" stroke-width="0.3" />
    <path d="M21.6656 39.1788C21.6402 39.034 21.5028 38.936 21.358 38.963L17.1723 39.7017C17.0278 39.7266 16.9313 39.8646 16.957 40.0088C16.9796 40.1381 17.0917 40.2289 17.2183 40.2289C17.2335 40.2289 17.2491 40.2273 17.2646 40.2247L21.4503 39.4859C21.5948 39.461 21.6912 39.323 21.6656 39.1788Z" fill="#942164" stroke="#942164" stroke-width="0.3" />
    <path d="M14.0964 32.9612L13.9926 32.3729C13.9672 32.2281 13.8287 32.1291 13.685 32.1571C13.5405 32.1831 13.4439 32.3205 13.4696 32.4653L13.5734 33.0536C13.596 33.1823 13.7081 33.2725 13.8346 33.2725C13.8499 33.2725 13.8655 33.2715 13.8811 33.2683C14.0256 33.2434 14.1221 33.1054 14.0964 32.9612Z" fill="#942164" stroke="#942164" stroke-width="0.3" />
    <path d="M19.3313 32.0562C19.3064 31.9115 19.1694 31.8149 19.0241 31.8399L13.7895 32.7457C13.645 32.7706 13.5482 32.908 13.5732 33.0529C13.5955 33.1821 13.7078 33.2728 13.8346 33.2728C13.8497 33.2728 13.8649 33.2718 13.8803 33.2692L19.115 32.3633C19.2594 32.3384 19.3562 32.201 19.3313 32.0562Z" fill="#942164" stroke="#942164" stroke-width="0.3" />
    <path d="M19.331 32.0556L19.2387 31.5316C19.2135 31.3874 19.0736 31.2904 18.931 31.3168C18.7865 31.3418 18.69 31.4797 18.7157 31.624L18.8081 32.148C18.8307 32.2767 18.9428 32.3669 19.0693 32.3669C19.0846 32.3669 19.1002 32.3658 19.1157 32.3627C19.2602 32.3378 19.3567 32.1999 19.331 32.0556Z" fill="#942164" stroke="#942164" stroke-width="0.3" />
    <path d="M32.1709 14.1973H32.1657C32.0188 14.1973 31.9026 14.3161 31.9026 14.4629C31.9026 14.6098 32.0245 14.7286 32.1709 14.7286C32.3176 14.7286 32.4365 14.6098 32.4365 14.4629C32.4365 14.3161 32.3176 14.1973 32.1709 14.1973Z" fill="#942164" stroke="#942164" stroke-width="0.3" />
    <path d="M33.7646 14.1973H33.7594C33.6126 14.1973 33.4964 14.3161 33.4964 14.4629C33.4964 14.6098 33.6183 14.7286 33.7646 14.7286C33.9114 14.7286 34.0302 14.6098 34.0302 14.4629C34.0302 14.3161 33.9114 14.1973 33.7646 14.1973Z" fill="#942164" stroke="#942164" stroke-width="0.3" />
    <path d="M36.4053 30.1353C34.5012 30.1353 32.9521 31.6844 32.9521 33.5884C32.9521 35.4924 34.5013 37.0416 36.4053 37.0416C38.3092 37.0416 39.8583 35.4924 39.8584 33.5884C39.8584 31.6844 38.3092 30.1353 36.4053 30.1353ZM36.4053 36.5102C34.7939 36.5102 33.4834 35.1992 33.4834 33.5884C33.4834 31.9771 34.7939 30.6665 36.4053 30.6665C38.0161 30.6665 39.3271 31.9771 39.3271 33.5884C39.3271 35.1992 38.0161 36.5102 36.4053 36.5102Z" fill="#942164" stroke="#942164" stroke-width="0.3" />
    <path d="M32.9521 12.6035C31.4876 12.6035 30.2959 13.7952 30.2959 15.2597C30.2959 16.7242 31.4875 17.9159 32.9521 17.9159C34.4167 17.9159 35.6084 16.7242 35.6083 15.2597C35.6083 13.7952 34.4166 12.6035 32.9521 12.6035ZM32.9521 17.3846C31.7802 17.3846 30.8271 16.4313 30.8271 15.2597C30.8271 14.088 31.7801 13.1347 32.9521 13.1347C34.1236 13.1347 35.0771 14.088 35.0771 15.2597C35.0771 16.4313 34.1236 17.3846 32.9521 17.3846Z" fill="#942164" stroke="#942164" stroke-width="0.3" />
    <path d="M37.2187 18.9785C34.5821 18.9785 32.4375 21.1235 32.4375 23.7598C32.4375 26.396 34.5821 28.5413 37.2187 28.5413C39.8548 28.5413 42 26.396 42 23.7598C42 21.1235 39.8548 18.9785 37.2187 18.9785ZM37.2187 28.01C34.8753 28.01 32.9687 26.1032 32.9687 23.7598C32.9687 21.4163 34.8753 19.5097 37.2187 19.5097C39.5621 19.5097 41.4688 21.4163 41.4688 23.7598C41.4688 26.1032 39.5621 28.01 37.2187 28.01Z" fill="#942164" stroke="#942164" stroke-width="0.3" />
    <path d="M39.2659 22.7751C39.2161 22.7253 39.1487 22.6973 39.0781 22.6973H38.8124V21.3691C38.8124 21.2223 38.6937 21.1035 38.5468 21.1035H38.0156C37.9077 21.1035 37.8102 21.1692 37.7697 21.269C37.7656 21.2791 37.3541 22.278 36.7819 22.7595C36.2481 23.2086 35.8885 23.2286 35.8906 23.2286C35.7438 23.2286 35.625 23.3473 35.625 23.4942V25.0879C35.625 25.2347 35.7438 25.3535 35.8906 25.3535H36.3119L36.7653 25.807C36.8151 25.8567 36.8826 25.8848 36.9531 25.8848H39.0781C39.1487 25.8848 39.2161 25.8567 39.2659 25.807C39.9035 25.1693 39.9035 23.4127 39.2659 22.7751ZM38.9557 25.3535H37.0631L36.6096 24.9001C36.5598 24.8503 36.4924 24.8223 36.4219 24.8223H36.1562V23.7155C36.3757 23.6543 36.7159 23.5093 37.1243 23.166C37.6488 22.7243 38.0348 21.9689 38.1888 21.6348H38.2812V22.9629C38.2812 23.1098 38.4 23.2286 38.5468 23.2286H38.9557C39.2944 23.7001 39.2944 24.8819 38.9557 25.3535Z" fill="#942164" stroke="#942164" stroke-width="0.3" />
    <path d="M35.8906 22.6973H34.2968C34.1501 22.6973 34.0312 22.8161 34.0312 22.9629V25.6191C34.0312 25.766 34.1501 25.8848 34.2968 25.8848H35.8906C36.0374 25.8848 36.1562 25.766 36.1562 25.6191V22.9629C36.1562 22.8161 36.0374 22.6973 35.8906 22.6973ZM35.625 25.3535H34.5625V23.2286H35.625V25.3535Z" fill="#942164" stroke="#942164" stroke-width="0.3" />
    <path d="M33.7573 15.796C33.6333 15.7999 33.4927 15.9063 33.4833 16.0492C33.4802 16.0946 33.4408 16.3223 32.9521 16.3223C32.467 16.3223 32.424 16.0982 32.4209 16.0502C32.4172 15.9065 32.2994 15.791 32.1553 15.791C32.0084 15.791 31.8897 15.9099 31.8897 16.0567C31.8897 16.3325 32.1117 16.8536 32.9521 16.8536C33.7926 16.8536 34.0146 16.3325 34.0146 16.0567C34.0146 15.9133 33.9004 15.8006 33.7573 15.796Z" fill="#942164" stroke="#942164" stroke-width="0.3" />
    <path d="M39.8749 11C38.703 11 37.7499 11.9533 37.7499 13.125C37.7499 14.2967 38.7029 15.25 39.8749 15.25C41.0464 15.25 42 14.2967 41.9999 13.125C41.9999 11.9533 41.0464 11 39.8749 11ZM39.8749 14.7187C38.9961 14.7187 38.2812 14.0039 38.2812 13.125C38.2812 12.2461 38.996 11.5312 39.8749 11.5312C40.7538 11.5312 41.4687 12.2462 41.4687 13.125C41.4687 14.0038 40.7537 14.7187 39.8749 14.7187Z" fill="#942164" stroke="#942164" stroke-width="0.3" />
    <path d="M41.7343 13.9219C41.5875 13.9219 41.4687 14.0407 41.4687 14.1876C41.4687 15.0664 40.7537 15.7813 39.8749 15.7813C38.9961 15.7813 38.2812 15.0664 38.2812 14.1876C38.2812 14.0407 38.1624 13.9219 38.0156 13.9219C37.8687 13.9219 37.7499 14.0407 37.7499 14.1876C37.7499 15.3592 38.7029 16.3125 39.8749 16.3125C41.0464 16.3125 42 15.3592 41.9999 14.1876C41.9999 14.0407 41.8811 13.9219 41.7343 13.9219Z" fill="#942164" stroke="#942164" stroke-width="0.3" />
    <path d="M39.8749 12.0625C39.7281 12.0625 39.6093 12.1813 39.6093 12.3281V13.9218C39.6093 14.0686 39.7281 14.1875 39.8749 14.1875C40.0218 14.1875 40.1406 14.0686 40.1405 13.9219V12.3281C40.1405 12.1813 40.0218 12.0625 39.8749 12.0625Z" fill="#942164" stroke="#942164" stroke-width="0.3" />
    <path d="M40.6718 12.8594L39.0781 12.8589C38.9313 12.8589 38.8124 12.9777 38.8124 13.1245C38.8124 13.2711 38.9313 13.3901 39.0781 13.3901L40.6719 13.3906C40.8181 13.3906 40.9375 13.2719 40.9375 13.125C40.9375 12.9785 40.8186 12.8594 40.6718 12.8594Z" fill="#942164" stroke="#942164" stroke-width="0.3" />
    <path d="M38.0156 12.8594C37.8687 12.8594 37.7499 12.9782 37.7499 13.125V14.1875C37.7499 14.3343 37.8687 14.4531 38.0156 14.4531C38.1624 14.4531 38.2812 14.3343 38.2812 14.1875V13.125C38.2812 12.9782 38.1624 12.8594 38.0156 12.8594Z" fill="#942164" stroke="#942164" stroke-width="0.3" />
    <path d="M41.7343 12.8594C41.5875 12.8594 41.4687 12.9782 41.4687 13.125V14.1875C41.4687 14.3343 41.5875 14.4531 41.7343 14.4531C41.8812 14.4531 41.9999 14.3343 41.9999 14.1875V13.125C41.9999 12.9782 41.8812 12.8594 41.7343 12.8594Z" fill="#942164" stroke="#942164" stroke-width="0.3" />
    <path d="M37.6541 33.4039L35.9315 32.163C35.8933 32.1353 35.8454 32.1353 35.8066 32.1622C35.7684 32.1899 35.744 32.2406 35.744 32.295V34.777C35.744 34.8315 35.7684 34.8823 35.8066 34.9098C35.826 34.9232 35.8472 34.9301 35.8684 34.9301C35.8904 34.9301 35.9121 34.9224 35.9315 34.9083L37.6541 33.6682C37.6923 33.6405 37.716 33.5906 37.716 33.5361C37.716 33.4822 37.6923 33.4316 37.6541 33.4039ZM35.993 34.3289V32.5617L37.2695 33.4497" fill="#942164" />
    <path fill-rule="evenodd" clip-rule="evenodd" d="M35.996 32.0745C35.996 32.0745 35.9959 32.0744 35.996 32.0745L37.7182 33.3151C37.7893 33.3667 37.8256 33.4532 37.8256 33.5364C37.8256 33.6205 37.7894 33.7059 37.7185 33.7572L35.9962 34.9972C35.9961 34.9973 35.9962 34.9971 35.9962 34.9972C35.9604 35.0231 35.9163 35.04 35.8685 35.04C35.8228 35.04 35.7803 35.0251 35.7444 35.0004L35.7425 34.9991C35.6716 34.9481 35.6343 34.8618 35.6343 34.7772V32.2953C35.6343 32.2106 35.6718 32.1247 35.7422 32.0737L35.7441 32.0723C35.8203 32.0195 35.9192 32.0189 35.996 32.0745ZM35.8688 32.2532C35.8625 32.2592 35.8536 32.2738 35.8536 32.2953V34.7772C35.8536 34.7985 35.8623 34.8129 35.8683 34.819L37.5897 33.5796C37.5898 33.5796 37.5897 33.5797 37.5897 33.5796C37.5953 33.5755 37.6063 33.5611 37.6063 33.5364C37.6063 33.5119 37.5952 33.4969 37.5898 33.493C37.5898 33.4929 37.5898 33.493 37.5898 33.493L35.8688 32.2532ZM35.9422 32.4647C35.9784 32.4458 36.0221 32.4486 36.0556 32.4719L37.3321 33.3599L37.2069 33.54L36.1026 32.7718V34.3292H35.8833V32.5619C35.8833 32.5211 35.906 32.4836 35.9422 32.4647Z" fill="#942164" />
  </g>
  <defs>
    <filter id="filter0_d" x="0" y="2" width="55" height="55" filterUnits="userSpaceOnUse" color-interpolation-filters="sRGB">
      <feFlood flood-opacity="0" result="BackgroundImageFix" />
      <feColorMatrix in="SourceAlpha" type="matrix" values="0 0 0 0 0 0 0 0 0 0 0 0 0 0 0 0 0 0 127 0" />
      <feOffset dy="4" />
      <feGaussianBlur stdDeviation="2" />
      <feColorMatrix type="matrix" values="0 0 0 0 0 0 0 0 0 0 0 0 0 0 0 0 0 0 0.25 0" />
      <feBlend mode="normal" in2="BackgroundImageFix" result="effect1_dropShadow" />
      <feBlend mode="normal" in="SourceGraphic" in2="effect1_dropShadow" result="shape" />
    </filter>
  </defs>
</svg>
