<svg width="42" height="43" viewBox="0 0 42 43" fill="none" xmlns="http://www.w3.org/2000/svg">
<g clip-path="url(#clip0)">
<path d="M28 3.5835H14V5.01683H28V3.5835Z" fill="white"/>
<path d="M27.65 27.9502C27.0711 27.9502 26.6 27.468 26.6 26.8752C26.6 26.2824 27.0711 25.8002 27.65 25.8002H32.2C32.779 25.8002 33.25 26.2824 33.25 26.8752C33.25 27.468 32.779 27.9502 32.2 27.9502H27.65ZM33.25 30.4585C33.25 31.0513 32.779 31.5335 32.2 31.5335H31.15H27.65C27.0711 31.5335 26.6 31.0513 26.6 30.4585C26.6 29.8658 27.0711 29.3835 27.65 29.3835H32.2C32.779 29.3835 33.25 29.8658 33.25 30.4585ZM31.15 35.1169H29.05H26.6C26.0211 35.1169 25.55 34.6346 25.55 34.0419C25.55 33.4491 26.0211 32.9669 26.6 32.9669H27.65H31.15C31.729 32.9669 32.2 33.4491 32.2 34.0419C32.2 34.6346 31.729 35.1169 31.15 35.1169ZM29.05 38.7002H28.7H25.2H24.5C23.9211 38.7002 23.45 38.218 23.45 37.6252C23.45 37.0324 23.9211 36.5502 24.5 36.5502H26.6H29.05C29.629 36.5502 30.1 37.0324 30.1 37.6252C30.1 38.218 29.629 38.7002 29.05 38.7002ZM34.65 26.8752C34.65 25.4923 33.5509 24.3669 32.2 24.3669H30.8V14.3335H29.4V24.3669H27.65C26.2993 24.3669 25.2 25.4923 25.2 26.8752C25.2 27.5774 25.4851 28.2111 25.9408 28.6669C25.4851 29.1227 25.2 29.7564 25.2 30.4585C25.2 30.9416 25.3405 31.3893 25.5727 31.7725C24.7353 32.1718 24.15 33.0357 24.15 34.0419C24.15 34.4281 24.2429 34.7898 24.3958 35.1169H18.9C18.9 32.9255 17.8274 30.9863 16.1916 29.8202C17.7734 29.2029 18.9 27.6339 18.9 25.8002C18.9 25.4044 18.5869 25.0835 18.2 25.0835H12.6V17.9169H11.2V25.0835C10.042 25.0835 9.10004 26.048 9.10004 27.2335V43.0002H10.5V27.2335C10.5 26.8384 10.8138 26.5169 11.2 26.5169H17.4111C17.1001 27.7518 16.0023 28.6669 14.7 28.6669H12.6C12.2131 28.6669 11.9 28.9878 11.9 29.3835C11.9 29.7793 12.2131 30.1002 12.6 30.1002C15.3016 30.1002 17.5 32.3506 17.5 35.1169V35.8335C17.5 36.2293 17.8131 36.5502 18.2 36.5502H22.2958C22.1429 36.8772 22.05 37.239 22.05 37.6252C22.05 39.0082 23.1493 40.1335 24.5 40.1335V43.0002H25.9V40.1335H28.7H29.05C30.4009 40.1335 31.5 39.0082 31.5 37.6252C31.5 37.2349 31.4049 36.8697 31.2488 36.54C32.553 36.4855 33.6 35.3902 33.6 34.0419C33.6 33.5587 33.4596 33.1111 33.2273 32.7278C34.0647 32.3286 34.65 31.4647 34.65 30.4585C34.65 29.7564 34.3649 29.1227 33.9092 28.6669C34.3649 28.2111 34.65 27.5774 34.65 26.8752Z" fill="white"/>
<path d="M20.3 11.4667V13.6167H18.9V15.05H20.3V17.9167H21.7V15.05H23.1V13.6167H21.7V12.1833H23.1V10.75H21C20.6131 10.75 20.3 11.0709 20.3 11.4667Z" fill="white"/>
<path d="M16.1 18.6333V10.0333C16.1 9.63824 16.4138 9.31668 16.8 9.31668H25.2C25.5862 9.31668 25.9 9.63824 25.9 10.0333V18.6333C25.9 19.0284 25.5862 19.35 25.2 19.35H16.8C16.4138 19.35 16.1 19.0284 16.1 18.6333ZM27.3 18.6333V10.0333C27.3 8.84778 26.358 7.8833 25.2 7.8833H16.8C15.6421 7.8833 14.7 8.84778 14.7 10.0333V18.6333C14.7 19.8189 15.6421 20.7833 16.8 20.7833H25.2C26.358 20.7833 27.3 19.8189 27.3 18.6333Z" fill="white"/>
<path d="M1.4 14.3335V5.73349C1.4 5.33842 1.71376 5.01683 2.1 5.01683H10.5C10.8862 5.01683 11.2 5.33842 11.2 5.73349V14.3335C11.2 14.7285 10.8862 15.0502 10.5 15.0502H2.1C1.71376 15.0502 1.4 14.7285 1.4 14.3335ZM12.6 14.3335V5.73349C12.6 4.54792 11.658 3.5835 10.5 3.5835H2.1C0.941988 3.5835 0 4.54792 0 5.73349V14.3335C0 15.5191 0.941988 16.4835 2.1 16.4835H10.5C11.658 16.4835 12.6 15.5191 12.6 14.3335Z" fill="white"/>
<path d="M39.9 11.4667H31.5C31.1138 11.4667 30.8 11.1451 30.8 10.75V7.16669H32.2708C32.596 8.80015 34.01 10.0333 35.7 10.0333C37.3901 10.0333 38.804 8.80015 39.1293 7.16669H40.6V10.75C40.6 11.1451 40.2862 11.4667 39.9 11.4667ZM37.8 6.45C37.8 7.63559 36.858 8.6 35.7 8.6C34.5421 8.6 33.6 7.63559 33.6 6.45C33.6 5.26442 34.5421 4.3 35.7 4.3C36.858 4.3 37.8 5.26442 37.8 6.45ZM31.5 1.43333H39.9C40.2862 1.43333 40.6 1.75492 40.6 2.15V5.73333H39.1293C38.804 4.09983 37.3901 2.86667 35.7 2.86667C34.01 2.86667 32.596 4.09983 32.2708 5.73333H30.8V2.15C30.8 1.75492 31.1138 1.43333 31.5 1.43333ZM39.9 0H31.5C30.3421 0 29.4 0.964423 29.4 2.15V10.75C29.4 11.9355 30.3421 12.9 31.5 12.9H39.9C41.058 12.9 42 11.9355 42 10.75V2.15C42 0.964423 41.058 0 39.9 0Z" fill="white"/>
<path d="M21.7 29.3833H20.3V30.8166H21.7V29.3833Z" fill="white"/>
<path d="M8.48993 10.7141C8.4306 10.658 8.31353 10.4234 8.25223 10.3443C8.18031 10.2455 8.19691 10.1808 8.25079 10.0839C8.31891 9.96138 8.45541 9.77346 8.59992 9.57451C9.06264 8.93738 9.36143 8.49629 9.29994 8.18306L9.2668 8.0157L7.61764 8.02551C7.51559 8.25697 7.61036 8.04042 7.08641 9.11697C6.81354 9.61214 6.63458 9.76768 6.57151 9.79516L6.56177 9.79213C6.5413 9.76613 6.53138 9.76439 6.5166 9.58392C6.52613 9.45055 6.48894 9.09768 6.50215 8.87637C6.50021 8.52572 6.5066 8.41183 6.50295 8.22149L6.49748 7.95644C6.4347 7.94622 6.15482 7.87003 5.51506 7.86318C4.96118 7.85734 4.86802 7.91834 4.78817 7.99057L4.99233 8.71008C5.01493 8.87334 5.0459 9.17891 5.0215 9.42388C4.98645 9.77507 4.94129 9.83446 4.87893 9.81276C4.86443 9.80765 4.74169 9.75269 4.52864 9.29145C4.38086 8.97164 4.2513 8.59324 4.1566 8.31697C4.04824 8.00065 4.06774 8.06797 4.01272 7.91854L2.3595 7.91848L2.46653 8.20181C2.91253 9.3841 3.32174 10.3075 3.86938 10.9705C4.47449 11.7034 5.22644 12.0869 6.23937 12.0869H6.44295V11.8785C6.44295 11.6837 6.42879 11.5813 6.43608 11.447C6.43608 11.2828 6.45835 11.2419 6.48712 11.1857C6.52985 11.103 6.65374 11.1442 6.67658 11.139C6.69725 11.1341 6.73361 11.1497 6.7739 11.1804C6.8896 11.2687 6.98141 11.3847 7.0786 11.5076C7.2189 11.685 7.39183 11.9483 7.48665 12.0827C7.63976 12.0827 7.95043 12.087 8.07721 12.087C8.11081 12.087 9.30689 12.0869 9.3084 12.0869L8.77264 11.1854C8.6742 10.9913 8.66324 10.9838 8.48993 10.7141ZM8.08509 11.6701H8.08187C7.99439 11.6716 8.62859 11.5444 7.95856 10.632" fill="white"/>
</g>
<defs>
<clipPath id="clip0">
<rect width="42" height="43" fill="white"/>
</clipPath>
</defs>
</svg>
