<svg width="123" height="123" viewBox="0 0 123 123" fill="none" xmlns="http://www.w3.org/2000/svg">
  <path d="M94.7941 26.0364C94.6833 26.0364 94.5716 26.026 94.459 26.0054L36.3298 15.4623C35.3191 15.2784 34.6482 14.3109 34.8321 13.2992C35.0151 12.2886 35.9835 11.6195 36.9942 11.8015L95.1234 22.3446C96.1341 22.5286 96.8051 23.4961 96.6211 24.5077C96.4588 25.4057 95.6752 26.0364 94.7941 26.0364Z" fill="#2E3C51" />
  <path fill-rule="evenodd" clip-rule="evenodd" d="M104.431 35.3295V24.1755C104.431 22.8551 103.35 21.7731 102.031 21.7731H97.1833C95.8648 21.7731 94.7912 22.8551 94.7912 24.1755V35.3304L99.2177 38.3014L104.431 35.3295Z" fill="#B3B3B3" />
  <path fill-rule="evenodd" clip-rule="evenodd" d="M75.5978 30.5951C75.5978 29.0712 74.3554 27.8278 72.8333 27.8278C55.8076 27.8278 38.7875 27.8278 21.7619 27.8278C20.2388 27.8278 18.9973 29.0712 18.9973 30.5951V35.3304L46.8063 40.5348L75.5969 35.3304V30.5951H75.5978Z" fill="#B3B3B3" />
  <path fill-rule="evenodd" clip-rule="evenodd" d="M9.75108 35.3295C4.38428 35.3295 0 39.7203 0 45.0937V101.872C0 107.245 4.38428 111.636 9.75108 111.636H113.249C118.608 111.636 123 107.245 123 101.872V45.0937C123 39.7203 118.608 35.3295 113.249 35.3295C78.7471 35.3295 44.2454 35.3295 9.75108 35.3295Z" fill="#E6E6E6" />
  <path fill-rule="evenodd" clip-rule="evenodd" d="M36.662 27.8278H57.9331V35.3295H36.662V27.8278Z" fill="#EB5757" />
  <path fill-rule="evenodd" clip-rule="evenodd" d="M108.436 46.2039H82.5562C81.1955 46.2039 80.0806 47.3206 80.0806 48.6832V59.6345C80.0806 60.997 81.1955 62.1138 82.5562 62.1138H108.436C109.797 62.1138 110.912 60.997 110.912 59.6345V48.6832C110.912 47.3206 109.797 46.2039 108.436 46.2039Z" fill="#BAE0F2" />
  <path d="M96.0271 102.111C94.8738 102.111 93.713 101.948 92.5738 101.618C89.3916 100.7 86.7575 98.5946 85.1575 95.6912C81.8486 89.7032 84.0267 82.1386 90.0128 78.8307C92.9107 77.2288 96.2589 76.8534 99.4392 77.7712C102.622 78.6909 105.256 80.7957 106.856 83.6992C110.16 89.691 107.982 97.2546 102.001 100.56C100.141 101.587 98.0945 102.11 96.0271 102.111Z" fill="#616D80" />
  <path fill-rule="evenodd" clip-rule="evenodd" d="M104.906 90.9841C105.618 86.0612 102.206 81.4911 97.2893 80.7788C92.372 80.0722 87.8141 83.4833 87.1028 88.4063C86.3915 93.3292 89.8045 97.8993 94.7209 98.6115C99.6372 99.3181 104.195 95.907 104.906 90.9841Z" fill="#B3B3B3" />
  <path fill-rule="evenodd" clip-rule="evenodd" d="M50.5046 101.12C45.2654 103.201 39.7879 103.684 34.6106 102.801C33.8336 102.669 33.0613 102.506 32.2993 102.315C32.2618 102.305 32.2252 102.299 32.1877 102.285C31.9896 102.236 31.7888 102.181 31.5918 102.125C31.4013 102.072 31.2126 102.016 31.0221 101.959C30.9874 101.949 30.9527 101.939 30.918 101.927C30.7969 101.889 30.6759 101.853 30.5548 101.812C26.7036 100.583 23.1179 98.5731 20.0436 95.8901C19.5782 95.4847 19.123 95.0643 18.6829 94.628C18.5459 94.4919 18.4108 94.3558 18.2766 94.2179C17.9772 93.911 17.6854 93.5966 17.401 93.2748L17.4057 93.2701C15.146 90.7382 13.2823 87.7756 11.961 84.4368C11.6514 83.6569 11.3792 82.8724 11.1418 82.0832C11.139 82.0757 11.1371 82.0682 11.1343 82.0607C11.0724 81.8533 11.0104 81.6431 10.9541 81.4348C10.9119 81.2893 10.8725 81.1457 10.8349 80.9993C10.7974 80.8633 10.7636 80.73 10.7336 80.594C10.7214 80.5517 10.7111 80.5095 10.7017 80.4673C10.6717 80.3434 10.6426 80.2223 10.6144 80.1013C10.6069 80.0713 10.5994 80.044 10.5947 80.0168C10.5384 79.7597 10.484 79.5045 10.4314 79.2473C10.4042 79.1113 10.3798 78.978 10.3554 78.8419C10.026 77.0571 9.86462 75.2656 9.86462 73.4883C9.86462 61.6558 16.9703 50.468 28.6217 45.8444C33.995 43.7114 39.6199 43.2582 44.9135 44.236C46.216 44.4734 47.4979 44.8 48.7526 45.211C52.6404 46.4779 56.2533 48.5424 59.3351 51.2919C60.2557 52.1112 61.1293 52.9914 61.9486 53.9326C64.1088 56.4119 65.8908 59.2947 67.1727 62.5276C67.4374 63.1976 67.6776 63.8733 67.8906 64.5517C68.3063 65.8655 68.6226 67.1896 68.8478 68.5137C71.1544 82.0691 63.7841 95.8535 50.5046 101.12Z" fill="#616D80" />
  <path fill-rule="evenodd" clip-rule="evenodd" d="M36.4837 100.922C38.7753 101.888 41.1936 102.565 43.6711 102.932C40.6221 103.367 37.5629 103.307 34.606 102.805C33.8759 102.68 33.1505 102.529 32.4326 102.35C31.802 102.192 31.1751 102.013 30.5539 101.815C26.7036 100.583 23.1169 98.5712 20.0436 95.8902C19.5782 95.4848 19.123 95.0644 18.682 94.628C18.2419 94.1926 17.8139 93.7403 17.4001 93.2748C15.1404 90.743 13.2823 87.7785 11.961 84.4368C11.6514 83.657 11.3792 82.8725 11.1418 82.0833C10.8152 81.0097 10.5525 79.9249 10.3545 78.841C8.98815 71.4313 10.5281 63.9277 14.3615 57.7586C15.9747 55.1667 17.9866 52.8056 20.3655 50.7918C22.7632 48.7545 25.5352 47.0672 28.6217 45.8445C33.6535 43.8494 38.8992 43.3248 43.8888 44.0624C41.5943 44.3843 39.3008 44.9802 37.0562 45.8745C26.3151 50.1405 19.4374 59.9807 18.4249 70.7585C18.3413 71.6743 18.2963 72.5949 18.2963 73.5211C18.2963 74.3592 18.331 75.199 18.4051 76.0427C18.6454 78.8635 19.2966 81.7023 20.3927 84.4715C20.9342 85.8407 21.5676 87.1469 22.2836 88.3875C22.598 88.944 22.9339 89.4864 23.283 90.0157C23.6321 90.5403 23.9981 91.0526 24.3772 91.55C26.7533 94.6683 29.6877 97.2377 32.9797 99.168C33.539 99.4965 34.1058 99.8062 34.6848 100.096C35.2741 100.393 35.8756 100.668 36.4837 100.922Z" fill="#3F4C63" />
  <path fill-rule="evenodd" clip-rule="evenodd" d="M98.2258 80.9702C98.2258 80.9702 98.2258 80.9702 98.2258 80.9646V80.9702ZM91.5565 88.4062C91.7648 86.9358 92.326 85.5976 93.1302 84.4621C94.3624 82.742 96.1669 81.4976 98.2258 80.9702C98.0644 80.9233 97.8964 80.8895 97.7285 80.8539C97.5839 80.8248 97.4394 80.8023 97.2893 80.7788C96.2655 80.6343 95.2529 80.6634 94.2873 80.8539C94.2582 80.8604 94.2235 80.8661 94.1944 80.8717C93.2982 81.0566 92.4424 81.3756 91.6551 81.8101C91.534 81.8796 91.412 81.949 91.2966 82.0185C90.238 82.6725 89.3184 83.5415 88.6015 84.5728C87.907 85.5807 87.4097 86.7387 87.1666 88.0074C87.1432 88.1407 87.1206 88.273 87.1028 88.4062C86.9583 89.4028 86.9818 90.3816 87.1554 91.3135C87.161 91.3425 87.161 91.366 87.1666 91.3895C87.3459 92.3335 87.6762 93.225 88.1322 94.0471C88.1961 94.1634 88.2599 94.2789 88.3293 94.3952C88.9834 95.4603 89.8561 96.3931 90.8978 97.111C91.8925 97.8007 93.0373 98.2925 94.2873 98.5364C94.4318 98.5655 94.5763 98.5881 94.7208 98.6115C95.7099 98.7504 96.6878 98.7269 97.6187 98.559C97.6534 98.5533 97.6881 98.5477 97.7172 98.5421C97.8908 98.5073 98.0644 98.467 98.2315 98.4201C93.8303 97.3024 90.8921 93.0111 91.5565 88.4062Z" fill="#888B99" />
  <path fill-rule="evenodd" clip-rule="evenodd" d="M87.6921 59.6345V48.6832C87.6921 48.2975 87.7831 47.9315 87.937 47.6012C88.3443 46.7725 89.1926 46.2039 90.1686 46.2039H82.5562C81.1955 46.2039 80.0806 47.3206 80.0806 48.6832V59.6345C80.0806 60.997 81.1955 62.1138 82.5562 62.1138H90.1686C88.807 62.1138 87.6921 60.997 87.6921 59.6345Z" fill="#93BAF0" />
  <path fill-rule="evenodd" clip-rule="evenodd" d="M98.6425 35.3295V24.1755C98.6425 22.8551 99.716 21.7731 101.035 21.7731H97.1832C95.8648 21.7731 94.7912 22.8551 94.7912 24.1755V35.3304H98.6425V35.3295Z" fill="#888B99" />
  <path fill-rule="evenodd" clip-rule="evenodd" d="M24.6165 35.3295V30.5952C24.6165 29.0712 25.8655 27.8278 27.3811 27.8278H21.7619C20.2388 27.8278 18.9973 29.0712 18.9973 30.5952V35.3305H24.6165V35.3295Z" fill="#888B99" />
  <path fill-rule="evenodd" clip-rule="evenodd" d="M0 45.0937V101.872C0 107.245 4.38428 111.636 9.75108 111.636H15.3074C9.94814 111.636 5.55636 107.245 5.55636 101.872V45.0937C5.55636 39.7203 9.9472 35.3295 15.3074 35.3295H9.75108C4.38428 35.3295 0 39.7203 0 45.0937Z" fill="#B3B3B3" />
  <path d="M61.9476 53.9317C61.9382 53.9448 61.926 53.9542 61.9157 53.9664L24.3772 91.5499L20.0436 95.8901C19.5782 95.4847 19.123 95.0643 18.6829 94.6279C18.5468 94.4918 18.4108 94.3558 18.2766 94.2178C17.9772 93.911 17.6854 93.5966 17.401 93.2747L17.4057 93.27L22.2836 88.3865L59.2825 51.3388C59.3003 51.321 59.3172 51.306 59.3341 51.291C60.2547 52.1102 61.1284 52.9914 61.9476 53.9317Z" fill="#2E3C51" />
  <path d="M48.7516 45.211C48.685 45.5619 48.5123 45.8988 48.2421 46.1682L18.4051 76.0426L12.8694 81.5858C12.5081 81.9499 12.0305 82.1329 11.5556 82.1329C11.4168 82.1329 11.2779 82.1179 11.1418 82.0832C11.1399 82.0757 11.1371 82.0691 11.1343 82.0616C11.0724 81.8533 11.0114 81.6431 10.9541 81.4347C10.9119 81.2893 10.8725 81.1457 10.8349 80.9993C10.7983 80.8633 10.7636 80.73 10.7336 80.5939C10.7214 80.5517 10.712 80.5095 10.7017 80.4682C10.6717 80.3443 10.6426 80.2223 10.6153 80.1013C10.6078 80.0712 10.6003 80.044 10.5956 80.0177C10.5384 79.7597 10.484 79.5044 10.4324 79.2473C10.4051 79.1112 10.3798 78.978 10.3554 78.8419L18.4258 70.7593L44.9144 44.236C46.2151 44.4734 47.497 44.7999 48.7516 45.211Z" fill="#2E3C51" />
  <path d="M68.8478 68.5137L36.4837 100.922L34.6106 102.801L34.6059 102.805C33.8759 102.68 33.1505 102.528 32.4326 102.35C32.3885 102.338 32.3434 102.328 32.2993 102.315C32.2618 102.305 32.2252 102.299 32.1877 102.285C31.9896 102.236 31.7888 102.181 31.5918 102.125C31.4013 102.072 31.2126 102.016 31.0221 101.959C30.9874 101.949 30.9527 101.939 30.918 101.927C30.7969 101.892 30.6759 101.855 30.5548 101.815V101.812C30.644 101.583 30.7819 101.368 30.9677 101.182L32.9797 99.1671L67.0686 65.0266C67.3032 64.7911 67.5875 64.6306 67.8897 64.5518C68.3054 65.8655 68.6226 67.1896 68.8478 68.5137Z" fill="#2E3C51" />
  <path d="M88.0215 72.9515H87.937C86.9095 72.9515 86.0771 72.1182 86.0771 71.0915C86.0771 70.064 86.9095 69.2307 87.937 69.2307H88.0215C89.049 69.2307 89.8814 70.064 89.8814 71.0915C89.8814 72.1182 89.049 72.9515 88.0215 72.9515Z" fill="#BF3961" />
  <path d="M95.4932 72.9515H95.4162C94.3887 72.9515 93.5554 72.1182 93.5554 71.0915C93.5554 70.064 94.3887 69.2307 95.4162 69.2307H95.4932C96.5207 69.2307 97.3531 70.064 97.3531 71.0915C97.3531 72.1182 96.5198 72.9515 95.4932 72.9515Z" fill="#55CF63" />
  <path d="M102.971 72.958H102.894C101.867 72.958 101.034 72.1257 101.034 71.0981C101.034 70.0705 101.867 69.2382 102.894 69.2382H102.971C103.999 69.2382 104.831 70.0705 104.831 71.0981C104.831 72.1257 103.999 72.958 102.971 72.958Z" fill="#EDCF56" />
  <path d="M92.9801 87.0089C92.342 87.0089 91.7245 86.6711 91.3951 86.0724L88.3105 80.4532C87.831 79.5795 88.1501 78.4816 89.0247 78.002C89.8983 77.5216 90.9963 77.8406 91.4767 78.7162L94.5613 84.3344C95.0409 85.2081 94.7218 86.3061 93.8472 86.7865C93.5722 86.9376 93.2738 87.0089 92.9801 87.0089Z" fill="#EB5757" />
  <path d="M86.353 53.0674C86.353 54.064 87.161 54.8729 88.1585 54.8729C89.156 54.8729 89.965 54.065 89.965 53.0674V46.6581C89.965 46.5004 89.9424 46.3493 89.9049 46.2039H86.4131C86.3755 46.3493 86.353 46.5004 86.353 46.6581V53.0674Z" fill="#EB5757" />
  <path d="M93.6867 53.0674C93.6867 54.064 94.4956 54.8729 95.4932 54.8729C96.4907 54.8729 97.2987 54.065 97.2987 53.0674V46.6581C97.2987 46.5004 97.2771 46.3493 97.2386 46.2039H93.7468C93.7092 46.3493 93.6876 46.5004 93.6876 46.6581V53.0674H93.6867Z" fill="#EB5757" />
  <path d="M101.028 53.0674C101.028 54.064 101.837 54.8729 102.834 54.8729C103.832 54.8729 104.64 54.065 104.64 53.0674V46.6581C104.64 46.5004 104.617 46.3493 104.58 46.2039H101.088C101.05 46.3493 101.028 46.5004 101.028 46.6581V53.0674Z" fill="#EB5757" />
</svg>
