<svg width="137" height="137" viewBox="0 0 137 137" fill="none" xmlns="http://www.w3.org/2000/svg">
  <path d="M111.306 67.2545H27.8332V111.306H111.306V67.2545Z" fill="#F1543F" />
  <path d="M69.583 74.998C62.002 74.998 55.8018 81.1712 55.8018 88.7793C55.8018 96.3874 61.9749 102.56 69.583 102.56C77.1641 102.56 83.3643 96.3874 83.3643 88.7793C83.3643 81.1712 77.1641 74.998 69.583 74.998Z" fill="#E6E6E6" />
  <path d="M65.0885 80.2777V97.6599L77.9221 88.9688L65.0885 80.2777Z" fill="#324A5E" />

  <g class="svg-movie">
    <path d="M26.3441 38.1759L25.7484 38.582L27.9144 53.2026L45.4862 50.5492L26.669 38.3654L26.3441 38.1759Z" fill="#324A5E" />
    <path d="M38.2842 36.2807L57.0743 48.7894L71.8032 46.5692L52.8506 34.0876L38.2842 36.2807Z" fill="#324A5E" />
    <path d="M64.52 32.3006L83.4184 44.8093L98.1472 42.5621L79.0322 30.1075L64.52 32.3006Z" fill="#324A5E" />
    <path d="M108.246 25.6943L91.0535 28.2935L109.438 40.6127L109.844 40.7751L110.412 40.3148L108.246 25.6943Z" fill="#324A5E" />
    <path d="M51.3073 34.3041L70.2599 46.7858L84.9617 44.5656L66.0632 32.084L51.3073 34.3041Z" fill="#E6E6E6" />
    <path d="M25.6943 38.203L25.8297 39.0694L43.9158 50.7929L58.6176 48.5457L39.8275 36.037L25.6943 38.203Z" fill="#E6E6E6" />
    <path d="M109.79 39.5838L92.5968 28.0498L77.4619 30.3512L96.5769 42.8057L109.898 40.8022L110.277 40.721L110.439 39.9899L109.79 39.5838Z" fill="#E6E6E6" />
  </g>
  <path d="M44.5115 52.6069L44.6739 52.4445L44.5115 52.6069Z" stroke="#231F20" stroke-miterlimit="10" />
  <path d="M111.279 52.4445L110.629 52.1738L93.5444 67.2546H111.306V52.8236L111.279 52.4445Z" fill="#324A5E" />
  <path d="M27.8332 52.0654V66.5235C27.8332 66.7672 27.9686 66.9838 28.2122 67.0921L28.6184 67.2275L45.9194 52.0925H27.8332V52.0654Z" fill="#324A5E" />
  <path d="M84.2036 52.0654L66.9026 67.2546H81.821L98.9324 52.0654H84.2036Z" fill="#324A5E" />
  <path d="M57.67 52.0654L40.2607 67.2546H55.1791L72.5071 52.0654H57.67Z" fill="#324A5E" />
  <path d="M44.2949 52.0654L28.0498 66.3069L27.8332 66.4965V67.2546H41.6144L59.2945 52.0654H44.2949Z" fill="#E6E6E6" />
  <path d="M97.335 52.0654L80.2235 67.2546H95.1419L111.306 52.9589V52.0654H97.335Z" fill="#E6E6E6" />
  <path d="M70.9097 52.0654L53.5816 67.2546H68.5L85.801 52.0654H70.9097Z" fill="#E6E6E6" />
</svg>
