<svg width="120" height="93" viewBox="0 0 93 93" fill="none" xmlns="http://www.w3.org/2000/svg">
  <path d="M75.2453 93H17.7546C17.3534 93 17.0281 92.6747 17.0281 92.2734V0.726562C17.0281 0.325318 17.3534 0 17.7546 0H75.2452C75.6464 0 75.9717 0.325318 75.9717 0.726562V92.2734C75.9719 92.6747 75.6466 93 75.2453 93Z" fill="#E6E6E6" />
  <path d="M70.3582 0V93H75.2452C75.6464 93 75.9718 92.6747 75.9718 92.2734V0.726562C75.9718 0.325318 75.6464 0 75.2452 0H70.3582Z" fill="#B3B3B3" />
  <path d="M25.9166 51.2247H67.0837C67.8362 51.2247 68.446 50.6149 68.446 49.8624C68.446 49.1098 67.8362 48.5001 67.0837 48.5001H25.9166C25.1641 48.5001 24.5543 49.1098 24.5543 49.8624C24.5543 50.6149 25.1641 51.2247 25.9166 51.2247Z" fill="#484B63" />
  <path d="M67.0837 54.7374H25.9166C25.1641 54.7374 24.5543 55.3472 24.5543 56.0997C24.5543 56.8523 25.1641 57.462 25.9166 57.462H67.0837C67.8362 57.462 68.446 56.8523 68.446 56.0997C68.446 55.3472 67.8362 54.7374 67.0837 54.7374Z" fill="#484B63" />
  <path d="M67.0837 60.9748H25.9166C25.1641 60.9748 24.5543 61.5846 24.5543 62.3371C24.5543 63.0896 25.1641 63.6994 25.9166 63.6994H67.0837C67.8362 63.6994 68.446 63.0896 68.446 62.3371C68.446 61.5846 67.8362 60.9748 67.0837 60.9748Z" fill="#484B63" />
  <path d="M36.4106 67.2122H25.9166C25.1641 67.2122 24.5543 67.8219 24.5543 68.5745C24.5543 69.327 25.1641 69.9368 25.9166 69.9368H36.4106C37.1631 69.9368 37.7729 69.327 37.7729 68.5745C37.7729 67.8219 37.1631 67.2122 36.4106 67.2122Z" fill="#484B63" />
  <path d="M62.2403 37.6096H30.7598C30.3585 37.6096 30.0332 37.2843 30.0332 36.883V10.6422C30.0332 10.2409 30.3585 9.91559 30.7598 9.91559H62.2403C62.6415 9.91559 62.9668 10.2409 62.9668 10.6422V36.8832C62.9668 37.2843 62.6415 37.6096 62.2403 37.6096Z" fill="#93BAF0" />
  <path d="M30.0332 31.7617L39.899 23.1038C40.1579 22.8765 40.5411 22.8638 40.8147 23.0731L59.8121 37.6098H30.7598C30.3585 37.6098 30.0332 37.2844 30.0332 36.8832V31.7617Z" fill="#FFBD54" />
  <path d="M54.0409 20.9889C55.9957 20.9889 57.5805 19.4042 57.5805 17.4493C57.5805 15.4944 55.9957 13.9097 54.0409 13.9097C52.086 13.9097 50.5012 15.4944 50.5012 17.4493C50.5012 19.4042 52.086 20.9889 54.0409 20.9889Z" fill="#FFD659" />
  <path d="M53.0179 32.411L62.9666 23.7626V36.883C62.9666 37.2843 62.6413 37.6096 62.24 37.6096H59.8117L53.0179 32.411Z" fill="#FFA954" />

  <g class="svg-loop">
    <path d="M0.822151 59.7184C-0.27405 58.6222 -0.27405 56.845 0.822151 55.749L19.214 37.3569L23.1834 41.3263L4.79154 59.7184C3.69552 60.8144 1.91835 60.8144 0.822151 59.7184Z" fill="#484B63" />
    <path d="M18.7347 40.0932C12.898 34.2565 12.898 24.7594 18.7347 18.9226C24.5713 13.0858 34.0684 13.0859 39.9053 18.9226C45.7421 24.7593 45.7419 34.2563 39.9053 40.0932C34.0686 45.93 24.5715 45.9298 18.7347 40.0932Z" fill="#BAE0F2" />
    <path d="M39.9051 18.9227C39.2267 18.2442 38.497 17.6479 37.7311 17.1273C41.6901 22.9502 41.094 30.9656 35.9357 36.1238C30.7775 41.2821 22.7621 41.8782 16.9392 37.9192C17.46 38.6852 18.0561 39.4148 18.7345 40.0932C24.5714 45.9301 34.0683 45.9299 39.9051 40.0932C45.7418 34.2564 45.742 24.7595 39.9051 18.9227Z" fill="#93BAF0" />
    <path d="M40.8685 17.9592C34.5008 11.5914 24.1394 11.5914 17.7715 17.9592C14.6914 21.0394 12.9949 25.1409 12.9949 29.5079C12.9949 33.8749 14.6914 37.9762 17.7715 41.0564C20.8517 44.1365 24.953 45.833 29.32 45.833C33.687 45.833 37.7885 44.1365 40.8687 41.0564C47.2365 34.6886 47.2365 24.3273 40.8685 17.9592ZM38.9421 39.1298C36.3766 41.6954 32.9592 43.1084 29.32 43.1084C25.6808 43.1084 22.2636 41.6954 19.6981 39.1298C17.1325 36.5643 15.7195 33.1471 15.7195 29.5079C15.7195 25.8687 17.1325 22.4513 19.6981 19.8858C22.351 17.2328 25.8349 15.9066 29.32 15.9066C32.8042 15.9066 36.2896 17.2335 38.9421 19.8857C44.2476 25.1914 44.2476 33.8244 38.9421 39.1298Z" fill="#484B63" />
  </g>
  <g class="svg-pen">
    <path d="M25.6511 84.0553C26.8557 74.5757 31.4649 73.9721 31.4649 73.9721L36.8382 79.3454C36.8382 79.3454 36.2364 83.9563 26.7551 85.1595C26.1157 85.2409 25.5699 84.6949 25.6511 84.0553Z" fill="#FFD659" />
    <path d="M34.8257 75.9856C34.2935 75.4537 33.431 75.4537 32.899 75.9856L30.256 78.6286C29.7239 79.1608 29.7239 80.0232 30.256 80.5553C30.5221 80.8212 30.8708 80.9541 31.2194 80.9541C31.5679 80.9541 31.9167 80.8212 32.1828 80.5553L34.8258 77.9122C35.3575 77.3802 35.3575 76.5178 34.8257 75.9856Z" fill="#484B63" />
    <path d="M37.1793 80.2661L30.5451 73.6318C30.1876 73.2744 30.1876 72.6946 30.5451 72.3371L84.2773 18.6045C85.3355 17.5463 87.0513 17.5463 88.1095 18.6045L92.2063 22.7013C93.2645 23.7595 93.2645 25.4753 92.2063 26.5335L38.4741 80.2661C38.1166 80.6237 37.5368 80.6237 37.1793 80.2661Z" fill="#EB3F28" />
    <path d="M92.2063 22.7013L88.2418 18.7368C89.3 19.7951 89.3 21.5108 88.2418 22.5691L34.5096 76.3016C34.1521 76.6591 33.5723 76.6591 33.2148 76.3016L37.1793 80.2661C37.5368 80.6236 38.1166 80.6236 38.4741 80.2661L92.2063 26.5336C93.2647 25.4753 93.2647 23.7595 92.2063 22.7013Z" fill="#F1543F" />
    <path d="M37.1793 80.2661L30.5451 73.6318C30.1876 73.2743 30.1876 72.6946 30.5451 72.3371L33.8622 69.02L41.7912 76.9489L38.4741 80.2661C38.1166 80.6237 37.5368 80.6237 37.1793 80.2661Z" fill="#BAE0F2" />
    <path d="M37.8267 72.9845L34.5096 76.3016C34.1521 76.6591 33.5723 76.6591 33.2148 76.3016L37.1793 80.2661C37.5368 80.6236 38.1166 80.6236 38.4741 80.2661L41.7912 76.949L37.8267 72.9845Z" fill="#93BAF0" />
    <path d="M80.1413 22.7398L76.1768 26.7043L84.1058 34.6333L88.0703 30.6688L80.1413 22.7398Z" fill="#BAE0F2" />
    <path d="M84.1057 26.7045L80.1412 30.6689L84.1057 34.6334L88.0702 30.6689L84.1057 26.7045Z" fill="#93BAF0" />
  </g>
  <path d="M87.5902 86.3572H65.2891C64.0065 86.3572 62.9668 85.3175 62.9668 84.0349V75.5808C62.9668 74.2983 64.0065 73.2585 65.2891 73.2585H87.5904C88.8729 73.2585 89.9126 74.2983 89.9126 75.5808V84.0349C89.9125 85.3175 88.8728 86.3572 87.5902 86.3572Z" fill="#93BAF0" />
  <path d="M87.5902 86.3572H78.6068V73.2585H87.5902C88.8728 73.2585 89.9125 74.2983 89.9125 75.5808V84.0349C89.9125 85.3175 88.8728 86.3572 87.5902 86.3572Z" fill="#F1543F" />
  <path d="M87.5903 73.2585H81.9767C83.2592 73.2585 84.299 74.2983 84.299 75.5808V84.0349C84.299 85.3175 83.2592 86.3572 81.9767 86.3572H87.5903C88.8729 86.3572 89.9126 85.3175 89.9126 84.0349V75.5808C89.9126 74.2983 88.8729 73.2585 87.5903 73.2585Z" fill="#EB3F28" />
  <path d="M78.6069 73.2585H72.9933V86.3572H78.6069V73.2585Z" fill="#BAE0F2" />
</svg>
