<svg width="103" height="103" viewBox="0 0 103 103" fill="none" xmlns="http://www.w3.org/2000/svg">
  <path d="M74.195 8.72882H28.8051V85.5424H74.195V8.72882Z" fill="#FFD659" />
  <g class="svg-vk">
    <path d="M25.3136 36.661H4.36445C2.43604 36.661 0.872925 35.0979 0.872925 33.1695V12.2203C0.872925 10.2919 2.43604 8.72882 4.36445 8.72882H25.3136C27.242 8.72882 28.8051 10.2919 28.8051 12.2203V33.1695C28.8051 35.0979 27.242 36.661 25.3136 36.661Z" fill="#4D76A1" />
    <path d="M23.4087 24.7749C23.2209 24.6022 22.8503 23.8804 22.6562 23.6368C22.4285 23.3328 22.4811 23.1337 22.6516 22.8356C22.8673 22.4584 23.2995 21.8801 23.757 21.2678C25.2219 19.307 26.1679 17.9496 25.9732 16.9856L25.8683 16.4706L20.6471 16.5008C20.324 17.2131 20.624 16.5467 18.9652 19.8597C18.1013 21.3836 17.5348 21.8623 17.3351 21.9469L17.3043 21.9376C17.2394 21.8575 17.208 21.8522 17.1613 21.2968C17.1914 20.8863 17.0737 19.8004 17.1155 19.1193C17.1093 18.0402 17.1296 17.6897 17.118 17.1039L17.1007 16.2882C16.902 16.2568 16.0159 16.0223 13.9904 16.0012C12.2368 15.9832 11.9419 16.171 11.6891 16.3932L12.3354 18.6075C12.407 19.11 12.505 20.0504 12.4278 20.8043C12.3168 21.885 12.1739 22.0678 11.9764 22.001C11.9305 21.9853 11.5419 21.8162 10.8674 20.3967C10.3996 19.4125 9.98937 18.248 9.68956 17.3977C9.34652 16.4242 9.40823 16.6314 9.23405 16.1716L4 16.1714L4.33887 17.0433C5.75087 20.6818 7.04642 23.5235 8.78025 25.5641C10.696 27.8193 13.0767 28.9998 16.2836 28.9998H16.9281V28.3584C16.9281 27.7588 16.8832 27.4438 16.9063 27.0303C16.9063 26.525 16.9768 26.3992 17.0679 26.2262C17.2032 25.9719 17.5954 26.0986 17.6677 26.0825C17.7332 26.0676 17.8483 26.1154 17.9759 26.2101C18.3421 26.4817 18.6328 26.8388 18.9405 27.217C19.3847 27.7629 19.9322 28.5732 20.2324 28.9868C20.7171 28.9868 21.7007 29 22.1021 29C22.2085 29 25.9952 28.9998 26 28.9998L24.3038 26.2254C23.9921 25.628 23.9574 25.605 23.4087 24.7749ZM22.127 27.717H22.1168C21.8399 27.7215 23.8477 27.3301 21.7265 24.5222" fill="white" />
  </g>

  <g class="svg-fb">
    <path d="M61.9746 47.1356H41.0254C39.097 47.1356 37.5339 45.5725 37.5339 43.6441V22.695C37.5339 20.7665 39.097 19.2034 41.0254 19.2034H61.9746C63.903 19.2034 65.4661 20.7665 65.4661 22.695V43.6441C65.4661 45.5725 63.903 47.1356 61.9746 47.1356Z" fill="#3B5998" />
    <path d="M56.7373 27.9322V24.4407H51.5C50.535 24.4407 49.7542 25.2223 49.7542 26.1864V31.4237H46.2627V34.9152H49.7542V41.8983H53.2458V34.9152H56.7373V31.4237H53.2458V27.9322H56.7373Z" fill="#DEDFE3" />
  </g>

  <g class="svg-inst">
    <path d="M88.161 20.9492C84.3044 20.9492 81.1779 17.8227 81.1779 13.9661H74.1949V24.4407C74.1949 26.3689 75.7582 27.9322 77.6864 27.9322H98.6356C100.564 27.9322 102.127 26.3689 102.127 24.4407V13.9661H95.144C95.144 17.8227 92.0176 20.9492 88.161 20.9492Z" fill="#DEDFE3" />
    <path d="M98.6356 0H77.6864C75.7582 0 74.1949 1.56311 74.1949 3.49153V13.9661H81.1779C81.1779 10.1095 84.3044 6.98305 88.161 6.98305C92.0176 6.98305 95.144 10.1095 95.144 13.9661H102.127V3.49153C102.127 1.56311 100.564 0 98.6356 0Z" fill="#F1543F" />
    <path d="M88.161 20.9491C92.0177 20.9491 95.1441 17.8227 95.1441 13.9661C95.1441 10.1094 92.0177 6.98303 88.161 6.98303C84.3044 6.98303 81.178 10.1094 81.178 13.9661C81.178 17.8227 84.3044 20.9491 88.161 20.9491Z" fill="#E7F6FE" />
  </g>

  <path d="M53.2458 69.8304H49.7543V73.322H53.2458V69.8304Z" fill="#616D80" />
  <path d="M35.7881 94.2712C40.6089 94.2712 44.517 90.3631 44.517 85.5423V83.7966C44.517 76.0834 38.2641 69.8305 30.5509 69.8305H35.7881C40.6089 69.8305 44.517 65.9224 44.517 61.1017H27.0593C25.1311 61.1017 23.5678 62.6648 23.5678 64.5932V103H51.5V94.2712H35.7881Z" fill="#FFAC8E" />
  <path d="M44.517 85.5424C44.517 90.3631 40.6089 94.2712 35.7881 94.2712H51.5V103H61.9746V94.2712H65.4661V85.5424H44.517Z" fill="#FF956F" />
  <path d="M79.4322 68.0848H68.0847C65.6743 68.0848 63.7203 66.1308 63.7203 63.7204C63.7203 61.3099 65.6743 59.356 68.0847 59.356H79.4322C81.8427 59.356 83.7966 61.3099 83.7966 63.7204C83.7966 66.1308 81.8427 68.0848 79.4322 68.0848Z" fill="#FFAC8E" />
  <path d="M79.4322 76.8136H68.0847C65.6743 76.8136 63.7203 74.8596 63.7203 72.4492C63.7203 70.0387 65.6743 68.0848 68.0847 68.0848H79.4322C81.8427 68.0848 83.7966 70.0387 83.7966 72.4492C83.7966 74.8596 81.8427 76.8136 79.4322 76.8136Z" fill="#FFAC8E" />
  <path d="M76.8135 85.5424H65.4661C63.0556 85.5424 61.1017 83.5885 61.1017 81.178C61.1017 78.7675 63.0556 76.8136 65.4661 76.8136H76.8135C79.224 76.8136 81.1779 78.7675 81.1779 81.178C81.1779 83.5885 79.224 85.5424 76.8135 85.5424Z" fill="#FFAC8E" />
  <path d="M71.5763 94.2712H60.2288C57.8183 94.2712 55.8644 92.3172 55.8644 89.9068C55.8644 87.4963 57.8183 85.5424 60.2288 85.5424H71.5763C73.9867 85.5424 75.9407 87.4963 75.9407 89.9068C75.9407 92.3172 73.9867 94.2712 71.5763 94.2712Z" fill="#FFAC8E" />
</svg>
