<svg width="61" height="35" fill="none" xmlns="http://www.w3.org/2000/svg"><path fill-rule="evenodd" clip-rule="evenodd" d="M30.145 34.217l3.518-.056s1.061-.133 1.595-.726c.49-.545.459-1.553.459-1.553s-.143-4.72 2.037-5.45c2.15-.718 5.005 4.486 7.977 6.457 2.247 1.492 3.93 1.13 3.93 1.13l7.86-.232s4.107-.318 2.107-3.52c-.164-.262-1.173-2.374-5.95-6.671-5.001-4.497-4.33-3.768 1.483-11.774 3.54-4.876 4.94-7.84 4.469-9.094-.45-1.193-3.104-.834-3.104-.834l-8.85.194s-.657-.08-1.14.219c-.47.293-.766.962-.766.962s-1.342 3.751-3.16 6.952c-3.837 6.754-5.407 7.132-6.057 6.727-1.514-.945-1.186-3.873-1.218-5.95-.102-6.484.84-9.204-2.07-9.858-.967-.218-1.677-.36-4.138-.346-3.158.016-5.83.1-7.332.866-1 .509-1.759 1.62-1.285 1.675.586.07 1.916.328 2.633 1.273.926 1.22.938 3.991.938 3.991s.64 7.627-1.082 8.602c-1.183.67-2.84-.633-6.45-6.65-1.848-3.08-3.261-6.497-3.261-6.497s-.273-.638-.746-.975c-.573-.407-1.368-.527-1.368-.527l-8.41.187s-1.262.055-1.716.61c-.405.496-.01 1.5-.01 1.5s6.826 15.3 14.404 22.947c6.947 7.01 14.703 6.42 14.703 6.42z" fill="#fff"/></svg>