<svg width="53" height="62" fill="none" xmlns="http://www.w3.org/2000/svg"><path d="M43.11 36.832c-1.012.14-1.413.983-1.204 2.53l.216 1.547 3.012-.427-.217-1.548c-.217-1.542-.831-2.247-1.807-2.102z" fill="#fff"/><path d="M48.543 42.578l-6.023.849.415 2.963c.217 1.548.832 2.247 1.874 2.102a1.313 1.313 0 0 0 1.204-1.403 19.936 19.936 0 0 0-.223-2.06l3.09-.434.06.446c.139.976.193 1.65.211 1.958a4.355 4.355 0 0 1-.452 1.915 4.215 4.215 0 0 1-3.408 2.325 4.379 4.379 0 0 1-3.903-1.205c-.76-.747-1.277-2.018-1.524-3.794l-.825-5.849c-.253-1.806-.139-3.132.38-4.065a4.343 4.343 0 0 1 3.384-2.223 4.217 4.217 0 0 1 3.813 1.205c.752.759 1.24 2.018 1.487 3.806l.44 3.464zm-11.034 4.39c.2 1.125.257 2.27.169 3.41a2.41 2.41 0 0 1-2.157 2.216c-1.078.15-2.198-.301-3.385-1.41l.23 1.62-3.012.428-3.168-22.417 3.011-.428 1.03 7.324c.807-1.337 1.759-2.096 2.873-2.252a2.409 2.409 0 0 1 2.686 1.547c.403 1.066.664 2.18.777 3.313l.946 6.65zm-10.793 6.626l-3.012.421-.253-1.807c-1.012 1.548-2.06 2.41-3.168 2.542a1.873 1.873 0 0 1-2.126-.97 8.497 8.497 0 0 1-.602-2.445l-1.897-13.214 3.011-.428 1.747 12.299c.04.395.104.787.192 1.174.139.458.404.669.808.603.602-.085 1.204-.645 1.716-1.687l-1.807-12.768 3.012-.428 2.379 16.708zM14.863 35.627l-3.614.506 2.71 19.273-3.367.476-2.71-19.273-3.56.5-.445-3.156 10.552-1.482.434 3.156zm34.45-8.324a6.391 6.391 0 0 0-6.107-4.161c-6.306.18-12.594 1.06-18.851 1.945-6.258.885-12.546 1.765-18.671 3.33a6.39 6.39 0 0 0-4.722 5.68c-.338 3.915.234 8.06.783 11.962.548 3.903 1.132 8.047 2.535 11.715a6.384 6.384 0 0 0 6.102 4.161c6.306-.18 12.594-1.06 18.851-1.945 6.258-.885 12.546-1.759 18.671-3.33a6.39 6.39 0 0 0 4.722-5.68c.338-3.915-.24-8.059-.789-11.962-.548-3.903-1.126-8.047-2.53-11.72" fill="#fff"/><path d="M31.877 38.41a2.192 2.192 0 0 0-1.403.945l1.427 10.18a2.18 2.18 0 0 0 1.615.535c.873-.12 1.204-.927 1-2.44l-1-7.124c-.211-1.506-.765-2.217-1.639-2.096zm7.173-18.479L36.679 3.067l-3.06.428 1.807 12.895c-.542 1.054-1.12 1.62-1.729 1.704-.41.06-.68-.15-.819-.602a7.217 7.217 0 0 1-.205-1.204l-1.746-12.42-3.048.428 1.873 13.34c.078.849.281 1.681.603 2.47a1.891 1.891 0 0 0 2.168.976c1.114-.157 2.18-1 3.204-2.566l.259 1.843 3.066-.428zm-15.057-2.867c.217 1.56-.144 2.41-1.126 2.548-.982.139-1.572-.602-1.807-2.138l-.976-7.101c-.216-1.56.145-2.41 1.133-2.542.988-.132 1.566.573 1.807 2.132l.97 7.101zm2.976-1.005l-.832-5.909c-.253-1.807-.746-3.078-1.505-3.842a4.584 4.584 0 0 0-7.125 1c-.53.945-.657 2.306-.398 4.113l.831 5.909c.253 1.806.747 3.077 1.518 3.83a4.582 4.582 0 0 0 7.131-.982c.518-.933.645-2.306.392-4.101l-.012-.018zM15.5.152l-3.427.482-1.066 9.215-3.656-8.553-3.572.5c1.012 2 2.048 4 3.06 6.023a56.011 56.011 0 0 1 3.078 6.872l1.289 9.167 3.39-.475-1.282-9.185L15.5.152z" fill="#fff"/></svg>