<svg width="21" height="36" fill="none" xmlns="http://www.w3.org/2000/svg"><path d="M10.379 5.521a3.785 3.785 0 1 1 0 7.57 3.785 3.785 0 0 1 0-7.57zm0 12.921a9.14 9.14 0 1 0-9.14-9.12 9.146 9.146 0 0 0 9.14 9.12zm3.696 7.468a17.124 17.124 0 0 0 5.306-2.198 2.679 2.679 0 0 0-2.853-4.534 11.602 11.602 0 0 1-12.305 0A2.68 2.68 0 0 0 .184 22.04a2.679 2.679 0 0 0 1.186 1.673 17.146 17.146 0 0 0 5.305 2.199l-5.103 5.11a2.677 2.677 0 1 0 3.788 3.785l5.019-5.02L15.4 34.81a2.677 2.677 0 0 0 3.785-3.785l-5.11-5.113z" fill="#fff"/></svg>