<?xml version="1.0" encoding="utf-8"?><svg xmlns="http://www.w3.org/2000/svg" xmlns:xlink="http://www.w3.org/1999/xlink">
  <symbol fill="none" viewBox="0 0 123 123" id="feachure-1" xmlns="http://www.w3.org/2000/svg">
    <path d="M94.7941 26.0364C94.6833 26.0364 94.5716 26.026 94.459 26.0054L36.3298 15.4623C35.3191 15.2784 34.6482 14.3109 34.8321 13.2992C35.0151 12.2886 35.9835 11.6195 36.9942 11.8015L95.1234 22.3446C96.1341 22.5286 96.8051 23.4961 96.6211 24.5077C96.4588 25.4057 95.6752 26.0364 94.7941 26.0364Z" fill="#2E3C51" />
    <path fill-rule="evenodd" clip-rule="evenodd" d="M104.431 35.3295V24.1755C104.431 22.8551 103.35 21.7731 102.031 21.7731H97.1833C95.8648 21.7731 94.7912 22.8551 94.7912 24.1755V35.3304L99.2177 38.3014L104.431 35.3295Z" fill="#B3B3B3" />
    <path fill-rule="evenodd" clip-rule="evenodd" d="M75.5978 30.5951C75.5978 29.0712 74.3554 27.8278 72.8333 27.8278C55.8076 27.8278 38.7875 27.8278 21.7619 27.8278C20.2388 27.8278 18.9973 29.0712 18.9973 30.5951V35.3304L46.8063 40.5348L75.5969 35.3304V30.5951H75.5978Z" fill="#B3B3B3" />
    <path fill-rule="evenodd" clip-rule="evenodd" d="M9.75108 35.3295C4.38428 35.3295 0 39.7203 0 45.0937V101.872C0 107.245 4.38428 111.636 9.75108 111.636H113.249C118.608 111.636 123 107.245 123 101.872V45.0937C123 39.7203 118.608 35.3295 113.249 35.3295C78.7471 35.3295 44.2454 35.3295 9.75108 35.3295Z" fill="#E6E6E6" />
    <path fill-rule="evenodd" clip-rule="evenodd" d="M36.662 27.8278H57.9331V35.3295H36.662V27.8278Z" fill="#EB5757" />
    <path fill-rule="evenodd" clip-rule="evenodd" d="M108.436 46.2039H82.5562C81.1955 46.2039 80.0806 47.3206 80.0806 48.6832V59.6345C80.0806 60.997 81.1955 62.1138 82.5562 62.1138H108.436C109.797 62.1138 110.912 60.997 110.912 59.6345V48.6832C110.912 47.3206 109.797 46.2039 108.436 46.2039Z" fill="#BAE0F2" />
    <path d="M96.0271 102.111C94.8738 102.111 93.713 101.948 92.5738 101.618C89.3916 100.7 86.7575 98.5946 85.1575 95.6912C81.8486 89.7032 84.0267 82.1386 90.0128 78.8307C92.9107 77.2288 96.2589 76.8534 99.4392 77.7712C102.622 78.6909 105.256 80.7957 106.856 83.6992C110.16 89.691 107.982 97.2546 102.001 100.56C100.141 101.587 98.0945 102.11 96.0271 102.111Z" fill="#616D80" />
    <path fill-rule="evenodd" clip-rule="evenodd" d="M104.906 90.9841C105.618 86.0612 102.206 81.4911 97.2893 80.7788C92.372 80.0722 87.8141 83.4833 87.1028 88.4063C86.3915 93.3292 89.8045 97.8993 94.7209 98.6115C99.6372 99.3181 104.195 95.907 104.906 90.9841Z" fill="#B3B3B3" />
    <path fill-rule="evenodd" clip-rule="evenodd" d="M50.5046 101.12C45.2654 103.201 39.7879 103.684 34.6106 102.801C33.8336 102.669 33.0613 102.506 32.2993 102.315C32.2618 102.305 32.2252 102.299 32.1877 102.285C31.9896 102.236 31.7888 102.181 31.5918 102.125C31.4013 102.072 31.2126 102.016 31.0221 101.959C30.9874 101.949 30.9527 101.939 30.918 101.927C30.7969 101.889 30.6759 101.853 30.5548 101.812C26.7036 100.583 23.1179 98.5731 20.0436 95.8901C19.5782 95.4847 19.123 95.0643 18.6829 94.628C18.5459 94.4919 18.4108 94.3558 18.2766 94.2179C17.9772 93.911 17.6854 93.5966 17.401 93.2748L17.4057 93.2701C15.146 90.7382 13.2823 87.7756 11.961 84.4368C11.6514 83.6569 11.3792 82.8724 11.1418 82.0832C11.139 82.0757 11.1371 82.0682 11.1343 82.0607C11.0724 81.8533 11.0104 81.6431 10.9541 81.4348C10.9119 81.2893 10.8725 81.1457 10.8349 80.9993C10.7974 80.8633 10.7636 80.73 10.7336 80.594C10.7214 80.5517 10.7111 80.5095 10.7017 80.4673C10.6717 80.3434 10.6426 80.2223 10.6144 80.1013C10.6069 80.0713 10.5994 80.044 10.5947 80.0168C10.5384 79.7597 10.484 79.5045 10.4314 79.2473C10.4042 79.1113 10.3798 78.978 10.3554 78.8419C10.026 77.0571 9.86462 75.2656 9.86462 73.4883C9.86462 61.6558 16.9703 50.468 28.6217 45.8444C33.995 43.7114 39.6199 43.2582 44.9135 44.236C46.216 44.4734 47.4979 44.8 48.7526 45.211C52.6404 46.4779 56.2533 48.5424 59.3351 51.2919C60.2557 52.1112 61.1293 52.9914 61.9486 53.9326C64.1088 56.4119 65.8908 59.2947 67.1727 62.5276C67.4374 63.1976 67.6776 63.8733 67.8906 64.5517C68.3063 65.8655 68.6226 67.1896 68.8478 68.5137C71.1544 82.0691 63.7841 95.8535 50.5046 101.12Z" fill="#616D80" />
    <path fill-rule="evenodd" clip-rule="evenodd" d="M36.4837 100.922C38.7753 101.888 41.1936 102.565 43.6711 102.932C40.6221 103.367 37.5629 103.307 34.606 102.805C33.8759 102.68 33.1505 102.529 32.4326 102.35C31.802 102.192 31.1751 102.013 30.5539 101.815C26.7036 100.583 23.1169 98.5712 20.0436 95.8902C19.5782 95.4848 19.123 95.0644 18.682 94.628C18.2419 94.1926 17.8139 93.7403 17.4001 93.2748C15.1404 90.743 13.2823 87.7785 11.961 84.4368C11.6514 83.657 11.3792 82.8725 11.1418 82.0833C10.8152 81.0097 10.5525 79.9249 10.3545 78.841C8.98815 71.4313 10.5281 63.9277 14.3615 57.7586C15.9747 55.1667 17.9866 52.8056 20.3655 50.7918C22.7632 48.7545 25.5352 47.0672 28.6217 45.8445C33.6535 43.8494 38.8992 43.3248 43.8888 44.0624C41.5943 44.3843 39.3008 44.9802 37.0562 45.8745C26.3151 50.1405 19.4374 59.9807 18.4249 70.7585C18.3413 71.6743 18.2963 72.5949 18.2963 73.5211C18.2963 74.3592 18.331 75.199 18.4051 76.0427C18.6454 78.8635 19.2966 81.7023 20.3927 84.4715C20.9342 85.8407 21.5676 87.1469 22.2836 88.3875C22.598 88.944 22.9339 89.4864 23.283 90.0157C23.6321 90.5403 23.9981 91.0526 24.3772 91.55C26.7533 94.6683 29.6877 97.2377 32.9797 99.168C33.539 99.4965 34.1058 99.8062 34.6848 100.096C35.2741 100.393 35.8756 100.668 36.4837 100.922Z" fill="#3F4C63" />
    <path fill-rule="evenodd" clip-rule="evenodd" d="M98.2258 80.9702C98.2258 80.9702 98.2258 80.9702 98.2258 80.9646V80.9702ZM91.5565 88.4062C91.7648 86.9358 92.326 85.5976 93.1302 84.4621C94.3624 82.742 96.1669 81.4976 98.2258 80.9702C98.0644 80.9233 97.8964 80.8895 97.7285 80.8539C97.5839 80.8248 97.4394 80.8023 97.2893 80.7788C96.2655 80.6343 95.2529 80.6634 94.2873 80.8539C94.2582 80.8604 94.2235 80.8661 94.1944 80.8717C93.2982 81.0566 92.4424 81.3756 91.6551 81.8101C91.534 81.8796 91.412 81.949 91.2966 82.0185C90.238 82.6725 89.3184 83.5415 88.6015 84.5728C87.907 85.5807 87.4097 86.7387 87.1666 88.0074C87.1432 88.1407 87.1206 88.273 87.1028 88.4062C86.9583 89.4028 86.9818 90.3816 87.1554 91.3135C87.161 91.3425 87.161 91.366 87.1666 91.3895C87.3459 92.3335 87.6762 93.225 88.1322 94.0471C88.1961 94.1634 88.2599 94.2789 88.3293 94.3952C88.9834 95.4603 89.8561 96.3931 90.8978 97.111C91.8925 97.8007 93.0373 98.2925 94.2873 98.5364C94.4318 98.5655 94.5763 98.5881 94.7208 98.6115C95.7099 98.7504 96.6878 98.7269 97.6187 98.559C97.6534 98.5533 97.6881 98.5477 97.7172 98.5421C97.8908 98.5073 98.0644 98.467 98.2315 98.4201C93.8303 97.3024 90.8921 93.0111 91.5565 88.4062Z" fill="#888B99" />
    <path fill-rule="evenodd" clip-rule="evenodd" d="M87.6921 59.6345V48.6832C87.6921 48.2975 87.7831 47.9315 87.937 47.6012C88.3443 46.7725 89.1926 46.2039 90.1686 46.2039H82.5562C81.1955 46.2039 80.0806 47.3206 80.0806 48.6832V59.6345C80.0806 60.997 81.1955 62.1138 82.5562 62.1138H90.1686C88.807 62.1138 87.6921 60.997 87.6921 59.6345Z" fill="#93BAF0" />
    <path fill-rule="evenodd" clip-rule="evenodd" d="M98.6425 35.3295V24.1755C98.6425 22.8551 99.716 21.7731 101.035 21.7731H97.1832C95.8648 21.7731 94.7912 22.8551 94.7912 24.1755V35.3304H98.6425V35.3295Z" fill="#888B99" />
    <path fill-rule="evenodd" clip-rule="evenodd" d="M24.6165 35.3295V30.5952C24.6165 29.0712 25.8655 27.8278 27.3811 27.8278H21.7619C20.2388 27.8278 18.9973 29.0712 18.9973 30.5952V35.3305H24.6165V35.3295Z" fill="#888B99" />
    <path fill-rule="evenodd" clip-rule="evenodd" d="M0 45.0937V101.872C0 107.245 4.38428 111.636 9.75108 111.636H15.3074C9.94814 111.636 5.55636 107.245 5.55636 101.872V45.0937C5.55636 39.7203 9.9472 35.3295 15.3074 35.3295H9.75108C4.38428 35.3295 0 39.7203 0 45.0937Z" fill="#B3B3B3" />
    <path d="M61.9476 53.9317C61.9382 53.9448 61.926 53.9542 61.9157 53.9664L24.3772 91.5499L20.0436 95.8901C19.5782 95.4847 19.123 95.0643 18.6829 94.6279C18.5468 94.4918 18.4108 94.3558 18.2766 94.2178C17.9772 93.911 17.6854 93.5966 17.401 93.2747L17.4057 93.27L22.2836 88.3865L59.2825 51.3388C59.3003 51.321 59.3172 51.306 59.3341 51.291C60.2547 52.1102 61.1284 52.9914 61.9476 53.9317Z" fill="#2E3C51" />
    <path d="M48.7516 45.211C48.685 45.5619 48.5123 45.8988 48.2421 46.1682L18.4051 76.0426L12.8694 81.5858C12.5081 81.9499 12.0305 82.1329 11.5556 82.1329C11.4168 82.1329 11.2779 82.1179 11.1418 82.0832C11.1399 82.0757 11.1371 82.0691 11.1343 82.0616C11.0724 81.8533 11.0114 81.6431 10.9541 81.4347C10.9119 81.2893 10.8725 81.1457 10.8349 80.9993C10.7983 80.8633 10.7636 80.73 10.7336 80.5939C10.7214 80.5517 10.712 80.5095 10.7017 80.4682C10.6717 80.3443 10.6426 80.2223 10.6153 80.1013C10.6078 80.0712 10.6003 80.044 10.5956 80.0177C10.5384 79.7597 10.484 79.5044 10.4324 79.2473C10.4051 79.1112 10.3798 78.978 10.3554 78.8419L18.4258 70.7593L44.9144 44.236C46.2151 44.4734 47.497 44.7999 48.7516 45.211Z" fill="#2E3C51" />
    <path d="M68.8478 68.5137L36.4837 100.922L34.6106 102.801L34.6059 102.805C33.8759 102.68 33.1505 102.528 32.4326 102.35C32.3885 102.338 32.3434 102.328 32.2993 102.315C32.2618 102.305 32.2252 102.299 32.1877 102.285C31.9896 102.236 31.7888 102.181 31.5918 102.125C31.4013 102.072 31.2126 102.016 31.0221 101.959C30.9874 101.949 30.9527 101.939 30.918 101.927C30.7969 101.892 30.6759 101.855 30.5548 101.815V101.812C30.644 101.583 30.7819 101.368 30.9677 101.182L32.9797 99.1671L67.0686 65.0266C67.3032 64.7911 67.5875 64.6306 67.8897 64.5518C68.3054 65.8655 68.6226 67.1896 68.8478 68.5137Z" fill="#2E3C51" />
    <path d="M88.0215 72.9515H87.937C86.9095 72.9515 86.0771 72.1182 86.0771 71.0915C86.0771 70.064 86.9095 69.2307 87.937 69.2307H88.0215C89.049 69.2307 89.8814 70.064 89.8814 71.0915C89.8814 72.1182 89.049 72.9515 88.0215 72.9515Z" fill="#BF3961" />
    <path d="M95.4932 72.9515H95.4162C94.3887 72.9515 93.5554 72.1182 93.5554 71.0915C93.5554 70.064 94.3887 69.2307 95.4162 69.2307H95.4932C96.5207 69.2307 97.3531 70.064 97.3531 71.0915C97.3531 72.1182 96.5198 72.9515 95.4932 72.9515Z" fill="#55CF63" />
    <path d="M102.971 72.958H102.894C101.867 72.958 101.034 72.1257 101.034 71.0981C101.034 70.0705 101.867 69.2382 102.894 69.2382H102.971C103.999 69.2382 104.831 70.0705 104.831 71.0981C104.831 72.1257 103.999 72.958 102.971 72.958Z" fill="#EDCF56" />
    <path d="M92.9801 87.0089C92.342 87.0089 91.7245 86.6711 91.3951 86.0724L88.3105 80.4532C87.831 79.5795 88.1501 78.4816 89.0247 78.002C89.8983 77.5216 90.9963 77.8406 91.4767 78.7162L94.5613 84.3344C95.0409 85.2081 94.7218 86.3061 93.8472 86.7865C93.5722 86.9376 93.2738 87.0089 92.9801 87.0089Z" fill="#EB5757" />
    <path d="M86.353 53.0674C86.353 54.064 87.161 54.8729 88.1585 54.8729C89.156 54.8729 89.965 54.065 89.965 53.0674V46.6581C89.965 46.5004 89.9424 46.3493 89.9049 46.2039H86.4131C86.3755 46.3493 86.353 46.5004 86.353 46.6581V53.0674Z" fill="#EB5757" />
    <path d="M93.6867 53.0674C93.6867 54.064 94.4956 54.8729 95.4932 54.8729C96.4907 54.8729 97.2987 54.065 97.2987 53.0674V46.6581C97.2987 46.5004 97.2771 46.3493 97.2386 46.2039H93.7468C93.7092 46.3493 93.6876 46.5004 93.6876 46.6581V53.0674H93.6867Z" fill="#EB5757" />
    <path d="M101.028 53.0674C101.028 54.064 101.837 54.8729 102.834 54.8729C103.832 54.8729 104.64 54.065 104.64 53.0674V46.6581C104.64 46.5004 104.617 46.3493 104.58 46.2039H101.088C101.05 46.3493 101.028 46.5004 101.028 46.6581V53.0674Z" fill="#EB5757" />
  </symbol>
  <symbol fill="none" viewBox="0 0 103 103" id="feachure-2" xmlns="http://www.w3.org/2000/svg">
    <path d="M74.195 8.72882H28.8051V85.5424H74.195V8.72882Z" fill="#FFD659" />
    <path d="M53.2458 69.8304H49.7543V73.322H53.2458V69.8304Z" fill="#616D80" />
    <path d="M35.7881 94.2712C40.6089 94.2712 44.517 90.3631 44.517 85.5423V83.7966C44.517 76.0834 38.2641 69.8305 30.5509 69.8305H35.7881C40.6089 69.8305 44.517 65.9224 44.517 61.1017H27.0593C25.1311 61.1017 23.5678 62.6648 23.5678 64.5932V103H51.5V94.2712H35.7881Z" fill="#FFAC8E" />
    <path d="M44.517 85.5424C44.517 90.3631 40.6089 94.2712 35.7881 94.2712H51.5V103H61.9746V94.2712H65.4661V85.5424H44.517Z" fill="#FF956F" />
    <path d="M79.4322 68.0848H68.0847C65.6743 68.0848 63.7203 66.1308 63.7203 63.7204C63.7203 61.3099 65.6743 59.356 68.0847 59.356H79.4322C81.8427 59.356 83.7966 61.3099 83.7966 63.7204C83.7966 66.1308 81.8427 68.0848 79.4322 68.0848Z" fill="#FFAC8E" />
    <path d="M79.4322 76.8136H68.0847C65.6743 76.8136 63.7203 74.8596 63.7203 72.4492C63.7203 70.0387 65.6743 68.0848 68.0847 68.0848H79.4322C81.8427 68.0848 83.7966 70.0387 83.7966 72.4492C83.7966 74.8596 81.8427 76.8136 79.4322 76.8136Z" fill="#FFAC8E" />
    <path d="M76.8135 85.5424H65.4661C63.0556 85.5424 61.1017 83.5885 61.1017 81.178C61.1017 78.7675 63.0556 76.8136 65.4661 76.8136H76.8135C79.224 76.8136 81.1779 78.7675 81.1779 81.178C81.1779 83.5885 79.224 85.5424 76.8135 85.5424Z" fill="#FFAC8E" />
    <path d="M71.5763 94.2712H60.2288C57.8183 94.2712 55.8644 92.3172 55.8644 89.9068C55.8644 87.4963 57.8183 85.5424 60.2288 85.5424H71.5763C73.9867 85.5424 75.9407 87.4963 75.9407 89.9068C75.9407 92.3172 73.9867 94.2712 71.5763 94.2712Z" fill="#FFAC8E" />

    <g>
      <path d="M61.9746 47.1356H41.0254C39.097 47.1356 37.5339 45.5725 37.5339 43.6441V22.695C37.5339 20.7665 39.097 19.2034 41.0254 19.2034H61.9746C63.903 19.2034 65.4661 20.7665 65.4661 22.695V43.6441C65.4661 45.5725 63.903 47.1356 61.9746 47.1356Z" fill="#3B5998" />
      <path d="M56.7373 27.9322V24.4407H51.5C50.535 24.4407 49.7542 25.2223 49.7542 26.1864V31.4237H46.2627V34.9152H49.7542V41.8983H53.2458V34.9152H56.7373V31.4237H53.2458V27.9322H56.7373Z" fill="#DEDFE3" />
    </g>
  </symbol>

  <symbol id="svg-vk" class="svg-vk">
    <path d="M25.3136 36.661H4.36445C2.43604 36.661 0.872925 35.0979 0.872925 33.1695V12.2203C0.872925 10.2919 2.43604 8.72882 4.36445 8.72882H25.3136C27.242 8.72882 28.8051 10.2919 28.8051 12.2203V33.1695C28.8051 35.0979 27.242 36.661 25.3136 36.661Z" fill="#4D76A1" />
    <path d="M23.4087 24.7749C23.2209 24.6022 22.8503 23.8804 22.6562 23.6368C22.4285 23.3328 22.4811 23.1337 22.6516 22.8356C22.8673 22.4584 23.2995 21.8801 23.757 21.2678C25.2219 19.307 26.1679 17.9496 25.9732 16.9856L25.8683 16.4706L20.6471 16.5008C20.324 17.2131 20.624 16.5467 18.9652 19.8597C18.1013 21.3836 17.5348 21.8623 17.3351 21.9469L17.3043 21.9376C17.2394 21.8575 17.208 21.8522 17.1613 21.2968C17.1914 20.8863 17.0737 19.8004 17.1155 19.1193C17.1093 18.0402 17.1296 17.6897 17.118 17.1039L17.1007 16.2882C16.902 16.2568 16.0159 16.0223 13.9904 16.0012C12.2368 15.9832 11.9419 16.171 11.6891 16.3932L12.3354 18.6075C12.407 19.11 12.505 20.0504 12.4278 20.8043C12.3168 21.885 12.1739 22.0678 11.9764 22.001C11.9305 21.9853 11.5419 21.8162 10.8674 20.3967C10.3996 19.4125 9.98937 18.248 9.68956 17.3977C9.34652 16.4242 9.40823 16.6314 9.23405 16.1716L4 16.1714L4.33887 17.0433C5.75087 20.6818 7.04642 23.5235 8.78025 25.5641C10.696 27.8193 13.0767 28.9998 16.2836 28.9998H16.9281V28.3584C16.9281 27.7588 16.8832 27.4438 16.9063 27.0303C16.9063 26.525 16.9768 26.3992 17.0679 26.2262C17.2032 25.9719 17.5954 26.0986 17.6677 26.0825C17.7332 26.0676 17.8483 26.1154 17.9759 26.2101C18.3421 26.4817 18.6328 26.8388 18.9405 27.217C19.3847 27.7629 19.9322 28.5732 20.2324 28.9868C20.7171 28.9868 21.7007 29 22.1021 29C22.2085 29 25.9952 28.9998 26 28.9998L24.3038 26.2254C23.9921 25.628 23.9574 25.605 23.4087 24.7749ZM22.127 27.717H22.1168C21.8399 27.7215 23.8477 27.3301 21.7265 24.5222" fill="white" />
  </symbol>


  <symbol id="svg-inst" class="svg-inst">
    <path d="M88.161 20.9492C84.3044 20.9492 81.1779 17.8227 81.1779 13.9661H74.1949V24.4407C74.1949 26.3689 75.7582 27.9322 77.6864 27.9322H98.6356C100.564 27.9322 102.127 26.3689 102.127 24.4407V13.9661H95.144C95.144 17.8227 92.0176 20.9492 88.161 20.9492Z" fill="#DEDFE3" />
    <path d="M98.6356 0H77.6864C75.7582 0 74.1949 1.56311 74.1949 3.49153V13.9661H81.1779C81.1779 10.1095 84.3044 6.98305 88.161 6.98305C92.0176 6.98305 95.144 10.1095 95.144 13.9661H102.127V3.49153C102.127 1.56311 100.564 0 98.6356 0Z" fill="#F1543F" />
    <path d="M88.161 20.9491C92.0177 20.9491 95.1441 17.8227 95.1441 13.9661C95.1441 10.1094 92.0177 6.98303 88.161 6.98303C84.3044 6.98303 81.178 10.1094 81.178 13.9661C81.178 17.8227 84.3044 20.9491 88.161 20.9491Z" fill="#E7F6FE" />
  </symbol>


  <symbol fill="none" viewBox="0 0 137 137" id="feachure-3" xmlns="http://www.w3.org/2000/svg">
    <path d="M111.306 67.2545H27.8332V111.306H111.306V67.2545Z" fill="#F1543F" />
    <path d="M69.583 74.998C62.002 74.998 55.8018 81.1712 55.8018 88.7793C55.8018 96.3874 61.9749 102.56 69.583 102.56C77.1641 102.56 83.3643 96.3874 83.3643 88.7793C83.3643 81.1712 77.1641 74.998 69.583 74.998Z" fill="#E6E6E6" />
    <path d="M65.0885 80.2777V97.6599L77.9221 88.9688L65.0885 80.2777Z" fill="#324A5E" />
    <path d="M44.5115 52.6069L44.6739 52.4445L44.5115 52.6069Z" stroke="#231F20" stroke-miterlimit="10" />
    <path d="M111.279 52.4445L110.629 52.1738L93.5444 67.2546H111.306V52.8236L111.279 52.4445Z" fill="#324A5E" />
    <path d="M27.8332 52.0654V66.5235C27.8332 66.7672 27.9686 66.9838 28.2122 67.0921L28.6184 67.2275L45.9194 52.0925H27.8332V52.0654Z" fill="#324A5E" />
    <path d="M84.2036 52.0654L66.9026 67.2546H81.821L98.9324 52.0654H84.2036Z" fill="#324A5E" />
    <path d="M57.67 52.0654L40.2607 67.2546H55.1791L72.5071 52.0654H57.67Z" fill="#324A5E" />
    <path d="M44.2949 52.0654L28.0498 66.3069L27.8332 66.4965V67.2546H41.6144L59.2945 52.0654H44.2949Z" fill="#E6E6E6" />
    <path d="M97.335 52.0654L80.2235 67.2546H95.1419L111.306 52.9589V52.0654H97.335Z" fill="#E6E6E6" />
    <path d="M70.9097 52.0654L53.5816 67.2546H68.5L85.801 52.0654H70.9097Z" fill="#E6E6E6" />
  </symbol>

  <symbol id="svg-movie" class="svg-movie"  viewBox="0 0 86 29" fill="none" xmlns="http://www.w3.org/2000/svg">
      <path d="M1.34407 13.1759L0.748413 13.582L2.91442 28.2026L20.4862 25.5492L1.66897 13.3654L1.34407 13.1759Z" fill="#324A5E" />
      <path d="M13.2842 11.2807L32.0743 23.7894L46.8032 21.5692L27.8506 9.08759L13.2842 11.2807Z" fill="#324A5E" />
      <path d="M39.52 7.30063L58.4184 19.8093L73.1472 17.5621L54.0322 5.10754L39.52 7.30063Z" fill="#324A5E" />
      <path d="M83.2462 0.694275L66.0535 3.29348L84.4375 15.6127L84.8436 15.7751L85.4122 15.3148L83.2462 0.694275Z" fill="#324A5E" />
      <path d="M26.3073 9.30414L45.2599 21.7858L59.9617 19.5656L41.0632 7.08398L26.3073 9.30414Z" fill="#E6E6E6" />
      <path d="M0.694275 13.203L0.82965 14.0694L18.9158 25.7929L33.6176 23.5457L14.8275 11.037L0.694275 13.203Z" fill="#E6E6E6" />
      <path d="M84.7895 14.5838L67.5968 3.0498L52.4619 5.35119L71.5769 17.8057L84.8978 15.8022L85.2769 15.721L85.4393 14.9899L84.7895 14.5838Z" fill="#E6E6E6" />
  </symbol>

  <symbol viewBox="0 0 93 93" fill="none" id="feachure-4" xmlns="http://www.w3.org/2000/svg">
    <path d="M75.2453 93H17.7546C17.3534 93 17.0281 92.6747 17.0281 92.2734V0.726562C17.0281 0.325318 17.3534 0 17.7546 0H75.2452C75.6464 0 75.9717 0.325318 75.9717 0.726562V92.2734C75.9719 92.6747 75.6466 93 75.2453 93Z" fill="#E6E6E6" />
    <path d="M70.3582 0V93H75.2452C75.6464 93 75.9718 92.6747 75.9718 92.2734V0.726562C75.9718 0.325318 75.6464 0 75.2452 0H70.3582Z" fill="#B3B3B3" />
    <path d="M25.9166 51.2247H67.0837C67.8362 51.2247 68.446 50.6149 68.446 49.8624C68.446 49.1098 67.8362 48.5001 67.0837 48.5001H25.9166C25.1641 48.5001 24.5543 49.1098 24.5543 49.8624C24.5543 50.6149 25.1641 51.2247 25.9166 51.2247Z" fill="#484B63" />
    <path d="M67.0837 54.7374H25.9166C25.1641 54.7374 24.5543 55.3472 24.5543 56.0997C24.5543 56.8523 25.1641 57.462 25.9166 57.462H67.0837C67.8362 57.462 68.446 56.8523 68.446 56.0997C68.446 55.3472 67.8362 54.7374 67.0837 54.7374Z" fill="#484B63" />
    <path d="M67.0837 60.9748H25.9166C25.1641 60.9748 24.5543 61.5846 24.5543 62.3371C24.5543 63.0896 25.1641 63.6994 25.9166 63.6994H67.0837C67.8362 63.6994 68.446 63.0896 68.446 62.3371C68.446 61.5846 67.8362 60.9748 67.0837 60.9748Z" fill="#484B63" />
    <path d="M36.4106 67.2122H25.9166C25.1641 67.2122 24.5543 67.8219 24.5543 68.5745C24.5543 69.327 25.1641 69.9368 25.9166 69.9368H36.4106C37.1631 69.9368 37.7729 69.327 37.7729 68.5745C37.7729 67.8219 37.1631 67.2122 36.4106 67.2122Z" fill="#484B63" />
    <path d="M62.2403 37.6096H30.7598C30.3585 37.6096 30.0332 37.2843 30.0332 36.883V10.6422C30.0332 10.2409 30.3585 9.91559 30.7598 9.91559H62.2403C62.6415 9.91559 62.9668 10.2409 62.9668 10.6422V36.8832C62.9668 37.2843 62.6415 37.6096 62.2403 37.6096Z" fill="#93BAF0" />
    <path d="M30.0332 31.7617L39.899 23.1038C40.1579 22.8765 40.5411 22.8638 40.8147 23.0731L59.8121 37.6098H30.7598C30.3585 37.6098 30.0332 37.2844 30.0332 36.8832V31.7617Z" fill="#FFBD54" />
    <path d="M54.0409 20.9889C55.9957 20.9889 57.5805 19.4042 57.5805 17.4493C57.5805 15.4944 55.9957 13.9097 54.0409 13.9097C52.086 13.9097 50.5012 15.4944 50.5012 17.4493C50.5012 19.4042 52.086 20.9889 54.0409 20.9889Z" fill="#FFD659" />
    <path d="M53.0179 32.411L62.9666 23.7626V36.883C62.9666 37.2843 62.6413 37.6096 62.24 37.6096H59.8117L53.0179 32.411Z" fill="#FFA954" />
    <path d="M87.5902 86.3572H65.2891C64.0065 86.3572 62.9668 85.3175 62.9668 84.0349V75.5808C62.9668 74.2983 64.0065 73.2585 65.2891 73.2585H87.5904C88.8729 73.2585 89.9126 74.2983 89.9126 75.5808V84.0349C89.9125 85.3175 88.8728 86.3572 87.5902 86.3572Z" fill="#93BAF0" />
    <path d="M87.5902 86.3572H78.6068V73.2585H87.5902C88.8728 73.2585 89.9125 74.2983 89.9125 75.5808V84.0349C89.9125 85.3175 88.8728 86.3572 87.5902 86.3572Z" fill="#F1543F" />
    <path d="M87.5903 73.2585H81.9767C83.2592 73.2585 84.299 74.2983 84.299 75.5808V84.0349C84.299 85.3175 83.2592 86.3572 81.9767 86.3572H87.5903C88.8729 86.3572 89.9126 85.3175 89.9126 84.0349V75.5808C89.9126 74.2983 88.8729 73.2585 87.5903 73.2585Z" fill="#EB3F28" />
    <path d="M78.6069 73.2585H72.9933V86.3572H78.6069V73.2585Z" fill="#BAE0F2" />
  </symbol>
  <symbol id="svg-loop" class="svg-loop" viewBox="0 0 46 48" fill="none" xmlns="http://www.w3.org/2000/svg">
    <path d="M0.822151 46.7184C-0.27405 45.6222 -0.27405 43.845 0.822151 42.749L19.214 24.3569L23.1834 28.3263L4.79154 46.7184C3.69552 47.8144 1.91835 47.8144 0.822151 46.7184Z" fill="#484B63" />
    <path d="M18.7347 27.0932C12.898 21.2565 12.898 11.7594 18.7347 5.92261C24.5713 0.085766 34.0684 0.0859475 39.9053 5.92261C45.7421 11.7593 45.7419 21.2563 39.9053 27.0932C34.0686 32.93 24.5715 32.9298 18.7347 27.0932Z" fill="#BAE0F2" />
    <path d="M39.9051 5.92266C39.2267 5.24423 38.497 4.6479 37.7311 4.12732C41.6901 9.95017 41.094 17.9656 35.9357 23.1238C30.7775 28.2821 22.7621 28.8782 16.9392 24.9192C17.46 25.6852 18.0561 26.4148 18.7345 27.0932C24.5714 32.9301 34.0683 32.9299 39.9051 27.0932C45.7418 21.2564 45.742 11.7595 39.9051 5.92266Z" fill="#93BAF0" />
    <path d="M40.8685 4.95918C34.5008 -1.40859 24.1394 -1.40859 17.7715 4.95918C14.6914 8.03944 12.9949 12.1409 12.9949 16.5079C12.9949 20.8749 14.6914 24.9762 17.7715 28.0564C20.8517 31.1365 24.953 32.833 29.32 32.833C33.687 32.833 37.7885 31.1365 40.8687 28.0564C47.2365 21.6886 47.2365 11.3273 40.8685 4.95918ZM38.9421 26.1298C36.3766 28.6954 32.9592 30.1084 29.32 30.1084C25.6808 30.1084 22.2636 28.6954 19.6981 26.1298C17.1325 23.5643 15.7195 20.1471 15.7195 16.5079C15.7195 12.8687 17.1325 9.45133 19.6981 6.88584C22.351 4.2328 25.8349 2.90664 29.32 2.90664C32.8042 2.90664 36.2896 4.23353 38.9421 6.88566C44.2476 12.1914 44.2476 20.8244 38.9421 26.1298Z" fill="#484B63" />
  </symbol>
  <symbol id="svg-pen" class="svg-pen" viewBox="0 0 68 69" fill="none" xmlns="http://www.w3.org/2000/svg">
    <path d="M0.651103 67.0553C1.85574 57.5757 6.46488 56.9721 6.46488 56.9721L11.8382 62.3454C11.8382 62.3454 11.2364 66.9563 1.75512 68.1595C1.11574 68.2409 0.569909 67.6949 0.651103 67.0553Z" fill="#FFD659" />
    <path d="M9.82566 58.9856C9.29346 58.4537 8.43103 58.4537 7.899 58.9856L5.25595 61.6286C4.72393 62.1608 4.72393 63.0232 5.25595 63.5553C5.52206 63.8212 5.8708 63.9541 6.21937 63.9541C6.56794 63.9541 6.91669 63.8212 7.18279 63.5553L9.82585 60.9122C10.3575 60.3802 10.3575 59.5178 9.82566 58.9856Z" fill="#484B63" />
    <path d="M12.1793 63.2661L5.54508 56.6318C5.18761 56.2744 5.18761 55.6946 5.54508 55.3371L59.2773 1.60453C60.3355 0.546292 62.0513 0.546292 63.1095 1.60453L67.2063 5.70125C68.2645 6.75949 68.2645 8.47527 67.2063 9.5335L13.4741 63.2661C13.1166 63.6237 12.5368 63.6237 12.1793 63.2661Z" fill="#EB3F28" />
    <path d="M67.2063 5.7013L63.2418 1.73682C64.3 2.79505 64.3 4.51083 63.2418 5.56907L9.50958 59.3016C9.15211 59.6591 8.57231 59.6591 8.21484 59.3016L12.1793 63.2661C12.5368 63.6236 13.1166 63.6236 13.4741 63.2661L67.2063 9.53356C68.2647 8.47532 68.2647 6.75954 67.2063 5.7013Z" fill="#F1543F" />
    <path d="M12.1793 63.2661L5.54508 56.6318C5.18761 56.2743 5.18761 55.6946 5.54508 55.3371L8.8622 52.02L16.7912 59.9489L13.4741 63.2661C13.1166 63.6237 12.5368 63.6237 12.1793 63.2661Z" fill="#BAE0F2" />
    <path d="M12.8267 55.9845L9.50958 59.3016C9.15211 59.6591 8.57231 59.6591 8.21484 59.3016L12.1793 63.2661C12.5368 63.6236 13.1166 63.6236 13.4741 63.2661L16.7912 59.949L12.8267 55.9845Z" fill="#93BAF0" />
    <path d="M55.1413 5.73985L51.1768 9.70435L59.1058 17.6333L63.0703 13.6688L55.1413 5.73985Z" fill="#BAE0F2" />
    <path d="M59.1057 9.70445L55.1412 13.6689L59.1057 17.6334L63.0702 13.6689L59.1057 9.70445Z" fill="#93BAF0" />

  </symbol>
</svg>
