<svg width="41" height="41" viewBox="0 0 41 41" fill="none" xmlns="http://www.w3.org/2000/svg">
<g clip-path="url(#clip0)">
<path d="M39.2787 13.3629L20.9063 0.202853C20.6254 0.00175903 20.2441 0.00175903 19.9633 0.202853L1.59097 13.3629C1.23528 13.6177 1.15793 14.1065 1.41831 14.4547L3.81964 17.6661C3.94457 17.8332 4.13239 17.945 4.34161 17.9767C4.5509 18.0085 4.76435 17.9575 4.93526 17.835L5.65989 17.316V39.2707C5.65989 39.7021 6.01734 40.0519 6.45813 40.0519H34.4537C34.8945 40.0519 35.2519 39.7021 35.2519 39.2707V17.3462L35.9344 17.835C36.0721 17.9337 36.2374 17.9859 36.4058 17.9859C36.4465 17.9859 36.4873 17.9829 36.528 17.9767C36.7372 17.945 36.925 17.8332 37.0499 17.6661L39.4513 14.4547C39.7117 14.1064 39.6344 13.6177 39.2787 13.3629ZM33.6554 35.4424H14.7698C14.329 35.4424 13.9716 35.7922 13.9716 36.2236C13.9716 36.655 14.329 37.0049 14.7698 37.0049H33.6554V38.4895H7.25628V16.7887H25.9495C26.3903 16.7887 26.7478 16.4389 26.7478 16.0075C26.7478 15.5761 26.3903 15.2262 25.9495 15.2262H8.57784L20.4348 6.73285L33.6554 16.2027V35.4424ZM36.2331 16.1128L34.9252 15.1759C34.9252 15.1759 34.9251 15.1759 34.9251 15.1758L20.9063 5.13434C20.7659 5.03379 20.6004 4.98348 20.4348 4.98348C20.2693 4.98348 20.1037 5.03379 19.9634 5.13434L4.63648 16.1128L3.17802 14.1623L20.4349 1.80129L37.6918 14.1623L36.2331 16.1128Z" fill="#21396E"/>
<path d="M29.6081 15.8551C29.5977 15.8051 29.5817 15.7558 29.5618 15.7082C29.5418 15.6613 29.5171 15.616 29.4883 15.5738C29.4596 15.5308 29.4261 15.491 29.3894 15.4551C29.2409 15.3097 29.0349 15.2261 28.825 15.2261C28.6151 15.2261 28.4091 15.3097 28.2607 15.4551C28.224 15.491 28.1905 15.5308 28.1618 15.5738C28.133 15.616 28.1083 15.6613 28.0883 15.7082C28.0684 15.7558 28.0524 15.8051 28.0428 15.8551C28.0324 15.9051 28.0269 15.9567 28.0269 16.0074C28.0269 16.0582 28.0324 16.1098 28.0428 16.1597C28.0524 16.2097 28.0684 16.259 28.0883 16.3066C28.1083 16.3536 28.133 16.3989 28.1618 16.4411C28.1905 16.484 28.224 16.5238 28.2607 16.5598C28.2975 16.5958 28.3382 16.6286 28.3821 16.6567C28.4252 16.6847 28.4715 16.709 28.5202 16.7286C28.5681 16.7481 28.6183 16.7637 28.6694 16.7731C28.7205 16.7833 28.7732 16.7887 28.825 16.7887C28.8769 16.7887 28.9297 16.7833 28.9807 16.7731C29.0318 16.7637 29.0821 16.7481 29.1299 16.7286C29.1786 16.709 29.2249 16.6847 29.268 16.6567C29.3119 16.6286 29.3526 16.5958 29.3894 16.5598C29.4261 16.5239 29.4596 16.484 29.4883 16.4411C29.5171 16.3989 29.5418 16.3536 29.5618 16.3066C29.5817 16.259 29.5977 16.2097 29.6081 16.1597C29.6185 16.1097 29.6232 16.0582 29.6232 16.0074C29.6232 15.9567 29.6184 15.9051 29.6081 15.8551Z" fill="#21396E"/>
<path d="M12.6765 36.0708C12.6662 36.0208 12.6511 35.9716 12.6311 35.9247C12.6112 35.8778 12.5863 35.8318 12.5576 35.7896C12.5289 35.7474 12.4954 35.7068 12.4587 35.6708C12.422 35.6349 12.3812 35.6029 12.3374 35.574C12.2943 35.5458 12.248 35.5216 12.1993 35.5021C12.1513 35.4826 12.1011 35.4677 12.05 35.4576C11.947 35.4372 11.8409 35.4372 11.7379 35.4576C11.6876 35.4677 11.6373 35.4826 11.5886 35.5021C11.5407 35.5216 11.4944 35.5458 11.4513 35.574C11.4074 35.6021 11.3666 35.6349 11.33 35.6708C11.2925 35.7068 11.2597 35.7474 11.2302 35.7896C11.2016 35.8318 11.1767 35.8779 11.1568 35.9247C11.1368 35.9716 11.1217 36.0208 11.1114 36.0708C11.1009 36.1216 11.0962 36.1724 11.0962 36.2232C11.0962 36.2747 11.1009 36.3255 11.1114 36.3763C11.1217 36.4263 11.1368 36.4755 11.1568 36.5223C11.1767 36.5693 11.2016 36.6146 11.2302 36.6575C11.2597 36.6997 11.2925 36.7395 11.33 36.7762C11.3667 36.8122 11.4075 36.8451 11.4513 36.8731C11.4944 36.9012 11.5407 36.9254 11.5886 36.945C11.6373 36.9645 11.6876 36.9794 11.7379 36.9895C11.7898 36.9997 11.8425 37.0051 11.8943 37.0051C11.9462 37.0051 11.9988 36.9997 12.05 36.9895C12.1011 36.9794 12.1514 36.9645 12.1993 36.945C12.2479 36.9254 12.2942 36.9012 12.3374 36.8731C12.3813 36.8451 12.422 36.8122 12.4587 36.7762C12.4954 36.7395 12.5289 36.6997 12.5576 36.6575C12.5863 36.6145 12.6112 36.5692 12.6311 36.5223C12.6511 36.4754 12.6662 36.4263 12.6765 36.3763C12.6869 36.3255 12.6925 36.2747 12.6925 36.2232C12.6925 36.1724 12.6869 36.1215 12.6765 36.0708Z" fill="#21396E"/>
<path d="M30.3501 20.4348C30.3501 19.7722 30.0846 19.1504 29.6025 18.6841C29.125 18.2223 28.472 17.9638 27.8062 17.9694C27.6067 17.9711 27.4048 17.9969 27.206 18.0462C27.1988 18.0479 27.1917 18.0499 27.1846 18.0518C25.7137 18.4198 24.2627 18.9121 22.8668 19.5164C22.075 19.3326 21.2583 19.2396 20.4349 19.2396C19.9738 19.2396 19.5086 19.2692 19.0519 19.3276C18.7001 19.3729 18.3485 19.4363 18.0031 19.5164C17.9132 19.4775 17.8204 19.4379 17.7232 19.3971C16.4166 18.8479 15.0584 18.3954 13.6861 18.052C13.679 18.05 13.6718 18.0482 13.6647 18.0464C12.8791 17.8506 12.0688 18.0267 11.4419 18.5301C10.8151 19.0334 10.4804 19.7765 10.5235 20.5684C10.567 21.3768 10.6493 22.1939 10.7683 22.9974C10.8745 23.7152 11.0122 24.4376 11.1782 25.1485C10.9306 25.7689 10.7584 26.4141 10.6652 27.0704C10.626 27.3469 10.6062 27.6259 10.6062 27.8997C10.6062 31.3969 13.7222 34.2422 17.5525 34.2422H23.3176C25.417 34.2422 27.3812 33.3877 28.7065 31.8978C29.921 30.5324 30.4531 28.8178 30.2048 27.07C30.152 26.6983 30.0727 26.3252 29.969 25.9599C29.8912 25.6876 29.7984 25.4157 29.6921 25.1489C30.0432 23.6455 30.2633 22.1065 30.3464 20.5705C30.3489 20.5248 30.3501 20.4798 30.3501 20.4348ZM28.7521 20.4834C28.7521 20.4843 28.752 20.4851 28.752 20.4861C28.6694 22.0123 28.4434 23.5417 28.0802 25.0318C28.0407 25.1943 28.0553 25.3649 28.122 25.5186C28.2441 25.8 28.3481 26.09 28.4307 26.3792C28.5153 26.6771 28.58 26.9818 28.6231 27.2852C28.8069 28.5786 28.4087 29.8523 27.5019 30.8718C26.4799 32.0207 24.9548 32.6797 23.3172 32.6797H17.5521C14.6023 32.6797 12.2023 30.5354 12.2023 27.8997C12.2023 27.6973 12.2171 27.4904 12.2461 27.2851C12.332 26.6803 12.5006 26.0861 12.7473 25.5192C12.8142 25.3654 12.8289 25.1946 12.7893 25.0319C12.6081 24.2877 12.4594 23.5278 12.3478 22.7733C12.2358 22.0167 12.1583 21.2473 12.1173 20.4859C12.1015 20.1953 12.2243 19.9227 12.4542 19.738C12.6227 19.6027 12.8273 19.5318 13.038 19.5318C13.1097 19.5318 13.1823 19.54 13.2544 19.5568C13.2597 19.5582 13.265 19.5596 13.2703 19.5609C14.5695 19.8848 15.8556 20.3128 17.0925 20.8327C17.2738 20.909 17.439 20.9804 17.5973 21.0511C17.7658 21.1263 17.9558 21.1417 18.1344 21.0951C18.5021 20.999 18.8807 20.9256 19.259 20.8768C19.6467 20.8272 20.0423 20.8021 20.4344 20.8021C21.2162 20.8021 21.99 20.9007 22.7344 21.0951C22.913 21.1415 23.1027 21.1263 23.271 21.0514C24.6659 20.4307 26.1219 19.9291 27.5988 19.5608C27.6039 19.5596 27.6088 19.5583 27.6137 19.5569C27.6832 19.5408 27.7523 19.5324 27.8218 19.5318C27.8253 19.5318 27.8286 19.5318 27.8322 19.5318C28.0707 19.5318 28.3064 19.6275 28.4799 19.7954C28.6563 19.9659 28.7533 20.1929 28.7533 20.4347C28.7534 20.4509 28.753 20.467 28.7521 20.4834Z" fill="#21396E"/>
<path d="M21.9319 29.0961C21.5466 29.0961 21.233 28.7893 21.233 28.4122C21.233 27.9808 20.8756 27.631 20.4348 27.631C19.9939 27.631 19.6365 27.9808 19.6365 28.4122V28.4407C19.6365 28.8179 19.3231 29.1247 18.9378 29.1247C18.4969 29.1247 18.1395 29.4746 18.1395 29.906C18.1395 30.3374 18.4969 30.6872 18.9378 30.6872C19.5173 30.6872 20.0471 30.4757 20.4515 30.1277C20.8515 30.4588 21.3682 30.6586 21.9319 30.6586C22.3726 30.6586 22.7301 30.3088 22.7301 29.8774C22.7301 29.4459 22.3726 29.0961 21.9319 29.0961Z" fill="#21396E"/>
<path d="M17.6446 25.4962L16.4589 24.9645C16.2478 24.8697 16.005 24.8697 15.794 24.9645L14.6082 25.4962C14.2074 25.6759 14.0313 26.1396 14.215 26.5318C14.3492 26.8187 14.6386 26.9879 14.9411 26.9879C15.0524 26.9879 15.1654 26.9651 15.2731 26.9167L16.1263 26.5341L16.9796 26.9167C17.3801 27.0966 17.8541 26.9241 18.0377 26.5318C18.2215 26.1396 18.0453 25.6758 17.6446 25.4962Z" fill="#21396E"/>
<path d="M26.2616 25.4961L25.0759 24.9644C24.8647 24.8696 24.6221 24.8696 24.4109 24.9644L23.2252 25.4961C22.8244 25.6758 22.6484 26.1395 22.832 26.5318C23.0157 26.9242 23.4895 27.0966 23.8902 26.9166L24.7434 26.534L25.5966 26.9166C25.7044 26.965 25.8174 26.9878 25.9286 26.9878C26.2312 26.9878 26.5205 26.8186 26.6548 26.5318C26.8385 26.1395 26.6624 25.6758 26.2616 25.4961Z" fill="#21396E"/>
</g>
<defs>
<clipPath id="clip0">
<rect width="40.8696" height="40" fill="white" transform="translate(0 0.052002)"/>
</clipPath>
</defs>
</svg>
