<svg width="40" height="41" viewBox="0 0 40 41" fill="none" xmlns="http://www.w3.org/2000/svg">
<g clip-path="url(#clip0)">
<path d="M34.508 26.0935C34.0765 26.0935 33.7267 26.4433 33.7267 26.8748C33.7267 32.7634 28.936 37.5541 23.0475 37.5541C17.1589 37.5541 12.3682 32.7634 12.3682 26.8748V25.2353L16.7057 17.257C19.8209 15.0805 21.302 11.1602 20.8313 6.37357C21.9338 6.01076 22.7323 4.97201 22.7323 3.74959C22.7323 2.22655 21.4932 0.987488 19.9702 0.987488C18.4472 0.987488 17.2081 2.22655 17.2081 3.74959C17.2081 5.02928 18.083 6.10818 19.2659 6.42045C19.722 10.7864 18.4007 14.3025 15.5949 16.1232C13.141 17.7155 9.93506 17.7355 7.42756 16.174C4.5253 14.3667 3.10351 10.8309 3.47859 6.41701C4.65538 6.10068 5.52444 5.0249 5.52444 3.74959C5.52444 2.22655 4.28538 0.987488 2.76234 0.987488C1.23929 0.987488 0 2.22647 0 3.74951C0 4.97678 0.804764 6.01912 1.91406 6.37795C1.51547 11.3541 3.20077 15.3815 6.59983 17.4993L10.8056 25.2353V26.8748C10.8056 30.132 12.0825 33.2027 14.401 35.5212C16.7195 37.8397 19.7902 39.1166 23.0474 39.1166C26.3046 39.1166 29.3753 37.8397 31.6938 35.5212C34.0124 33.2027 35.2892 30.132 35.2892 26.8748C35.2892 26.4433 34.9395 26.0935 34.508 26.0935ZM18.7704 3.74951C18.7704 3.08803 19.3086 2.54991 19.97 2.54991C20.6315 2.54991 21.1696 3.08803 21.1696 3.74951C21.1696 4.411 20.6315 4.9492 19.97 4.9492C19.3086 4.9492 18.7704 4.411 18.7704 3.74951ZM1.5625 3.74951C1.5625 3.08803 2.10062 2.54991 2.7621 2.54991C3.42359 2.54991 3.96171 3.08803 3.96171 3.74951C3.96171 4.411 3.42359 4.9492 2.7621 4.9492C2.10062 4.9492 1.5625 4.411 1.5625 3.74951ZM8.94295 18.5376C9.77279 18.7742 10.6285 18.8928 11.4833 18.8927C12.4269 18.8927 13.369 18.7473 14.2736 18.4593L11.5869 23.401L8.94295 18.5376Z" fill="#21396E"/>
<path d="M34.5079 23.9476C34.0764 23.9476 33.7267 24.2973 33.7267 24.7288V24.7398C33.7267 25.1712 34.0764 25.521 34.5079 25.521C34.9394 25.521 35.2892 25.1712 35.2892 24.7398V24.7288C35.2892 24.2973 34.9394 23.9476 34.5079 23.9476Z" fill="#21396E"/>
<path d="M34.5081 10.0297C31.4798 10.0297 29.0161 12.502 29.0161 15.5408C29.0161 18.3134 31.0674 20.6133 33.7267 20.9952V22.567C33.7267 22.9985 34.0765 23.3483 34.508 23.3483C34.9395 23.3483 35.2892 22.9985 35.2892 22.567V20.9952C37.9487 20.6134 40 18.3135 40 15.5408C40 12.502 37.5364 10.0297 34.5081 10.0297ZM34.5081 16.5045C33.9806 16.5045 33.5514 16.0722 33.5514 15.5408C33.5514 15.0094 33.9806 14.5771 34.5081 14.5771C35.0356 14.5771 35.4647 15.0095 35.4647 15.5408C35.4647 16.0722 35.0356 16.5045 34.5081 16.5045ZM35.2892 19.4108V17.9421C36.297 17.6116 37.0272 16.6603 37.0272 15.5408C37.0272 14.1478 35.8971 13.0146 34.5081 13.0146C33.119 13.0146 31.9889 14.1479 31.9889 15.5408C31.9889 16.6603 32.7191 17.6114 33.7267 17.942V19.4107C31.9331 19.0456 30.5786 17.4493 30.5786 15.5408C30.5786 13.3635 32.3414 11.5922 34.5081 11.5922C36.6748 11.5922 38.4375 13.3635 38.4375 15.5408C38.4375 17.4494 37.083 19.0458 35.2892 19.4108Z" fill="#21396E"/>
<path d="M23.0475 26.8262C20.7504 26.8262 18.8816 28.7012 18.8816 31.0059C18.8816 33.3105 20.7504 35.1856 23.0475 35.1856C25.3446 35.1856 27.2135 33.3106 27.2135 31.0059C27.2135 28.7012 25.3446 26.8262 23.0475 26.8262ZM23.0475 33.623C21.612 33.623 20.4441 32.449 20.4441 31.0059C20.4441 29.5627 21.612 28.3886 23.0475 28.3886C24.4831 28.3886 25.651 29.5627 25.651 31.0059C25.651 32.449 24.4831 33.623 23.0475 33.623Z" fill="#21396E"/>
<path d="M28.0438 22.5164C26.6745 22.5164 25.5604 23.6945 25.5604 25.1424C25.5604 26.5903 26.6745 27.7684 28.0438 27.7684C29.4132 27.7684 30.5273 26.5903 30.5273 25.1424C30.5273 23.6944 29.4132 22.5164 28.0438 22.5164ZM28.0438 26.2058C27.536 26.2058 27.1229 25.7287 27.1229 25.1423C27.1229 24.5559 27.536 24.0788 28.0438 24.0788C28.5516 24.0788 28.9648 24.5559 28.9648 25.1423C28.9648 25.7287 28.5516 26.2058 28.0438 26.2058Z" fill="#21396E"/>
<path d="M23.1025 20.2104C21.7331 20.2104 20.6191 21.3884 20.6191 22.8364C20.6191 24.2844 21.7332 25.4624 23.1025 25.4624C24.4719 25.4624 25.5859 24.2844 25.5859 22.8364C25.5859 21.3884 24.4719 20.2104 23.1025 20.2104ZM23.1025 23.8999C22.5948 23.8999 22.1816 23.4229 22.1816 22.8364C22.1816 22.25 22.5947 21.7729 23.1025 21.7729C23.6103 21.7729 24.0234 22.25 24.0234 22.8364C24.0234 23.4228 23.6103 23.8999 23.1025 23.8999Z" fill="#21396E"/>
<path d="M18.0511 22.5164C16.6818 22.5164 15.5677 23.6944 15.5677 25.1423C15.5677 26.5903 16.6818 27.7683 18.0511 27.7683C19.4205 27.7683 20.5345 26.5903 20.5345 25.1423C20.5345 23.6944 19.4205 22.5164 18.0511 22.5164ZM18.0511 26.2059C17.5434 26.2059 17.1302 25.7288 17.1302 25.1424C17.1302 24.556 17.5434 24.0789 18.0511 24.0789C18.5589 24.0789 18.972 24.556 18.972 25.1424C18.972 25.7288 18.5589 26.2059 18.0511 26.2059Z" fill="#21396E"/>
</g>
<defs>
<clipPath id="clip0">
<rect width="40" height="40" fill="white" transform="translate(0 0.052002)"/>
</clipPath>
</defs>
</svg>
