<svg width="40" height="41" viewBox="0 0 40 41" fill="none" xmlns="http://www.w3.org/2000/svg">
<g clip-path="url(#clip0)">
<path d="M34.838 40.052C35.2695 40.052 35.6192 39.7023 35.6192 39.2707V30.2031H37.1814C37.6126 30.2031 37.9626 29.8533 37.9626 29.4218V20.0364C37.966 18.5499 36.9412 17.3439 35.6192 17.0063V9.48315C35.621 7.11285 33.7042 5.20733 31.3229 5.20733C28.9291 5.20733 27.0184 7.12658 27.027 9.48254V33.4001C27.0209 36.2028 24.7385 38.4828 21.9388 38.4828C19.1785 38.4828 16.9208 36.317 16.8085 33.6131C18.147 33.2624 19.1376 32.039 19.1376 30.5873V30.2031H19.9969C21.2891 30.2031 22.3401 29.1517 22.3401 27.8596V5.51983C22.3401 4.22771 21.2891 3.17638 19.9969 3.17638H16.8723V2.40185C16.8774 1.79638 16.6507 1.22082 16.2341 0.781363C15.9372 0.468558 15.4428 0.45513 15.1297 0.752066C14.8166 1.049 14.8035 1.54339 15.1004 1.8565C15.2374 2.00085 15.3119 2.18975 15.3101 2.39544V3.96709C15.3137 4.38427 14.9792 4.73858 14.5392 4.73858C14.538 4.73858 9.83765 4.73858 9.83673 4.73858C9.4519 4.73858 9.11682 4.45812 9.06128 4.0736C9.06708 4.03545 9.06128 2.39544 9.06128 2.39544C9.06128 2.19524 9.13666 2.00512 9.27338 1.85985C9.56909 1.54583 9.55444 1.05144 9.24042 0.755728C8.92639 0.459707 8.43201 0.474661 8.13629 0.788687C7.72522 1.22478 7.49908 1.79546 7.49908 2.39544V3.17638H4.37469C3.08258 3.17638 2.03125 4.22771 2.03125 5.51983V27.8596C2.03125 29.1517 3.08258 30.2031 4.37469 30.2031H5.07751V30.5873C5.07751 32.0402 6.07422 33.2655 7.42096 33.6143V39.2637C7.42096 39.6952 7.77069 40.045 8.2019 40.045C8.63342 40.045 8.98315 39.6952 8.98315 39.2637V33.6155C9.51874 33.4776 10.0107 33.1978 10.4132 32.7943C11.004 32.202 11.3284 31.4174 11.3266 30.5873V30.2031H12.8888V30.5915C12.8967 32.0451 13.8998 33.2701 15.2463 33.6161C15.361 37.1803 18.3179 40.045 21.9388 40.045C25.5978 40.045 28.5812 37.0655 28.5892 33.4016V9.47948C28.5837 7.97802 29.8026 6.76952 31.3229 6.76952C32.829 6.76952 34.0579 7.96429 34.057 9.48223V17.0076C32.7109 17.3561 31.7136 18.5814 31.7136 20.0343V29.4218C31.7136 29.8533 32.0633 30.2031 32.4948 30.2031H34.057V39.2707C34.057 39.7023 34.4067 40.052 34.838 40.052ZM4.37469 4.73858H7.63092C7.9483 5.64312 8.81226 6.30108 9.83368 6.30077H14.5334C15.5835 6.3026 16.4355 5.62755 16.7444 4.73858H19.9969C20.4276 4.73858 20.7782 5.08922 20.7782 5.51983V9.89391H3.59375V5.51983C3.59344 5.08922 3.94409 4.73858 4.37469 4.73858ZM14.451 30.5873V29.4218C14.451 28.9903 14.1013 28.6409 13.67 28.6409H10.5453C10.1141 28.6409 9.7644 28.9903 9.7644 29.4218V30.5891C9.76532 31.0032 9.60297 31.3948 9.30725 31.6911C9.01093 31.988 8.61877 32.1516 8.20251 32.1516C7.341 32.1513 6.63971 31.4494 6.63971 30.5873V29.4218C6.63971 28.9903 6.28998 28.6409 5.85876 28.6409H4.37469C3.94379 28.6409 3.59344 28.2902 3.59344 27.8596V11.4561H20.7779V27.8596C20.7779 28.2902 20.4276 28.6409 19.9969 28.6409H18.3566C17.9251 28.6409 17.5754 28.9903 17.5754 29.4218V30.5873C17.5754 31.45 16.8784 32.1519 16.0217 32.1519C15.1605 32.1519 14.4556 31.4482 14.451 30.5873ZM33.2758 20.0343C33.2758 19.1728 33.9767 18.4712 34.8386 18.4706H34.8395C35.7001 18.4706 36.4023 19.1652 36.4001 20.0343V28.6409H33.2758V20.0343Z" fill="#21396E"/>
<path d="M19.2157 21.6108V18.4861C19.2157 18.0549 18.866 17.7052 18.4348 17.7052H14.5291V13.7996C14.5291 13.368 14.1794 13.0186 13.7482 13.0186H10.6235C10.1923 13.0186 9.84253 13.368 9.84253 13.7996V17.7052H5.93689C5.50568 17.7052 5.15564 18.0549 5.15564 18.4861V21.6108C5.15564 22.0421 5.50568 22.3918 5.93689 22.3918H9.84253V26.2974C9.84253 26.7289 10.1923 27.0784 10.6235 27.0784H13.7482C14.1794 27.0784 14.5291 26.7289 14.5291 26.2974V22.3918H18.4348C18.866 22.3918 19.2157 22.0421 19.2157 21.6108ZM17.6535 20.8296H13.7482C13.3167 20.8296 12.9669 21.1793 12.9669 21.6108V25.5162H11.4047V21.6108C11.4047 21.1793 11.055 20.8296 10.6235 20.8296H6.71814V19.2674H10.6235C11.055 19.2674 11.4047 18.9177 11.4047 18.4861V14.5808H12.9669V18.4861C12.9669 18.9177 13.3167 19.2674 13.7482 19.2674H17.6535V20.8296Z" fill="#21396E"/>
<path d="M12.9669 0.833252C12.9669 1.26447 12.6172 1.6142 12.1857 1.6142C11.7545 1.6142 11.4047 1.26447 11.4047 0.833252C11.4047 0.401733 11.7545 0.052002 12.1857 0.052002C12.6172 0.052002 12.9669 0.401733 12.9669 0.833252Z" fill="#21396E"/>
</g>
<defs>
<clipPath id="clip0">
<rect width="40" height="40" fill="white" transform="translate(0 0.052002)"/>
</clipPath>
</defs>
</svg>
