<svg width="40" height="30" viewBox="0 0 40 30" fill="none" xmlns="http://www.w3.org/2000/svg">
<path d="M40 11.7378V10.5323C40 9.37912 39.0618 8.44084 37.9085 8.44084H36.8082C35.5127 8.44084 34.4394 9.40685 34.2688 10.6562L32.4904 7.07224C31.827 5.72029 30.5545 4.83287 29.0872 4.69865C28.446 4.63967 27.7108 4.5774 26.9086 4.51865L26.2159 1.95342C25.9769 1.06826 25.1696 0.450134 24.2528 0.450134H15.7311C14.814 0.450134 14.0066 1.06857 13.7678 1.95404L13.0741 4.52646C12.3128 4.58295 11.6137 4.64224 11.0006 4.69865C9.53383 4.83302 8.26328 5.71849 7.60086 7.06787L5.74109 10.7344C5.60563 9.44732 4.51414 8.44092 3.19172 8.44092H2.09148C0.938203 8.44084 0 9.37912 0 10.5323V11.7378C0 12.6677 0.598281 13.4726 1.48883 13.7405L2.9232 14.1722C2.37148 14.598 1.91227 15.118 1.57438 15.7119L0.607734 17.411C0.210469 18.1092 0.000546875 18.8912 0.000546875 19.6726V21.6146C0.000546875 22.0185 0.298828 22.4665 0.493672 22.795C0.938359 23.5447 1.52688 24.2097 2.23828 24.716V27.7399C2.23828 28.7953 3.09727 29.654 4.15312 29.654H8.775C9.83086 29.654 10.6898 28.7953 10.6898 27.7399V25.7593H16.5366C16.968 25.7593 17.3178 25.4095 17.3178 24.978C17.3178 24.5465 16.968 24.1968 16.5366 24.1968H5.59039C4.18445 24.1968 2.91625 23.5336 2.0925 22.3962H37.8905C37.2999 23.2068 36.2081 24.1968 34.3977 24.1968H23.4418C23.0103 24.1968 22.6605 24.5465 22.6605 24.978C22.6605 25.4095 23.0103 25.7593 23.4418 25.7593H29.3125V27.7399C29.3125 28.7953 30.1715 29.654 31.2273 29.654H35.8492C36.9046 29.654 37.7633 28.7953 37.7633 27.7399V24.7065C38.1173 24.4529 38.4483 24.1564 38.7514 23.8152C39.5918 22.8692 39.9324 21.9119 39.9442 21.8708C39.9784 21.7519 39.9734 21.6189 39.9734 21.4742V19.6727C39.9734 18.8912 39.7636 18.1093 39.3666 17.4115L38.3698 15.6596C38.0437 15.0865 37.6008 14.5799 37.0673 14.1599L38.5112 13.7405C39.4017 13.4726 40 12.6677 40 11.7378ZM30.7984 20.5363C30.748 20.4469 30.6482 20.2106 30.8079 19.9472L32.0355 17.9226C32.1402 17.7496 32.3311 17.6422 32.5336 17.6422H37.7001L38.0081 18.1836C38.2716 18.6467 38.4109 19.1616 38.4109 19.6726V20.8333H31.3006C30.997 20.8304 30.8484 20.6251 30.7984 20.5363ZM32.5336 16.0797C31.7879 16.0797 31.0849 16.4758 30.6991 17.113L29.4719 19.1372C29.1545 19.6604 29.0777 20.2672 29.2409 20.8334H25.2028V19.1861C25.2028 17.7169 24.0076 16.5217 22.5384 16.5217H17.2333C15.7641 16.5217 14.5689 17.7169 14.5689 19.1861V20.8334H10.7601C10.9233 20.2671 10.8463 19.6603 10.5291 19.1372L9.30148 17.1125C8.91461 16.4754 8.21148 16.0797 7.46656 16.0797H3.20352C4.05477 14.9787 5.34438 14.6304 6.64828 14.382C9.43641 13.8808 14.4336 13.5713 20.1349 13.5692H20.1952C27.0187 13.5692 32.728 14.001 34.7493 14.6707C35.5988 14.9522 36.3051 15.4457 36.7794 16.0798H32.5336V16.0797ZM16.1313 20.8333V19.1861C16.1313 18.5785 16.6256 18.0841 17.2332 18.0841H22.5383C23.1459 18.0841 23.6402 18.5785 23.6402 19.1861V20.8333H16.1313ZM1.56328 20.8333V19.6727C1.56328 19.1616 1.70242 18.6469 1.96578 18.184L2.27391 17.6422H7.46641C7.66906 17.6422 7.86047 17.75 7.96555 17.923L9.19297 19.9474C9.35258 20.2106 9.25281 20.4469 9.20242 20.5363C9.1525 20.6251 9.00367 20.8304 8.70008 20.8333H1.56328ZM15.2764 2.36092C15.3317 2.15584 15.5188 2.01263 15.7311 2.01263H24.2528C24.4652 2.01263 24.6521 2.15584 24.7074 2.36076L25.2607 4.4099C22.513 4.24888 19.7625 4.20326 17.0116 4.30498C16.248 4.33326 15.4848 4.37076 14.722 4.41615L15.2764 2.36092ZM8.9968 7.7699C8.99844 7.76662 9.00016 7.76326 9.0018 7.7599C9.42172 6.9017 10.2223 6.33896 11.1434 6.25467C15.802 5.82615 20.4671 5.69599 25.1389 5.9681C26.4089 6.04209 27.6777 6.1381 28.9445 6.25467C29.8651 6.33888 30.6663 6.90193 31.0893 7.76381L33.5859 12.795C31.3179 12.3934 28.9973 12.2569 26.6996 12.1504C24.5414 12.0501 22.2746 12.0064 20.1895 12.0064C20.172 12.0064 20.1541 12.0064 20.1367 12.0064C17.4301 12.0073 14.3992 12.0834 11.6716 12.2632C9.91922 12.3789 8.15898 12.526 6.42844 12.8337L8.9968 7.7699ZM1.5625 11.7378V10.5323C1.5625 10.2407 1.79977 10.0033 2.09148 10.0033H3.1918C3.74383 10.0033 4.19297 10.4525 4.19297 11.0045V12.9225L1.93898 12.2442C1.71383 12.1765 1.5625 11.9729 1.5625 11.7378ZM9.12734 27.7399C9.12734 27.9337 8.9693 28.0915 8.775 28.0915H4.15312C3.95883 28.0915 3.80078 27.9337 3.80078 27.7399V25.4952C4.37805 25.6755 4.98641 25.7595 5.59062 25.7595H9.12734V27.7399ZM36.2008 25.4912V27.7399C36.2008 27.9337 36.043 28.0915 35.8492 28.0915H31.2273C31.033 28.0915 30.875 27.9337 30.875 27.7399V25.7594H34.3977C35.0069 25.7594 35.6192 25.6743 36.2008 25.4912ZM38.4375 11.7378C38.4375 11.9729 38.2862 12.1765 38.0682 12.2422L35.807 12.8989V11.0045C35.807 10.4525 36.2562 10.0033 36.8082 10.0033H37.9085C38.2002 10.0033 38.4375 10.2406 38.4375 10.5323V11.7378Z" fill="#21396E"/>
<path d="M20.7867 24.6793C20.6253 24.2855 20.1585 24.0943 19.7664 24.2567C19.373 24.4195 19.1805 24.8836 19.3437 25.277C19.5068 25.67 19.9707 25.8625 20.364 25.6997C20.7564 25.5372 20.9503 25.0718 20.7867 24.6793Z" fill="#21396E"/>
</svg>
