<svg width="40" height="41" viewBox="0 0 40 41" fill="none" xmlns="http://www.w3.org/2000/svg">
<g clip-path="url(#clip0)">
<path d="M36.7009 8.52639H32.019V8.3917C32.019 5.96982 30.0486 3.99951 27.6268 3.99951C25.2049 3.99951 23.2346 5.96982 23.2346 8.3917V8.52639H17.7361C15.9256 8.52639 14.4527 9.99936 14.4527 11.8097V15.5194H9.52857C8.35389 15.5194 7.30975 16.2229 6.86858 17.3116C6.86217 17.3276 6.85623 17.3437 6.85076 17.3601L4.01006 25.9647C3.98428 25.98 3.95139 25.9981 3.91045 26.0186C3.91029 26.0187 3.91014 26.0187 3.90998 26.0187C3.74756 26.0998 3.4442 26.2233 2.92139 26.351C1.21061 26.7687 0.015686 28.2907 0.015686 30.0523V34.1179C0.015686 35.4791 1.12311 36.5866 2.48436 36.5866L5.96717 36.5867C6.3349 38.5562 8.06561 40.052 10.1401 40.052C12.2146 40.052 13.9453 38.5562 14.3131 36.5868L26.5962 36.587C26.964 38.5563 28.6946 40.052 30.769 40.052C32.8434 40.052 34.574 38.5564 34.9419 36.5871L37.1537 36.5872C38.8468 36.5872 39.9843 35.4496 39.9843 33.7566V13.4387C39.9843 9.00506 37.6881 8.52639 36.7009 8.52639ZM24.7971 8.3917C24.7971 6.83139 26.0665 5.56201 27.6268 5.56201C29.1871 5.56201 30.4565 6.83139 30.4565 8.3917V8.52639H24.7971V8.3917ZM8.32553 17.8773C8.53131 17.3933 9.001 17.0819 9.5285 17.0819H14.4526V25.9365H5.66483L8.32553 17.8773ZM10.1401 38.4895C8.66037 38.4895 7.45647 37.2857 7.45647 35.8058C7.45647 35.7876 7.45748 35.7695 7.45787 35.7512C7.45842 35.7233 7.45858 35.6954 7.45998 35.6676C7.46022 35.6633 7.46076 35.659 7.461 35.6546C7.53975 34.245 8.71131 33.1222 10.1401 33.1222C11.4331 33.1222 12.5154 34.0415 12.768 35.2607C12.7683 35.2623 12.7688 35.2638 12.7691 35.2654C12.7776 35.3067 12.785 35.3484 12.7915 35.3905C12.7919 35.3928 12.7924 35.3951 12.7928 35.3974C12.7975 35.428 12.8009 35.4588 12.8045 35.4897C12.8062 35.5037 12.8084 35.5176 12.8098 35.5316C12.8122 35.5557 12.8136 35.5801 12.8154 35.6044C12.8169 35.6255 12.8191 35.6465 12.8202 35.6677C12.8213 35.6896 12.8213 35.7118 12.8219 35.7338C12.8225 35.7578 12.8237 35.7816 12.8237 35.8058C12.8238 37.2857 11.6199 38.4895 10.1401 38.4895ZM30.769 38.4895C29.2893 38.4895 28.0854 37.2857 28.0854 35.8058C28.0854 35.7709 28.0867 35.7362 28.088 35.7016C28.0884 35.6905 28.0883 35.6791 28.0889 35.668C28.0902 35.6422 28.0927 35.6168 28.0947 35.5912C28.0963 35.5715 28.0972 35.5515 28.0993 35.5318C28.1001 35.5234 28.1015 35.5152 28.1024 35.5069C28.1115 35.4254 28.1237 35.3448 28.14 35.2656C28.1404 35.2633 28.1411 35.261 28.1416 35.2587C28.395 34.0405 29.4767 33.1223 30.769 33.1223C31.139 33.1223 31.4917 33.1975 31.8126 33.3335C32.7755 33.7415 33.4526 34.6961 33.4526 35.8059C33.4526 37.2857 32.2488 38.4895 30.769 38.4895ZM37.1537 35.0246L34.9432 35.0245C34.9406 35.0107 34.9372 34.9971 34.9345 34.9833C34.9294 34.9572 34.9238 34.9313 34.9182 34.9054C34.9095 34.8655 34.9004 34.8258 34.8907 34.7864C34.8844 34.7607 34.8778 34.7351 34.871 34.7097C34.8604 34.67 34.849 34.6306 34.8373 34.5914C34.83 34.567 34.8228 34.5426 34.8151 34.5183C34.8021 34.4774 34.7881 34.4369 34.7738 34.3965C34.7662 34.3748 34.7589 34.353 34.7508 34.3315C34.7335 34.2848 34.715 34.2386 34.696 34.1927C34.69 34.1782 34.6845 34.1633 34.6783 34.1489C34.6525 34.0881 34.6253 34.028 34.5968 33.9687C34.5932 33.9613 34.5893 33.9542 34.5857 33.9469C34.5607 33.8958 34.5348 33.8451 34.5079 33.7951C34.4979 33.7768 34.4874 33.7589 34.4772 33.7407C34.4557 33.7021 34.4339 33.6637 34.4111 33.6258C34.3987 33.6052 34.3859 33.5851 34.3732 33.5647C34.3515 33.5298 34.3294 33.4952 34.3067 33.461C34.2928 33.4401 34.2787 33.4194 34.2644 33.3988C34.2415 33.3658 34.2183 33.3331 34.1946 33.3008C34.1797 33.2805 34.1647 33.2602 34.1495 33.2401C34.1249 33.2078 34.0997 33.1759 34.0742 33.1444C34.059 33.1255 34.044 33.1066 34.0284 33.088C34.0007 33.0548 33.9722 33.0223 33.9435 32.99C33.9293 32.974 33.9154 32.9577 33.901 32.942C33.8652 32.9029 33.8285 32.8647 33.7912 32.8269C33.7832 32.8188 33.7755 32.8103 33.7674 32.8022C33.7214 32.7563 33.6743 32.7114 33.6261 32.6676C33.6159 32.6582 33.6052 32.6494 33.5948 32.6401C33.5572 32.6064 33.519 32.573 33.4801 32.5407C33.4631 32.5265 33.4455 32.5129 33.4283 32.499C33.3952 32.4724 33.3621 32.446 33.3283 32.4204C33.3085 32.4054 33.2884 32.3908 33.2683 32.3762C33.2361 32.3526 33.2036 32.3293 33.1706 32.3066C33.1494 32.292 33.1279 32.2776 33.1064 32.2633C33.0735 32.2415 33.0402 32.2203 33.0067 32.1994C32.9848 32.1857 32.9629 32.1722 32.9407 32.1589C32.9061 32.1382 32.8711 32.1183 32.8358 32.0986C32.8142 32.0865 32.7926 32.0741 32.7708 32.0624C32.7325 32.0419 32.6936 32.0223 32.6547 32.0029C32.6353 31.9932 32.6161 31.9831 32.5966 31.9738C32.5457 31.9494 32.494 31.9262 32.442 31.9038C32.434 31.9004 32.4262 31.8966 32.4182 31.8931C32.3579 31.8676 32.2968 31.8436 32.2351 31.8208C32.2175 31.8143 32.1996 31.8086 32.1819 31.8023C32.1376 31.7867 32.0933 31.7713 32.0485 31.7571C32.025 31.7497 32.0012 31.743 31.9776 31.7359C31.9378 31.7241 31.8979 31.7125 31.8577 31.7018C31.8319 31.6949 31.806 31.6887 31.78 31.6823C31.7411 31.6727 31.7022 31.6636 31.6629 31.6551C31.636 31.6494 31.609 31.6439 31.5819 31.6386C31.5427 31.6309 31.5033 31.624 31.4636 31.6174C31.4365 31.613 31.4094 31.6084 31.3822 31.6045C31.3412 31.5986 31.3 31.5936 31.2586 31.5888C31.2325 31.5858 31.2064 31.5825 31.1801 31.58C31.1346 31.5756 31.0887 31.5725 31.0428 31.5695C31.0204 31.5681 30.9982 31.5661 30.9757 31.565C30.9072 31.5617 30.8383 31.5598 30.769 31.5598C30.6997 31.5598 30.6308 31.5617 30.5622 31.565C30.5397 31.5661 30.5175 31.5681 30.4951 31.5695C30.4492 31.5725 30.4034 31.5756 30.3579 31.58C30.3315 31.5826 30.3054 31.5858 30.2792 31.5889C30.2379 31.5937 30.1968 31.5987 30.1559 31.6046C30.1286 31.6086 30.1013 31.613 30.0741 31.6176C30.0347 31.6241 29.9954 31.6311 29.9562 31.6387C29.929 31.644 29.9019 31.6495 29.8747 31.6553C29.8358 31.6637 29.797 31.6728 29.7584 31.6823C29.7322 31.6887 29.706 31.6951 29.68 31.7019C29.6401 31.7125 29.6007 31.724 29.5613 31.7357C29.5372 31.7429 29.513 31.7497 29.4891 31.7573C29.4451 31.7712 29.4018 31.7862 29.3584 31.8015C29.3398 31.8081 29.321 31.8141 29.3025 31.821C29.2411 31.8437 29.1803 31.8676 29.1203 31.893C29.1104 31.8972 29.1007 31.9019 29.0908 31.9062C29.0407 31.9278 28.991 31.9501 28.9419 31.9735C28.9212 31.9834 28.901 31.994 28.8804 32.0043C28.8428 32.0231 28.8051 32.042 28.7681 32.0619C28.7452 32.0741 28.7226 32.087 28.7 32.0998C28.6659 32.1189 28.6319 32.1382 28.5984 32.1582C28.5753 32.172 28.5525 32.1862 28.5297 32.2004C28.4972 32.2206 28.4651 32.2412 28.4332 32.2623C28.4106 32.2772 28.3882 32.2923 28.3659 32.3076C28.3343 32.3294 28.3031 32.3517 28.2721 32.3744C28.2508 32.3899 28.2294 32.4054 28.2083 32.4213C28.1762 32.4457 28.1447 32.4708 28.1133 32.496C28.0944 32.5112 28.0753 32.5261 28.0566 32.5416C28.0205 32.5717 27.9852 32.6027 27.9501 32.6339C27.9371 32.6455 27.9237 32.6566 27.9108 32.6683C27.8634 32.7115 27.817 32.7558 27.7716 32.8011C27.7601 32.8125 27.7493 32.8245 27.7379 32.8361C27.7042 32.8705 27.6708 32.9051 27.6382 32.9406C27.6219 32.9584 27.6062 32.9767 27.5903 32.9947C27.5635 33.025 27.5369 33.0553 27.5109 33.0863C27.494 33.1065 27.4776 33.1271 27.4611 33.1476C27.4371 33.1775 27.4133 33.2075 27.3901 33.238C27.3736 33.2596 27.3574 33.2815 27.3413 33.3034C27.319 33.3339 27.2971 33.3647 27.2756 33.3958C27.2601 33.4182 27.2447 33.4406 27.2297 33.4633C27.2083 33.4954 27.1877 33.5279 27.1673 33.5605C27.1533 33.5829 27.1392 33.6051 27.1257 33.6277C27.1046 33.6628 27.0844 33.6984 27.0644 33.7342C27.0527 33.7551 27.0406 33.7757 27.0292 33.7969C27.0051 33.8414 26.9822 33.8867 26.9598 33.9322C26.9535 33.945 26.9467 33.9574 26.9405 33.9703C26.9125 34.0286 26.8858 34.0876 26.8603 34.1474C26.8526 34.1656 26.8456 34.1842 26.8381 34.2026C26.8208 34.2447 26.8038 34.2869 26.7879 34.3298C26.779 34.3537 26.7709 34.3779 26.7624 34.4019C26.749 34.4398 26.7359 34.4779 26.7236 34.5163C26.7152 34.5424 26.7075 34.5688 26.6996 34.5951C26.6885 34.6323 26.6778 34.6696 26.6677 34.7072C26.6604 34.7344 26.6535 34.7617 26.6467 34.7891C26.6374 34.8267 26.6287 34.8645 26.6204 34.9026C26.6144 34.9301 26.6085 34.9577 26.603 34.9855C26.6004 34.9986 26.5972 35.0115 26.5948 35.0246L14.314 35.0244C14.3115 35.0108 14.3083 34.9975 14.3056 34.984C14.3004 34.9573 14.2946 34.9308 14.2889 34.9043C14.2804 34.8652 14.2715 34.8263 14.2619 34.7876C14.2553 34.7612 14.2486 34.7348 14.2415 34.7085C14.2312 34.6699 14.2202 34.6316 14.2088 34.5935C14.2012 34.568 14.1937 34.5426 14.1856 34.5173C14.173 34.4779 14.1596 34.439 14.1459 34.4001C14.1377 34.3769 14.1298 34.3534 14.1212 34.3303C14.1051 34.2867 14.0877 34.2437 14.0701 34.2008C14.0629 34.1832 14.0562 34.1652 14.0487 34.1477C14.0231 34.0878 13.9964 34.0286 13.9682 33.9701C13.9625 33.9583 13.9562 33.9469 13.9504 33.9352C13.9275 33.8886 13.904 33.8423 13.8794 33.7966C13.8683 33.776 13.8564 33.7558 13.8449 33.7354C13.8246 33.6992 13.8042 33.6631 13.7829 33.6276C13.7694 33.6052 13.7554 33.5833 13.7416 33.5612C13.7211 33.5283 13.7003 33.4956 13.6789 33.4633C13.6639 33.4408 13.6487 33.4185 13.6332 33.3962C13.6116 33.3651 13.5896 33.3341 13.5672 33.3035C13.5512 33.2816 13.5351 33.2598 13.5186 33.2382C13.4954 33.2077 13.4716 33.1777 13.4476 33.148C13.431 33.1274 13.4145 33.1067 13.3976 33.0865C13.3718 33.0556 13.3452 33.0254 13.3186 32.9952C13.3025 32.9771 13.2867 32.9587 13.2704 32.9408C13.2382 32.9056 13.2051 32.8713 13.1717 32.8372C13.16 32.8253 13.1488 32.813 13.1369 32.8012C13.0916 32.756 13.0453 32.7119 12.9979 32.6687C12.9848 32.6567 12.9711 32.6454 12.9578 32.6335C12.923 32.6026 12.888 32.5719 12.8522 32.542C12.8333 32.5263 12.8139 32.5112 12.7947 32.4958C12.7637 32.4708 12.7324 32.4459 12.7005 32.4218C12.6794 32.4057 12.6578 32.3901 12.6363 32.3744C12.6054 32.3519 12.5744 32.3297 12.5429 32.308C12.5205 32.2926 12.4979 32.2774 12.4752 32.2624C12.4435 32.2415 12.4115 32.221 12.3793 32.2008C12.3563 32.1865 12.3333 32.1723 12.31 32.1583C12.2767 32.1384 12.2429 32.1192 12.209 32.1002C12.1862 32.0874 12.1635 32.0744 12.1404 32.0621C12.1036 32.0423 12.0662 32.0236 12.0289 32.0049C12.0081 31.9945 11.9876 31.9837 11.9665 31.9737C11.9182 31.9505 11.8691 31.9286 11.8198 31.9072C11.8093 31.9026 11.799 31.8976 11.7883 31.893C11.7284 31.8677 11.6677 31.8438 11.6064 31.8212C11.5876 31.8142 11.5684 31.8081 11.5494 31.8014C11.5065 31.7862 11.4633 31.7712 11.4197 31.7574C11.3957 31.7498 11.3712 31.7429 11.3469 31.7357C11.3077 31.724 11.2685 31.7126 11.2289 31.7021C11.2027 31.6951 11.1764 31.6887 11.1501 31.6823C11.1115 31.6729 11.0729 31.6639 11.034 31.6555C11.0069 31.6496 10.9797 31.644 10.9524 31.6387C10.9133 31.6312 10.874 31.6241 10.8346 31.6176C10.8074 31.6132 10.7802 31.6087 10.7528 31.6047C10.7119 31.5987 10.6707 31.5937 10.6294 31.589C10.6033 31.5859 10.5772 31.5826 10.5508 31.5801C10.5053 31.5757 10.4595 31.5726 10.4136 31.5696C10.3912 31.5682 10.369 31.5662 10.3465 31.5651C10.2779 31.5618 10.2091 31.5598 10.1397 31.5598C10.0704 31.5598 10.0016 31.5618 9.93303 31.5651C9.91053 31.5662 9.88826 31.5682 9.86584 31.5696C9.81998 31.5726 9.7742 31.5757 9.72873 31.5801C9.70232 31.5826 9.67615 31.5859 9.6499 31.589C9.60873 31.5937 9.56764 31.5987 9.52678 31.6047C9.49928 31.6087 9.47201 31.6132 9.44475 31.6176C9.40537 31.6241 9.36623 31.6311 9.32725 31.6387C9.2999 31.644 9.27256 31.6495 9.24545 31.6554C9.2067 31.6637 9.16818 31.6727 9.12975 31.6822C9.10326 31.6887 9.0767 31.6951 9.05045 31.7021C9.01115 31.7126 8.97217 31.7239 8.93326 31.7355C8.90873 31.7427 8.88404 31.7498 8.85967 31.7574C8.8167 31.771 8.7742 31.7858 8.73178 31.8008C8.71217 31.8076 8.6924 31.814 8.67295 31.8212C8.61186 31.8437 8.55139 31.8675 8.4917 31.8927C8.47959 31.8979 8.46779 31.9036 8.45576 31.9088C8.40803 31.9295 8.36053 31.9508 8.31365 31.9732C8.29178 31.9837 8.27037 31.9949 8.24865 32.0058C8.21217 32.024 8.17576 32.0423 8.1399 32.0615C8.11615 32.0743 8.09279 32.0876 8.06928 32.1008C8.03615 32.1194 8.00311 32.1382 7.97053 32.1577C7.94662 32.172 7.92295 32.1866 7.89928 32.2014C7.86779 32.221 7.83654 32.2411 7.80561 32.2615C7.78217 32.2769 7.75889 32.2926 7.73576 32.3085C7.70514 32.3296 7.67498 32.3512 7.6449 32.3731C7.62264 32.3894 7.60022 32.4055 7.57826 32.4222C7.54756 32.4456 7.5174 32.4696 7.48733 32.4937C7.46709 32.51 7.44662 32.5258 7.42678 32.5425C7.39295 32.5706 7.35998 32.5997 7.32709 32.6288C7.31178 32.6423 7.29615 32.6555 7.281 32.6692C7.2342 32.7119 7.18826 32.7557 7.14342 32.8004C7.12951 32.8143 7.11623 32.8288 7.10248 32.8429C7.07131 32.8748 7.04029 32.9069 7.01014 32.9398C6.99256 32.9589 6.97569 32.9787 6.9585 32.9981C6.93303 33.0269 6.90764 33.0558 6.88303 33.0853C6.86522 33.1065 6.84787 33.1283 6.83053 33.1499C6.80748 33.1786 6.78467 33.2074 6.76233 33.2367C6.74506 33.2594 6.72818 33.2822 6.71139 33.3051C6.6899 33.3345 6.66881 33.3642 6.64803 33.3942C6.63186 33.4176 6.61576 33.441 6.60006 33.4647C6.57951 33.4956 6.55967 33.5269 6.5399 33.5583C6.52522 33.5818 6.51045 33.6051 6.49623 33.6288C6.476 33.6625 6.4567 33.6967 6.4374 33.7309C6.4249 33.7532 6.41201 33.7752 6.39983 33.7977C6.37717 33.8398 6.35569 33.8824 6.33443 33.9252C6.32678 33.9405 6.31865 33.9555 6.31123 33.971C6.28342 34.0288 6.25694 34.0873 6.2317 34.1466C6.22311 34.1667 6.21545 34.1873 6.20717 34.2076C6.19076 34.2478 6.17443 34.288 6.15928 34.3288C6.14998 34.3537 6.14154 34.379 6.13272 34.4041C6.11975 34.4411 6.10694 34.478 6.09498 34.5154C6.08639 34.5422 6.07842 34.5692 6.07037 34.5962C6.05951 34.6327 6.04897 34.6693 6.03904 34.7062C6.03162 34.7339 6.02451 34.7618 6.01756 34.7898C6.00842 34.8267 5.9999 34.8639 5.99178 34.9013C5.98569 34.9294 5.97959 34.9575 5.97404 34.9858C5.97154 34.9987 5.96842 35.0113 5.966 35.0241H2.48436C1.98467 35.0241 1.57819 34.6176 1.57819 34.1179V30.0523C1.57819 29.0131 2.28295 28.1153 3.29209 27.869C3.73733 27.7601 4.11975 27.6361 4.43201 27.499H32.8064C33.2378 27.499 33.5876 27.1493 33.5876 26.7178C33.5876 26.2864 33.2378 25.9365 32.8064 25.9365H16.0152V11.8097C16.0152 10.8609 16.7872 10.0889 17.7361 10.0889H36.7008C38.1982 10.0889 38.4217 12.1876 38.4217 13.4387V33.7565H38.4218C38.4218 34.8599 37.6272 35.0246 37.1537 35.0246Z" fill="#21396E"/>
<path d="M33.6561 16.5952C33.6562 15.5696 32.9358 14.7096 31.9746 14.4931C31.9798 14.4391 31.9839 14.3849 31.9854 14.33C31.9854 14.3299 31.9854 14.3299 31.9854 14.3299C32.0033 13.6942 31.7658 13.0899 31.3168 12.6281C30.8602 12.1585 30.2225 11.8892 29.567 11.8892C28.775 11.8892 28.0696 12.2746 27.6279 12.868C27.1866 12.2746 26.4806 11.8892 25.6868 11.8892C25.0371 11.8892 24.4038 12.155 23.9492 12.6186C23.4977 13.0789 23.2558 13.6843 23.2682 14.323C23.2693 14.3803 23.2732 14.4369 23.2782 14.4933C22.3175 14.7101 21.5975 15.5698 21.5975 16.5952C21.5975 17.4629 22.1133 18.212 22.8541 18.5533C22.3322 19.1991 22.0277 20.0163 22.0277 20.8803C22.0277 22.9206 23.6876 24.5805 25.7279 24.5805C26.4 24.5805 27.056 24.3969 27.6268 24.0554C28.1976 24.3969 28.8537 24.5805 29.5257 24.5805C31.566 24.5805 33.226 22.9206 33.226 20.8803C33.226 20.0162 32.9214 19.1991 32.3996 18.5533C33.1404 18.212 33.6561 17.4629 33.6561 16.5952ZM29.567 13.4518C29.803 13.4518 30.0325 13.5486 30.1966 13.7173C30.3489 13.874 30.4294 14.0758 30.4235 14.2859C30.41 14.7649 30.0218 15.1589 29.5579 15.1642C29.4306 15.1636 29.3086 15.1366 29.1977 15.0858C29.1837 15.0793 29.17 15.0723 29.1559 15.066C29.0857 15.0289 29.0206 14.9816 28.9625 14.9239C28.7993 14.7619 28.7099 14.5443 28.7108 14.3111C28.7127 13.8372 29.0968 13.4518 29.567 13.4518ZM25.0646 13.7127C25.2296 13.5444 25.4506 13.4517 25.6867 13.4517C26.1582 13.4517 26.5423 13.8362 26.5428 14.3088C26.5431 14.5438 26.4514 14.7636 26.2848 14.9277C26.228 14.9837 26.1645 15.0299 26.0966 15.0665C26.0711 15.0781 26.0461 15.0905 26.0209 15.1026C25.9197 15.1443 25.8108 15.1657 25.6996 15.1643C25.2293 15.1565 24.8394 14.7657 24.8303 14.2929C24.8261 14.077 24.9093 13.8711 25.0646 13.7127ZM23.16 16.5953C23.16 16.2684 23.4259 16.0026 23.7526 16.0026C24.0795 16.0026 24.3453 16.2684 24.3453 16.5953C24.3453 16.6624 24.3336 16.7266 24.313 16.7868C24.2935 16.8261 24.2746 16.8658 24.2565 16.9059C24.152 17.0748 23.9655 17.1879 23.7527 17.1879C23.4259 17.1879 23.16 16.9221 23.16 16.5953ZM29.5257 23.0182C29.0163 23.0182 28.5225 22.8354 28.1354 22.5033C27.9891 22.3778 27.808 22.3151 27.6268 22.3151C27.4457 22.3151 27.2646 22.3779 27.1182 22.5033C26.7311 22.8354 26.2374 23.0182 25.7279 23.0182C24.5492 23.0182 23.5902 22.0592 23.5902 20.8804C23.5902 19.9869 24.1536 19.18 24.992 18.8726C25.2726 18.7697 25.4699 18.5158 25.5003 18.2184C25.5228 17.9979 25.5785 17.7887 25.6612 17.5947C25.689 17.5418 25.7151 17.4879 25.7386 17.4326C25.9461 17.0414 26.2706 16.7253 26.6646 16.5278C26.6986 16.5129 26.7321 16.4972 26.7654 16.4806C27.0293 16.3651 27.3208 16.3012 27.6268 16.3012C27.9322 16.3012 28.2231 16.3649 28.4866 16.4799C28.5199 16.4964 28.5535 16.512 28.5875 16.5269C28.9822 16.7243 29.3072 17.0408 29.5151 17.4326C29.5386 17.4879 29.5646 17.5418 29.5925 17.5947C29.6752 17.7887 29.7309 17.9979 29.7534 18.2184C29.7838 18.5158 29.9811 18.7697 30.2617 18.8726C31.1001 19.1801 31.6635 19.9869 31.6635 20.8804C31.6635 22.0591 30.7045 23.0182 29.5257 23.0182ZM31.5011 17.1879C31.2882 17.1879 31.1018 17.0748 30.9972 16.9059C30.9791 16.8658 30.9602 16.8261 30.9407 16.7868C30.9201 16.7267 30.9084 16.6624 30.9084 16.5953C30.9084 16.2684 31.1743 16.0026 31.5011 16.0026C31.8279 16.0026 32.0938 16.2684 32.0938 16.5953C32.0937 16.922 31.8278 17.1879 31.5011 17.1879Z" fill="#21396E"/>
<path d="M36.7109 26.5692C36.7008 26.5192 36.6859 26.4699 36.6664 26.4231C36.6469 26.3754 36.6226 26.3301 36.5945 26.2879C36.5664 26.245 36.5336 26.2051 36.4977 26.1692C36.4617 26.1333 36.4219 26.1004 36.3789 26.0723C36.3367 26.0443 36.2915 26.02 36.2437 26.0004C36.1968 25.9809 36.1477 25.9661 36.0977 25.9559C35.9969 25.9356 35.893 25.9356 35.793 25.9559C35.743 25.9661 35.6937 25.9809 35.6461 26.0004C35.5992 26.02 35.5539 26.0443 35.5117 26.0723C35.4687 26.1004 35.4289 26.1333 35.393 26.1692C35.357 26.2051 35.3241 26.245 35.2953 26.2879C35.2672 26.3301 35.2429 26.3754 35.2242 26.4231C35.2047 26.47 35.1891 26.5192 35.1797 26.5692C35.1695 26.6192 35.1641 26.6708 35.1641 26.7215C35.1641 26.7722 35.1695 26.8239 35.1797 26.8747C35.1891 26.9239 35.2047 26.9731 35.2242 27.0208C35.2437 27.0676 35.268 27.1129 35.2961 27.1551C35.3241 27.1981 35.357 27.2379 35.393 27.2739C35.4289 27.3098 35.4687 27.3426 35.5117 27.3715C35.5539 27.3997 35.5992 27.4231 35.6461 27.4426C35.6937 27.4622 35.743 27.4778 35.793 27.4872C35.843 27.4973 35.8946 27.5028 35.9453 27.5028C35.9961 27.5028 36.0477 27.4973 36.0977 27.4872C36.1477 27.4778 36.1969 27.4622 36.2437 27.4426C36.2914 27.4231 36.3367 27.3997 36.3789 27.3715C36.422 27.3426 36.4618 27.3098 36.4977 27.2739C36.5336 27.2379 36.5664 27.1981 36.5945 27.1551C36.6226 27.1129 36.6469 27.0676 36.6664 27.0208C36.6859 26.9731 36.7007 26.9239 36.7109 26.8747C36.7211 26.8239 36.7265 26.7722 36.7265 26.7215C36.7265 26.6708 36.7211 26.6192 36.7109 26.5692Z" fill="#21396E"/>
<path d="M27.6268 0.052002C27.1954 0.052002 26.8456 0.401768 26.8456 0.833252V2.14106C26.8456 2.57255 27.1954 2.92231 27.6268 2.92231C28.0583 2.92231 28.4081 2.57247 28.4081 2.14106V0.833252C28.4081 0.401768 28.0583 0.052002 27.6268 0.052002Z" fill="#21396E"/>
<path d="M24.3354 3.08974L23.2449 2.23357C22.9053 1.967 22.4144 2.0263 22.148 2.3656C21.8816 2.70497 21.9407 3.19607 22.28 3.46247L23.3705 4.31864C23.5136 4.43099 23.6836 4.48544 23.8524 4.48544C24.0841 4.48544 24.3133 4.38286 24.4674 4.18669C24.7339 3.84724 24.6748 3.35614 24.3354 3.08974Z" fill="#21396E"/>
<path d="M33.1055 2.36553C32.8391 2.02615 32.3481 1.96701 32.0086 2.2335L30.9181 3.08967C30.5787 3.35607 30.5196 3.84717 30.7861 4.18662C30.9401 4.38303 31.1694 4.48545 31.4011 4.48545C31.5698 4.48545 31.7399 4.431 31.883 4.31865L32.9735 3.46248C33.3129 3.19607 33.372 2.70498 33.1055 2.36553Z" fill="#21396E"/>
</g>
<defs>
<clipPath id="clip0">
<rect width="40" height="40" fill="white" transform="translate(0 0.052002)"/>
</clipPath>
</defs>
</svg>
