<svg width="41" height="41" viewBox="0 0 41 41" fill="none" xmlns="http://www.w3.org/2000/svg">
<g clip-path="url(#clip0)">
<path d="M7.56317 11.8061C7.08867 11.8061 6.7052 12.1833 6.7052 12.65C6.7052 13.1158 7.08875 13.4939 7.56317 13.4939C8.03679 13.4939 8.42114 13.1158 8.42114 12.65C8.42114 12.1833 8.03679 11.8061 7.56317 11.8061Z" fill="#21396E"/>
<path d="M7.56309 9.43466C5.76049 9.43466 4.29419 10.8769 4.29419 12.65C4.29419 14.423 5.76049 15.8653 7.56309 15.8653C9.36569 15.8653 10.832 14.423 10.832 12.65C10.832 10.8769 9.36569 9.43466 7.56309 9.43466ZM7.56309 14.3463C6.61155 14.3463 5.83857 13.5851 5.83857 12.6501C5.83857 11.7141 6.61163 10.9538 7.56309 10.9538C8.51375 10.9538 9.28761 11.7142 9.28761 12.6501C9.28761 13.5851 8.51375 14.3463 7.56309 14.3463Z" fill="#21396E"/>
<path d="M31.8225 11.7099C29.7822 9.6777 27.0641 8.55872 24.1685 8.55872H22.0339C21.5594 8.55872 21.1759 8.93676 21.1759 9.40262C21.1759 9.86848 21.5595 10.2465 22.0339 10.2465H24.1686C26.6018 10.2465 28.8866 11.1875 30.6018 12.8965C30.769 13.0636 30.9904 13.1471 31.2118 13.1471C31.4297 13.1471 31.6476 13.0661 31.8149 12.904C32.152 12.5766 32.1555 12.0415 31.8225 11.7099Z" fill="#21396E"/>
<path d="M39.8087 18.2932H37.6415C37.1944 11.3646 31.3233 5.8623 24.1686 5.8623H20.7237C19.1261 5.8623 17.5775 6.1298 16.1043 6.65895V4.85809C16.1043 3.83949 15.2618 3.01074 14.2262 3.01074C14.1456 3.01074 14.0649 3.01668 13.9782 3.02762C11.2473 3.33395 8.76772 4.61754 6.95734 6.65309C3.56834 7.14512 0 11.1664 0 14.6231C0 16.2139 0.722389 17.4266 1.85327 18.2933H1.43112C0.957494 18.2933 0.573146 18.6706 0.573146 19.1372V23.1214C0.573146 23.5872 0.957494 23.9653 1.43112 23.9653H10.3927L8.42539 25.9004C6.60992 25.5907 4.72837 26.1654 3.41306 27.4591C2.33198 28.5224 1.74342 29.9629 1.74342 31.4347C1.74342 31.9166 1.80689 32.4018 1.93643 32.8786C2.01538 33.1707 2.24699 33.3985 2.54389 33.4761C3.02776 33.6036 3.52116 33.6652 4.01019 33.6652C5.50652 33.6652 6.97108 33.0872 8.05303 32.0229C9.36747 30.73 9.95174 28.8793 9.63856 27.0936L12.8191 23.9652H31.7411C31.5137 25.3627 31.0555 26.7139 30.3709 27.9991C29.2812 30.0456 27.6648 31.7799 25.6957 33.0136C23.7858 34.2111 21.5799 34.9218 19.3183 35.0669C18.8919 35.0947 18.5522 35.4256 18.5187 35.8442C18.4851 36.2628 18.7701 36.6408 19.1862 36.7329C20.2878 36.9759 21.3946 37.0932 22.4894 37.0932C28.0371 37.0932 33.2785 34.0796 35.9348 29.0911C36.7868 27.4902 37.3359 25.7467 37.5573 23.9652H39.8086C40.2822 23.9652 40.6666 23.5871 40.6666 23.1213V19.1371C40.6667 18.6705 40.2823 18.2932 39.8087 18.2932ZM6.83986 30.8297C5.9587 31.6964 4.71376 32.1023 3.49376 31.9445C3.33244 30.7444 3.74515 29.5191 4.62631 28.6524C5.50747 27.7857 6.75329 27.3806 7.97241 27.5384C8.13278 28.7384 7.72015 29.9629 6.83986 30.8297ZM13.6128 22.2774H2.28909V19.9811L13.7638 19.9861L13.5553 20.7144C13.406 21.236 13.4283 21.7778 13.6128 22.2774ZM24.2663 22.2774H18.4998C18.5213 22.22 19.1648 19.9861 19.1648 19.9861H24.4174L24.2089 20.7144C24.0587 21.236 24.081 21.7778 24.2663 22.2774ZM29.1525 22.2774C29.174 22.22 29.8184 19.9861 29.8184 19.9861H31.4683C31.7043 19.9861 31.8973 20.1752 31.8973 20.4081C31.8973 20.4081 31.9033 22.2326 31.9016 22.2774H29.1525ZM35.9538 22.0225C35.9538 22.0293 35.9529 22.0352 35.9529 22.0419C35.9761 24.2082 35.4441 26.3746 34.4146 28.308C32.5502 31.8086 29.2513 34.2129 25.5182 35.0644C25.8932 34.8711 26.2603 34.6618 26.6181 34.4374C28.8394 33.0449 30.6626 31.0896 31.8912 28.7823C33.0143 26.6717 33.5977 24.404 33.6243 22.0419C33.6252 21.9946 33.6132 20.4081 33.6132 20.4081C33.6132 19.2443 32.6506 18.2983 31.4683 18.2983H30.3032L30.4259 17.8696C30.7871 16.6089 30.1282 15.2907 28.8918 14.8029C28.842 14.7835 27.6332 14.3227 27.6332 14.3227C27.1939 14.1489 26.6937 14.3589 26.5178 14.7919C26.341 15.224 26.5546 15.7152 26.9948 15.889C26.9948 15.889 28.293 16.3971 28.3341 16.4064C28.7013 16.5946 28.8883 17.0114 28.7743 17.4114L27.5594 21.6446C27.453 22.0176 27.1038 22.2775 26.7109 22.2775C26.6302 22.2775 26.5495 22.2666 26.4698 22.2446C26.2433 22.1814 26.0546 22.0354 25.9395 21.8329C25.8245 21.6303 25.7963 21.3957 25.8606 21.1729L26.6499 18.4209C26.7786 17.9728 26.5135 17.5061 26.0571 17.3804C25.6006 17.2538 25.1271 17.5146 24.9983 17.9626L24.9022 18.2985H19.6496L19.7723 17.8698C20.1344 16.609 19.4746 15.2908 18.2392 14.803C18.1886 14.7836 16.9797 14.3229 16.9797 14.3229C16.5404 14.149 16.041 14.3591 15.8643 14.7921C15.6884 15.2242 15.9011 15.7154 16.3413 15.8892C16.3413 15.8892 17.6403 16.3972 17.6815 16.4065C18.0478 16.5947 18.2357 17.0116 18.1208 17.4116L16.9068 21.6447C16.7995 22.0178 16.4512 22.2777 16.0583 22.2777C15.9776 22.2777 15.8969 22.2668 15.8172 22.2448C15.5898 22.1815 15.4019 22.0355 15.2869 21.833C15.1711 21.6305 15.1436 21.3958 15.2071 21.1731L15.9965 18.4211C16.1251 17.9729 15.86 17.5062 15.4036 17.3805C14.9471 17.2539 14.4735 17.5147 14.3449 17.9628L14.2487 18.2986L7.42953 18.2936C2.9311 18.1779 1.71626 15.9525 1.71626 14.6234C1.71626 13.36 2.42237 11.825 3.60472 10.5161C4.78699 9.20879 6.22415 8.37926 7.44931 8.29738C7.68529 8.28137 7.90403 8.17082 8.05415 7.99106C9.59853 6.13949 11.7735 4.97238 14.1793 4.70402C14.1854 4.70316 14.1904 4.7023 14.1956 4.7023C14.2136 4.6998 14.3886 4.77066 14.3886 4.8584V7.93113C14.3886 8.22145 14.5405 8.49152 14.7901 8.6459C15.0398 8.80035 15.3529 8.81809 15.6189 8.69145C17.2173 7.93441 18.935 7.55051 20.724 7.55051H24.1688C30.6671 7.55051 35.954 12.7507 35.954 19.1425V22.0225H35.9538ZM38.9507 22.2774H37.6672C37.6681 22.2031 37.6697 19.9811 37.6697 19.9811H38.9507V22.2774Z" fill="#21396E"/>
<path d="M7.56317 11.8061C7.08867 11.8061 6.7052 12.1833 6.7052 12.65C6.7052 13.1158 7.08875 13.4939 7.56317 13.4939C8.03679 13.4939 8.42114 13.1158 8.42114 12.65C8.42114 12.1833 8.03679 11.8061 7.56317 11.8061Z" fill="#21396E"/>
<path d="M7.56309 9.43466C5.76049 9.43466 4.29419 10.8769 4.29419 12.65C4.29419 14.423 5.76049 15.8653 7.56309 15.8653C9.36569 15.8653 10.832 14.423 10.832 12.65C10.832 10.8769 9.36569 9.43466 7.56309 9.43466ZM7.56309 14.3463C6.61155 14.3463 5.83857 13.5851 5.83857 12.6501C5.83857 11.7141 6.61163 10.9538 7.56309 10.9538C8.51375 10.9538 9.28761 11.7142 9.28761 12.6501C9.28761 13.5851 8.51375 14.3463 7.56309 14.3463Z" fill="#21396E"/>
<path d="M31.8225 11.7099C29.7822 9.6777 27.0641 8.55872 24.1685 8.55872H22.0339C21.5594 8.55872 21.1759 8.93676 21.1759 9.40262C21.1759 9.86848 21.5595 10.2465 22.0339 10.2465H24.1686C26.6018 10.2465 28.8866 11.1875 30.6018 12.8965C30.769 13.0636 30.9904 13.1471 31.2118 13.1471C31.4297 13.1471 31.6476 13.0661 31.8149 12.904C32.152 12.5766 32.1555 12.0415 31.8225 11.7099Z" fill="#21396E"/>
<path d="M31.8225 11.7099C29.7822 9.6777 27.0641 8.55872 24.1685 8.55872H22.0339C21.5594 8.55872 21.1759 8.93676 21.1759 9.40262C21.1759 9.86848 21.5595 10.2465 22.0339 10.2465H24.1686C26.6018 10.2465 28.8866 11.1875 30.6018 12.8965C30.769 13.0636 30.9904 13.1471 31.2118 13.1471C31.4297 13.1471 31.6476 13.0661 31.8149 12.904C32.152 12.5766 32.1555 12.0415 31.8225 11.7099Z" fill="#21396E"/>
<path d="M7.56317 11.8061C7.08867 11.8061 6.7052 12.1833 6.7052 12.65C6.7052 13.1158 7.08875 13.4939 7.56317 13.4939C8.03679 13.4939 8.42114 13.1158 8.42114 12.65C8.42114 12.1833 8.03679 11.8061 7.56317 11.8061Z" fill="#21396E"/>
<path d="M7.56317 11.8061C7.08867 11.8061 6.7052 12.1833 6.7052 12.65C6.7052 13.1158 7.08875 13.4939 7.56317 13.4939C8.03679 13.4939 8.42114 13.1158 8.42114 12.65C8.42114 12.1833 8.03679 11.8061 7.56317 11.8061Z" fill="#21396E"/>
<path d="M7.56309 9.43466C5.76049 9.43466 4.29419 10.8769 4.29419 12.65C4.29419 14.423 5.76049 15.8653 7.56309 15.8653C9.36569 15.8653 10.832 14.423 10.832 12.65C10.832 10.8769 9.36569 9.43466 7.56309 9.43466ZM7.56309 14.3463C6.61155 14.3463 5.83857 13.5851 5.83857 12.6501C5.83857 11.7141 6.61163 10.9538 7.56309 10.9538C8.51375 10.9538 9.28761 11.7142 9.28761 12.6501C9.28761 13.5851 8.51375 14.3463 7.56309 14.3463Z" fill="#21396E"/>
<path d="M7.56317 11.8061C7.08867 11.8061 6.7052 12.1833 6.7052 12.65C6.7052 13.1158 7.08875 13.4939 7.56317 13.4939C8.03679 13.4939 8.42114 13.1158 8.42114 12.65C8.42114 12.1833 8.03679 11.8061 7.56317 11.8061Z" fill="#21396E"/>
</g>
<defs>
<clipPath id="clip0">
<rect width="40.6667" height="40" fill="white" transform="translate(0 0.052002)"/>
</clipPath>
</defs>
</svg>
