<svg width="40" height="41" viewBox="0 0 40 41" fill="none" xmlns="http://www.w3.org/2000/svg">
<g clip-path="url(#clip0)">
<path d="M38.9802 23.0957C38.5488 23.0085 38.1284 23.2875 38.0412 23.7189C36.3152 32.2595 28.7277 38.4584 20 38.4584C9.8507 38.4584 1.59359 30.2014 1.59359 20.052C1.59359 9.90263 9.8507 1.6456 20 1.6456C24.788 1.6456 29.3782 3.51825 32.7983 6.82489H30.7388C30.2987 6.82489 29.942 7.18161 29.942 7.62169C29.942 8.06177 30.2987 8.41849 30.7388 8.41849H34.7411C35.1812 8.41849 35.5379 8.06177 35.5379 7.62169V3.6195C35.5379 3.17942 35.1812 2.82271 34.7411 2.82271C34.301 2.82271 33.9443 3.17942 33.9443 3.6195V5.717C30.2242 2.10106 25.2205 0.052002 20 0.052002C14.6578 0.052002 9.63539 2.13231 5.85781 5.90981C2.08031 9.68739 0 14.7098 0 20.052C0 25.3942 2.08031 30.4166 5.85781 34.1942C9.63539 37.9717 14.6578 40.052 20 40.052C24.6436 40.052 29.1681 38.4247 32.7402 35.4698C36.2648 32.5541 38.7023 28.4929 39.6034 24.0345C39.6905 23.6032 39.4115 23.1829 38.9802 23.0957Z" fill="#21396E"/>
<path d="M39.2032 19.2552C38.7631 19.2552 38.4064 19.6119 38.4064 20.052C38.4064 20.2302 38.4038 20.4102 38.3987 20.587C38.3861 21.0269 38.7325 21.3937 39.1724 21.4063C39.1802 21.4064 39.1878 21.4066 39.1956 21.4066C39.625 21.4066 39.9793 21.0647 39.9917 20.6326C39.9971 20.4407 40 20.2453 40 20.0521C40 19.6119 39.6432 19.2552 39.2032 19.2552Z" fill="#21396E"/>
<path d="M19.442 27.4283H11.3464V25.8548C11.3464 22.4795 19.8735 20.7538 19.8735 15.2975C19.8735 12.5567 17.7418 10.4249 14.8232 10.4249C12.133 10.4249 10.0521 12.2014 10.0521 14.6377C10.0521 15.399 10.3058 15.6783 10.8134 15.6783C11.3971 15.6783 11.7016 15.3229 11.7016 14.993C11.7016 12.9882 13.0213 11.9983 14.7724 11.9983C17.1072 11.9983 18.1985 13.7494 18.1985 15.3483C18.1985 19.7894 9.62061 21.6421 9.62061 25.8549V28.3166C9.62061 28.7227 10.0774 28.9765 10.4073 28.9765H19.442C19.7719 28.9765 20.0511 28.5958 20.0511 28.1897C20.0511 27.7836 19.7719 27.4283 19.442 27.4283Z" fill="#21396E"/>
<path d="M30.3545 23.0124H28.9588V18.1143C28.9588 17.6828 28.5273 17.4799 28.1213 17.4799C27.6898 17.4799 27.2838 17.6829 27.2838 18.1143V23.0124H22.3097L28.1721 11.44C28.2229 11.313 28.2483 11.2115 28.2483 11.11C28.2483 10.7039 27.766 10.4248 27.4362 10.4248C27.1317 10.4248 26.8271 10.5771 26.6494 10.9324L20.2795 23.4946C20.2034 23.6216 20.178 23.7738 20.178 23.9261C20.178 24.3068 20.4064 24.6114 20.8378 24.6114H27.2839V28.3165C27.2839 28.7479 27.69 28.9764 28.1213 28.9764C28.5274 28.9764 28.9588 28.7479 28.9588 28.3165V24.6114H30.3546C30.7352 24.6114 30.9891 24.2053 30.9891 23.7993C30.9889 23.4185 30.7859 23.0124 30.3545 23.0124Z" fill="#21396E"/>
</g>
<defs>
<clipPath id="clip0">
<rect width="40" height="40" fill="white" transform="translate(0 0.052002)"/>
</clipPath>
</defs>
</svg>
