<svg width="40" height="41" viewBox="0 0 40 41" fill="none" xmlns="http://www.w3.org/2000/svg">
<g clip-path="url(#clip0)">
<path d="M39.9774 39.0912C39.895 38.3375 39.4077 34.5999 37.5884 31.4619C36.822 30.1514 35.7989 28.9846 34.5475 27.9937C33.5044 27.1399 32.354 26.5776 31.2878 26.2072V23.7787C31.2878 23.3474 30.9381 22.9977 30.5069 22.9977C30.0756 22.9977 29.7259 23.3474 29.7259 23.7787V25.7723C29.3663 25.6955 29.0344 25.6396 28.7412 25.5992V25.3235C28.7412 24.8922 28.3915 24.5426 27.9602 24.5426C27.529 24.5426 27.1793 24.8922 27.1793 25.3235V25.477C26.696 25.454 26.2122 25.4497 25.7285 25.4493L25.7291 22.3456C26.8515 21.2539 27.6509 19.8137 27.9964 18.2885C28.1688 17.528 28.2079 16.757 28.2114 16.0233C28.2148 15.3023 28.2228 14.5816 28.2148 13.8604C28.2108 13.4971 27.9567 13.1846 27.6019 13.1064C27.601 13.1063 27.5976 13.1055 27.5919 13.1041C27.0472 12.9798 26.5023 12.7369 26.0394 12.4273C25.425 12.0165 24.9352 11.4092 24.9007 10.645L26.3574 5.73373C26.8156 5.83838 27.7011 6.28273 28.7589 8.0374C29.6609 9.53343 29.726 11.415 29.726 14.3361V16.9067C29.726 17.338 30.0757 17.6877 30.5069 17.6877C30.9382 17.6877 31.2879 17.338 31.2879 16.9067V14.336C31.2879 11.2377 31.2049 9.06932 30.0965 7.23085C28.6486 4.82895 27.2551 4.24591 26.3943 4.15376C26.1422 3.80257 25.7789 3.57548 25.4304 3.33292C23.4982 1.98761 20.7171 1.91593 19.2309 1.99285C16.6356 2.12842 14.235 2.99673 12.4408 4.41795C11.5953 1.8843 9.20255 0.052002 6.38832 0.052002C2.87038 0.052002 0.00835453 2.91403 0.00835453 6.43196C0.00835453 9.94989 2.87038 12.8119 6.38832 12.8119C7.15808 12.8119 7.90691 12.675 8.60662 12.416C8.58897 12.6496 8.57906 12.876 8.57906 13.0904V26.2877C7.53425 26.652 6.45735 27.1803 5.51828 27.9474C4.27863 28.8907 3.20462 30.1058 2.41042 31.4644C0.592802 34.5996 0.10519 38.339 0.0228798 39.0916C0.0127277 39.1645 0.00515272 39.233 0.00960402 39.311C0.0320948 39.7225 0.374064 40.0519 0.790924 40.0519H39.2111C39.6378 40.0519 39.9845 39.7097 39.9919 39.2847C39.9935 39.2172 39.9865 39.1559 39.9774 39.0912ZM19.9998 33.4714C19.9998 33.4714 17.9378 30.9553 17.8374 30.8335C16.4647 29.1687 15.8382 28.4088 15.8331 26.3286V26.224V23.5308C17.0864 24.2714 18.5212 24.67 19.9994 24.67C21.4775 24.67 22.9135 24.2715 24.1669 23.5308L24.1663 26.2295V26.3013C24.1663 28.4002 23.5335 29.1686 22.1467 30.8519C22.0512 30.9681 19.9998 33.4714 19.9998 33.4714ZM18.2686 14.3803C19.8889 14.3394 21.4788 13.8469 22.8116 12.9184C23.1339 12.6938 23.4395 12.4469 23.7275 12.1798C24.0959 12.8833 24.696 13.4371 25.3681 13.847C25.836 14.1324 26.3036 14.327 26.6577 14.4511C26.6601 14.951 26.6573 15.3578 26.6492 15.6847C26.6178 16.8139 26.5872 17.8806 26.1576 18.9445C25.7793 19.8814 25.1817 20.7804 24.405 21.4344C23.191 22.5137 21.6264 23.1082 19.9994 23.1082C18.3632 23.1082 16.7915 22.5072 15.5729 21.4157C15.5574 21.4018 15.5426 21.3872 15.5271 21.3731C14.5333 20.4671 13.8231 19.2518 13.5269 17.9486C13.3437 17.1118 13.3577 16.2663 13.3473 15.4155C13.3426 15.0392 13.3407 14.6944 13.3416 14.3835H18.0314C18.1113 14.3836 18.1903 14.3824 18.2686 14.3803ZM1.57021 6.43196C1.57021 3.77524 3.73159 1.61386 6.38832 1.61386C8.92704 1.61386 11.012 3.58797 11.1923 6.08156C11.2218 6.48952 11.1891 6.88678 11.1286 7.29028C11.0933 7.52558 11.1554 7.73752 11.295 7.92705C11.5159 8.22701 12.1152 9.03262 12.1923 9.13664C11.8695 9.13664 10.9302 9.13484 10.7834 9.13664C10.4755 9.14038 10.2751 9.29157 10.0853 9.51851C9.80535 9.85314 9.4833 10.1351 9.13203 10.3921C8.3358 10.946 7.38525 11.2501 6.38832 11.2501C3.73159 11.2501 1.57021 9.08861 1.57021 6.43196ZM10.1409 13.0904C10.1409 12.6101 10.1961 12.0553 10.3013 11.4714C10.5993 11.2391 10.8775 10.9798 11.13 10.6986H13.7441C14.3703 10.6986 14.7472 9.95903 14.3713 9.45221L12.7181 7.22367C12.7514 6.95854 12.7682 6.69342 12.7682 6.43196C12.7682 6.42103 12.7674 6.41025 12.7673 6.3994C12.767 6.33731 12.7662 6.27515 12.7641 6.21307C14.3365 4.65386 16.7017 3.68903 19.3118 3.55275C21.5005 3.43944 23.4055 3.82639 24.5373 4.61451C24.6866 4.71868 24.8415 4.81442 24.9845 4.92758L23.3978 10.2186C22.4857 11.4874 21.0078 12.3583 19.4918 12.6734C19.0122 12.7731 18.5212 12.8218 18.0313 12.8218H12.5702C12.1463 12.8218 11.7998 13.16 11.7895 13.5837C11.7696 14.4003 11.776 15.219 11.784 16.0357C11.7914 16.7923 11.8357 17.5592 12.0049 18.2988C12.3571 19.843 13.1377 21.2318 14.2712 22.3366V25.4425C13.7374 25.4421 13.2001 25.4687 12.667 25.4973V25.3235C12.667 24.8922 12.3174 24.5426 11.8861 24.5426C11.4548 24.5426 11.1051 24.8922 11.1051 25.3235V25.664C10.8032 25.7115 10.4794 25.7713 10.1408 25.8466V13.0904H10.1409ZM3.76025 32.2503C4.45302 31.0652 5.39146 30.0045 6.47414 29.1827C7.84428 28.1417 9.41637 27.5453 11.1053 27.2501V30.2668C9.79137 30.6131 8.81958 31.8112 8.81958 33.2324C8.81958 34.9233 10.1953 36.299 11.8862 36.299C13.5772 36.299 14.9528 34.9233 14.9528 33.2324C14.9528 31.8112 13.981 30.6131 12.6671 30.2668V27.0631C13.2075 27.0289 13.7538 27.0039 14.2951 27.0044C14.4492 29.1792 15.3414 30.2613 16.6325 31.8272C16.7318 31.9477 19.1703 34.9233 19.1703 34.9233V38.4901H1.68275C1.89555 37.1706 2.45821 34.496 3.76025 32.2503ZM11.8861 31.7276C12.7159 31.7276 13.3909 32.4026 13.3909 33.2325C13.3909 34.0622 12.7159 34.7372 11.8861 34.7372C11.0564 34.7372 10.3814 34.0622 10.3814 33.2325C10.3814 32.4026 11.0564 31.7276 11.8861 31.7276ZM20.732 38.4901V35.0619C20.7387 35.0473 20.7459 35.033 20.7518 35.0181C20.7518 35.0181 23.2576 31.9601 23.3522 31.8451C24.6489 30.2711 25.5468 29.181 25.7037 27.0111L25.9059 27.0113C26.3989 27.012 26.8093 27.0216 27.1792 27.0407V28.9898L26.7419 29.405C25.232 30.8384 24.2161 31.9354 23.8654 34.0395C23.8584 34.082 23.8548 34.1249 23.8548 34.1679V35.1856C23.8548 36.0027 24.3723 36.7352 25.1424 37.0082L26.3047 37.4201C26.3909 37.4507 26.4789 37.4653 26.5656 37.4653C26.887 37.4653 27.1881 37.2652 27.3017 36.945C27.4458 36.5384 27.233 36.0921 26.8265 35.9481L25.6642 35.5361C25.5162 35.4836 25.4167 35.3428 25.4167 35.1857V34.2344C25.703 32.6115 26.4801 31.8072 27.8172 30.5377L27.9601 30.4021L28.103 30.5377C29.4401 31.8073 30.2171 32.6116 30.5035 34.2345V35.1858C30.5035 35.3429 30.404 35.4837 30.2559 35.5362L29.0937 35.9481C28.6872 36.0922 28.4744 36.5386 28.6185 36.9451C28.7627 37.3515 29.2088 37.5644 29.6155 37.4202L30.7777 37.0083C31.5478 36.7353 32.0654 36.0029 32.0654 35.1858V34.1681C32.0654 34.1251 32.0618 34.0821 32.0547 34.0397C31.7041 31.9356 30.6882 30.8385 29.1783 29.405L28.7409 28.9899V27.1824C30.0057 27.3824 31.9624 27.8946 33.5625 29.2061C33.566 29.209 33.5695 29.2118 33.5731 29.2146C34.6737 30.0852 35.571 31.1067 36.2386 32.2479C37.5421 34.4964 38.1048 37.1709 38.3175 38.4903H20.732V38.4901Z" fill="#21396E"/>
<path d="M19.1154 19.0111H20.7865C21.2177 19.0111 21.5674 18.6615 21.5674 18.2302C21.5674 17.7989 21.2177 17.4492 20.7865 17.4492H20.2601L20.6781 16.3822C20.8355 15.9807 20.6374 15.5276 20.2359 15.3703C19.8343 15.213 19.3812 15.411 19.2239 15.8126L18.3884 17.9454C18.2942 18.1858 18.3249 18.4572 18.4704 18.6704C18.6158 18.8835 18.8573 19.0111 19.1154 19.0111Z" fill="#21396E"/>
<path d="M31.1556 19.9649C30.9225 19.6084 30.4249 19.5162 30.0733 19.7494C29.7186 19.9846 29.6224 20.4786 29.8577 20.8318C30.0934 21.1854 30.5864 21.2845 30.94 21.0481C31.2938 20.8116 31.3916 20.3186 31.1556 19.9649Z" fill="#21396E"/>
<path d="M4.11119 5.6942C4.82496 5.6942 5.15787 4.77357 4.61309 4.31485C4.06824 3.85605 3.21679 4.34788 3.34236 5.04908C3.40827 5.41682 3.73681 5.6942 4.11119 5.6942Z" fill="#21396E"/>
<path d="M8.42658 5.56223C8.70428 5.74723 9.0764 5.73278 9.33988 5.52849C9.59759 5.32865 9.70301 4.97685 9.60056 4.66791C9.49583 4.35218 9.19275 4.13196 8.85961 4.13196C8.53404 4.13196 8.23463 4.34351 8.12468 4.64979C8.00566 4.98114 8.13108 5.36856 8.42658 5.56223Z" fill="#21396E"/>
<path d="M5.76435 3.89654C5.92554 4.28966 6.39238 4.48247 6.78425 4.31902C7.1769 4.15518 7.36987 3.69318 7.20673 3.29913C7.04391 2.90601 6.57925 2.71413 6.18684 2.87742C5.79481 3.04048 5.60051 3.50318 5.76435 3.89654Z" fill="#21396E"/>
<path d="M9.47702 8.00258C9.47702 7.54269 9.25578 7.10545 8.88523 6.83298L7.72867 5.98271C6.9889 5.43879 5.99016 5.43231 5.24328 5.96638L4.04713 6.82174C3.6669 7.09366 3.43996 7.53512 3.43988 8.00258C3.4398 8.47005 3.66682 8.9115 4.04674 9.18327L4.07564 9.20388C4.79058 9.71539 5.62484 9.97076 6.4588 9.97076C7.31064 9.97076 8.16216 9.70423 8.88554 9.17218C9.25593 8.89971 9.47709 8.46247 9.47702 8.00258ZM5.08319 8.00102L6.15189 7.2368C6.34767 7.09686 6.6096 7.0985 6.8035 7.2411L7.83574 8C6.99795 8.54337 5.92293 8.54478 5.08319 8.00102Z" fill="#21396E"/>
</g>
<defs>
<clipPath id="clip0">
<rect width="40" height="40" fill="white" transform="translate(0 0.052002)"/>
</clipPath>
</defs>
</svg>
