<svg width="40" height="41" viewBox="0 0 40 41" fill="none" xmlns="http://www.w3.org/2000/svg">
<g clip-path="url(#clip0)">
<path d="M20.736 35.9067C20.6103 35.6049 20.2997 35.4076 19.9727 35.4254C19.6476 35.443 19.3618 35.6679 19.2673 35.9791C19.1742 36.2853 19.2828 36.6312 19.5387 36.8254C19.8031 37.0261 20.171 37.0383 20.4477 36.8551C20.7556 36.6512 20.8756 36.2471 20.736 35.9067Z" fill="#21396E"/>
<path d="M39.2188 19.1585C39.6502 19.1585 40 18.8087 40 18.3773V14.2753C40 13.8438 39.6502 13.4941 39.2188 13.4941H36.0282V8.33382H36.3061C36.7375 8.33382 37.0873 7.98405 37.0873 7.55257V3.89819C37.0873 3.46671 36.7375 3.11694 36.3061 3.11694H27.6866C27.2552 3.11694 26.9053 3.46671 26.9053 3.89819V7.55249C26.9053 7.98397 27.2552 8.33374 27.6866 8.33374H27.9644V13.494H24.032V8.33374H24.3098C24.7412 8.33374 25.0911 7.98397 25.0911 7.55249V3.89819C25.0911 3.46671 24.7412 3.11694 24.3098 3.11694H15.6903C15.2588 3.11694 14.9091 3.46671 14.9091 3.89819V7.55249C14.9091 7.98397 15.2588 8.33374 15.6903 8.33374H15.9681V13.494H12.0358V8.33374H12.3136C12.7451 8.33374 13.0948 7.98397 13.0948 7.55249V3.89819C13.0948 3.46671 12.7451 3.11694 12.3136 3.11694H3.69398C3.2625 3.11694 2.91273 3.46671 2.91273 3.89819V7.55249C2.91273 7.98397 3.2625 8.33374 3.69398 8.33374H3.9718V13.494H0.78125C0.349766 13.494 0 13.8437 0 14.2752V18.3772C0 18.8087 0.349766 19.1584 0.78125 19.1584H0.884297V31.0433C0.354531 31.3663 0 31.9497 0 32.6143V36.2059C0 36.6373 0.349766 36.9871 0.78125 36.9871H16.4683C16.8998 36.9871 17.2495 36.6373 17.2495 36.2059C17.2495 35.7744 16.8998 35.4246 16.4683 35.4246H1.5625V32.6143C1.5625 32.4621 1.68633 32.3383 1.83852 32.3383H38.1615C38.3137 32.3383 38.4375 32.4621 38.4375 32.6143V35.4246H23.5317C23.1003 35.4246 22.7505 35.7744 22.7505 36.2059C22.7505 36.6373 23.1003 36.9871 23.5317 36.9871H39.2188C39.6502 36.9871 40 36.6373 40 36.2059V32.6143C40 31.9497 39.6455 31.3663 39.1157 31.0433V19.1585H39.2188ZM28.4678 4.67944H35.5248V6.77124H28.4678V4.67944ZM29.5268 12.0858H32.0494C32.4808 12.0858 32.8306 11.736 32.8306 11.3045C32.8306 10.873 32.4808 10.5233 32.0494 10.5233H29.5268V8.33374H34.4657V13.494H29.5268V12.0858ZM16.4715 4.67944H23.5285V6.77124H16.4715V4.67944ZM17.5305 12.0858H19.9668C20.3982 12.0858 20.748 11.736 20.748 11.3045C20.748 10.873 20.3982 10.5233 19.9668 10.5233H17.5305V8.33374H22.4695V13.494H17.5305V12.0858ZM4.47523 4.67944H11.5323V6.77124H4.47523V4.67944ZM5.53422 12.0858H7.82242C8.25391 12.0858 8.60367 11.736 8.60367 11.3045C8.60367 10.873 8.25391 10.5233 7.82242 10.5233H5.53422V8.33374H10.4731V13.494H5.53422V12.0858ZM1.5625 15.0566H38.4375V17.596H1.5625V15.0566ZM29.5268 23.089H32.0494C32.4808 23.089 32.8306 22.7392 32.8306 22.3077C32.8306 21.8762 32.4808 21.5265 32.0494 21.5265H29.5268V19.1585H34.4657V24.8382C34.4657 26.1998 33.3579 27.3076 31.9963 27.3076C30.6346 27.3076 29.5269 26.1998 29.5269 24.8382V23.089H29.5268ZM17.5305 23.089H19.9668C20.3982 23.089 20.748 22.7392 20.748 22.3077C20.748 21.8762 20.3982 21.5265 19.9668 21.5265H17.5305V19.1585H22.4695V24.8382C22.4695 26.1998 21.3617 27.3076 20.0001 27.3076C18.6384 27.3076 17.5306 26.1998 17.5306 24.8382V23.089H17.5305ZM5.53422 23.089H7.82242C8.25391 23.089 8.60367 22.7392 8.60367 22.3077C8.60367 21.8762 8.25391 21.5265 7.82242 21.5265H5.53422V19.1585H10.4731V24.8382C10.4731 26.1998 9.36531 27.3076 8.00367 27.3076C6.64195 27.3076 5.53422 26.1998 5.53422 24.8382V23.089ZM37.5532 30.7758H2.4468V19.1585H3.97172V24.8382C3.97172 27.0614 5.78047 28.8701 8.00367 28.8701C10.2269 28.8701 12.0356 27.0614 12.0356 24.8382V19.1585H15.968V24.8382C15.968 27.0614 17.7767 28.8701 19.9999 28.8701C22.2231 28.8701 24.0319 27.0614 24.0319 24.8382V19.1585H27.9642V24.8382C27.9642 27.0614 29.773 28.8701 31.9962 28.8701C34.2194 28.8701 36.028 27.0614 36.028 24.8382V19.1585H37.553V30.7758H37.5532Z" fill="#21396E"/>
</g>
<defs>
<clipPath id="clip0">
<rect width="40" height="40" fill="white" transform="translate(0 0.052002)"/>
</clipPath>
</defs>
</svg>
