<svg width="63" height="63" viewBox="0 0 63 63" fill="none" xmlns="http://www.w3.org/2000/svg">
<g clip-path="url(#clip0)">
<path d="M29.3506 53.0723L24.1452 47.867L29.3506 42.6616C30.8069 41.2052 31.9473 39.5119 32.7401 37.629C33.0038 37.0027 32.7098 36.2813 32.0835 36.0175C31.4574 35.754 30.7357 36.0477 30.472 36.6741C29.8033 38.2623 28.8406 39.6913 27.6104 40.9216L22.4076 46.1243L20.4933 44.21L25.696 39.0073C27.7026 37.0007 28.8076 34.333 28.8076 31.4953C28.8076 28.6575 27.7026 25.9897 25.696 23.9833L9.90407 8.18567C8.79275 7.07435 7.897 5.7995 7.24155 4.39632C7.06387 4.01587 7.06892 3.58313 7.2552 3.20896C7.43965 2.83885 7.77752 2.57714 8.18627 2.49027C8.80407 2.35947 9.42986 2.68172 9.7088 3.27503C10.2307 4.3855 10.9405 5.39359 11.8184 6.27137L27.6105 22.0687C28.8311 23.2893 29.7889 24.7063 30.4569 26.2802C30.7224 26.9058 31.4449 27.1976 32.0702 26.9321C32.6958 26.6666 32.9876 25.9442 32.7221 25.3188C31.93 23.4526 30.7956 21.7738 29.3506 20.3286L24.1532 15.1313L29.3506 9.93386C30.6669 8.61743 31.7285 7.10536 32.5058 5.43936C33.0026 4.37418 32.9873 3.1611 32.4635 2.11105C31.9418 1.06519 30.9867 0.326191 29.8432 0.0836732C28.1001 -0.286193 26.3476 0.5975 25.5806 2.232C25.3362 2.75272 25.0369 3.24427 24.6873 3.70248H12.8332C12.4821 3.24329 12.1815 2.75038 11.936 2.22819C11.1683 0.595162 9.41584 -0.287055 7.6706 0.0841653C6.52765 0.327052 5.57345 1.06605 5.05261 2.11179C4.52968 3.16147 4.51492 4.37381 5.01201 5.43788C5.78903 7.10142 6.84953 8.6114 8.164 9.92587L13.3694 15.1312L8.164 20.3366C5.18132 23.3193 3.5387 27.285 3.5387 31.5031C3.5387 35.7213 5.18132 39.6868 8.164 42.6695L13.3613 47.867L8.164 53.0643C6.84769 54.3806 5.78607 55.8928 5.00881 57.5588C4.51184 58.6239 4.52722 59.8369 5.05102 60.887C5.57272 61.933 6.52777 62.672 7.67146 62.9145C7.93649 62.9707 8.20177 62.9979 8.46373 62.9979C9.92437 62.9979 11.2835 62.152 11.9339 60.7662C12.1783 60.2456 12.4775 59.7541 12.8271 59.2959H24.6815C25.0327 59.7551 25.3331 60.2479 25.5786 60.77C26.2298 62.1553 27.5894 63.0003 29.043 63.0001C29.303 63.0001 29.5662 62.9731 29.8288 62.9172C29.8326 62.9165 29.8404 62.9149 29.8441 62.9141C30.9871 62.6711 31.9412 61.9321 32.4621 60.8864C32.9849 59.8368 32.9997 58.6245 32.5027 57.5604C31.7257 55.897 30.6652 54.3869 29.3506 53.0723ZM15.1906 6.16346H22.332L18.7613 9.73417L15.1906 6.16346ZM29.3327 2.49101C29.738 2.57689 30.0766 2.83885 30.2614 3.20933C30.4483 3.58399 30.4534 4.0176 30.2757 4.39878C29.62 5.80393 28.7233 7.08075 27.6104 8.19355L22.4157 13.3883L20.5014 11.474L25.6961 6.27925C26.5755 5.39986 27.2861 4.38992 27.8083 3.27737C28.0872 2.6832 28.7142 2.35996 29.3327 2.49101ZM15.1843 38.9008H22.3222L18.7533 42.4697L15.1843 38.9008ZM18.7613 20.5283L22.3304 24.0974H15.1922L18.7613 20.5283ZM12.8434 26.5494C12.8902 26.5549 12.9377 26.5583 12.9859 26.5583H24.5798C24.6137 26.5583 24.6471 26.556 24.6803 26.5533C25.513 27.6433 26.0527 28.9142 26.2556 30.2688H11.2604C11.4649 28.9122 12.0071 27.64 12.8434 26.5494ZM26.2542 32.7296C26.0499 34.0845 25.5087 35.3552 24.6741 36.4448C24.6429 36.4425 24.6116 36.44 24.5798 36.44H12.8304C11.9999 35.3511 11.4615 34.0821 11.259 32.7296H26.2542ZM8.18196 60.5072C7.77666 60.4212 7.43805 60.1593 7.25324 59.7886C7.06633 59.4139 7.06117 58.9804 7.23896 58.5993C7.89466 57.194 8.79127 55.9172 9.90419 54.8044L15.0991 49.6096L17.0134 51.5239L11.8185 56.7188C10.939 57.5983 10.2284 58.6082 9.70634 59.7205C9.42728 60.3148 8.80025 60.638 8.18196 60.5072ZM22.3243 56.8349H15.1825L18.7533 53.2641L22.3243 56.8349ZM30.2593 59.7891C30.0748 60.1593 29.737 60.421 29.3435 60.5046C29.3397 60.5054 29.3318 60.507 29.3281 60.5078C28.7105 60.6394 28.0846 60.3163 27.8057 59.723C27.2837 58.6127 26.574 57.6045 25.6961 56.7265L9.90407 40.9293C7.38624 38.4115 5.99955 35.0638 5.99955 31.503C5.99955 27.9422 7.38624 24.5945 9.90407 22.0766L15.1069 16.8738L17.0172 18.7841L11.8184 23.991C9.81179 25.9976 8.70674 28.6654 8.70674 31.5031C8.70674 34.3409 9.81179 37.0087 11.8184 39.0152L27.6104 54.8125C28.7219 55.9238 29.6176 57.1989 30.2729 58.6018C30.4506 58.9822 30.4457 59.4149 30.2593 59.7891Z" fill="#FF57AA"/>
<path d="M32.7379 30.2687C32.4143 30.2687 32.0968 30.4003 31.868 30.6292C31.6379 30.8581 31.5074 31.1755 31.5074 31.4991C31.5074 31.8228 31.6379 32.1402 31.868 32.369C32.0968 32.5978 32.4143 32.7296 32.7379 32.7296C33.0615 32.7296 33.379 32.598 33.6079 32.369C33.8367 32.1402 33.9684 31.8228 33.9684 31.4991C33.9684 31.1755 33.8367 30.8581 33.6079 30.6292C33.379 30.4003 33.0615 30.2687 32.7379 30.2687Z" fill="#FF57AA"/>
<path d="M58.2311 6.64453H48.3877C47.7081 6.64453 47.1572 7.19539 47.1572 7.87496V19.6871C47.1572 20.0893 47.351 20.4453 47.6494 20.6697V50.6939C47.6494 53.8147 50.1885 56.3538 53.3094 56.3538C56.4302 56.3538 58.9693 53.8147 58.9693 50.6939V20.6697C59.2677 20.4451 59.4615 20.0892 59.4615 19.6871V7.87496C59.4615 7.19539 58.9106 6.64453 58.2311 6.64453ZM56.5085 30.0419H50.1103V20.9175H56.5085V30.0419ZM49.6181 9.10539H57.0006V18.4566H49.6181V9.10539ZM53.3094 53.893C51.5454 53.893 50.1103 52.4579 50.1103 50.6939V32.5027H56.5085V50.6939C56.5085 52.4579 55.0733 53.893 53.3094 53.893Z" fill="#FF57AA"/>
</g>
<defs>
<clipPath id="clip0">
<rect width="63" height="63" fill="white"/>
</clipPath>
</defs>
</svg>
