<svg width="63" height="63" viewBox="0 0 63 63" fill="none" xmlns="http://www.w3.org/2000/svg">
<path d="M13.0429 22.8866C12.3636 22.8866 11.8124 23.4378 11.8124 24.1171C11.8124 24.7963 12.3636 25.3475 13.0429 25.3475C13.7221 25.3475 14.2733 24.7963 14.2733 24.1171C14.2733 23.4378 13.7221 22.8866 13.0429 22.8866Z" fill="#FF57AA"/>
<path d="M42.5742 25.3474H36.4218V19.1951C36.4218 18.5156 35.8708 17.9646 35.1913 17.9646H27.8085C27.129 17.9646 26.578 18.5156 26.578 19.1951V25.3474H20.4257C19.7462 25.3474 19.1952 25.8984 19.1952 26.5779V33.9607C19.1952 34.6402 19.7462 35.1912 20.4257 35.1912H26.578V41.3436C26.578 42.0231 27.129 42.5741 27.8085 42.5741H35.1913C35.8708 42.5741 36.4218 42.0231 36.4218 41.3436V35.1912H42.5742C43.2537 35.1912 43.8047 34.6402 43.8047 33.9607V26.5779C43.8047 25.8984 43.2537 25.3474 42.5742 25.3474ZM41.3437 32.7303H35.1913C34.5119 32.7303 33.9609 33.2813 33.9609 33.9607V40.1131H29.039V33.9607C29.039 33.2813 28.488 32.7303 27.8085 32.7303H21.6561V27.8084H27.8085C28.488 27.8084 29.039 27.2574 29.039 26.5779V20.4255H33.9609V26.5779C33.9609 27.2574 34.5119 27.8084 35.1913 27.8084H41.3437V32.7303Z" fill="#FF57AA"/>
<path d="M50.4954 3.7826C48.5033 5.07607 46.1896 5.7596 43.8047 5.7596C40.1573 5.7596 36.7193 4.15469 34.3721 1.35623C34.372 1.35623 34.372 1.35623 34.372 1.35623C33.6491 0.494404 32.6022 0 31.5 0C30.3977 0 29.3508 0.494404 28.6278 1.3561C26.2807 4.15457 22.8425 5.75948 19.1952 5.75948C16.8103 5.75948 14.4967 5.07583 12.5045 3.78248C10.0715 2.20341 6.8905 4.06253 6.8905 6.92843V32.0265C6.8905 37.6093 8.68133 43.0639 11.9327 47.3853C19.9763 58.0804 30.5679 62.7084 31.0148 62.9002C31.1697 62.9667 31.335 63 31.5 63C31.665 63 31.8304 62.9667 31.9851 62.9002C32.4321 62.7084 43.0236 58.0806 51.0671 47.3866C54.3187 43.0639 56.1094 37.6088 56.1094 32.0265V6.92855C56.1094 4.06241 52.9277 2.20341 50.4954 3.7826ZM49.1004 45.9074C42.4113 54.8006 33.6378 59.3852 31.4992 60.4138C29.3598 59.3877 20.6033 54.8201 13.8994 45.906C10.9666 42.0082 9.35145 37.0792 9.35145 32.0266V6.92855C9.35145 5.99179 10.3852 5.34099 11.1644 5.84672C13.5566 7.3997 16.3336 8.22055 19.1952 8.22055C23.572 8.22055 27.6974 6.2951 30.5133 2.93776C30.7712 2.63026 31.1215 2.46095 31.5 2.46095C31.8785 2.46095 32.2288 2.63026 32.4866 2.93776C35.3026 6.29498 39.4279 8.22055 43.8047 8.22055C46.6663 8.22055 49.4432 7.3997 51.8355 5.84672C52.6021 5.34875 53.6485 5.97764 53.6485 6.92855V32.0265C53.6485 37.0787 52.0334 42.0082 49.1004 45.9074Z" fill="#FF57AA"/>
<path d="M50.6672 9.8464C50.3406 9.61581 49.9226 9.55822 49.5458 9.69173C47.6946 10.3486 45.763 10.6815 43.8049 10.6815C39.5754 10.6815 35.4965 9.12018 32.3194 6.28504C31.8527 5.86853 31.1477 5.86853 30.681 6.28504C27.504 9.12018 23.425 10.6815 19.1955 10.6815C17.2374 10.6815 15.3058 10.3486 13.4546 9.69173C13.0775 9.55822 12.6598 9.61581 12.3332 9.8464C12.0069 10.077 11.8127 10.4518 11.8127 10.8515V19.1953C11.8127 19.8748 12.3638 20.4258 13.0432 20.4258C13.7227 20.4258 14.2737 19.8748 14.2737 19.1953V12.5147C15.8804 12.9318 17.5295 13.1426 19.1956 13.1426C23.6739 13.1426 28.0027 11.6127 31.5003 8.81367C34.9979 11.6127 39.3267 13.1426 43.8051 13.1426C45.4711 13.1426 47.1202 12.9318 48.727 12.5147V32.0267C48.727 36.0197 47.4629 39.8973 45.1667 42.9459C40.5139 49.1347 34.8311 52.9667 31.5119 54.8534C28.1665 52.942 22.4471 49.0809 17.8335 42.9479C15.5379 39.8974 14.2736 36.0188 14.2736 32.0265V29.039C14.2736 28.3595 13.7226 27.8085 13.0431 27.8085C12.3636 27.8085 11.8126 28.3595 11.8126 29.039V32.0265C11.8126 36.5493 13.2525 40.9534 15.8669 44.4274C21.0412 51.306 27.5172 55.4709 30.9168 57.3413C31.1015 57.4428 31.3057 57.4937 31.5099 57.4937C31.7129 57.4937 31.9162 57.4435 32.1001 57.3429C35.4735 55.4992 41.9125 51.3692 47.133 44.4255C49.7476 40.9536 51.1877 36.5504 51.1877 32.0265V10.8513C51.1877 10.4517 50.9935 10.077 50.6672 9.8464Z" fill="#FF57AA"/>
</svg>
