<svg width="63" height="63" viewBox="0 0 63 63" fill="none" xmlns="http://www.w3.org/2000/svg">
<path d="M16.5804 39.1694C16.8142 39.4499 17.1606 39.6122 17.5258 39.6122C17.891 39.6122 18.2372 39.4501 18.471 39.1695L19.2071 38.2863C19.5127 37.9196 19.5788 37.409 19.3762 36.9766C19.1736 36.5442 18.7393 36.2679 18.2618 36.2679H16.7897C16.3123 36.2679 15.8779 36.5441 15.6754 36.9766C15.4729 37.409 15.5388 37.9194 15.8443 38.2862L16.5804 39.1694Z" fill="#FF57AA"/>
<path d="M40.563 23.9822C41.1894 23.9822 41.8158 23.7438 42.2928 23.2669C42.7733 22.7865 42.7731 22.0074 42.2926 21.5268C41.8156 21.0495 41.0442 21.0464 40.5628 21.5165C40.0816 21.0462 39.3103 21.0499 38.833 21.5267C38.3525 22.0072 38.3525 22.7863 38.833 23.2669C39.3101 23.7439 39.9364 23.9822 40.563 23.9822Z" fill="#FF57AA"/>
<path d="M8.90559 14.5241C9.321 14.9395 9.87323 15.1682 10.4608 15.1682C11.0483 15.1682 11.6006 14.9395 12.016 14.5241L16.2667 10.2733C18.1072 8.43277 18.1072 5.43806 16.2667 3.5974C14.6945 2.02523 12.2797 1.79575 10.462 2.90994C9.72656 2.457 8.87827 2.21484 7.99283 2.21484C6.73197 2.21484 5.54653 2.7058 4.65494 3.5974C2.8144 5.43793 2.8144 8.43289 4.65494 10.2734L8.90559 14.5241ZM6.39519 5.33753C6.82179 4.9108 7.38928 4.67578 7.99283 4.67578C8.59637 4.67578 9.16387 4.9108 9.59059 5.33765C10.0712 5.81803 10.8501 5.81803 11.3308 5.33765C12.2117 4.45651 13.6454 4.45663 14.5265 5.33753C15.4075 6.21867 15.4075 7.65228 14.5265 8.5333L10.4608 12.5989L6.39519 8.5333C5.51405 7.65216 5.51405 6.21867 6.39519 5.33753Z" fill="#FF57AA"/>
<path d="M60.7487 34.5949C62.9583 30.6597 62.5879 25.774 59.7992 22.2124C61.0764 18.4967 60.1478 14.3985 57.3352 11.5858C56.8344 11.085 56.2831 10.6367 55.6924 10.2494C54.5274 7.32793 52.5574 4.82602 49.9746 2.99385C47.2135 1.03519 43.959 0 40.5628 0C37.1666 0 33.9121 1.03519 31.151 2.99385C28.5683 4.82602 26.5983 7.32793 25.4333 10.2494C24.8425 10.6367 24.2914 11.085 23.7905 11.5858C20.9776 14.3988 20.049 18.4974 21.3267 22.2134C20.1956 23.6634 19.4354 25.3833 19.1189 27.1945L15.1057 27.1959C14.1467 26.2704 13.041 25.5378 11.8121 25.0149C11.2126 24.7599 10.5407 24.7935 9.96877 25.1072C9.39697 25.421 9.00765 25.9694 8.90084 26.6117C8.75614 27.4809 8.71812 28.3707 8.78788 29.2561C8.82874 29.7744 8.90662 30.2902 9.02044 30.7964C7.95658 32.3048 7.37715 34.1203 7.37715 35.9761C7.37715 35.978 7.37728 35.9799 7.37728 35.9817C7.27367 34.0383 5.66016 32.4891 3.69141 32.4891C1.65596 32.4891 0 34.145 0 36.1805V42.2073C0 42.8868 0.551004 43.4378 1.23047 43.4378C1.90993 43.4378 2.46094 42.8868 2.46094 42.2073V36.1805C2.46094 35.502 3.01293 34.95 3.69141 34.95C4.36989 34.95 4.92188 35.502 4.92188 36.1805V55.9863C4.92188 56.0747 4.9316 56.1607 4.94931 56.2437C5.08614 57.8865 5.76265 59.3779 6.80228 60.5391H6.15234C4.1169 60.5391 2.46094 58.8831 2.46094 56.8477V53.2816C2.46094 52.6022 1.90993 52.0512 1.23047 52.0512C0.551004 52.0512 0 52.6022 0 53.2816V56.8477C0 60.2401 2.75994 63 6.15234 63H52.3731C58.2328 63 63 58.2328 63 52.3731V41.5962C63 38.9868 62.165 36.5689 60.7487 34.5949ZM25.5308 13.3261C25.9913 12.8654 26.5075 12.4633 27.065 12.1309C27.3067 11.9867 27.4917 11.7641 27.5892 11.5001C29.5842 6.0934 34.7979 2.46094 40.5628 2.46094C46.3279 2.46094 51.5416 6.0934 53.5366 11.5001C53.634 11.7641 53.8191 11.9867 54.0608 12.1309C54.6182 12.4633 55.1345 12.8654 55.595 13.3261C57.8752 15.6063 58.5287 18.9967 57.2597 21.9636C57.0715 22.404 57.1556 22.9137 57.4758 23.2699C59.8037 25.8609 60.3443 29.5279 58.9824 32.6277C56.8518 30.7205 54.0406 29.5589 50.9628 29.5589H45.7947V27.6377C48.3331 25.9426 50.0087 23.0527 50.0087 19.7781V15.17C50.0087 14.4905 49.4577 13.9395 48.7782 13.9395H46.0486C44.977 13.9395 43.9763 13.4541 43.3104 12.6426C43.7199 11.7851 43.9499 10.8259 43.9499 9.81397C43.9499 9.13451 43.3989 8.5835 42.7194 8.5835C42.0399 8.5835 41.4889 9.13451 41.4889 9.81397C41.4889 12.0887 39.6382 13.9394 37.3634 13.9394H32.3477C31.6682 13.9394 31.1172 14.4904 31.1172 15.1698V19.7779C31.1172 23.0526 32.793 25.9425 35.3312 27.6377V29.5589H30.163C28.7663 29.5589 27.4137 29.7924 26.1252 30.2528C26.182 29.9227 26.2253 29.5899 26.2516 29.2561C26.3213 28.3708 26.2833 27.481 26.1386 26.6121C26.0318 25.9695 25.6426 25.4211 25.0707 25.1073C24.4988 24.7936 23.8268 24.7599 23.2276 25.0149C22.8652 25.1691 22.515 25.3437 22.1746 25.534C22.5412 24.7165 23.0347 23.9548 23.65 23.27C23.9701 22.9137 24.0543 22.4041 23.866 21.9637C22.5971 18.9968 23.2504 15.6063 25.5308 13.3261ZM33.5781 16.4003H37.3634C39.0817 16.4003 40.6475 15.7383 41.8215 14.6569C42.9306 15.7565 44.4426 16.4003 46.0486 16.4003H47.5478V19.7779C47.5478 23.6293 44.4144 26.7627 40.5629 26.7627C36.7115 26.7627 33.5781 23.6293 33.5781 19.7779V16.4003ZM37.7921 28.8082C38.6687 29.0777 39.5991 29.2236 40.5629 29.2236C41.5267 29.2236 42.4571 29.0777 43.3338 28.8082V31.0394C43.3338 32.5673 42.0908 33.8103 40.5629 33.8103C39.0351 33.8103 37.7921 32.5673 37.7921 31.0394V28.8082ZM27.6691 54.9912C26.9208 55.8415 26.4657 56.9556 26.4657 58.1745C26.4657 58.3854 26.4808 58.5926 26.5071 58.7963C25.8284 59.5984 24.9161 60.1582 23.9068 60.4015V50.6246C23.9068 49.9451 23.3558 49.3941 22.6763 49.3941C21.9968 49.3941 21.4458 49.9451 21.4458 50.6246V56.1029C21.0274 55.9442 20.5743 55.8566 20.1009 55.8566C19.6277 55.8566 19.1746 55.9441 18.7562 56.1027V49.7515C18.7562 49.0721 18.2052 48.5211 17.5257 48.5211C16.8462 48.5211 16.2952 49.0721 16.2952 49.7515V56.1027C15.8769 55.9441 15.4238 55.8566 14.9504 55.8566C14.4466 55.8566 13.9657 55.9559 13.5252 56.1346V50.6244C13.5252 49.945 12.9742 49.394 12.2947 49.394C11.6153 49.394 11.0643 49.945 11.0643 50.6244V60.3827C8.95351 59.8362 7.38921 57.9183 7.38269 55.6406V47.5608C7.38577 45.3789 8.07384 43.3025 9.3443 41.5772C10.9923 43.6376 13.5249 44.9611 16.3624 44.9611H18.6889C21.5262 44.9611 24.0589 43.6377 25.7068 41.5773C26.9802 43.3065 27.6689 45.3879 27.6689 47.5757V54.9912H27.6691ZM11.319 31.8375C11.6095 31.4839 11.6701 31.0111 11.5076 30.6054C11.3719 30.1029 11.2824 29.5845 11.2412 29.0628C11.1994 28.5306 11.2076 27.9967 11.2656 27.4703C12.1765 27.9174 12.992 28.521 13.695 29.2692C13.9276 29.5169 14.252 29.6571 14.5918 29.6571H14.5923L20.4501 29.6548C20.7895 29.6547 21.1139 29.5143 21.3463 29.2671C22.0485 28.5199 22.8635 27.9169 23.7738 27.4702C23.8318 27.9966 23.84 28.5304 23.7981 29.0627C23.754 29.6233 23.6537 30.1804 23.5001 30.7187C23.3894 31.1071 23.4762 31.5253 23.7327 31.8375C24.6875 32.9996 25.2133 34.4694 25.2133 35.976C25.2133 39.5735 22.2865 42.5003 18.689 42.5003H16.3625C12.765 42.5003 9.83809 39.5735 9.83809 35.976C9.83809 34.4695 10.3641 32.9997 11.319 31.8375ZM7.38281 36.1987C7.40964 37.2923 7.63223 38.3377 8.01786 39.3017C7.79502 39.557 7.58289 39.8194 7.38281 40.0893V36.1987ZM13.6058 60.5391V59.6625C13.6058 58.921 14.209 58.3177 14.9506 58.3177C15.6922 58.3177 16.2953 58.9209 16.2953 59.6625V60.5391H13.6058ZM18.7563 59.6625C18.7563 58.921 19.3596 58.3177 20.1012 58.3177C20.8428 58.3177 21.446 58.9209 21.446 59.6625V60.5391H18.7564V59.6625H18.7563ZM28.9266 58.1745C28.9266 56.8707 29.9874 55.8099 31.2912 55.8099H32.7626V60.5391H31.2912C29.9874 60.5391 28.9266 59.4783 28.9266 58.1745ZM60.5391 52.3731C60.5391 56.8758 56.8758 60.5391 52.3731 60.5391H35.2235V55.8099H51.7528C52.4322 55.8099 52.9832 55.2589 52.9832 54.5794C52.9832 53.8999 52.4322 53.3489 51.7528 53.3489H31.2912C30.8909 53.3489 30.5022 53.3988 30.13 53.4911V47.576C30.13 44.5016 29.0362 41.5958 27.0338 39.3014C27.4455 38.272 27.6743 37.1506 27.6743 35.976C27.6743 34.7966 27.4396 33.6338 26.9959 32.5554C28.0068 32.2001 29.0675 32.0197 30.1628 32.0197H35.4245C35.8848 34.4374 38.013 36.2711 40.5626 36.2711C43.1123 36.2711 45.2405 34.4375 45.701 32.0197H50.9626C56.243 32.0197 60.5389 36.3157 60.5389 41.5961V52.3731H60.5391Z" fill="#FF57AA"/>
<path d="M1.23047 48.9751C1.55408 48.9751 1.87154 48.8436 2.10029 48.6146C2.32915 48.3857 2.46094 48.0682 2.46094 47.7446C2.46094 47.421 2.32928 47.1036 2.10029 46.8748C1.87154 46.6459 1.55408 46.5142 1.23047 46.5142C0.905502 46.5142 0.589395 46.6458 0.360527 46.8748C0.131537 47.1036 0 47.4198 0 47.7446C0 48.0682 0.131537 48.3857 0.360527 48.6146C0.589518 48.8434 0.906855 48.9751 1.23047 48.9751Z" fill="#FF57AA"/>
</svg>
