<svg width="48" height="48" viewBox="0 0 48 48" fill="none" xmlns="http://www.w3.org/2000/svg">
<path d="M1.5 24C1.5 36.4275 11.5725 46.5 24 46.5C36.4275 46.5 46.5 36.4275 46.5 24C46.5 11.5725 36.4275 1.5 24 1.5C11.5725 1.5 1.5 11.5725 1.5 24ZM24 14V34V14Z" fill="white"/>
<path d="M24 14V34M1.5 24C1.5 36.4275 11.5725 46.5 24 46.5C36.4275 46.5 46.5 36.4275 46.5 24C46.5 11.5725 36.4275 1.5 24 1.5C11.5725 1.5 1.5 11.5725 1.5 24Z" stroke="#55678E" stroke-width="3" stroke-linecap="round" stroke-linejoin="round"/>
<path d="M31.5 21.5L24 14L16.5 21.5" stroke="#55678E" stroke-width="3" stroke-linecap="round" stroke-linejoin="round"/>
</svg>
