<svg width="16" height="16" viewBox="0 0 16 16" fill="none" xmlns="http://www.w3.org/2000/svg">
<path d="M0.436906 6.78721C0.154241 6.02368 -0.0504469 5.24392 0.0112845 4.41542C0.0502728 3.90532 0.241965 3.46995 0.615603 3.11256C1.02173 2.72918 1.40511 2.3263 1.80474 1.93642C2.32459 1.42307 2.97764 1.42632 3.49748 1.93642C3.81914 2.25157 4.13754 2.57322 4.45595 2.89488C4.7646 3.20353 5.07651 3.51219 5.38517 3.8241C5.92775 4.37318 5.931 5.01324 5.38842 5.55908C4.99853 5.94896 4.6119 6.34209 4.21552 6.72547C4.11155 6.82619 4.1018 6.91067 4.15704 7.03738C4.41696 7.66119 4.79384 8.21677 5.21622 8.73662C6.06746 9.7828 7.02917 10.712 8.17608 11.4301C8.423 11.5828 8.69267 11.6965 8.94934 11.8362C9.08255 11.9077 9.17028 11.8849 9.27749 11.7745C9.66413 11.3748 10.0605 10.9817 10.4569 10.5886C10.9767 10.0752 11.6265 10.072 12.1464 10.5886C12.7832 11.2189 13.4167 11.8524 14.0471 12.4892C14.5766 13.0221 14.5734 13.6751 14.0406 14.2112C13.6799 14.5751 13.2998 14.9195 12.9619 15.2996C12.468 15.852 11.8442 16.0339 11.1359 15.9949C10.1027 15.9397 9.15078 15.5953 8.23131 15.1502C6.19092 14.1592 4.44945 12.7849 2.99064 11.0499C1.91196 9.76331 1.02173 8.36623 0.436906 6.78721ZM15.9997 7.95036C15.9997 3.56743 12.4323 0 8.04936 0V1.51404C11.5973 1.51404 14.4857 4.40242 14.4857 7.95036H15.9997ZM11.646 7.95036H13.1601C13.1601 5.13345 10.8663 2.83964 8.04936 2.83964V4.35369C9.01107 4.35369 9.9143 4.72733 10.5933 5.40637C11.2724 6.08542 11.646 6.98864 11.646 7.95036Z" fill="#21396E"/>
</svg>
