<svg width="16" height="16" viewBox="0 0 16 16" fill="none" xmlns="http://www.w3.org/2000/svg">
<path d="M8.00011 0.75C6.59887 0.758857 5.25854 1.32399 4.27398 2.32107C3.28941 3.31815 2.74126 4.66551 2.75011 6.06675C2.75011 10.6582 8.00011 15.25 8.00011 15.25C8.00011 15.25 13.2501 10.6582 13.2501 6.06675C13.259 4.66551 12.7108 3.31815 11.7262 2.32107C10.7417 1.32399 9.40134 0.758857 8.00011 0.75V0.75ZM8.00011 10.5C7.11009 10.5 6.24006 10.2361 5.50004 9.74161C4.76002 9.24715 4.18324 8.54434 3.84265 7.72208C3.50205 6.89981 3.41294 5.99501 3.58657 5.12209C3.76021 4.24918 4.18879 3.44736 4.81812 2.81802C5.44746 2.18868 6.24928 1.7601 7.1222 1.58647C7.99511 1.41283 8.89991 1.50195 9.72218 1.84254C10.5444 2.18314 11.2473 2.75991 11.7417 3.49993C12.2362 4.23996 12.5001 5.10998 12.5001 6C12.4987 7.19305 12.0242 8.33683 11.1806 9.18045C10.3369 10.0241 9.19315 10.4986 8.00011 10.5V10.5Z" fill="#21396E"/>
<path d="M8 2C7.20888 2 6.43552 2.2346 5.77772 2.67412C5.11992 3.11365 4.60723 3.73836 4.30448 4.46927C4.00173 5.20017 3.92252 6.00444 4.07686 6.78036C4.2312 7.55629 4.61216 8.26902 5.17157 8.82843C5.73098 9.38784 6.44372 9.7688 7.21964 9.92314C7.99556 10.0775 8.79983 9.99827 9.53074 9.69552C10.2616 9.39277 10.8864 8.88008 11.3259 8.22228C11.7654 7.56448 12 6.79113 12 6C11.9987 4.93952 11.5769 3.92283 10.827 3.17296C10.0772 2.42309 9.06048 2.00126 8 2V2ZM10.75 6.75H8.75V8.75H7.25V6.75H5.25V5.25H7.25V3.25H8.75V5.25H10.75V6.75Z" fill="#21396E"/>
</svg>
