<svg width="16" height="14" viewBox="0 0 16 14" fill="none" xmlns="http://www.w3.org/2000/svg">
<path d="M11.7648 13.5882C12.5445 13.5882 13.1766 12.9561 13.1766 12.1764C13.1766 11.3967 12.5445 10.7646 11.7648 10.7646C10.9851 10.7646 10.353 11.3967 10.353 12.1764C10.353 12.9561 10.9851 13.5882 11.7648 13.5882Z" fill="#21396E"/>
<path d="M4.2355 13.5882C5.01519 13.5882 5.64726 12.9561 5.64726 12.1764C5.64726 11.3967 5.01519 10.7646 4.2355 10.7646C3.4558 10.7646 2.82373 11.3967 2.82373 12.1764C2.82373 12.9561 3.4558 13.5882 4.2355 13.5882Z" fill="#21396E"/>
<path d="M16 8.88233V2.2941H6.58824V1.35292C6.58824 0.833139 6.16684 0.411743 5.64706 0.411743C5.12728 0.411743 4.70588 0.833139 4.70588 1.35292V2.2941H3.02767L1.89826 4.17645H7.52941V7.94116C7.40571 7.94116 1.76844 7.94116 0 7.94116V8.88233H1.41176V9.82351H0V12.1765H1.88235C1.88235 10.879 2.93788 9.82351 4.23529 9.82351C5.53271 9.82351 6.58824 10.879 6.58824 12.1765H9.41177C9.41177 10.879 10.4673 9.82351 11.7647 9.82351C13.0621 9.82351 14.1176 10.879 14.1176 12.1765H16V9.82351H14.5882V8.88233H16ZM12.7059 6.52939H11.7647V7.47057H10.8235V6.52939H9.88235V5.58821H10.8235V4.64704H11.7647V5.58821H12.7059V6.52939Z" fill="#21396E"/>
<path d="M4.23525 5.11768H1.33351L0.204102 7.00003H4.23525V5.11768Z" fill="#21396E"/>
<path d="M5.17627 5.11768H6.58804V7.00003H5.17627V5.11768Z" fill="#21396E"/>
</svg>
