<svg width="16" height="16" viewBox="0 0 16 16" fill="none" xmlns="http://www.w3.org/2000/svg">
<path d="M11.6092 15.1725C10.23 15.7933 9.03449 16 7.40224 16C3.58624 16 0.229736 13.2642 0.229736 8.75875C0.229736 4.069 3.63199 0 8.82774 0C12.8737 0 15.7702 2.78175 15.7702 6.64375C15.7702 10 13.8852 12.115 11.4025 12.115C10.322 12.115 9.54049 11.5633 9.42549 10.3448H9.37949C8.66699 11.5173 7.63249 12.115 6.41399 12.115C4.91974 12.115 3.83924 11.0115 3.83924 9.12625C3.83924 6.32175 5.90824 3.77 9.21849 3.77C10.23 3.77 11.3792 4.023 11.9542 4.34475L11.2647 8.59775C11.035 9.95375 11.1957 10.5747 11.8395 10.5975C12.828 10.6205 14.0692 9.356 14.0692 6.7125C14.0692 3.724 12.1382 1.402 8.57474 1.402C5.05774 1.402 1.97699 4.16075 1.97699 8.5515C1.97699 12.3905 4.43674 14.5745 7.86224 14.5745C9.03474 14.5745 10.2762 14.3217 11.1955 13.8387L11.6092 15.1725ZM9.56324 5.67825C9.37924 5.63225 9.14924 5.58625 8.85049 5.58625C7.33349 5.58625 6.13774 7.0805 6.13774 8.8505C6.13774 9.724 6.52874 10.2758 7.28724 10.2758C8.13774 10.2758 9.03449 9.19525 9.24124 7.862L9.56324 5.67825Z" fill="#21396E"/>
</svg>
