<svg width="260" height="77" viewBox="0 0 260 77" fill="none" xmlns="http://www.w3.org/2000/svg">
<path d="M88.9634 47.6294C88.5201 47.9025 88.023 48.0769 87.5061 48.1405C86.9893 48.2041 86.4648 48.1555 85.9684 47.998C85.4731 47.8788 85.0077 47.6589 84.6011 47.3522C84.1944 47.0454 83.8552 46.6582 83.6046 46.2148C83.3467 45.7653 83.1812 45.2688 83.1179 44.7545C83.0546 44.2401 83.0948 43.7183 83.236 43.2197C83.2938 43.0137 83.3294 42.8021 83.3419 42.5885C83.7628 40.9758 84.0608 39.767 84.2359 38.9622L85.655 33.078L87.3369 26.2724L88.8574 19.757C89.1017 18.8354 89.438 17.4807 89.8573 15.6607C89.9141 15.5128 89.9497 15.3577 89.9633 15.1999C89.9799 15.1828 89.9929 15.1626 90.0016 15.1405C90.0103 15.1183 90.0145 15.0947 90.014 15.0709C90.0137 15.046 90.0185 15.0214 90.028 14.9984C90.0375 14.9755 90.0515 14.9546 90.0693 14.9373C90.4413 13.7287 91.1416 12.6472 92.0921 11.8132C93.0252 10.9693 94.1819 10.4125 95.4235 10.2097C95.751 10.1326 96.0871 10.0986 96.4234 10.1083H96.8842C97.2191 10.0939 97.5543 10.1281 97.8795 10.2097C99.1558 10.4123 100.344 10.9878 101.294 11.8639C102.258 12.7322 102.967 13.8475 103.344 15.0893C103.347 15.1424 103.357 15.195 103.372 15.246C103.384 15.2975 103.392 15.3499 103.395 15.4026C103.435 15.4843 103.454 15.5745 103.45 15.6653C103.483 15.8404 103.556 16.1261 103.658 16.4809C103.759 16.8357 103.833 17.1213 103.87 17.2964L105.289 23.1759L106.915 30.0093L108.491 36.4601C108.634 37.0546 108.832 37.907 109.095 39.0082C109.357 40.1095 109.556 40.8744 109.648 41.3121L110.108 43.2566C110.252 43.7574 110.288 44.2827 110.216 44.7986C110.144 45.3144 109.964 45.8094 109.689 46.2517C109.454 46.6954 109.126 47.0839 108.729 47.3913C108.332 47.6988 107.874 47.9182 107.385 48.0349C106.888 48.1778 106.366 48.2192 105.852 48.1565C105.338 48.0938 104.842 47.9284 104.393 47.67C103.944 47.4116 103.552 47.0656 103.24 46.6526C102.927 46.2395 102.701 45.7678 102.575 45.2656C102.531 45.1737 102.496 45.0781 102.469 44.9799C102.441 44.8854 102.424 44.788 102.418 44.6896C102.314 44.1643 102.016 42.9356 101.524 41.0034C101.312 39.9528 101.017 38.6719 100.63 37.1697H92.751L92.4377 38.5521L91.2258 43.3856C91.1936 43.5976 91.1291 43.9109 91.0415 44.3072C90.9791 44.6182 90.9006 44.9258 90.8065 45.2287C90.6771 45.7325 90.447 46.2048 90.1303 46.6174C89.8136 47.03 89.4166 47.3742 88.9634 47.6294ZM94.6356 29.3504H98.7365C98.6996 29.2121 98.6582 29.0278 98.6029 28.7974C98.5476 28.567 98.5061 28.4058 98.4739 28.2998L96.898 21.8489C96.8879 21.693 96.8617 21.5386 96.8197 21.3881C96.7644 21.1762 96.7229 21.0011 96.686 20.8628C96.1976 22.8258 95.8474 24.2972 95.6355 25.2771C95.3913 26.1618 95.0595 27.5303 94.6356 29.3504Z" fill="#FF57AA"/>
<path d="M113.445 28.406V25.4616C113.439 24.9881 113.53 24.5184 113.71 24.0806C113.891 23.6429 114.158 23.2459 114.495 22.9135C114.817 22.5683 115.208 22.2941 115.642 22.1084C116.076 21.9227 116.544 21.8297 117.016 21.8353C117.972 21.8507 118.886 22.2378 119.563 22.9145C120.239 23.5913 120.626 24.5047 120.642 25.4616V35.7047L122.794 33.4469L127.577 28.4567L131.36 24.4664L132.935 22.8859C133.509 22.3434 134.239 21.9956 135.022 21.8922C135.804 21.7888 136.6 21.935 137.294 22.3099C137.858 22.6018 138.325 23.049 138.642 23.5986C138.959 24.1483 139.112 24.7772 139.082 25.4109V44.7037C139.088 45.1757 138.995 45.6437 138.809 46.0777C138.623 46.5117 138.349 46.9022 138.004 47.2241C137.672 47.5614 137.275 47.8283 136.837 48.0088C136.399 48.1893 135.929 48.2797 135.456 48.2747C134.51 48.2711 133.604 47.8937 132.935 47.2248C132.266 46.5558 131.888 45.6497 131.885 44.7037V34.3915L129.728 36.5986L124.95 41.6672L121.116 45.6068L119.591 47.2333C119.087 47.7418 118.443 48.0882 117.741 48.2282C117.039 48.3682 116.312 48.2955 115.651 48.0192C114.991 47.743 114.428 47.276 114.035 46.6779C113.642 46.0798 113.436 45.3779 113.445 44.6622V28.406ZM118.384 15.3245C118.274 15.1241 118.186 14.9125 118.121 14.6933C118.014 14.3352 117.982 13.9587 118.027 13.5875C118.072 13.2164 118.194 12.8586 118.384 12.5368C118.687 12.0168 119.154 11.6116 119.712 11.3842C120.269 11.1567 120.886 11.1197 121.467 11.2789C121.507 11.2804 121.548 11.2906 121.584 11.3089C121.621 11.3272 121.653 11.3531 121.679 11.3849C122.665 11.7591 123.685 12.0399 124.724 12.2235C125.703 12.3295 126.69 12.3295 127.669 12.2235C128.816 12.0177 129.941 11.7013 131.028 11.2789C131.509 11.136 132.021 11.136 132.502 11.2789C132.571 11.3112 132.677 11.3572 132.816 11.4079C132.954 11.4586 133.06 11.5047 133.129 11.5416C133.455 11.7052 133.739 11.9422 133.958 12.234C134.177 12.5258 134.325 12.8645 134.391 13.2234C134.498 13.5724 134.53 13.9399 134.484 14.302C134.439 14.664 134.318 15.0125 134.129 15.3245C133.89 15.7393 133.545 16.0829 133.129 16.3198C133.06 16.3567 132.954 16.3981 132.816 16.4534C132.677 16.5087 132.571 16.5502 132.502 16.5825C131.624 16.959 130.708 17.2417 129.77 17.4257C128.633 17.6955 127.469 17.8361 126.3 17.845C125.118 17.8272 123.94 17.7038 122.78 17.4764C121.607 17.2028 120.463 16.8154 119.366 16.3198C118.957 16.0794 118.619 15.7363 118.384 15.3245Z" fill="#FF57AA"/>
<path d="M155.942 48.1046C152.452 48.1104 149.093 46.7802 146.553 44.3869C144.013 41.9937 142.486 38.719 142.285 35.2351C142.242 35.0635 142.225 34.8865 142.234 34.7098V20.3152C142.299 19.6095 142.404 18.908 142.547 18.214C142.685 17.7532 142.934 17.1082 143.284 16.2695C143.448 15.9204 143.64 15.5859 143.86 15.2697C144.223 14.6847 144.646 14.1395 145.123 13.6431C145.607 13.1791 146.114 12.7408 146.644 12.3299C146.96 12.0942 147.294 11.8831 147.643 11.6986C148.245 11.3698 148.88 11.1057 149.537 10.9107C149.909 10.765 150.295 10.6599 150.689 10.5974C151.419 10.4781 152.157 10.4073 152.896 10.3854H155.785C155.891 10.1735 156.039 9.86013 156.246 9.44082C156.453 9.02151 156.587 8.70358 156.707 8.51927C157.012 7.96557 157.467 7.50892 158.02 7.20144C158.31 7.10467 158.59 6.98287 158.859 6.83743C159.323 6.69851 159.811 6.65912 160.291 6.72185C160.772 6.78457 161.234 6.948 161.646 7.20144C162.053 7.42717 162.408 7.73572 162.688 8.10716C162.969 8.4786 163.168 8.90468 163.273 9.35788C163.485 9.98869 163.485 10.6716 163.273 11.3024C163.135 11.6526 163.01 11.9336 162.904 12.141C162.379 13.3329 161.82 14.5616 161.227 15.8272C160.914 16.372 160.462 16.8244 159.917 17.1383C159.373 17.4523 158.755 17.6167 158.126 17.615H154.292C153.371 17.615 152.712 17.615 152.293 17.6657C152.01 17.7213 151.73 17.792 151.454 17.8776C151.194 17.9909 150.947 18.1315 150.717 18.297L150.141 18.8775C149.897 19.2968 149.754 19.5411 149.722 19.6102C149.594 19.877 149.505 20.1611 149.459 20.4534V22.3933C151.446 21.3054 153.676 20.738 155.942 20.7437C157.744 20.7132 159.534 21.0542 161.198 21.7455C162.863 22.4367 164.368 23.4635 165.618 24.7617C166.906 26.0189 167.925 27.5252 168.611 29.1888C169.298 30.8524 169.639 32.6384 169.613 34.438C169.617 36.2329 169.266 38.0109 168.581 39.6698C167.895 41.3288 166.889 42.836 165.62 44.105C164.35 45.374 162.843 46.3798 161.183 47.0645C159.524 47.7493 157.746 48.0997 155.951 48.0954L155.942 48.1046ZM155.942 27.9318C154.217 27.9281 152.56 28.6072 151.334 29.821C150.154 30.9906 149.477 32.5741 149.445 34.2352V34.6039C149.454 35.4278 149.625 36.242 149.949 36.9995C150.273 37.7571 150.744 38.4431 151.334 39.0181C151.929 39.6388 152.645 40.1314 153.438 40.4657C154.23 40.8001 155.082 40.9692 155.942 40.9626C156.798 40.9813 157.649 40.8176 158.437 40.4823C159.225 40.1471 159.933 39.6479 160.513 39.0181C161.146 38.4392 161.648 37.7322 161.987 36.9441C162.325 36.1559 162.492 35.3048 162.476 34.4472C162.482 33.5874 162.312 32.7354 161.978 31.9432C161.644 31.151 161.151 30.4352 160.531 29.8394C159.938 29.2235 159.225 28.7363 158.435 28.4081C157.646 28.0799 156.797 27.9178 155.942 27.9318Z" fill="#21396E"/>
<path d="M172.756 35.0275C172.723 33.2649 173.042 31.5135 173.693 29.8755C174.345 28.2375 175.317 26.7459 176.552 25.4878C177.787 24.2297 179.26 23.2303 180.886 22.5481C182.511 21.8659 184.256 21.5145 186.019 21.5145C187.782 21.5145 189.527 21.8659 191.153 22.5481C192.778 23.2303 194.252 24.2297 195.487 25.4878C196.721 26.7459 197.693 28.2375 198.345 29.8755C198.997 31.5135 199.316 33.2649 199.283 35.0275C199.218 38.5024 197.792 41.8131 195.312 44.2476C192.831 46.6821 189.495 48.0461 186.019 48.0461C182.544 48.0461 179.207 46.6821 176.727 44.2476C174.246 41.8131 172.82 38.5024 172.756 35.0275ZM192.085 35.0275C192.096 33.6173 191.617 32.2471 190.73 31.151C189.843 30.0548 188.602 29.3008 187.221 29.0176C185.839 28.7344 184.402 28.9397 183.156 29.5984C181.909 30.257 180.929 31.3283 180.384 32.629C179.84 33.9297 179.763 35.3793 180.169 36.73C180.574 38.0807 181.436 39.2487 182.607 40.0346C183.778 40.8205 185.185 41.1753 186.589 41.0386C187.992 40.9019 189.305 40.2821 190.302 39.2851C190.871 38.7324 191.323 38.0703 191.629 37.3386C191.935 36.6069 192.091 35.8208 192.085 35.0275Z" fill="#21396E"/>
<path d="M216.147 48.1042C212.657 48.1123 209.296 46.7827 206.756 44.389C204.215 41.9954 202.689 38.7194 202.49 35.2347C202.445 35.0634 202.426 34.8863 202.434 34.7094V20.3148C202.499 19.6087 202.605 18.9071 202.752 18.2136C202.891 17.7528 203.135 17.1077 203.485 16.2691C203.65 15.9201 203.844 15.5856 204.066 15.2692C204.426 14.683 204.85 14.1377 205.328 13.6427C205.646 13.3248 206.153 12.8916 206.853 12.3295C207.169 12.0926 207.503 11.8815 207.853 11.6982C208.454 11.3701 209.087 11.1061 209.742 10.9103C210.116 10.7652 210.503 10.6601 210.899 10.597C211.629 10.4775 212.366 10.4067 213.106 10.385H215.995C216.101 10.1731 216.248 9.85972 216.456 9.44041C216.663 9.02111 216.797 8.70317 216.917 8.51886C217.222 7.96516 217.677 7.50851 218.23 7.20104C218.519 7.10228 218.799 6.98055 219.068 6.83702C219.529 6.7009 220.013 6.66296 220.489 6.72566C220.966 6.78837 221.423 6.95032 221.833 7.20104C222.24 7.42718 222.595 7.73579 222.876 8.10711C223.157 8.47844 223.357 8.90431 223.464 9.35747C223.672 9.98903 223.672 10.6704 223.464 11.302C223.321 11.6521 223.202 11.9332 223.096 12.1406C222.57 13.3324 222.01 14.5612 221.414 15.8268C221.097 16.3721 220.632 16.8163 220.073 17.1077C219.533 17.4238 218.915 17.5833 218.29 17.5685H214.451C213.53 17.5685 212.876 17.5685 212.456 17.6192C212.172 17.6754 211.89 17.7462 211.613 17.8312C211.355 17.9445 211.109 18.085 210.88 18.2505L210.304 18.831C210.056 19.2504 209.917 19.4946 209.881 19.5637C209.757 19.8321 209.668 20.1156 209.618 20.4069V22.3468C211.623 21.2682 213.87 20.7164 216.147 20.7433C217.949 20.7131 219.739 21.0542 221.403 21.7455C223.068 22.4367 224.573 23.4633 225.823 24.7612C227.11 26.0194 228.127 27.5259 228.813 29.1894C229.499 30.8528 229.839 32.6384 229.814 34.4376C229.818 36.2323 229.468 38.0101 228.783 39.6691C228.098 41.328 227.092 42.8353 225.823 44.1043C224.554 45.3734 223.047 46.3792 221.388 47.064C219.729 47.7489 217.951 48.0992 216.156 48.095L216.147 48.1042ZM216.147 27.9314C214.422 27.9276 212.765 28.6068 211.539 29.8206C210.356 30.9887 209.677 32.5727 209.646 34.2348V34.6034C209.654 35.4279 209.825 36.2426 210.15 37.0003C210.475 37.758 210.947 38.4437 211.539 39.0177C212.134 39.6386 212.85 40.1313 213.642 40.4657C214.435 40.8001 215.287 40.969 216.147 40.9622C217.865 40.9291 219.503 40.2321 220.718 39.0173C221.932 37.8025 222.629 36.1644 222.662 34.4468C222.668 33.587 222.499 32.735 222.165 31.9428C221.83 31.1506 221.338 30.4348 220.718 29.839C220.127 29.2258 219.416 28.7403 218.63 28.4122C217.844 28.0841 216.999 27.9205 216.147 27.9314Z" fill="#21396E"/>
<path d="M232.975 35.0276C232.975 31.5093 234.372 28.1351 236.86 25.6473C239.348 23.1595 242.722 21.7618 246.24 21.7618C249.759 21.7618 253.133 23.1595 255.621 25.6473C258.108 28.1351 259.506 31.5093 259.506 35.0276C259.506 38.5459 258.108 41.9201 255.621 44.4079C253.133 46.8957 249.759 48.2934 246.24 48.2934C242.722 48.2934 239.348 46.8957 236.86 44.4079C234.372 41.9201 232.975 38.5459 232.975 35.0276ZM252.327 35.0276C252.354 33.6161 251.89 32.239 251.014 31.1315C250.139 30.024 248.906 29.2547 247.527 28.955C246.147 28.6553 244.706 28.8436 243.45 29.488C242.194 30.1323 241.2 31.1927 240.639 32.4881C240.077 33.7834 239.983 35.2335 240.372 36.5907C240.761 37.9479 241.608 39.1281 242.77 39.9298C243.932 40.7316 245.337 41.1051 246.744 40.9867C248.15 40.8683 249.472 40.2653 250.484 39.2806C251.057 38.7309 251.513 38.0705 251.824 37.3394C252.134 36.6084 252.293 35.8219 252.29 35.0276H252.327Z" fill="#21396E"/>
<path d="M88.8528 68.0835C88.8902 68.0831 88.9272 68.0907 88.9613 68.1058C88.9955 68.1209 89.0261 68.1432 89.051 68.171L89.5947 68.7608C89.1803 69.2397 88.666 69.6219 88.0879 69.8805C87.4096 70.1682 86.6773 70.3065 85.9407 70.286C85.263 70.2956 84.5904 70.167 83.964 69.9081C83.3878 69.6666 82.8695 69.3053 82.4434 68.8483C82.0132 68.3736 81.6826 67.8173 81.4712 67.2126C81.2346 66.5392 81.1176 65.8297 81.1256 65.116C81.1172 64.3997 81.239 63.6877 81.485 63.0149C81.7075 62.4061 82.0525 61.8494 82.4987 61.3791C82.9391 60.9167 83.4732 60.5538 84.0653 60.3148C84.703 60.0559 85.3862 59.9274 86.0743 59.9369C86.7269 59.9237 87.3755 60.0412 87.982 60.2825C88.5193 60.4986 89.0127 60.8109 89.438 61.204L88.9772 61.8307C88.9492 61.878 88.9115 61.9188 88.8666 61.9505C88.8125 61.9831 88.7501 61.9992 88.6869 61.9966C88.5721 61.9839 88.4642 61.9355 88.3782 61.8583C88.2313 61.7458 88.0774 61.6427 87.9174 61.5496C87.6822 61.42 87.4334 61.3165 87.1756 61.2409C86.8189 61.1411 86.4493 61.0945 86.0789 61.1027C85.5879 61.0969 85.1007 61.1894 84.6459 61.3745C84.2206 61.554 83.8388 61.8227 83.5262 62.1625C83.2008 62.5289 82.9518 62.9565 82.7936 63.4204C82.6115 63.9605 82.5227 64.5277 82.531 65.0976C82.5222 65.6713 82.6142 66.2421 82.8028 66.7841C82.9666 67.2459 83.2185 67.6716 83.5447 68.0374C83.8541 68.3753 84.2329 68.6425 84.6551 68.8207C85.0939 68.9998 85.5636 69.0906 86.0375 69.0879C86.3103 69.0898 86.5829 69.0713 86.8531 69.0327C87.0815 69.0036 87.3057 68.9479 87.5212 68.8668C87.7235 68.794 87.9168 68.6981 88.0971 68.5811C88.2821 68.4575 88.4576 68.3204 88.6224 68.171C88.6861 68.1149 88.768 68.0838 88.8528 68.0835Z" fill="#21396E"/>
<path d="M93.6772 62.9047C94.0852 62.8995 94.4904 62.973 94.8706 63.1212C95.225 63.2591 95.5467 63.4694 95.8152 63.7387C96.0913 64.0266 96.3047 64.3686 96.4418 64.7432C96.5973 65.1792 96.6738 65.6395 96.6676 66.1024C96.6791 66.2378 96.6569 66.374 96.6031 66.4987C96.5751 66.5346 96.5384 66.5628 96.4965 66.5805C96.4545 66.5983 96.4088 66.605 96.3635 66.6001H91.5806C91.581 67.0004 91.6432 67.3983 91.765 67.7797C91.8601 68.0862 92.0169 68.37 92.2257 68.6137C92.4175 68.8347 92.6592 69.0069 92.9307 69.1159C93.2244 69.2299 93.5373 69.2862 93.8523 69.2818C94.1282 69.2871 94.4033 69.2498 94.6679 69.1712C94.8706 69.1094 95.0679 69.0307 95.2576 68.9362C95.3985 68.8655 95.5354 68.787 95.6677 68.7012C95.7505 68.638 95.8496 68.5996 95.9534 68.5906C96.0008 68.5891 96.0479 68.5993 96.0904 68.6202C96.133 68.6411 96.1698 68.6721 96.1976 68.7104L96.5478 69.1712C96.3896 69.3631 96.2013 69.528 95.9903 69.6596C95.7714 69.7994 95.5381 69.9153 95.2945 70.0052C95.0461 70.0944 94.7901 70.1607 94.5296 70.2034C94.271 70.249 94.0089 70.2722 93.7463 70.2725C93.2733 70.2805 92.8034 70.1944 92.364 70.0191C91.953 69.8584 91.5831 69.6081 91.2811 69.2864C90.9643 68.9405 90.7227 68.5325 90.5715 68.0884C90.3934 67.5602 90.3077 67.0053 90.3181 66.448C90.3166 65.9776 90.3945 65.5102 90.5485 65.0657C90.691 64.6494 90.915 64.2656 91.2074 63.9368C91.5018 63.6155 91.8616 63.3609 92.2626 63.1903C92.7083 62.995 93.1906 62.8976 93.6772 62.9047ZM93.7048 63.8262C93.4429 63.8123 93.1808 63.8517 92.9345 63.942C92.6882 64.0323 92.4627 64.1716 92.2718 64.3515C91.9011 64.7523 91.6728 65.264 91.6221 65.8076H95.5341C95.5384 65.5355 95.498 65.2647 95.4143 65.0058C95.3376 64.774 95.2137 64.5606 95.0503 64.3791C94.8916 64.2008 94.6947 64.0606 94.4743 63.9691C94.23 63.8709 93.9681 63.8238 93.7048 63.8308V63.8262Z" fill="#21396E"/>
<path d="M97.262 63.0151H104.012V63.9782H101.248V70.171H99.9898V63.9782H97.2252L97.262 63.0151Z" fill="#21396E"/>
<path d="M106.418 63.0151V65.8213H107.934C108.357 65.8112 108.778 65.8703 109.182 65.9964C109.482 66.0902 109.759 66.2473 109.993 66.4571C110.201 66.6445 110.359 66.8803 110.454 67.1437C110.542 67.4018 110.588 67.6727 110.588 67.9454C110.592 68.2504 110.534 68.5529 110.417 68.8347C110.307 69.1046 110.135 69.3446 109.915 69.5351C109.676 69.7406 109.399 69.8971 109.099 69.9959C108.736 70.1121 108.356 70.1682 107.975 70.1618H105.21V63.0151H106.418ZM106.418 66.7382V69.2541H107.957C108.18 69.2588 108.403 69.2261 108.616 69.1573C108.787 69.1035 108.944 69.0122 109.076 68.89C109.196 68.7768 109.289 68.6383 109.348 68.4846C109.412 68.3233 109.443 68.1511 109.44 67.9777C109.44 67.8212 109.416 67.6656 109.367 67.5169C109.313 67.3678 109.224 67.2336 109.109 67.1253C108.976 67.0043 108.819 66.9132 108.648 66.858C108.419 66.7842 108.179 66.7499 107.938 66.7566L106.418 66.7382Z" fill="#21396E"/>
<path d="M115.592 63.0152H118.214C118.597 63.0089 118.98 63.0538 119.352 63.1489C119.63 63.2223 119.892 63.3456 120.126 63.5129C120.323 63.6521 120.482 63.8392 120.587 64.0566C120.681 64.2652 120.729 64.4913 120.729 64.7201C120.727 64.8849 120.706 65.0488 120.665 65.2085C120.621 65.3819 120.546 65.5458 120.444 65.6923C120.325 65.8581 120.179 66.0016 120.011 66.1163C119.802 66.2524 119.571 66.3507 119.329 66.4066C119.797 66.4677 120.236 66.6666 120.591 66.9779C120.744 67.1216 120.864 67.2963 120.943 67.4902C121.023 67.6841 121.06 67.8928 121.052 68.1022C121.063 68.4056 120.997 68.7068 120.861 68.9781C120.725 69.2494 120.523 69.4822 120.273 69.655C120.015 69.8364 119.726 69.9691 119.421 70.0467C119.079 70.1316 118.727 70.1734 118.375 70.1711H115.61L115.592 63.0152ZM116.799 66.1117H118.181C118.377 66.1121 118.571 66.0825 118.757 66.0241C118.926 65.9719 119.082 65.8874 119.218 65.7753C119.347 65.6702 119.451 65.5372 119.521 65.3864C119.591 65.2356 119.626 65.0708 119.624 64.9044C119.622 64.772 119.597 64.641 119.55 64.5174C119.501 64.3876 119.418 64.2732 119.31 64.1856C119.174 64.0771 119.017 63.9972 118.849 63.9506C118.628 63.8886 118.398 63.8591 118.167 63.8631H116.785L116.799 66.1117ZM116.799 66.9088V69.291H118.343C118.741 69.3126 119.135 69.1954 119.458 68.9593C119.592 68.8525 119.699 68.7154 119.771 68.5592C119.842 68.4031 119.875 68.2322 119.868 68.0607C119.868 67.9038 119.841 67.748 119.789 67.6C119.737 67.4607 119.649 67.3371 119.536 67.2406C119.401 67.1279 119.244 67.0447 119.075 66.9963C118.84 66.9366 118.599 66.9087 118.356 66.9134L116.799 66.9088Z" fill="#21396E"/>
<path d="M125.54 62.9048C125.947 62.8991 126.35 62.9727 126.729 63.1213C127.084 63.2595 127.408 63.4697 127.678 63.7388C127.953 64.0269 128.164 64.369 128.3 64.7433C128.458 65.1787 128.534 65.6395 128.526 66.1026C128.538 66.2375 128.517 66.3735 128.466 66.4988C128.437 66.5341 128.401 66.5618 128.359 66.5795C128.317 66.5971 128.271 66.6043 128.226 66.6002H123.443C123.445 67.0001 123.505 67.3976 123.623 67.7798C123.72 68.0854 123.877 68.3689 124.084 68.6138C124.276 68.8348 124.517 69.007 124.789 69.116C125.082 69.2307 125.395 69.2871 125.71 69.2819C125.986 69.2878 126.262 69.2505 126.526 69.1713C126.729 69.1111 126.927 69.0324 127.116 68.9363C127.259 68.8665 127.397 68.788 127.53 68.7013C127.613 68.6381 127.712 68.5997 127.816 68.5908C127.863 68.5888 127.91 68.5987 127.951 68.6197C127.993 68.6407 128.029 68.6719 128.056 68.7106L128.411 69.1713C128.251 69.3623 128.063 69.5272 127.853 69.6598C127.634 69.7986 127.4 69.9144 127.157 70.0053C126.907 70.0951 126.65 70.1614 126.388 70.2035C126.129 70.2491 125.867 70.2723 125.604 70.2726C125.131 70.2809 124.661 70.1947 124.222 70.0192C123.811 69.8585 123.441 69.6082 123.139 69.2865C122.822 68.9406 122.581 68.5326 122.43 68.0885C122.252 67.5604 122.166 67.0054 122.176 66.4481C122.173 65.9775 122.251 65.5098 122.407 65.0658C122.549 64.6495 122.773 64.2657 123.066 63.9369C123.357 63.6147 123.716 63.36 124.116 63.1904C124.565 62.9941 125.05 62.8967 125.54 62.9048ZM125.568 63.8263C125.306 63.8116 125.043 63.8506 124.797 63.941C124.55 64.0313 124.325 64.171 124.135 64.3516C123.762 64.7512 123.533 65.2636 123.485 65.8077H127.397C127.4 65.5354 127.358 65.2645 127.272 65.0059C127.195 64.7754 127.073 64.5624 126.913 64.3793C126.754 64.2019 126.557 64.0618 126.337 63.9692C126.093 63.8713 125.831 63.8243 125.568 63.8309V63.8263Z" fill="#21396E"/>
<path d="M129.12 63.0151H135.875V63.9782H133.11V70.171H131.853V63.9782H129.088L129.12 63.0151Z" fill="#21396E"/>
<path d="M139.709 62.9046C140.117 62.8986 140.522 62.9722 140.902 63.1212C141.257 63.2579 141.579 63.4684 141.847 63.7386C142.123 64.0265 142.336 64.3686 142.473 64.7431C142.631 65.1786 142.708 65.6393 142.699 66.1024C142.711 66.2378 142.689 66.3739 142.635 66.4987C142.607 66.5349 142.57 66.5634 142.528 66.5811C142.486 66.5989 142.44 66.6054 142.395 66.6001H137.594C137.594 67.0004 137.656 67.3983 137.778 67.7797C137.875 68.0854 138.032 68.3688 138.239 68.6137C138.439 68.8423 138.692 69.018 138.976 69.1251C139.27 69.2401 139.583 69.2965 139.898 69.291C140.174 69.2963 140.449 69.259 140.713 69.1804C140.916 69.1194 141.114 69.0407 141.303 68.9454C141.446 68.8756 141.584 68.7971 141.718 68.7104C141.8 68.6465 141.9 68.608 142.003 68.5998C142.05 68.5983 142.097 68.6084 142.138 68.6294C142.18 68.6503 142.216 68.6813 142.243 68.7196L142.598 69.1804C142.437 69.3715 142.247 69.5363 142.036 69.6688C141.817 69.8086 141.584 69.9245 141.34 70.0144C141.092 70.1042 140.836 70.1705 140.575 70.2126C140.316 70.2582 140.054 70.2813 139.792 70.2817C139.319 70.2894 138.849 70.2032 138.409 70.0283C138 69.8674 137.632 69.6171 137.331 69.2956C137.013 68.9499 136.77 68.542 136.617 68.0976C136.441 67.5689 136.355 67.0144 136.364 66.4572C136.362 65.9868 136.44 65.5194 136.594 65.0749C136.736 64.6586 136.96 64.2748 137.253 63.946C137.547 63.6247 137.907 63.3701 138.308 63.1995C138.749 63.003 139.226 62.9024 139.709 62.9046ZM139.741 63.8262C139.478 63.8119 139.216 63.8511 138.968 63.9414C138.721 64.0317 138.495 64.1712 138.303 64.3515C137.935 64.7536 137.707 65.2646 137.654 65.8075H141.57C141.573 65.5353 141.531 65.2644 141.446 65.0058C141.369 64.7752 141.246 64.5623 141.087 64.3791C140.926 64.2027 140.73 64.0629 140.511 63.969C140.266 63.8712 140.004 63.8242 139.741 63.8308V63.8262Z" fill="#21396E"/>
<path d="M144.238 72.5947V63.0151H144.994C145.072 63.0084 145.15 63.0319 145.212 63.0807C145.274 63.1295 145.314 63.2 145.326 63.2778L145.432 64.1256C145.724 63.756 146.081 63.4436 146.487 63.2041C146.901 62.9745 147.368 62.8585 147.842 62.8677C148.229 62.8617 148.613 62.9419 148.966 63.1027C149.304 63.263 149.598 63.5034 149.823 63.8031C150.075 64.148 150.259 64.5372 150.367 64.9504C150.499 65.465 150.563 65.9949 150.556 66.5263C150.561 67.0242 150.489 67.5199 150.344 67.9961C150.215 68.4255 150.007 68.8271 149.731 69.1803C149.461 69.5215 149.116 69.7956 148.723 69.981C148.329 70.1665 147.898 70.2583 147.464 70.2493C147.082 70.2639 146.701 70.1947 146.349 70.0466C146.031 69.9006 145.748 69.6886 145.519 69.4245V72.5901L144.238 72.5947ZM147.431 63.9044C147.054 63.8964 146.682 63.9954 146.358 64.1901C146.025 64.3989 145.736 64.6695 145.505 64.9873V68.4477C145.692 68.7354 145.951 68.9689 146.256 69.125C146.547 69.253 146.861 69.3174 147.178 69.314C147.474 69.3309 147.769 69.2745 148.037 69.1499C148.306 69.0253 148.539 68.8363 148.717 68.5998C149.113 67.9989 149.302 67.2856 149.256 66.5677C149.263 66.1633 149.221 65.7596 149.132 65.3651C149.066 65.072 148.945 64.7938 148.777 64.5449C148.632 64.3407 148.432 64.1811 148.201 64.0841C147.96 63.9693 147.698 63.908 147.431 63.9044Z" fill="#21396E"/>
<path d="M152.154 70.1806V63.0248H153.417V67.886C153.417 67.972 153.417 68.0688 153.417 68.1763C153.417 68.2822 153.394 68.3882 153.38 68.4988C153.414 68.4109 153.456 68.3261 153.504 68.2454L153.633 68.0334L153.799 67.8076L154.182 67.2824L154.739 66.5267C154.947 66.2502 155.154 65.9599 155.366 65.6696C155.864 64.9877 156.433 64.2197 157.075 63.3658C157.132 63.2864 157.198 63.2151 157.274 63.1538C157.345 63.0869 157.439 63.0491 157.536 63.0478H158.292V70.2037H157.034V65.3102C157.034 65.2227 157.034 65.1259 157.034 65.0153C157.034 64.9048 157.034 64.7988 157.071 64.6928C157.031 64.7811 156.986 64.8673 156.937 64.9508C156.896 65.0246 156.85 65.0983 156.808 65.1628L156.642 65.3886C156.541 65.5314 156.407 65.7111 156.241 65.9323L155.684 66.688L155.057 67.545L153.352 69.8489C153.297 69.9287 153.232 70.0014 153.159 70.0655C153.089 70.1311 152.997 70.1674 152.901 70.1668L152.154 70.1806Z" fill="#21396E"/>
<path d="M166.245 63.0151V70.171H164.982V66.8212H161.554V70.1664H160.287V63.0151H161.554V65.872H164.987V63.0151H166.245Z" fill="#21396E"/>
<path d="M172.788 70.1709C172.691 70.1777 172.593 70.1569 172.507 70.111C172.427 70.0552 172.371 69.9713 172.35 69.876L172.207 69.2033C172.017 69.3753 171.833 69.5289 171.655 69.6641C171.478 69.7968 171.288 69.9111 171.088 70.005C170.887 70.0983 170.677 70.1694 170.461 70.217C170.216 70.2689 169.965 70.2936 169.715 70.2907C169.449 70.2909 169.185 70.2521 168.931 70.1755C168.697 70.1019 168.479 69.9829 168.291 69.8253C168.107 69.6621 167.961 69.4609 167.862 69.2355C167.75 68.9673 167.695 68.6785 167.701 68.3877C167.703 68.0994 167.784 67.8173 167.936 67.5721C168.124 67.2793 168.384 67.0397 168.692 66.8764C169.125 66.6417 169.591 66.4739 170.074 66.3787C170.751 66.2363 171.441 66.1622 172.134 66.1575V65.6C172.166 65.15 172.039 64.7029 171.774 64.3375C171.643 64.191 171.48 64.0763 171.298 64.002C171.116 63.9278 170.92 63.8959 170.724 63.9089C170.458 63.9024 170.192 63.943 169.94 64.0288C169.752 64.0982 169.57 64.1845 169.397 64.2868C169.245 64.3836 169.111 64.4711 169 64.5494C168.907 64.6219 168.792 64.6623 168.673 64.6646C168.595 64.6673 168.517 64.6447 168.452 64.6001C168.392 64.554 168.341 64.4979 168.3 64.4342L168.074 64.0288C168.443 63.6677 168.876 63.3786 169.351 63.1763C169.834 62.9831 170.351 62.8876 170.871 62.8952C171.236 62.8876 171.598 62.955 171.936 63.0934C172.236 63.2143 172.506 63.4018 172.723 63.6417C172.935 63.8922 173.092 64.1841 173.184 64.4987C173.295 64.8553 173.349 65.2268 173.346 65.6V70.1755L172.788 70.1709ZM170.088 69.4014C170.292 69.4025 170.496 69.3808 170.696 69.3369C170.882 69.2877 171.061 69.2166 171.231 69.1249C171.394 69.0397 171.549 68.9378 171.691 68.8208C171.846 68.6968 171.991 68.5612 172.124 68.4154V66.9317C171.629 66.9421 171.134 66.9883 170.645 67.0699C170.304 67.1257 169.97 67.2216 169.65 67.3556C169.431 67.4454 169.24 67.5897 169.093 67.7749C168.978 67.9293 168.916 68.1169 168.917 68.3094C168.914 68.4768 168.946 68.6431 169.01 68.7978C169.066 68.9286 169.153 69.044 169.263 69.1342C169.373 69.2223 169.5 69.2866 169.636 69.3231C169.782 69.3699 169.934 69.3963 170.088 69.4014Z" fill="#21396E"/>
<path d="M175.262 72.5947V63.0151H176.018C176.096 63.0095 176.174 63.0334 176.235 63.082C176.296 63.1306 176.337 63.2005 176.35 63.2778L176.456 64.1256C176.745 63.7551 177.101 63.4424 177.506 63.2041C177.92 62.9745 178.388 62.8585 178.861 62.8677C179.251 62.8717 179.635 62.9631 179.985 63.1349C180.324 63.2953 180.618 63.5357 180.842 63.8353C181.087 64.1803 181.265 64.5678 181.368 64.9781C181.5 65.4926 181.564 66.0226 181.557 66.5539C181.562 67.0518 181.49 67.5476 181.345 68.0238C181.215 68.4522 181.009 68.8534 180.736 69.208C180.471 69.5362 180.138 69.8034 179.76 69.9913C179.356 70.1856 178.913 70.2834 178.465 70.277C178.077 70.2871 177.691 70.2116 177.336 70.0558C177.018 69.9099 176.735 69.6978 176.506 69.4338V72.5993L175.262 72.5947ZM178.451 63.9044C178.073 63.8974 177.701 63.9963 177.377 64.1901C177.045 64.3989 176.755 64.6695 176.525 64.9873V68.4477C176.714 68.7286 176.973 68.9556 177.276 69.1066C177.566 69.2345 177.88 69.2989 178.197 69.2955C178.493 69.3124 178.788 69.2561 179.057 69.1315C179.325 69.0069 179.559 68.8179 179.736 68.5813C180.132 67.9805 180.321 67.2672 180.276 66.5493C180.282 66.1449 180.24 65.7412 180.151 65.3467C180.085 65.0536 179.965 64.7754 179.796 64.5265C179.651 64.3242 179.454 64.165 179.225 64.0657C178.981 63.9574 178.717 63.9024 178.451 63.9044Z" fill="#21396E"/>
<path d="M189.136 63.0151V70.171H187.869V66.8212H184.436V70.1664H183.174V63.0151H184.436V65.872H187.869V63.0151H189.136Z" fill="#21396E"/>
<path d="M192.33 63.0151V65.8213H193.855C194.276 65.8115 194.696 65.8706 195.099 65.9964C195.4 66.0901 195.679 66.2472 195.914 66.4571C196.119 66.6471 196.277 66.8821 196.375 67.1437C196.464 67.4018 196.509 67.6727 196.509 67.9454C196.511 68.2502 196.453 68.5523 196.338 68.8347C196.225 69.1028 196.054 69.3422 195.836 69.5351C195.596 69.7416 195.317 69.8982 195.016 69.9959C194.653 70.1125 194.273 70.1685 193.892 70.1618H191.127V63.0151H192.33ZM192.33 66.7382V69.2541H193.873C194.098 69.2587 194.322 69.226 194.537 69.1573C194.708 69.1041 194.866 69.0127 194.997 68.89C195.12 68.7784 195.215 68.6395 195.274 68.4846C195.335 68.3227 195.367 68.1509 195.366 67.9777C195.365 67.8209 195.338 67.6654 195.288 67.5169C195.236 67.3669 195.147 67.2323 195.03 67.1253C194.898 67.0034 194.74 66.9121 194.569 66.858C194.341 66.7845 194.103 66.7502 193.864 66.7566L192.33 66.7382ZM199.338 63.0151V70.171H198.08V63.0151H199.338Z" fill="#21396E"/>
<path d="M202.996 66.5075L200.587 63.0148H201.794C201.872 63.0089 201.951 63.0265 202.02 63.0655C202.072 63.1035 202.116 63.1522 202.149 63.2083L203.9 65.89C203.947 65.7517 204.008 65.6188 204.084 65.4938L205.623 63.236C205.659 63.1745 205.706 63.1199 205.761 63.0747C205.813 63.0358 205.876 63.0148 205.941 63.0148H207.102L204.692 66.4338L207.199 70.1707H205.992C205.903 70.1773 205.815 70.1492 205.747 70.0923C205.691 70.0402 205.642 69.9796 205.604 69.9126L203.803 67.1065C203.771 67.2364 203.72 67.3607 203.651 67.4751L201.987 69.9126L201.835 70.0923C201.805 70.1202 201.769 70.1415 201.731 70.155C201.692 70.1685 201.651 70.1738 201.61 70.1707H200.49L202.996 66.5075Z" fill="#21396E"/>
<path d="M216.318 63.3699C216.385 63.2666 216.475 63.1799 216.58 63.1165C216.683 63.0504 216.803 63.0152 216.926 63.0151H217.907L216.064 65.7429C215.966 65.9016 215.847 66.0459 215.709 66.1715C215.575 66.288 215.418 66.3758 215.249 66.4295C215.458 66.4811 215.653 66.5787 215.82 66.7152C215.986 66.8566 216.128 67.0248 216.239 67.2128L218.119 70.171H217.244C217.062 70.1809 216.881 70.1428 216.718 70.0604C216.59 69.9752 216.482 69.8637 216.401 69.7333L215.018 67.5077C214.919 67.3338 214.773 67.1906 214.597 67.0939C214.422 66.9972 214.223 66.9506 214.023 66.9594H213.253V70.1848H211.986V63.0151H213.253V66.1116H213.931C214.105 66.118 214.279 66.0789 214.434 65.9981C214.589 65.9173 214.721 65.7977 214.815 65.6508L216.318 63.3699Z" fill="#21396E"/>
<path d="M225.561 63.0151V70.171H224.303V64.0058H222.04C221.999 64.7947 221.915 65.5807 221.787 66.3604C221.694 66.9334 221.559 67.4987 221.382 68.0514C221.254 68.4488 221.076 68.8282 220.852 69.1803C220.686 69.4382 220.477 69.6658 220.234 69.8531C220.038 70.0073 219.812 70.1187 219.571 70.1802C219.347 70.235 219.119 70.2629 218.889 70.2632C218.492 70.2632 218.29 70.2033 218.29 70.0742V69.2771H218.658C218.825 69.2745 218.99 69.245 219.147 69.1895C219.321 69.1157 219.478 69.0058 219.608 68.867C219.794 68.6654 219.949 68.4371 220.068 68.1897C220.238 67.8277 220.371 67.4494 220.465 67.0608C220.602 66.5053 220.707 65.9421 220.778 65.3743C220.861 64.7108 220.93 63.9275 220.976 63.0151H225.561Z" fill="#21396E"/>
<path d="M227.551 70.1806V63.0248H228.828V67.886C228.828 67.9735 228.828 68.0703 228.828 68.1763C228.828 68.2822 228.805 68.3882 228.791 68.4988C228.825 68.4109 228.866 68.3261 228.915 68.2454C228.957 68.1717 229.003 68.0979 229.044 68.0334L229.205 67.8076C229.311 67.6694 229.445 67.4897 229.606 67.2639L230.159 66.5083C230.367 66.2318 230.579 65.9415 230.791 65.6512C231.288 64.9693 231.858 64.2013 232.5 63.3473C232.554 63.2667 232.621 63.1951 232.698 63.1354C232.768 63.0692 232.86 63.0314 232.956 63.0294H233.712V70.1853H232.459V65.3102C232.459 65.2227 232.459 65.1259 232.459 65.0153C232.459 64.9048 232.459 64.7988 232.491 64.6928C232.452 64.7811 232.409 64.8672 232.362 64.9508L232.233 65.1628C232.172 65.2351 232.115 65.3105 232.062 65.3886C231.966 65.5314 231.832 65.7111 231.666 65.9323L231.108 66.688L230.477 67.545C229.98 68.227 229.413 68.9949 228.777 69.8489C228.722 69.9287 228.657 70.0014 228.583 70.0655C228.513 70.1303 228.421 70.1665 228.325 70.1668L227.551 70.1806Z" fill="#21396E"/>
<path d="M241.646 63.0151V70.171H240.379V66.8212H236.947V70.1664H235.684V63.0151H236.947V65.872H240.379V63.0151H241.646Z" fill="#21396E"/>
<path d="M243.637 70.1806V63.0248H244.904V67.886C244.904 67.972 244.904 68.0688 244.904 68.1763C244.904 68.2822 244.881 68.3882 244.867 68.4988C244.901 68.4109 244.943 68.3261 244.992 68.2454C245.033 68.1717 245.079 68.0979 245.121 68.0334L245.282 67.8076C245.388 67.6694 245.522 67.4897 245.683 67.2639L246.236 66.5083C246.443 66.2318 246.655 65.9415 246.867 65.6512C247.365 64.9693 247.935 64.2013 248.577 63.3473C248.631 63.2667 248.698 63.1951 248.775 63.1354C248.845 63.0692 248.937 63.0314 249.033 63.0294H249.788V70.1853H248.535V65.3102C248.535 65.2227 248.535 65.1259 248.535 65.0153C248.535 64.9048 248.535 64.7988 248.567 64.6928C248.529 64.7811 248.486 64.8672 248.438 64.9508L248.309 65.1628C248.249 65.2346 248.194 65.31 248.143 65.3886C248.042 65.5314 247.908 65.7111 247.743 65.9323L247.185 66.688L246.554 67.545C246.056 68.227 245.489 68.9949 244.853 69.8489C244.798 69.9287 244.733 70.0014 244.66 70.0655C244.59 70.1303 244.498 70.1665 244.402 70.1668L243.637 70.1806Z" fill="#21396E"/>
<path d="M256.115 63.3699C256.179 63.2658 256.268 63.1789 256.373 63.1165C256.478 63.0498 256.599 63.0146 256.723 63.0151H257.705L255.861 65.7429C255.764 65.9004 255.646 66.0445 255.511 66.1715C255.376 66.2863 255.219 66.3739 255.05 66.4295C255.259 66.4821 255.454 66.5796 255.622 66.7152C255.788 66.8553 255.929 67.0238 256.037 67.2128L257.917 70.171H257.041C256.861 70.1816 256.681 70.1434 256.52 70.0604C256.39 69.9777 256.281 69.8657 256.202 69.7333L254.82 67.5077C254.719 67.3338 254.573 67.1907 254.397 67.0941C254.22 66.9974 254.021 66.9508 253.82 66.9594H253.051V70.1848H251.788V63.0151H253.051V66.1116H253.71C253.884 66.118 254.058 66.0789 254.213 65.9981C254.368 65.9174 254.499 65.7977 254.594 65.6508L256.115 63.3699Z" fill="#21396E"/>
<path d="M49.5486 40.6168C49.4611 44.3675 47.2033 47.0676 43.5263 47.8095C41.5394 48.2287 39.4696 47.9758 37.6421 47.0907C36.386 46.4607 35.065 45.9693 33.7025 45.6254C30.882 44.9801 27.923 45.3865 25.3809 46.7681C24.389 47.3529 23.3226 47.8009 22.2107 48.0998C19.211 48.7495 16.7275 47.6851 14.7369 45.4273C13.0228 43.4828 12.7463 41.1282 12.8477 38.6677C12.9906 35.1151 15.0272 32.7236 17.7919 30.9036C20.4405 29.2146 22.5434 26.7949 23.8465 23.9366C24.7404 21.9599 26.0628 20.3241 28.058 19.3795C30.6982 18.1262 33.3523 18.0755 35.8451 19.7482C37.2597 20.702 38.1905 22.1212 38.9553 23.6233C39.6649 25.0056 40.31 26.4248 41.0196 27.8072C42.0656 29.853 43.7428 31.3413 45.4707 32.7835C47.1987 34.2258 48.6271 35.8708 49.157 38.1286C49.3413 38.9441 49.4196 39.7874 49.5486 40.6168Z" fill="#FF57AA"/>
<path d="M46.4107 8.18277C46.3949 9.58966 46.0893 10.9782 45.5129 12.2617C44.9366 13.5452 44.1018 14.6962 43.0609 15.6427C39.7755 18.7253 35.5364 17.7116 33.9098 13.514C32.486 9.82774 33.5735 4.82831 36.4625 2.12355C37.6651 0.907312 39.2605 0.157764 40.9643 0.00858278C41.7033 -0.0387404 42.4416 0.110242 43.1044 0.440413C43.7671 0.770585 44.3308 1.2702 44.7381 1.88855C45.8624 3.41372 46.4614 5.4734 46.4107 8.18277Z" fill="#FF57AA"/>
<path d="M29.1822 9.59744C29.2177 11.4652 28.6824 13.2994 27.6478 14.8549C25.754 17.5735 22.3996 17.9006 19.8146 15.6797C18.1309 14.2009 17.0216 12.1764 16.6813 9.96145C16.2805 7.61149 16.4095 5.32143 17.6536 3.19725C18.5383 1.6859 19.7547 0.626111 21.561 0.381899C22.2548 0.300017 22.9581 0.360776 23.6276 0.560449C24.2972 0.760122 24.9189 1.0945 25.4545 1.54306C27.6156 3.18342 28.6385 5.45505 29.0256 8.06766C29.1039 8.57451 29.1315 9.09058 29.1822 9.59744Z" fill="#FF57AA"/>
<path d="M57.6767 19.1946C57.6767 22.0515 55.7967 26.1063 51.9216 27.5255C51.2991 27.7788 50.6306 27.8996 49.9588 27.8803C49.287 27.8609 48.6266 27.7018 48.0197 27.4131C47.4128 27.1244 46.8727 26.7124 46.4338 26.2034C45.9949 25.6944 45.6669 25.0995 45.4707 24.4567C43.987 20.13 46.853 14.6468 51.2535 13.3981C54.4789 12.5042 57.1975 14.3703 57.52 17.6925C57.5799 18.2086 57.6306 18.7016 57.6767 19.1946Z" fill="#FF57AA"/>
<path d="M17.755 21.8399C17.8351 23.3991 17.314 24.9296 16.299 26.1159C14.8061 27.959 12.3824 28.383 10.1937 27.208C7.66861 25.8256 6.3554 23.6416 5.71953 20.9276C5.29821 19.2404 5.50284 17.4576 6.2955 15.9097C6.79327 14.8084 7.70074 13.9444 8.82521 13.5013C9.94969 13.0583 11.2026 13.071 12.3179 13.5367C15.0134 14.5597 16.4648 16.6792 17.2942 19.3149C17.5446 20.136 17.6993 20.9833 17.755 21.8399Z" fill="#FF57AA"/>
<path d="M2.03325 37.6903C2.34794 36.9806 2.59629 36.2433 2.7751 35.4878C2.89029 35.0777 2.87647 34.6261 3.04696 34.1055C3.31154 34.4326 3.54887 34.7809 3.75655 35.1468C4.23668 36.2862 4.44947 37.5204 4.3786 38.7547C4.34635 40.842 4.18968 42.934 4.04684 45.0213C3.99009 45.3356 3.84643 45.6277 3.63214 45.8645C3.36302 46.2396 3.18185 46.6704 3.10208 47.1251C3.02231 47.5798 3.04599 48.0466 3.17137 48.4909C3.82572 51.8029 5.31858 54.8918 7.50728 57.4623C9.50244 59.7661 11.6543 61.9318 13.7692 64.1251C14.311 64.6242 14.8971 65.073 15.5202 65.466C11.1336 61.319 6.84376 57.0706 4.29105 51.3339C4.67801 51.5186 5.10975 51.5885 5.5352 51.5354C5.96064 51.4823 6.36197 51.3085 6.6917 51.0344C6.72856 50.9976 6.76543 50.9238 6.8115 50.8962C7.05846 50.6146 7.2302 50.2752 7.31076 49.9094C7.39132 49.5437 7.37808 49.1635 7.27228 48.8043C7.10179 47.8827 6.8115 47.0026 6.54886 46.1041C6.49817 45.9152 6.41984 45.7355 6.3323 45.4867C7.49806 45.8 8.1754 46.611 8.77902 47.4864C10.0415 49.3572 11.2396 51.274 12.4652 53.154C13.4882 54.693 14.5986 56.1951 16.1515 57.195C17.3136 57.8485 18.5155 58.4287 19.7501 58.9321C21.2508 59.5678 22.718 60.2799 24.1459 61.0655C26.9106 62.752 28.5141 65.3462 29.2513 68.4794C29.7375 70.8776 29.9538 73.3226 29.8964 75.7689C29.9287 76.9854 29.9287 76.9854 29.9287 76.9854H20.8928C20.8928 76.9854 20.8928 76.9854 20.2754 75.7689C19.3538 73.9627 18.4431 72.9271 17.073 72.0044C15.041 70.6543 12.9813 69.3457 10.9309 68.0233C9.14304 66.8667 7.35061 65.7194 5.91299 64.1067C5.17585 63.2128 4.62867 62.178 4.30488 61.0655C3.02392 57.2872 1.75064 53.5073 0.485036 49.7258C-0.132405 47.8827 -0.0678965 46.0027 0.171707 44.1135C0.374449 42.5147 0.591015 40.9158 0.798364 39.3123C0.84905 38.9344 0.904344 38.6165 1.35591 38.4322C1.66587 38.2797 1.90752 38.0167 2.03325 37.6949C2.03325 37.6949 2.03325 37.6995 2.03325 37.6903Z" fill="#21396E"/>
<path d="M61.1418 37.7316C61.3609 38.0329 61.6251 38.2987 61.9251 38.5196C62.0364 38.5682 62.133 38.6454 62.205 38.7433C62.277 38.8412 62.3219 38.9563 62.3352 39.0771C62.5702 40.8972 62.7453 42.7265 63.0494 44.5327C63.5424 47.408 62.69 50.062 61.8099 52.7069C60.7778 55.7941 59.6489 58.8536 58.5845 61.9224C57.944 63.7379 56.64 65.0373 55.1194 66.0694C53.069 67.4886 50.9356 68.788 48.8436 70.1473C48.0741 70.6495 47.3277 71.1794 46.5398 71.6771C45.6715 72.2321 44.9263 72.9592 44.3502 73.8136C43.774 74.6679 43.3483 76.6028 43.3143 76.9576C43.0839 76.9576 42.2683 76.999 42.2683 76.999H33.2279C33.2279 76.999 33.2556 77.1281 33.3754 72.5848C33.4583 69.6036 34.0297 66.7145 35.7622 64.1756C37.1021 62.2916 38.9423 60.82 41.0749 59.9273C42.1255 59.4665 43.1853 59.0057 44.2773 58.6187C46.5321 57.8415 48.4729 56.352 49.8067 54.3749C51.189 52.389 52.4792 50.3339 53.8246 48.3203C54.1863 47.7433 54.5996 47.2005 55.0595 46.6984C55.5651 46.2358 56.0974 45.8035 56.6538 45.4036L56.8289 45.551C56.6584 46.0118 56.4695 46.5094 56.3267 46.9979C56.0318 47.9793 55.6724 48.9654 55.9673 50.0113C56.0238 50.3176 56.1482 50.6073 56.3313 50.8592L56.4465 50.9836C57.1376 51.6655 57.8288 51.7439 58.93 51.3338C56.0917 57.3239 51.7373 61.8717 46.8946 66.0786C47.8484 65.3276 48.8713 64.6456 49.7422 63.807C52.1751 61.4617 54.6033 59.0886 56.5755 56.3286C58.2544 54.0188 59.4186 51.3761 59.9898 48.5783C60.1972 47.5231 60.1649 46.4956 59.2987 45.6616C59.153 45.4525 59.0787 45.2021 59.0867 44.9474C58.8932 42.4776 58.5706 40.0033 58.8655 37.5197C58.9786 36.6886 59.1731 35.8706 59.4461 35.0776C59.621 34.7384 59.8463 34.4277 60.1142 34.156C60.3631 35.2342 60.575 36.2249 60.8238 37.211" fill="#21396E"/>
<path d="M56.4188 50.7713C55.5756 48.9282 56.382 47.3984 56.9994 45.7028C57.0412 45.6282 57.0994 45.5641 57.1697 45.5154C57.2399 45.4667 57.3204 45.4346 57.4049 45.4217C58.4693 45.3341 59.7088 45.8825 59.7595 47.3155C59.7828 48.5109 59.5486 49.6974 59.0729 50.7943C58.9186 51.0795 58.6643 51.2975 58.3589 51.4064C58.0535 51.5153 57.7186 51.5074 57.4187 51.3841" fill="#21396E"/>
<path d="M6.61797 50.8775C6.51288 50.9588 6.40024 51.0298 6.2816 51.0895C5.90543 51.2984 5.48159 51.4063 5.05133 51.4028C4.85196 51.3767 4.66119 51.3054 4.49351 51.1944C4.32584 51.0834 4.18568 50.9356 4.0837 50.7623C3.55881 49.6469 3.32424 48.417 3.40175 47.1867C3.51694 45.7629 4.47075 45.3067 5.3923 45.4219C5.49971 45.4139 5.60743 45.4329 5.70562 45.4771C5.80381 45.5214 5.88936 45.5896 5.95445 45.6754C6.66795 46.8798 7.03768 48.2567 7.02345 49.6565C7.03263 50.098 6.88944 50.5292 6.61797 50.8775Z" fill="#21396E"/>
<path d="M4.28184 45.4084C4.39242 43.4455 4.5537 41.5056 4.58134 39.5658C4.57116 38.4484 4.46634 37.334 4.26802 36.2343C4.22388 35.7748 4.07975 35.3304 3.84574 34.9324C3.61172 34.5344 3.29348 34.1925 2.91333 33.9305C3.06222 33.6294 3.24296 33.3452 3.45244 33.0826C3.55506 32.993 3.67689 32.9282 3.80853 32.8932C3.94016 32.8582 4.07809 32.8538 4.21167 32.8806C4.34524 32.9073 4.47089 32.9643 4.57893 33.0473C4.68697 33.1303 4.7745 33.2369 4.83477 33.3591C5.22367 34.12 5.50586 34.931 5.67338 35.769C6.06965 38.1973 5.79319 40.6394 5.63192 43.0723C5.59966 43.533 5.49829 44.0215 5.48447 44.4961C5.48447 44.8831 5.37388 45.1089 4.93614 45.155C4.70774 45.21 4.48769 45.2952 4.28184 45.4084Z" fill="#21396E"/>
<path d="M60.1834 33.9444C59.119 34.7231 58.8794 35.8613 58.7227 37.0086C58.3541 39.7456 58.5799 42.4688 58.9208 45.1874C58.9254 45.261 58.9254 45.3349 58.9208 45.4086C58.5873 45.3305 58.2607 45.2258 57.944 45.0952C57.8654 45.0438 57.7987 44.976 57.7486 44.8965C57.6985 44.817 57.6662 44.7276 57.6537 44.6344C57.5293 43.4825 57.3634 42.3306 57.345 41.1832C57.3127 39.4046 57.345 37.6214 57.4417 35.852C57.5434 35.0934 57.7577 34.3541 58.0776 33.6587C58.1387 33.424 58.2789 33.2175 58.4744 33.074C58.67 32.9305 58.909 32.8587 59.1512 32.8708C59.7042 32.8939 59.8793 33.2901 60.0728 33.691C60.1142 33.7693 60.1465 33.8338 60.1834 33.9444Z" fill="#21396E"/>
<path d="M57.4186 45.012L56.2344 45.2792C56.1515 42.9754 56.0225 40.7268 56.0087 38.469C56.0491 37.3519 56.1537 36.238 56.322 35.1329C56.3351 34.9132 56.421 34.704 56.5662 34.5385C56.6519 34.4615 56.7546 34.4058 56.8659 34.3762C56.9773 34.3465 57.0941 34.3438 57.2067 34.3681C57.3541 34.4187 57.4279 34.7275 57.3864 34.8841C56.9579 36.4922 57.0408 38.1096 57.1053 39.7637C57.1837 41.5009 57.3173 43.238 57.4186 45.012Z" fill="#21396E"/>
<path d="M6.7793 45.2516L5.7149 45.012C5.81167 43.4362 5.92686 41.8695 6.00059 40.2983C6.08813 38.4552 6.20333 36.6121 5.73334 34.815C5.70108 34.6814 5.73334 34.4003 5.90843 34.3543C6.03133 34.3301 6.15844 34.3392 6.27668 34.3805C6.39491 34.4218 6.50001 34.4939 6.58116 34.5893C6.81168 35.1467 6.96665 35.7325 7.04194 36.331C7.25132 39.2141 7.17879 42.1108 6.82538 44.9798C6.816 45.0713 6.80061 45.1621 6.7793 45.2516Z" fill="#21396E"/>
<path d="M7.76076 45.814C6.94979 45.8508 7.00047 45.2149 7.04194 44.5514C7.17557 42.3581 7.21704 40.1556 7.29998 37.9577C7.28916 37.8476 7.30012 37.7364 7.33223 37.6306C7.38753 37.5108 7.48429 37.3449 7.58566 37.3311C7.65268 37.3372 7.71705 37.3603 7.77267 37.3982C7.8283 37.4361 7.87335 37.4875 7.9036 37.5476C8.0312 37.8391 8.10459 38.1514 8.12016 38.4692C8.06026 40.856 7.97732 43.2382 7.89438 45.6204C7.89438 45.7034 7.8483 45.8094 7.76076 45.814Z" fill="#21396E"/>
<path d="M55.3037 45.9706C55.2438 45.3209 55.1516 44.7219 55.1332 44.1275C55.0733 42.3443 55.0364 40.5564 55.0134 38.7732C55.0094 38.4252 55.0591 38.0786 55.1609 37.7457C55.2162 37.5752 55.3774 37.2849 55.5756 37.3172C55.7737 37.3494 55.8244 37.6443 55.829 37.8102C55.8566 38.6166 55.829 39.4321 55.829 40.2385C55.9073 41.8696 56.0225 43.5054 56.1101 45.1366C56.1014 45.286 56.0354 45.4263 55.9257 45.5282C55.73 45.6914 55.5221 45.8393 55.3037 45.9706Z" fill="#21396E"/>
<path d="M60.9713 37.2614C60.6932 36.3839 60.5381 35.4721 60.5105 34.5521C60.5105 34.3908 60.5105 34.5521 60.5105 34.3585C60.5381 33.7687 61.0726 33.7641 61.2523 34.5382C61.5472 35.5197 61.8007 36.5104 62.0541 37.501C62.1278 37.7775 62.2937 38.0816 62.2015 38.3535C62.2015 38.4042 62.0817 38.6023 61.7961 38.3535" fill="#21396E"/>
<path d="M1.88126 37.7915C1.64166 38.1141 1.48499 38.432 1.10255 38.4689C1.03804 38.4689 0.932061 38.4412 0.936669 38.3813C1.02679 37.5362 1.2028 36.7025 1.46196 35.8931C1.595 35.3796 1.77229 34.8785 1.99185 34.3956C2.03239 34.2857 2.09809 34.1867 2.1837 34.1067C2.26931 34.0267 2.37245 33.9678 2.48488 33.9348C2.56782 33.9348 2.70145 33.9625 2.71527 34.0454C2.83968 34.6444 2.554 35.5475 2.42037 36.2848C2.33096 36.7557 2.17585 37.2117 1.95959 37.6395C1.93608 37.6914 1.90994 37.7422 1.88126 37.7915Z" fill="#21396E"/>
</svg>
